<?xml version="1.0" encoding="utf-8"?>
<!-- Generator: Adobe Illustrator 24.1.0, SVG Export Plug-In . SVG Version: 6.00 Build 0)  -->
<svg version="1.1" id="Layer_1" xmlns="http://www.w3.org/2000/svg" xmlns:xlink="http://www.w3.org/1999/xlink" x="0px" y="0px"
	 viewBox="0 0 340 340" style="enable-background:new 0 0 340 340;" xml:space="preserve">
<style type="text/css">
                .st0{fill:#e32924;}
                .st1{fill:#FFFFFF;}
    svg:hover {  cursor:pointer;}
                svg:hover .st0 {  fill:#830065;}
</style>
<path class="st0" d="M239.7,273.2c-0.5-0.1-1-0.2-1.5-0.2c-0.8,0-1.6,0.2-2.4,0.4c-1-0.9-2.2-1.6-3.4-1.9c-0.7-0.2-1.3-0.2-2-0.2
	c0,0,0,0,0,0c-4,0-7.5,2.8-8.5,7.1c-1.4,5.6,4.2,12.5,6.6,15.2c0.6,0.7,1.4,1.1,2.3,1.4c0.3,0.1,0.5,0.1,0.8,0.1
	c2.3,0,6.8-2.7,8.1-3.5c3.7-2.4,5.8-4.8,6.3-7.5C247.2,278.9,244.4,274.3,239.7,273.2z M243.2,283.3c-0.4,1.9-2,3.7-5,5.6
	c-0.1,0-5,3-6.5,3c-0.1,0-0.1,0-0.2,0c-0.3-0.1-0.6-0.2-0.8-0.5c-1.2-1.3-7-8-5.9-12.4c0.7-3,3-4.8,5.6-4.8c0.4,0,0.9,0,1.3,0.2
	c1.3,0.3,2.4,1.4,3.2,2.6c1-0.6,2.1-1.1,3.2-1.1c0.3,0,0.5,0,0.8,0.1C242.2,276.8,244,279.9,243.2,283.3z M105.9,52.7
	c0.2,0.1,0.5,0.1,0.8,0.1c0.3,0,0.7-0.1,1-0.2c1.7-0.6,3.6-4.6,4.2-5.9c1.4-3,1.7-5.4,0.9-7.3c-1-2.7-3.4-4.4-6.1-4.4
	c-0.7,0-1.5,0.1-2.2,0.4c-1.1,0.4-1.9,1.1-2.4,1.9c-0.4-0.1-0.9-0.2-1.4-0.2c-0.6,0-1.1,0.1-1.7,0.3c-3.3,1.2-4.9,4.8-3.7,8.4
	C96.8,50.1,103.8,52.2,105.9,52.7z M99.7,39.3c0.3-0.1,0.6-0.2,1-0.2c0.8,0,1.6,0.3,2.3,0.6c0.4-1,1.2-2.1,2.2-2.5
	c0.5-0.2,1-0.3,1.5-0.3c1.8,0,3.4,1.2,4.2,3.2c0.5,1.4,0.2,3.3-0.9,5.7c0,0-2.2,4.5-3,4.8c-0.1,0-0.2,0.1-0.3,0.1
	c-0.1,0-0.2,0-0.3,0c-0.8-0.2-8-2.2-9.2-5.6C96.4,42.6,97.4,40.2,99.7,39.3z M131.8,283.5c-0.3-0.1-0.7-0.1-1-0.1
	c-0.6,0-1.1,0.1-1.7,0.2c-0.8-0.5-1.6-0.9-2.5-1.1c-0.4-0.1-0.9-0.1-1.3-0.1c0,0,0,0,0,0c-3.6,0-6.7,2.7-7.4,6.5
	c-0.9,4.7,3.7,9.8,5.7,11.8c0.7,0.6,1.5,1.1,2.4,1.2c0.2,0,0.4,0.1,0.7,0.1c2,0,5-1.9,6.6-3.1c2.9-2,4.4-4.2,4.8-6.5
	C138.5,288.1,135.9,284.3,131.8,283.5z M134.9,292c-0.2,1.5-1.4,3-3.5,4.5c0,0-3.6,2.5-4.9,2.5c0,0-0.1,0-0.1,0
	c-0.3-0.1-0.6-0.2-0.8-0.4c-0.9-0.9-5.5-5.7-4.9-9.1c0.5-2.4,2.3-4,4.5-4c0.3,0,0.5,0,0.8,0.1c1,0.2,1.8,0.9,2.4,1.6
	c0.7-0.4,1.5-0.7,2.3-0.7c0.2,0,0.3,0,0.5,0C133.8,286.9,135.3,289.3,134.9,292z M56.8,204.9c-0.5-0.1-0.9-0.2-1.4-0.2
	c-0.5,0-1.1,0.1-1.6,0.2c-0.8-0.7-1.7-1.1-2.7-1.4c-0.6-0.1-1.2-0.2-1.8-0.2c0,0,0,0,0,0c-3.6,0-6.7,2.5-7.7,6.3
	c-1.2,4.9,3.4,10.7,5.5,12.9c0.6,0.7,1.4,1.1,2.3,1.4c0.3,0.1,0.6,0.1,0.9,0.1c2,0,5.2-1.8,7-2.9c3.2-2,4.9-4.2,5.4-6.6
	C63.6,210.1,61,205.9,56.8,204.9z M59.7,214c-0.3,1.6-1.7,3.1-4.1,4.6c0,0-4,2.5-5.4,2.5c-0.1,0-0.1,0-0.2,0
	c-0.3-0.1-0.6-0.2-0.8-0.4c-1-1.1-5.7-6.5-4.8-10.1c0.6-2.5,2.5-4.1,4.8-4.1c0.4,0,0.7,0,1.1,0.1c1.1,0.2,1.9,1.1,2.6,2
	c0.7-0.4,1.6-0.7,2.4-0.7c0.2,0,0.5,0,0.7,0.1C58.8,208.5,60.3,211,59.7,214z M23.6,215.8c-1.2,0-2.4,0.4-3.3,1.1
	c-0.6,0.5-1.2,1.2-1.5,2c-0.9,0.1-1.7,0.4-2.3,0.9c-2.6,1.9-3,5.4-1.1,8.2c1.9,2.6,6.3,3.2,9.6,3.2c0.3,0,0.6,0,0.7,0
	c0.6,0,1.2-0.2,1.7-0.6c1.4-1,1.9-4.7,2.1-5.9c0.4-2.8,0-4.9-1.1-6.4C27.2,216.8,25.5,215.8,23.6,215.8z M27.5,224.4
	c0,0-0.7,4.1-1.3,4.6c-0.2,0.1-0.4,0.2-0.6,0.2c-0.2,0-0.4,0-0.7,0c-1.9,0-6.5-0.2-8-2.3c-1.3-1.9-1.1-4.2,0.6-5.4
	c0.5-0.4,1.2-0.5,1.9-0.5c0.3,0,0.5,0,0.8,0.1c0.1-0.9,0.5-1.9,1.2-2.4c0.7-0.5,1.4-0.7,2.2-0.7c1.2,0,2.4,0.6,3.2,1.7
	C27.6,220.6,27.9,222.1,27.5,224.4z M101,243.2c-1.3,0-2.5,0.3-3.7,0.8c-1.2,0.6-2.3,1.5-3.1,2.8c-0.4-0.1-0.8-0.1-1.2-0.1
	c-1.1,0-2.1,0.2-3,0.6c-4.6,2.1-6.5,7.4-4.4,12.3c2.5,5.8,12.4,8,15.4,8.5c0.3,0,0.5,0.1,0.8,0.1c0.6,0,1.3-0.1,1.8-0.4
	c1.3-0.6,2.3-1.9,3.8-5.1c0.8-1.7,1.5-3.4,1.5-3.5c1.6-4.3,1.8-7.7,0.5-10.3C107.7,245.4,104.5,243.2,101,243.2z M106.1,258.1
	c0,0.1-2.5,6.4-3.7,6.9c-0.2,0.1-0.4,0.1-0.6,0.1c-0.1,0-0.2,0-0.3,0c-1.1-0.2-11.2-2.2-13.2-6.8c-1.5-3.5-0.3-7,2.9-8.4
	c0.5-0.2,1.1-0.3,1.7-0.3c0.9,0,1.9,0.2,2.8,0.6c0.5-1.4,1.5-2.9,2.8-3.5c0.8-0.4,1.6-0.5,2.5-0.5c2.3,0,4.6,1.4,5.7,4
	C107.6,252,107.4,254.6,106.1,258.1z M276.5,241.6c-0.7-0.4-1.5-0.7-2.4-0.7c-0.4-0.8-1-1.4-1.7-1.8c-0.9-0.6-1.9-0.9-3-0.9
	c-2,0-3.9,1.1-5,2.9c-2.1,3.2-0.1,8.6,0.9,10.8c0.2,0.6,0.6,1,1.2,1.3c0.5,0.3,1,0.4,1.8,0.4c1.7,0,4.5-0.6,4.5-0.6
	c2.8-0.7,4.5-1.8,5.5-3.3C280,246.8,279.2,243.3,276.5,241.6z M276.5,248.7c-0.6,1.1-2,1.9-4.3,2.4c0,0-2.7,0.6-4,0.6
	c-0.3,0-0.6,0-0.7-0.1c-0.2-0.1-0.3-0.3-0.4-0.4c-0.5-1-2.7-6.4-1-8.9c0.8-1.3,2.1-2,3.4-2c0.7,0,1.3,0.2,1.9,0.6
	c0.7,0.5,1.2,1.4,1.4,2.3c0.4-0.1,0.7-0.1,1.1-0.1c0.6,0,1.1,0.1,1.5,0.4C277.2,244.5,277.7,246.7,276.5,248.7z M314,147.1
	c1.4-4-0.5-8.1-4.3-9.4c-0.6-0.2-1.3-0.3-2-0.3c-0.1,0-0.3,0-0.4,0c-0.6-0.6-1.3-1-2.1-1.3c-0.8-0.3-1.6-0.4-2.5-0.4
	c-3,0-5.7,2-6.9,5c-1.6,4.2,1.8,9.6,3.3,11.8c0.5,0.7,1.3,1.3,2.1,1.6c0.4,0.2,0.9,0.2,1.4,0.2c2.2,0,5.9-1.8,5.9-1.8
	C311.5,150.9,313.3,149.2,314,147.1z M302.6,151.2c-0.1,0-0.3,0-0.4-0.1c-0.3-0.1-0.5-0.3-0.7-0.5c-0.7-1-4.1-5.9-2.9-9
	c0.7-1.9,2.3-3,4.1-3c0.5,0,1,0.1,1.4,0.3c0.8,0.3,1.5,1,1.9,1.8c0.5-0.2,1-0.3,1.6-0.3c0.3,0,0.7,0.1,1,0.2
	c2.3,0.8,3.3,3.2,2.5,5.7c-0.4,1.3-1.7,2.5-3.9,3.5C307.2,149.7,304,151.2,302.6,151.2z M316.1,285.1c-0.5-0.2-1-0.3-1.6-0.3
	c-0.1,0-0.2,0-0.3,0c-0.5-0.5-1-0.9-1.6-1.1c-0.6-0.3-1.3-0.4-1.9-0.4h0c-2.1,0-3.9,1.3-4.8,3.4c-1.3,3,1.1,7.1,2.2,8.8
	c0.3,0.5,0.8,0.9,1.4,1.1c0.3,0.1,0.7,0.2,1,0.2c1.5,0,4.3-1.2,4.3-1.2c2.2-1,3.5-2.2,4.1-3.7C319.9,289.1,318.7,286.2,316.1,285.1z
	 M317,291.2c-0.4,1-1.4,1.8-3.1,2.5c0,0-2.5,1-3.5,1c-0.1,0-0.2,0-0.3,0c-0.2-0.1-0.3-0.2-0.5-0.4c-0.5-0.8-2.9-4.7-2-6.9
	c0.6-1.4,1.7-2.1,3-2.1c0.4,0,0.8,0.1,1.2,0.2c0.6,0.3,1.1,0.9,1.4,1.5c0.4-0.1,0.8-0.2,1.2-0.2c0.3,0,0.6,0,0.8,0.2
	C317,287.6,317.7,289.4,317,291.2z M325.3,28.7c1.7-2.5,1.3-5.6-1-7.3c-0.5-0.4-1.1-0.6-1.8-0.7c-0.3-0.6-0.7-1.1-1.3-1.5
	c-0.9-0.6-1.9-1-3-1c-1.7,0-3.2,0.8-4.3,2.2c-2,2.6-0.7,7.2,0,9c0.2,0.6,0.6,1.1,1.1,1.4c0.5,0.4,1.2,0.6,2.3,0.6c1.3,0,3-0.3,3-0.3
	C322.8,30.8,324.4,30,325.3,28.7z M323.7,27.6c-0.6,0.9-1.8,1.4-3.6,1.7c0,0-1.6,0.2-2.7,0.2c-0.5,0-1,0-1.2-0.2
	c-0.2-0.1-0.3-0.3-0.4-0.5c-0.3-0.9-1.7-5.2-0.3-7.2c0.7-0.9,1.7-1.4,2.7-1.4c0.6,0,1.2,0.2,1.8,0.6c0.6,0.4,0.9,1.1,1,1.8
	c0.1,0,0.3,0,0.5,0c0.6,0,1.1,0.1,1.6,0.4C324.5,24.1,324.8,26,323.7,27.6z M333.3,130.3c-0.5-0.5-1.2-0.8-1.9-1.1
	c-0.3-0.7-0.7-1.4-1.2-1.9c-1-0.9-2.3-1.4-3.6-1.4c0,0,0,0,0,0c-1.5,0-3,0.7-4.2,1.9c-2.5,2.5-1.6,7.7-1.2,9.9
	c0.1,0.6,0.4,1.1,0.9,1.5c0.5,0.5,1.4,1,5.1,1c0.4,0,0.7,0,0.7,0c2.6-0.1,4.4-0.8,5.6-2.1C335.6,135.7,335.5,132.3,333.3,130.3z
	 M332,136.8c-0.8,0.9-2.1,1.3-4.2,1.4c0,0-0.2,0-0.6,0c-1.1,0-3.3-0.1-3.7-0.5c-0.1-0.1-0.3-0.3-0.3-0.5c-0.2-1-1.2-6.1,0.7-8
	c0.8-0.8,1.8-1.2,2.7-1.2c0.8,0,1.6,0.3,2.3,0.9c0.6,0.5,0.8,1.4,0.9,2.2c0,0,0,0,0.1,0c0.8,0,1.6,0.2,2.2,0.7
	C333.4,133.1,333.4,135.2,332,136.8z M205,62.4c0.7,0.6,1.5,1,2.4,1.1c0.1,0,0.3,0,0.5,0c1.9,0,4.5-1.7,6.3-3.1
	c2.6-2,3.9-4.1,4.2-6.3c0.5-4.2-2.2-7.8-6.2-8.3c-0.2,0-0.5,0-0.8,0c-0.6,0-1.1,0.1-1.7,0.2c-0.7-0.4-1.5-0.7-2.3-0.8
	c-0.3,0-0.6-0.1-1-0.1c0,0,0,0,0,0c-3.6,0-6.6,2.7-7.2,6.5C198.5,56.1,203,60.7,205,62.4z M202.2,52.1c0.4-2.4,2.1-3.9,4.2-3.9
	c0.2,0,0.4,0,0.6,0c0.9,0.1,1.7,0.7,2.2,1.3c0.6-0.4,1.4-0.7,2.2-0.7c0.1,0,0.2,0,0.4,0c2.4,0.3,3.9,2.4,3.6,5
	c-0.2,1.4-1.2,2.8-3.1,4.3c0,0-3.2,2.5-4.4,2.5c0,0-0.1,0-0.1,0c-0.3,0-0.6-0.2-0.8-0.4C206.1,59.4,201.7,55.3,202.2,52.1z
	 M281.1,126.6c0.9,0.7,2.1,1,4.1,1c2,0,4.2-0.3,4.2-0.3c3.7-0.5,6.2-1.7,7.7-3.7c2.8-3.7,2.2-8.5-1.3-11.2c-0.8-0.6-1.7-1-2.8-1.2
	c-0.5-1-1.1-1.8-1.9-2.4c-1.4-1.1-3-1.6-4.7-1.6c-2.4,0-4.8,1.2-6.4,3.2c-3.2,3.9-1.4,11.1-0.4,14
	C279.8,125.3,280.4,126,281.1,126.6z M282.3,112.3c1.1-1.4,2.6-2.1,4.1-2.1c1,0,2,0.3,2.9,1c0.9,0.7,1.3,1.8,1.5,2.9
	c0.2,0,0.4,0,0.6,0c0.9,0,1.8,0.2,2.6,0.8c2.2,1.7,2.5,4.7,0.7,7c-1,1.3-2.8,2.1-5.7,2.5c0,0-2.1,0.3-3.8,0.3c-1,0-1.9-0.1-2.2-0.3
	c-0.2-0.2-0.4-0.4-0.5-0.7C282,122.1,280,115.2,282.3,112.3z M259.4,93.4c0.7,0.4,1.4,0.6,2.2,0.6c0.1,0,0.3,0,0.4,0
	c2.2-0.2,4.9-3.1,6.3-4.8c2.2-2.7,3.2-5.1,2.9-7.5c-0.4-4.1-3.6-7.1-7.5-7.1c-0.2,0-0.5,0-0.7,0c-0.9,0.1-1.8,0.4-2.6,0.8
	c-0.7-0.3-1.5-0.4-2.2-0.4c0,0,0,0,0,0c-0.2,0-0.3,0-0.5,0c-4.2,0.4-7.1,4-6.8,8.4C251.2,88.3,256.9,92,259.4,93.4z M257.9,78.1
	c0.1,0,0.2,0,0.3,0c0.9,0,1.8,0.4,2.5,1c0.7-0.7,1.6-1.3,2.6-1.4c0.1,0,0.3,0,0.4,0c2.4,0,4.3,1.8,4.5,4.4c0.2,1.5-0.6,3.2-2.3,5.3
	c0,0-3.1,3.6-4.2,3.7c0,0-0.1,0-0.1,0c-0.3,0-0.5-0.1-0.7-0.2c-1.1-0.6-6.8-4-7-7.5C253.6,80.5,255.4,78.3,257.9,78.1z M180.8,91
	c0.7,0.4,1.5,0.6,2.3,0.6c0.1,0,0.2,0,0.3,0c0.8-0.1,2.3-0.2,6.3-4.7c0,0,0,0,0,0c2.3-2.7,3.2-5.1,3-7.5c-0.4-4.2-3.6-7.2-7.5-7.2
	c-0.2,0-0.4,0-0.6,0c-0.9,0.1-1.8,0.3-2.6,0.8c-0.7-0.3-1.5-0.4-2.3-0.4c-0.1,0-0.3,0-0.4,0c-4.2,0.3-7.2,3.9-7,8.3
	C172.6,85.7,178.4,89.6,180.8,91z M179.6,75.6c0.1,0,0.1,0,0.2,0c0.9,0,1.8,0.4,2.5,1c0.7-0.7,1.6-1.3,2.6-1.4c0.1,0,0.2,0,0.4,0
	c2.4,0,4.3,1.8,4.5,4.5c0.1,1.5-0.6,3.2-2.3,5.2c0,0-3.1,3.6-4.2,3.7c0,0-0.1,0-0.1,0c-0.3,0-0.5-0.1-0.8-0.2
	c-1.1-0.7-6.8-4.1-6.9-7.6C175.2,78,177,75.8,179.6,75.6z M126.8,18c0.5,0.3,1,0.4,1.5,0.4c0.1,0,0.2,0,0.2,0
	c1.7-0.1,3.9-2.7,4.6-3.6c1.7-2,2.5-3.8,2.3-5.5c-0.3-3-2.6-5.2-5.4-5.2c-0.1,0-0.3,0-0.4,0c-0.7,0.1-1.4,0.3-2.1,0.7
	c-0.6-0.3-1.2-0.4-1.9-0.4c-0.1,0-0.2,0-0.3,0c-3,0.2-5.2,2.8-5,6C120.5,14,124.9,16.9,126.8,18z M125.5,6.4c0.1,0,0.1,0,0.2,0
	c0.7,0,1.5,0.4,2,0.9c0.5-0.6,1.2-1.1,2.1-1.2c0.1,0,0.2,0,0.3,0c1.8,0,3.2,1.4,3.4,3.4c0.1,1.1-0.5,2.5-1.8,4c0,0-2.5,2.8-3.3,2.9
	c0,0-0.1,0-0.1,0c-0.2,0-0.3,0-0.5-0.1c-0.9-0.5-5.3-3.2-5.5-5.9C122.2,8.2,123.5,6.6,125.5,6.4z M76.5,90.1
	c0.4,0.1,0.9,0.2,1.3,0.2c0.5,0,0.9-0.1,1.4-0.2c1.3-0.4,2.4-1.6,4.2-4.5c1-1.6,1.7-3.1,1.8-3.2c1.9-3.9,2.5-7.1,1.5-9.7
	c-1.3-3.9-4.7-6.4-8.4-6.4c-0.9,0-1.8,0.1-2.7,0.4c-1.2,0.4-2.3,1.1-3.2,2.2c-0.6-0.1-1.2-0.2-1.8-0.2c-0.7,0-1.4,0.1-2.1,0.3
	c-4.7,1.5-7,6.4-5.5,11.4C64.6,86,73,89.1,76.5,90.1z M69.3,72c0.4-0.1,0.8-0.2,1.2-0.2c1,0,2.1,0.3,3,0.8c0.6-1.3,1.7-2.5,3-2.9
	c0.6-0.2,1.2-0.3,1.8-0.3c2.5,0,4.7,1.6,5.6,4.4c0.6,1.8,0.2,4.3-1.4,7.4c0,0.1-3,5.7-4.2,6.1c-0.2,0-0.3,0.1-0.5,0.1
	c-0.1,0-0.3,0-0.4-0.1c-1.7-0.5-10.2-3.3-11.6-7.7C64.7,76.2,66.2,73,69.3,72z M30.4,93.1c-1,4,3.4,9.2,4.7,10.7
	c0.4,0.5,0.9,0.8,1.5,0.9c0.2,0,0.4,0.1,0.6,0.1c1.8,0,5.7-2.5,5.7-2.5c2.6-1.6,4-3.4,4.4-5.3c0.7-3.5-1.2-6.7-4.5-7.5
	c-0.3-0.1-0.7-0.1-1-0.1c-0.6,0-1.2,0.1-1.8,0.3c-0.7-0.7-1.5-1.2-2.4-1.4c-0.5-0.1-0.9-0.2-1.4-0.2C33.5,88.2,31.1,90.2,30.4,93.1z
	 M32.3,93.6c0.5-2.1,2.1-3.4,4-3.4c0.3,0,0.6,0,0.9,0.1c1,0.2,1.8,1.1,2.3,1.9c0.7-0.4,1.5-0.8,2.3-0.8c0.2,0,0.4,0,0.6,0.1
	c2.2,0.5,3.5,2.7,3,5.1c-0.3,1.3-1.4,2.6-3.6,4c0,0-3.6,2.2-4.6,2.2c0,0-0.1,0-0.1,0c-0.2,0-0.4-0.2-0.5-0.3
	C36,101.9,31.5,96.8,32.3,93.6z M28.7,31.8c0.1,0,0.2,0,0.3,0c1.1-0.1,2.8-1.5,4.8-4c1.8-2.2,2.5-4.2,2.3-6
	c-0.4-3.2-2.7-5.4-5.7-5.4c-0.2,0-0.4,0-0.6,0c-0.8,0.1-1.6,0.4-2.3,0.9c-0.6-0.3-1.3-0.5-2-0.5c-0.1,0-0.3,0-0.4,0
	c-3.2,0.3-5.4,3.1-5.1,6.5c0.3,3.8,5.2,6.8,7.3,8C27.7,31.7,28.2,31.8,28.7,31.8z M22,23.3c-0.2-2.3,1.2-4.1,3.3-4.4
	c0.1,0,0.2,0,0.2,0c0.8,0,1.6,0.4,2.3,0.9c0.6-0.7,1.4-1.3,2.3-1.4c0.1,0,0.3,0,0.4,0c1.9,0,3.5,1.5,3.7,3.6
	c0.2,1.2-0.5,2.7-1.9,4.5c0,0-2.7,3.2-3.5,3.3c0,0-0.1,0-0.1,0c-0.2,0-0.3,0-0.5-0.1C27.3,29.2,22.2,26.3,22,23.3z M291.4,183.4
	c-0.5-0.1-1-0.2-1.5-0.2c-0.8,0-1.6,0.2-2.4,0.4c-1-0.9-2.2-1.6-3.4-1.9c-0.7-0.2-1.3-0.2-2-0.2c0,0,0,0,0,0c-0.2,0-0.3,0-0.5,0
	c0.2-0.8,0.4-1.7,0.6-2.5c0.6-3,1.1-6,1.4-9c1.6-0.6,3.4-1.6,4.5-2.4c3.2-2,4.9-4.2,5.4-6.6c0.9-4.5-1.6-8.7-5.8-9.7
	c-0.5-0.1-0.9-0.2-1.4-0.2c-0.5,0-1.1,0.1-1.6,0.2c-0.5-0.4-1-0.7-1.5-0.9c-1.2-8.1-3.7-15.8-7.6-22.6
	c-7.2-12.7-18.7-22.1-32.8-26.9c-1.5-1.5-3.5-2.4-5.8-2.4c-0.2,0-0.4,0-0.6,0c-0.5,0-1,0.1-1.5,0.3c-1.9-0.3-3.8-0.5-5.8-0.5
	c0.4-4.6-2.3-8.6-6.6-9.6c-0.5-0.1-1-0.2-1.5-0.2c-0.8,0-1.6,0.2-2.4,0.4c-1-0.9-2.2-1.6-3.4-1.9c-0.7-0.2-1.3-0.2-2-0.2
	c-4,0-7.5,2.8-8.5,7.1c-0.8,3,0.5,6.4,2.2,9.3c-8,3.3-15.7,8-22.1,13.1c-3.4-7-7.8-13.9-12.6-19.7c-7.6-9.1-15.9-15.2-24.2-17.7
	c0.1-4.2-2.6-7.9-6.7-8.8c-0.5-0.1-1-0.2-1.5-0.2c-0.8,0-1.6,0.2-2.4,0.4c-1-0.9-2.2-1.6-3.4-1.9c-0.7-0.2-1.3-0.2-2-0.2
	c-4,0-7.5,2.8-8.5,7.1c-0.2,0.6-0.2,1.3-0.2,1.9c-12.7,1.7-24.2,7.6-33.5,16.6c-3.1,0.8-5.3,3.4-5.9,6.7c-2.3,3-4.4,6.1-6.3,9.6
	c-1.3-1.1-3-1.8-4.9-1.8c-0.2,0-0.4,0-0.6,0c-0.9,0.1-1.8,0.3-2.6,0.8c-0.7-0.3-1.5-0.4-2.3-0.4c-0.1,0-0.3,0-0.4,0
	c-4.2,0.3-7.2,3.9-7,8.3c0.3,4.8,6,8.6,8.4,10.1c0.6,0.4,1.4,0.6,2.1,0.6c-0.2,0.8-0.4,1.6-0.6,2.4c-0.5,2.2-0.9,4.4-1.2,6.8
	c-1.6,1.2-2.8,3.1-3.4,5.3c-1,4,1.6,8.7,4,12c0.5,3.5,1.3,7.1,2.4,10.9c-0.1,0.6-0.1,1.2-0.1,1.9c0,0.7,0.2,1.3,0.4,1.9
	c-0.9,0.2-1.7,0.5-2.5,1c-1-0.4-2-0.7-2.9-0.7c0,0,0,0,0,0c-0.2,0-0.3,0-0.5,0c-4.6,0.3-7.9,4.3-7.7,9.2c0.3,5.4,7.1,10,10,11.7
	c0.7,0.4,1.5,0.6,2.3,0.6c0.1,0,0.2,0,0.3,0c0.6,0,2.5-0.2,7.1-5.5c0.2-0.3,0.4-0.5,0.6-0.8c4.2,9.6,9.8,20,16.6,31
	c-1.6,2.5-1.8,5.8-0.3,8.9c1.8,3.6,6.5,5.5,10.4,6.5c18.1,26.3,36.6,46.6,36.8,46.9c1.2,1.4,2.8,2.3,4.6,2.7c0.7,0.2,1.3,0.2,2,0.2
	c1.1,0,2.3-0.2,3.3-0.6c2.1-0.8,15.1-6.1,32.2-14.6c-0.5,1.6-0.5,3.4-0.1,5.3c1.5,6.4,11.3,10.5,14.3,11.7c0.5,0.2,1,0.3,1.6,0.3
	c0.4,0,0.7,0,1.1-0.1c1.2-0.3,2.3-1.1,4.7-4.5c1.1-1.6,2.2-3.2,2.3-3.4c2.4-4.2,3.2-7.6,2.5-10.5c-1.2-4.5-4.9-7.5-9.2-7.5
	c-0.1,0-0.2,0-0.3,0c1-0.6,2-1.1,3-1.7c0,0,0.1,0,0.1,0c0.7-0.2,1.3-0.5,2-1.1c2.5-1.4,5-2.9,7.5-4.4c2.4-1.4,4.7-2.9,7-4.3
	c2,2.7,5.1,4.8,6.7,5.7c0.7,0.4,1.5,0.6,2.3,0.6c0.1,0,0.2,0,0.3,0c0.8-0.1,2.3-0.2,6.3-4.7c0,0,0,0,0,0c2.3-2.7,3.2-5.1,3-7.5
	c-0.2-2.1-1.1-3.8-2.4-5.1c10.2-7.4,18.7-14.7,25.5-22c2.3-0.8,5.1-2.5,6.1-3.1c3.7-2.4,5.8-4.8,6.3-7.5c0.3-1.5,0.3-2.9,0-4.3
	c1.5,2.8,3.5,5.1,4.8,6.5c0.6,0.7,1.4,1.1,2.3,1.4c0.3,0.1,0.5,0.1,0.8,0.1c2.3,0,6.8-2.7,8.1-3.5c3.7-2.4,5.8-4.8,6.3-7.5
	C298.9,189.1,296.1,184.5,291.4,183.4z M70.6,124.6c0,0-0.1,0-0.1,0c-0.1,0-0.3-0.1-0.4-0.2c-1.1-0.7-6.8-4.1-6.9-7.6
	c-0.2-2.8,1.6-5,4.2-5.1c0.1,0,0.1,0,0.2,0c0.1,0,0.2,0,0.3,0c0.1,0,0.2,0,0.3,0c0.1,0,0.3,0.1,0.4,0.1c0.1,0,0.2,0,0.3,0.1
	c0.2,0.1,0.3,0.1,0.4,0.2c0.1,0,0.1,0.1,0.2,0.1c0.2,0.1,0.4,0.3,0.6,0.4c0.7-0.7,1.6-1.3,2.6-1.4c0.1,0,0.2,0,0.4,0
	c0.2,0,0.4,0,0.5,0c0,0,0.1,0,0.1,0c0.2,0,0.5,0.1,0.7,0.2c0.1,0,0.2,0.1,0.2,0.1c0.2,0.1,0.3,0.1,0.5,0.2c0.2,0.1,0.3,0.2,0.5,0.3
	c0.1,0,0.1,0.1,0.2,0.1c1,0.8,1.7,2,1.8,3.5c0.1,1.5-0.6,3.2-2.3,5.2c0,0-2.5,2.9-3.9,3.5c0,0,0,0-0.1,0c-0.1,0-0.2,0.1-0.3,0.1
	c0,0-0.1,0-0.1,0C70.7,124.6,70.6,124.6,70.6,124.6z M76.8,182.1C76.8,182.1,76.8,182.1,76.8,182.1c-0.3,0.4-0.5,0.7-0.8,1.1
	c0,0,0,0,0,0c0,0-0.3,0.3-0.6,0.7c-0.2,0.2-0.4,0.4-0.7,0.7c-0.4,0.4-0.8,0.8-1.2,1.2c-0.3,0.3-0.6,0.5-0.8,0.8
	c-0.7,0.6-1.3,1-1.7,1.1c0,0-0.1,0-0.1,0c-0.1,0-0.2,0-0.2,0c0,0-0.1,0-0.1,0c-0.1,0-0.3-0.1-0.4-0.2c-0.3-0.2-0.7-0.4-1.3-0.8
	c-0.9-0.6-2.2-1.5-3.4-2.6c-1.2-1.1-2.4-2.3-3.1-3.6c-0.3-0.5-0.5-1-0.6-1.6c-0.1-0.3-0.1-0.5-0.1-0.8c-0.1-2.5,1-4.5,2.8-5.5
	c0.6-0.3,1.3-0.5,2.1-0.6h0c0.1,0,0.2,0,0.2,0c0,0,0.1,0,0.1,0c0.1,0,0.1,0,0.2,0c0.1,0,0.2,0,0.2,0c0.1,0,0.1,0,0.2,0
	c0.1,0,0.2,0,0.2,0.1c0.1,0,0.1,0,0.2,0.1c0.1,0,0.2,0.1,0.2,0.1c0.1,0,0.1,0,0.2,0.1c0.1,0,0.2,0.1,0.2,0.1c0.1,0,0.1,0.1,0.2,0.1
	c0.1,0,0.2,0.1,0.2,0.1c0.1,0,0.1,0.1,0.2,0.1c0.1,0.1,0.2,0.1,0.2,0.2c0,0,0.1,0.1,0.1,0.1c0.1,0.1,0.2,0.2,0.3,0.3c0,0,0,0,0,0
	c0.3-0.3,0.7-0.7,1-1c0.6-0.5,1.4-0.8,2.2-0.9c0.1,0,0.3,0,0.4,0c0,0,0,0,0,0c2.8,0,5,2.2,5.3,5.3C79,178.4,78.3,180.1,76.8,182.1z
	 M201.9,259.6c2.9,0,5.4,2,6.3,5.3c0.6,2.1-0.1,4.8-2.2,8.2c0,0.1-3.9,6.2-5.1,6.5c-0.1,0-0.2,0-0.4,0c-0.2,0-0.4,0-0.5-0.1
	c-1.2-0.4-11.3-4.4-12.5-9.5c-0.7-3.1,0.4-5.9,2.7-7.4c0.3-0.2,0.6-0.3,0.9-0.5c0.3-0.1,0.6-0.2,1-0.3c0.3-0.1,0.6-0.1,1-0.1
	c1.3,0,2.6,0.5,3.7,1.3c0.8-1.4,2.1-2.8,3.6-3.2C200.8,259.6,201.3,259.6,201.9,259.6z M236.8,240.7c-0.1,0.4-0.2,0.8-0.4,1.3
	c-0.1,0.2-0.2,0.4-0.3,0.7c-0.4,0.7-0.9,1.4-1.5,2.2c0,0-1,1.2-2.1,2.2c-0.2,0.2-0.5,0.4-0.7,0.6c-0.1,0.1-0.2,0.2-0.3,0.3
	c-0.4,0.3-0.9,0.6-1.1,0.6c0,0-0.1,0-0.1,0c-0.1,0-0.2,0-0.2,0c0,0-0.1,0-0.1,0c-0.1,0-0.3-0.1-0.4-0.2c-0.1-0.1-0.2-0.1-0.4-0.2
	c0,0-0.1,0-0.1,0c-1.7-1.1-6.3-4.2-6.5-7.4c-0.2-2.8,1.6-5,4.2-5.1c1-0.1,2,0.4,2.7,1c0.7-0.7,1.6-1.3,2.6-1.4
	c1.1-0.1,2.2,0.3,3,0.9c0,0,0,0,0,0c0,0,0,0,0,0c0.2,0.2,0.5,0.4,0.6,0.6c0,0,0,0,0.1,0.1c0.2,0.2,0.3,0.5,0.5,0.7
	c0,0,0.1,0.1,0.1,0.1c0.1,0.2,0.2,0.5,0.3,0.8c0,0.1,0.1,0.1,0.1,0.2c0.1,0.3,0.2,0.7,0.2,1.1C236.9,239.9,236.9,240.3,236.8,240.7z
	 M275.8,180.4c-0.1,0.3-0.2,0.7-0.3,1c-0.1,0.4-0.2,0.8-0.4,1.1c-0.1,0.2-0.1,0.4-0.2,0.6c-0.2,0.5-0.3,1-0.5,1.4
	c0,0.1,0,0.1-0.1,0.2c-1.2,3.1-2.8,6.2-4.7,9.3c2.4,1.1,3.6,3.8,3,6.8c0,0.2-0.1,0.4-0.2,0.7c0,0.1-0.1,0.2-0.1,0.2
	c-0.1,0.1-0.1,0.3-0.2,0.4c-0.1,0.1-0.1,0.2-0.2,0.3c-0.1,0.1-0.1,0.2-0.2,0.3c-0.1,0.1-0.2,0.2-0.3,0.4c-0.1,0.1-0.2,0.2-0.2,0.3
	c-0.1,0.1-0.2,0.3-0.3,0.4c-0.1,0.1-0.2,0.2-0.2,0.2c-0.1,0.1-0.3,0.3-0.4,0.4c-0.1,0.1-0.2,0.1-0.2,0.2c-0.2,0.2-0.4,0.3-0.6,0.5
	c-0.1,0-0.1,0.1-0.2,0.1c-0.5,0.4-1,0.7-1.6,1.1c-0.1,0-5.5,3.3-6.7,3c-0.3-0.1-0.6-0.2-0.8-0.4c-0.2-0.3-0.7-0.7-1.2-1.4
	c-5,5.4-11.1,10.9-18.2,16.4c-0.5,0.4-1,0.8-1.6,1.2c-0.3,0.2-0.6,0.5-0.9,0.7c-3,2.3-6.1,4.6-9.3,6.7c0,0,0,0-0.1,0
	c-3,2-6.1,4.1-9.3,6.1c0,0,0,0.1,0,0.1c-2.1,1.3-4.2,2.7-6.4,3.9c0,0,0-0.1,0-0.1c-1.4,0.8-2.8,1.7-4.2,2.5c0,0,0,0.1-0.1,0.1
	c0,0,0,0,0,0c0,0,0,0,0,0c-0.1,0.2-0.3,0.5-0.4,0.8c0,0.1-3.4,5.4-4.6,5.7c-0.3,0.1-0.6,0.1-0.9-0.1c-0.5-0.2-1.7-0.7-3.1-1.3
	c0,0-0.1,0-0.1,0c-1.1,0.6-2.1,1.2-3.2,1.7c0,0,0.1,0,0.1,0c-6.1,3.3-12,6.3-17.5,9c0,0,0,0,0-0.1c-1.1,0.5-2.1,1-3.2,1.5
	c-0.2,1.4-0.4,2.7-0.8,3.1c-0.2,0.2-0.5,0.4-0.8,0.4c-0.9,0.2-3.8,0.6-6.7,0.4c-1.6,0.8-3.2,1.5-4.7,2.1c0,0,0,0,0,0
	c-6.7,3-11.4,4.9-12.8,5.4c-0.2,0.1-0.3,0.1-0.3,0.1c-0.4,0.1-0.7,0.2-1.1,0.2c-0.1,0-0.1,0-0.2,0c-0.2,0-0.3,0-0.5-0.1c0,0,0,0,0,0
	c0,0,0,0,0,0c-0.1,0-0.2,0-0.2-0.1c-0.1,0-0.1,0-0.2-0.1c-0.1,0-0.1-0.1-0.2-0.1c-0.1,0-0.1-0.1-0.2-0.1c-0.1,0-0.1-0.1-0.2-0.1
	c-0.1,0-0.1-0.1-0.2-0.1c-0.1-0.1-0.2-0.2-0.3-0.3c-0.4-0.4-1.8-2-4-4.5c-1.1,0.5-2,0.8-2.5,0.7c-0.3-0.1-0.6-0.2-0.8-0.5
	c-1.1-1.2-6.1-6.9-6-11.3c-6.4-7.8-14.3-18-22.3-29.6c-0.3,0.1-0.6,0.2-0.9,0.1c-1.3-0.2-6.4-1-9.8-3c0,0,0,0,0,0
	c-0.1-0.1-0.3-0.2-0.4-0.3c-0.1-0.1-0.2-0.2-0.3-0.2c-0.1-0.1-0.2-0.2-0.3-0.3c-0.1-0.1-0.2-0.2-0.4-0.3c-0.1-0.1-0.2-0.2-0.3-0.3
	c-0.1-0.1-0.2-0.3-0.4-0.4c-0.1-0.1-0.1-0.1-0.2-0.2c-0.2-0.2-0.3-0.4-0.4-0.7c-0.1-0.2-0.2-0.4-0.3-0.6c0-0.1-0.1-0.2-0.1-0.3
	c0-0.1-0.1-0.2-0.1-0.2c0-0.2-0.1-0.3-0.1-0.5c0,0,0-0.1,0-0.1c0-0.2-0.1-0.4-0.1-0.5c0,0,0,0,0,0c-0.1-0.8,0-1.5,0.2-2.2
	c0,0,0,0,0,0c0.4-1.5,1.4-2.7,2.8-3.4c0.5-0.3,1.1-0.4,1.8-0.4c-3-4.8-6-9.8-8.8-14.8c-0.1,0-0.1,0-0.2,0c-0.3-0.1-0.6-0.2-0.8-0.5
	c-1.2-1.3-7-8-5.9-12.4c0-0.1,0.1-0.2,0.1-0.3c-0.6-1.2-1.1-2.4-1.6-3.6c0,0,0,0,0,0c0,0,0-0.1-0.1-0.1c-0.3-0.7-0.6-1.3-0.9-2
	c-0.3-0.7-0.6-1.3-0.9-2c0,0,0,0,0,0c-0.6-1.4-1.2-2.9-1.7-4.3c-2.5-1.7-6.5-4.9-6.7-8.1c-0.1-2.3,0.8-4.1,2.4-5.2
	c-0.5-2-0.9-3.9-1.3-5.9c0,0,0,0,0,0c0,0,0,0,0,0c-0.3,0.1-0.6,0.1-0.7,0.1c-0.3-0.1-0.6-0.2-0.8-0.5c-0.9-1-4.4-5-5.6-8.8
	c0,0,0,0,0,0c0,0,0,0,0,0c-0.1-0.3-0.2-0.6-0.2-0.9c0,0,0,0,0,0c-0.1-0.3-0.1-0.6-0.1-0.9c0-0.1,0-0.2,0-0.3c0-0.2,0-0.4,0-0.6
	c0-0.3,0.1-0.6,0.1-0.8c0.8-3.2,3.5-5.2,6.4-4.8c0.1-1,0.2-2,0.4-3c0,0,0,0,0,0c0-0.2,0.1-0.4,0.1-0.6c0.1-0.3,0.1-0.7,0.2-1
	c0.1-0.7,0.3-1.4,0.4-2c0.2-1,0.5-1.9,0.8-2.8c0.1-0.2,0.1-0.4,0.2-0.7c0.2-0.8,0.5-1.5,0.7-2.3c0-0.1,0.1-0.3,0.2-0.4
	c0.4-1.2,0.8-2.3,1.3-3.5c0,0,0,0,0,0c0.4-1.1,0.9-2.2,1.4-3.3c0,0,0,0,0-0.1c0,0,0,0,0,0v0c-0.3-0.6-0.5-1.3-0.5-1.9
	c-0.2-3.2,1.8-5.7,4.7-6c0,0,0,0,0,0c0,0,0.1,0,0.1,0c1.1-1.7,2.2-3.4,3.4-5c-0.6-0.9-1-1.9-1.1-2.8c-0.2-3.3,1.9-5.8,4.9-6
	c1.1-0.1,2.1,0.4,2.9,1c0,0,0,0,0,0c0,0,0,0,0,0c0,0,0.1,0,0.1,0.1c1.6-1.5,3.3-3,5-4.3c0.4-2.2,1.1-4.2,2.5-5.3
	c2.3-1.8,5.1-2,7.2-0.6c0,0,0,0,0,0c0,0,0,0,0.1,0c1-0.5,2-0.9,3-1.3c0,0,0,0,0,0c1.1-0.4,2.2-0.8,3.2-1.1c4-1.3,8.1-2,12.4-2.2
	c-1.1-1.9-2-4-1.8-5.9c0-0.3,0.1-0.6,0.1-0.8c0.1-0.3,0.2-0.7,0.3-1c0,0,0-0.1,0.1-0.1c0.1-0.3,0.3-0.6,0.4-0.8
	c0-0.1,0.1-0.1,0.1-0.1c0.2-0.3,0.3-0.5,0.5-0.7c0,0,0-0.1,0.1-0.1c0.2-0.2,0.4-0.4,0.6-0.6c0,0,0,0,0.1-0.1
	c0.2-0.2,0.4-0.3,0.7-0.5c0,0,0.1-0.1,0.1-0.1c0.2-0.1,0.5-0.3,0.7-0.4c0,0,0.1,0,0.1,0c0.3-0.1,0.5-0.2,0.8-0.2c0,0,0,0,0,0
	c0.3,0,0.6-0.1,0.9-0.1c0,0,0.1,0,0.1,0c0,0,0,0,0.1,0c0.1,0,0.3,0,0.4,0c0.1,0,0.1,0,0.2,0c0.2,0,0.4,0.1,0.6,0.1
	c1.3,0.3,2.4,1.4,3.2,2.6c0.2-0.1,0.4-0.3,0.7-0.4c0,0,0.1,0,0.1-0.1c0.2-0.1,0.5-0.2,0.7-0.3c0,0,0.1,0,0.1,0
	c0.2-0.1,0.4-0.1,0.7-0.2c0,0,0.1,0,0.1,0c0.2,0,0.5-0.1,0.7-0.1c0,0,0.1,0,0.1,0c0,0,0.1,0,0.1,0c0.2,0,0.5,0,0.7,0.1
	c0.3,0.1,0.5,0.2,0.8,0.3c0.1,0,0.1,0,0.2,0.1c0.2,0.1,0.5,0.2,0.7,0.4c0,0,0.1,0,0.1,0.1c0.2,0.1,0.4,0.3,0.6,0.4
	c0,0,0.1,0,0.1,0.1c0.2,0.2,0.4,0.4,0.6,0.6c0,0,0,0,0.1,0.1c0.4,0.4,0.6,0.9,0.9,1.5c0,0,0,0,0,0c0.4,1.1,0.6,2.5,0.3,3.9
	c-0.2,1.2-1,2.4-2.3,3.5c0.6,0.1,1.3,0.2,1.9,0.4c0.5,0.1,1,0.2,1.5,0.4c0,0,0,0,0,0c0,0,0,0,0,0c0.2,0.1,0.4,0.1,0.6,0.2
	c0.3,0,0.6,0.1,1,0.1c0.6,0.1,1.1,0.4,1.6,0.8c0.5,0.2,1,0.4,1.4,0.6c0,0,0,0,0.1,0c0.2,0.1,0.5,0.2,0.7,0.4
	c0.9-0.4,1.8-0.6,2.7-0.3c2.3,0.5,3.8,2.4,4,4.7c0.4,0.3,0.9,0.7,1.3,1c0,0,0,0,0,0c0.7,0.6,1.4,1.2,2,1.8c0,0,0.1,0.1,0.1,0.1
	c0.7,0.6,1.3,1.2,1.9,1.9c0,0,0,0,0,0c0,0,0,0,0,0c0.8,0.8,1.5,1.6,2.3,2.4c0,0,0,0,0,0s0,0,0,0c0.1,0,0.2,0,0.3,0
	c3-0.2,5.4,2,5.7,5.3c0.1,0.6,0,1.3-0.2,2v0c0,0,0,0,0,0s0,0,0,0c0.8,1.2,1.7,2.4,2.4,3.6c2.5,0.1,4.7,1.9,5.5,4.7
	c0.3,1.2,0.2,2.6-0.4,4.2c0,0,0,0,0,0c0.6,1.2,1.2,2.4,1.7,3.5c0,0,0,0,0,0c0,0,0,0.1,0,0.1c0.3,0.7,0.6,1.3,0.8,2
	c0.1,0.2,0.2,0.4,0.2,0.6c0.3,0.6,0.5,1.3,0.7,1.9c0,0,0,0.1,0.1,0.1c0.5-0.5,1.1-1,1.6-1.5c0.1-0.1,0.2-0.2,0.3-0.3
	c1.2-1,2.4-2.1,3.7-3.1c0,0,0.1,0,0.1-0.1c1.6-1.3,3.2-2.5,5-3.7c0.3-2.7,2.2-4.7,4.9-4.9c0.8-0.1,1.5,0.2,2.2,0.5
	c4.3-2.4,8.8-4.5,13.3-6c0,0,0,0,0,0c-0.6-0.6-2.3-2.6-3.8-5l0,0c-0.2-0.3-0.3-0.6-0.5-0.9c0,0,0,0,0-0.1c-0.2-0.3-0.3-0.6-0.4-0.8
	c0,0,0-0.1-0.1-0.1c-0.1-0.3-0.2-0.5-0.3-0.8c0-0.1-0.1-0.1-0.1-0.2c-0.1-0.2-0.2-0.5-0.3-0.7c0-0.1-0.1-0.2-0.1-0.2
	c-0.1-0.2-0.1-0.4-0.2-0.7c0-0.1-0.1-0.2-0.1-0.3c0-0.2-0.1-0.4-0.1-0.6c0-0.1,0-0.2-0.1-0.3c0-0.2,0-0.4,0-0.6c0-0.1,0-0.2,0-0.3
	c0-0.3,0.1-0.6,0.1-0.9c0.1-0.3,0.2-0.7,0.3-1c0,0,0-0.1,0.1-0.1c0.1-0.3,0.3-0.6,0.4-0.8c0-0.1,0.1-0.1,0.1-0.1
	c0.2-0.3,0.3-0.5,0.5-0.7c0,0,0-0.1,0.1-0.1c0.2-0.2,0.4-0.4,0.6-0.6c0,0,0,0,0.1-0.1c0.2-0.2,0.4-0.3,0.7-0.5c0,0,0.1-0.1,0.1-0.1
	c0.2-0.1,0.5-0.3,0.7-0.4c0,0,0.1,0,0.1,0c0.3-0.1,0.5-0.2,0.8-0.2c0,0,0,0,0,0c0.3,0,0.6-0.1,0.9-0.1c0,0,0.1,0,0.1,0
	c0,0,0,0,0.1,0c0.1,0,0.3,0,0.4,0c0.1,0,0.1,0,0.2,0c0.2,0,0.4,0.1,0.6,0.1c0.7,0.2,1.3,0.5,1.8,1c0.3,0.2,0.5,0.5,0.7,0.8
	s0.4,0.6,0.6,0.9c0.2-0.1,0.4-0.3,0.7-0.4c0,0,0.1,0,0.1-0.1c0.2-0.1,0.5-0.2,0.7-0.3c0,0,0.1,0,0.1,0c0.2-0.1,0.4-0.1,0.7-0.2
	c0,0,0.1,0,0.1,0c0.2,0,0.5-0.1,0.7-0.1c0,0,0.1,0,0.1,0c0,0,0.1,0,0.1,0c0.2,0,0.5,0,0.7,0.1c0,0,0,0,0,0c0,0,0,0,0,0
	c0.4,0.1,0.7,0.2,1,0.3c0,0,0,0,0.1,0c0.3,0.1,0.6,0.3,0.9,0.5c0,0,0,0,0.1,0c0.3,0.2,0.5,0.4,0.7,0.6c0,0,0,0,0.1,0.1
	c0.2,0.2,0.4,0.5,0.6,0.8c0,0,0,0,0,0.1c0.2,0.3,0.3,0.6,0.4,0.9c0,0,0,0,0,0.1c0.1,0.3,0.2,0.7,0.3,1c0,0,0,0,0,0
	c0.1,0.4,0.1,0.7,0.1,1.1c0,0,0,0,0,0c0,0.4,0,0.8-0.1,1.2c0,0.2,0,0.3-0.1,0.5c-0.4,1.9-2,3.7-5,5.6c0,0-0.7,0.4-1.6,0.9
	c0,0,0,0,0,0c0,0,0,0,0,0c2.3-0.5,4.5-0.9,6.7-1c0.9-1.4,2.2-2.3,4-2.4c1.3-0.1,2.5,0.6,3.5,1.4c0.8-0.9,2-1.8,3.2-1.9
	c3-0.2,5.4,2,5.7,5.3c0,0.1,0,0.2,0,0.4c6.5,2.4,12.3,5.8,17.3,10.2c0.2,0.2,0.4,0.4,0.6,0.5c0.3,0.3,0.6,0.5,0.9,0.8
	c0.2,0.2,0.5,0.4,0.7,0.7c0,0,0,0,0,0c1.2,1.2,2.4,2.5,3.5,3.9c0,0,0.1,0.1,0.2,0.1c0.6,0.7,1.2,1.5,1.8,2.3c0,0.1,0.1,0.2,0.1,0.3
	c1.1,1.5,2.1,3.1,3,4.7c0,0,0-0.1,0.1-0.1c0.7,1.2,1.3,2.4,1.9,3.6c0,0-0.1,0-0.1,0c0.5,1,0.9,2.1,1.4,3.1c2.3,0.5,4,2.5,4.2,5.2
	c0.1,1.2-0.3,2.5-1.2,4l0,0c0,0.1-0.1,0.1-0.1,0.2c0.5,2.3,0.9,4.7,1.2,7.1c1.1-0.8,2.4-1.1,3.8-0.7c1,0.2,1.8,1,2.4,1.8
	c0,0.1,0.1,0.1,0.1,0.2c0.2-0.1,0.3-0.2,0.5-0.3c0,0,0.1,0,0.1-0.1c0.2-0.1,0.4-0.1,0.5-0.2c0,0,0,0,0.1,0c0.2-0.1,0.3-0.1,0.5-0.1
	c0,0,0.1,0,0.1,0c0.2,0,0.4,0,0.6,0c0,0,0,0,0,0c0,0,0,0,0.1,0c0.2,0,0.4,0,0.7,0.1c2.7,0.6,4.2,3.2,3.6,6.1
	c-0.3,1.6-1.7,3.1-4.1,4.6c0,0-0.1,0.1-0.2,0.1c0,0,0,0,0,0c-0.1,0-0.1,0.1-0.2,0.1c0,0-0.1,0-0.1,0c-0.1,0-0.2,0.1-0.2,0.1
	c0,0-0.1,0-0.1,0.1c-0.1,0.1-0.2,0.1-0.3,0.2c0,0-0.1,0-0.1,0.1c-0.1,0.1-0.2,0.1-0.3,0.2c0,0-0.1,0.1-0.1,0.1
	c-0.1,0.1-0.2,0.1-0.3,0.2c0,0-0.1,0.1-0.1,0.1c-0.1,0.1-0.2,0.1-0.3,0.2c0,0-0.1,0-0.1,0.1c0,0,0,0,0,0c-1.2,0.6-2.4,1.1-2.9,1
	c-0.3-0.1-0.6-0.2-0.8-0.5c-0.4-0.4-1.3-1.5-2.3-2.8c0,1.5-0.1,3-0.3,4.5c0,0,0,0,0,0c-0.1,0.9-0.2,1.8-0.3,2.7c0,0.1,0,0.2-0.1,0.4
	c-0.1,0.8-0.2,1.6-0.4,2.4c0,0.2-0.1,0.5-0.1,0.7c-0.2,0.9-0.3,1.8-0.5,2.8c-0.1,0.6-0.3,1.2-0.4,1.9
	C275.9,179.9,275.8,180.2,275.8,180.4z M295,192.9c0,0.2-0.1,0.4-0.1,0.6c-0.4,1.9-2,3.7-5,5.6c0,0-0.1,0.1-0.2,0.1c0,0,0,0,0,0
	c-0.1,0-0.1,0.1-0.2,0.1c0,0-0.1,0-0.1,0.1c-0.1,0-0.2,0.1-0.3,0.1c0,0-0.1,0.1-0.1,0.1c-0.1,0.1-0.2,0.1-0.3,0.2
	c-0.1,0-0.1,0.1-0.2,0.1c-0.1,0-0.2,0.1-0.3,0.1c-0.1,0-0.2,0.1-0.2,0.1c-0.1,0.1-0.2,0.1-0.3,0.2c-0.1,0-0.2,0.1-0.2,0.1
	c-0.1,0.1-0.2,0.1-0.3,0.2c-0.1,0-0.2,0.1-0.2,0.1c-0.1,0.1-0.2,0.1-0.3,0.2c-0.1,0-0.2,0.1-0.3,0.1c-0.1,0.1-0.2,0.1-0.3,0.1
	c-0.1,0-0.2,0.1-0.3,0.1c-0.1,0-0.2,0.1-0.3,0.1c-0.1,0-0.2,0.1-0.2,0.1c-0.1,0-0.2,0.1-0.3,0.1c-0.1,0-0.2,0.1-0.2,0.1
	c-0.1,0-0.2,0.1-0.3,0.1c-0.1,0-0.1,0-0.2,0.1c-0.1,0-0.2,0-0.2,0.1c-0.1,0-0.1,0-0.2,0c-0.1,0-0.1,0-0.2,0c-0.1,0-0.1,0-0.1,0
	c0,0,0,0-0.1,0c-0.1,0-0.1,0-0.2,0c-0.3-0.1-0.6-0.2-0.8-0.5c-0.1-0.1-0.1-0.2-0.2-0.3c0,0-0.1-0.1-0.1-0.1
	c-0.1-0.1-0.1-0.1-0.2-0.2c-0.1-0.1-0.1-0.1-0.2-0.2c0,0-0.1-0.1-0.1-0.1c-0.2-0.2-0.4-0.4-0.6-0.7c0,0,0,0,0-0.1
	c-0.1-0.1-0.2-0.3-0.4-0.5c0,0,0,0,0,0c-2.1-2.7-4.9-7.1-4.1-10.3c0.7-2.9,3-4.8,5.5-4.8c0,0,0.1,0,0.1,0c0,0,0,0,0.1,0
	c0.1,0,0.3,0,0.4,0c0.1,0,0.1,0,0.2,0c0.2,0,0.4,0.1,0.6,0.1c0.8,0.2,1.6,0.7,2.2,1.4c0.2,0.3,0.5,0.5,0.7,0.8
	c0.1,0.1,0.2,0.3,0.3,0.4c0.2-0.1,0.4-0.3,0.7-0.4c0,0,0.1,0,0.1-0.1c0.2-0.1,0.5-0.2,0.7-0.3c0,0,0.1,0,0.1,0
	c0.2-0.1,0.4-0.1,0.7-0.2c0,0,0.1,0,0.1,0c0.2,0,0.5-0.1,0.7-0.1c0,0,0.1,0,0.1,0c0,0,0.1,0,0.1,0c0.2,0,0.5,0,0.7,0.1
	c1.4,0.3,2.5,1.1,3.3,2.1c0.2,0.3,0.4,0.6,0.6,1c0.1,0.2,0.1,0.3,0.2,0.5c0.2,0.7,0.4,1.5,0.3,2.3C295,192.5,295,192.7,295,192.9z"
	/>
</svg>
