<svg id="Group_2716" data-name="Group 2716" xmlns="http://www.w3.org/2000/svg" xmlns:xlink="http://www.w3.org/1999/xlink" width="38.137" height="26.617" viewBox="0 0 38.137 26.617">
  <defs>
    <clipPath id="clip-path">
      <rect id="Rectangle_147863" data-name="Rectangle 147863" width="38.137" height="26.617" fill="#041c2c"/>
    </clipPath>
  </defs>
  <g id="Group_2685" data-name="Group 2685" clip-path="url(#clip-path)">
    <path id="Path_3605" data-name="Path 3605" d="M364.089,3.069A3.069,3.069,0,1,1,361.021,0a3.069,3.069,0,0,1,3.069,3.069" transform="translate(-333.716 0)" fill="#041c2c"/>
    <path id="Path_3606" data-name="Path 3606" d="M54.553,15.831a3.069,3.069,0,1,1-3.46-2.62h0a3.07,3.07,0,0,1,3.46,2.62" transform="translate(-45.163 -12.289)" fill="#041c2c"/>
    <path id="Path_3607" data-name="Path 3607" d="M9.226,260.571l.209,0a8.235,8.235,0,0,0,3.057-.588,12.754,12.754,0,0,1,8.777,0,9.406,9.406,0,0,0,6.534,0,11.417,11.417,0,0,1,4.151-.781l.238,0h.149a12.231,12.231,0,0,1,2.573.274l-.983-7.849a.838.838,0,0,0-.823-.68H.915l-.059,0H.822a.856.856,0,0,0-.821.89c.447,4.9,3.373,7.362,6.981,8.477a8.417,8.417,0,0,0,2.066.257l.179,0" transform="translate(0 -233.957)" fill="#041c2c"/>
    <path id="Path_3608" data-name="Path 3608" d="M519.587,283.419l.777,6.2.064.514a6.681,6.681,0,0,0,2.088.149l.028-3.469a3.21,3.21,0,0,0-2.957-3.4" transform="translate(-484.407 -264.229)" fill="#041c2c"/>
    <path id="Path_3609" data-name="Path 3609" d="M323.237,102.2h5.2V97.834l4.394,4.116a1.126,1.126,0,0,0,1.436-.1,1.25,1.25,0,0,0,.265-1.731s-4.673-5.27-5.451-6.1a3.6,3.6,0,0,0-2.915-1.492,2.829,2.829,0,0,0-2.915,2.727c.008,1.553-.012,5.914-.017,6.952" transform="translate(-301.351 -86.258)" fill="#041c2c"/>
    <path id="Path_3610" data-name="Path 3610" d="M20.308,117.778h6.3a10.709,10.709,0,0,1-1.066-5.543,2.757,2.757,0,0,0-3.1-2.982c-2.132.294-2.516,2.537-3.012,3.735-.2.488-.512,1.33-.824,2.2-.462,1.29,1.237,2.336,1.7,2.592" transform="translate(-17.275 -101.834)" fill="#041c2c"/>
  </g>
</svg>
