<svg id="Group_2711" data-name="Group 2711" xmlns="http://www.w3.org/2000/svg" xmlns:xlink="http://www.w3.org/1999/xlink" width="30" height="30" viewBox="0 0 30 30">
  <defs>
    <clipPath id="clip-path">
      <rect id="Rectangle_147853" data-name="Rectangle 147853" width="30" height="30" fill="#041c2c"/>
    </clipPath>
  </defs>
  <g id="Group_2663" data-name="Group 2663" clip-path="url(#clip-path)">
    <path id="Path_3584" data-name="Path 3584" d="M15,0A15,15,0,1,1,0,15,15,15,0,0,1,15,0m3.269,21.467H11.731L9.8,24.173l2.851,3.742A13.26,13.26,0,0,0,15,28.125a12.719,12.719,0,0,0,2.351-.211L20.2,24.173Zm6.923-7.791-3.5.584-1.906,6.1,1.968,2.755,4.43-1.24A12.9,12.9,0,0,0,27.864,17.6Zm-20.383,0L2.136,17.6A12.914,12.914,0,0,0,3.82,21.874l4.43,1.24,1.968-2.755-1.906-6.1ZM9.34,3.159A13,13,0,0,0,4.911,6.61l.362,5.242,3.586.6,5.2-3.855V4.612Zm11.32,0L15.938,4.612V8.6l5.2,3.855,3.586-.6.362-5.242A13.041,13.041,0,0,0,20.66,3.159" fill="#041c2c"/>
  </g>
</svg>
