<svg id="Group_2717" data-name="Group 2717" xmlns="http://www.w3.org/2000/svg" xmlns:xlink="http://www.w3.org/1999/xlink" width="33.882" height="35.207" viewBox="0 0 33.882 35.207">
  <defs>
    <clipPath id="clip-path">
      <rect id="Rectangle_147859" data-name="Rectangle 147859" width="33.882" height="35.207" fill="#041c2c"/>
    </clipPath>
  </defs>
  <g id="Group_2676" data-name="Group 2676" clip-path="url(#clip-path)">
    <path id="Path_3597" data-name="Path 3597" d="M33.62,33.583a.97.97,0,0,0-.682-.3h-3.05V29.875h1.706a2.284,2.284,0,0,0,2.282-2.282V27.58A2.284,2.284,0,0,0,31.594,25.3H26.255a2.284,2.284,0,0,0-2.282,2.282v.013a2.284,2.284,0,0,0,2.282,2.282h1.706V33.28h-8.4v-7.4h2.378a2.618,2.618,0,0,0,2.615-2.615v-.013a2.618,2.618,0,0,0-2.615-2.615H17.9v-9.5H32.919A.957.957,0,0,0,33.4,9.352L17.42.128a.957.957,0,0,0-.957,0L.485,9.352a.957.957,0,0,0,.478,1.786H15.978v9.5H11.942a2.618,2.618,0,0,0-2.615,2.615v.013a2.618,2.618,0,0,0,2.615,2.615H14.32v7.4h-8.4V29.875H7.628a2.284,2.284,0,0,0,2.282-2.282V27.58A2.284,2.284,0,0,0,7.628,25.3H2.289A2.284,2.284,0,0,0,.007,27.58v.013a2.284,2.284,0,0,0,2.282,2.282H3.994V33.28H.944a.964.964,0,0,0-.018,1.926H32.958a.964.964,0,0,0,.662-1.624m-17.386-7.7h1.415v7.4H16.234Z" transform="translate(0 0)" fill="#041c2c"/>
  </g>
</svg>
