<svg id="Group_2708" data-name="Group 2708" xmlns="http://www.w3.org/2000/svg" xmlns:xlink="http://www.w3.org/1999/xlink" width="31.792" height="27.953" viewBox="0 0 31.792 27.953">
  <defs>
    <clipPath id="clip-path">
      <rect id="Rectangle_147849" data-name="Rectangle 147849" width="31.792" height="27.953" fill="#041c2c"/>
    </clipPath>
  </defs>
  <g id="Group_2656" data-name="Group 2656" clip-path="url(#clip-path)">
    <path id="Path_3569" data-name="Path 3569" d="M352.3,44.687a10.759,10.759,0,0,0-10.759,10.759v9.421a5.373,5.373,0,0,0,5.373,5.373h.013a5.373,5.373,0,0,0,5.373-5.373v-.013a5.373,5.373,0,0,0-5.373-5.373h-.007a8.069,8.069,0,0,0,8.069-8.069V44.687Z" transform="translate(-323.199 -42.287)" fill="#041c2c"/>
    <path id="Path_3570" data-name="Path 3570" d="M2.69,44.687H0v6.724a8.069,8.069,0,0,0,8.069,8.069H8.063A5.373,5.373,0,0,0,2.69,64.854v.013A5.373,5.373,0,0,0,8.063,70.24h.013a5.373,5.373,0,0,0,5.373-5.373V55.446A10.759,10.759,0,0,0,2.69,44.687" transform="translate(0 -42.287)" fill="#041c2c"/>
    <path id="Path_3571" data-name="Path 3571" d="M267.065,218.629a1.636,1.636,0,0,0,1.635-1.635V205.448a3.046,3.046,0,0,1-1.64.484h0a3.045,3.045,0,0,1-1.64-.484v11.546a1.637,1.637,0,0,0,1.635,1.635Z" transform="translate(-251.162 -194.414)" fill="#041c2c"/>
    <path id="Path_3572" data-name="Path 3572" d="M255.21,114.292a2.314,2.314,0,1,0,2.314,2.314,2.316,2.316,0,0,0-2.314-2.314" transform="translate(-239.314 -108.154)" fill="#041c2c"/>
    <path id="Path_3573" data-name="Path 3573" d="M199.948.013H198.6a4.419,4.419,0,0,0-4.026,2.631A4.43,4.43,0,0,0,190.534,0h-1.345a.376.376,0,1,0,0,.752h1.344A3.676,3.676,0,0,1,194.2,4.418v.992a2.976,2.976,0,0,1,.752,0V4.418A3.665,3.665,0,0,1,198.6.765h1.345a.376.376,0,1,0,0-.752" transform="translate(-178.673)" fill="#041c2c"/>
  </g>
</svg>
