<svg id="Group_52" data-name="Group 52" xmlns="http://www.w3.org/2000/svg" xmlns:xlink="http://www.w3.org/1999/xlink" width="25.385" height="25.386" viewBox="0 0 25.385 25.386">
  <defs>
    <clipPath id="clip-path">
      <rect id="Rectangle_79" data-name="Rectangle 79" width="25.386" height="25.386" transform="translate(0 0)" fill="none"/>
    </clipPath>
  </defs>
  <g id="Group_51" data-name="Group 51" transform="translate(0 0)" clip-path="url(#clip-path)">
    <path id="Path_182" data-name="Path 182" d="M7.372.088A9.2,9.2,0,0,0,4.32.678,6.156,6.156,0,0,0,2.094,2.134,6.166,6.166,0,0,0,.646,4.365,9.244,9.244,0,0,0,.067,7.421C.008,8.763,0,9.191,0,12.608S.023,16.454.087,17.8a9.226,9.226,0,0,0,.591,3.052,6.161,6.161,0,0,0,1.456,2.226,6.17,6.17,0,0,0,2.232,1.447A9.235,9.235,0,0,0,7.42,25.1c1.342.059,1.771.072,5.187.066s3.846-.022,5.189-.085a9.25,9.25,0,0,0,3.053-.591A6.43,6.43,0,0,0,24.521,20.8a9.214,9.214,0,0,0,.579-3.054c.059-1.343.073-1.772.066-5.189s-.022-3.845-.086-5.187A9.229,9.229,0,0,0,24.49,4.32a6.173,6.173,0,0,0-1.455-2.226A6.158,6.158,0,0,0,20.8.647,9.206,9.206,0,0,0,17.748.068C16.406.009,15.977,0,12.56,0S8.714.023,7.372.088m.147,22.749a6.978,6.978,0,0,1-2.337-.428,3.922,3.922,0,0,1-1.449-.939,3.91,3.91,0,0,1-.944-1.445,6.97,6.97,0,0,1-.437-2.336c-.062-1.326-.077-1.724-.083-5.084s.006-3.757.064-5.085a6.967,6.967,0,0,1,.428-2.337A3.9,3.9,0,0,1,3.7,3.734,3.9,3.9,0,0,1,5.144,2.79,6.964,6.964,0,0,1,7.48,2.352c1.327-.063,1.725-.076,5.084-.083s3.758.005,5.085.064a6.951,6.951,0,0,1,2.336.428,3.9,3.9,0,0,1,1.449.939,3.9,3.9,0,0,1,.944,1.446,6.946,6.946,0,0,1,.437,2.335c.063,1.327.077,1.725.084,5.084s-.006,3.758-.064,5.085a6.977,6.977,0,0,1-.428,2.338,4.168,4.168,0,0,1-2.384,2.393,6.969,6.969,0,0,1-2.335.437c-1.327.062-1.725.077-5.085.083s-3.757-.006-5.084-.064M17.778,5.858a1.51,1.51,0,1,0,1.507-1.513,1.51,1.51,0,0,0-1.507,1.513M6.123,12.6a6.462,6.462,0,1,0,6.448-6.474A6.461,6.461,0,0,0,6.123,12.6m2.266,0a4.195,4.195,0,1,1,4.2,4.187,4.195,4.195,0,0,1-4.2-4.187" transform="translate(0.328 -0.124)" fill="#fff"/>
  </g>
</svg>
