<svg id="Group_48" data-name="Group 48" xmlns="http://www.w3.org/2000/svg" xmlns:xlink="http://www.w3.org/1999/xlink" width="31.388" height="25.505" viewBox="0 0 31.388 25.505">
  <defs>
    <clipPath id="clip-path">
      <rect id="Rectangle_77" data-name="Rectangle 77" width="31.388" height="25.505" fill="none"/>
    </clipPath>
  </defs>
  <g id="Group_47" data-name="Group 47" clip-path="url(#clip-path)">
    <path id="Path_180" data-name="Path 180" d="M28.175,6.349c.019.276.019.554.019.832,0,8.51-6.479,18.323-18.323,18.323V25.5A18.231,18.231,0,0,1,0,22.612a13.1,13.1,0,0,0,1.533.093,12.922,12.922,0,0,0,8-2.762A6.447,6.447,0,0,1,3.514,15.47a6.428,6.428,0,0,0,2.908-.11A6.442,6.442,0,0,1,1.256,9.047V8.966a6.39,6.39,0,0,0,2.923.806,6.445,6.445,0,0,1-1.994-8.6A18.283,18.283,0,0,0,15.457,7.9,6.446,6.446,0,0,1,26.431,2.03,12.9,12.9,0,0,0,30.52.467a6.462,6.462,0,0,1-2.831,3.562,12.854,12.854,0,0,0,3.7-1.013,13.1,13.1,0,0,1-3.213,3.333" transform="translate(0 0)" fill="#fff"/>
  </g>
</svg>
