<?xml version="1.0" encoding="utf-8"?>
<!-- Generator: Adobe Illustrator 19.2.0, SVG Export Plug-In . SVG Version: 6.00 Build 0)  -->
<!DOCTYPE svg PUBLIC "-//W3C//DTD SVG 1.1//EN" "http://www.w3.org/Graphics/SVG/1.1/DTD/svg11.dtd">
<svg version="1.1" id="Layer_1" xmlns="http://www.w3.org/2000/svg" xmlns:xlink="http://www.w3.org/1999/xlink" x="0px" y="0px"
	 viewBox="0 0 340 340" style="enable-background:new 0 0 340 340;" xml:space="preserve" >
<style type="text/css">
                .st0{fill:#071C2C;}
                .st1{fill:#FFFFFF;}
    svg:hover {  cursor:pointer;}
                svg:hover .st0 {  fill:#830065;}
</style>
<g>
	<g>
		<path class="st0" d="M95.3,127.9c-0.7,0-1.3-0.3-1.7-0.9l-9.5-15.3c-3.1-5-1.5-11.6,3.4-14.7l121.1-75.3c0.7-0.4,1.5-0.8,2.5-1.1
			c0.2-0.1,0.5-0.1,0.7-0.2c0.6-0.2,1.3-0.2,2-0.3c0.3,0,0.5-0.1,0.8,0c0.8,0,1.5,0.1,2.2,0.3c0.1,0,0.3,0.1,0.4,0.1
			c0.6,0.2,1.2,0.4,1.8,0.7c0.2,0.1,0.4,0.2,0.6,0.3l0.1,0.1c0.5,0.3,1,0.7,1.4,1l0.1,0.1c0.2,0.1,0.3,0.3,0.5,0.4
			c0.7,0.7,1.2,1.3,1.6,2l42.8,69.2c3.1,5,1.6,11.6-3.4,14.7c-8,5-19.7,12.3-19.7,12.3l-1.3,0.8l0,0l-8.9,5.5
			c-0.9,0.6-2.2,0.3-2.8-0.6s-0.3-2.2,0.6-2.8l11.5-7.2l0,0c3.3-2,12-7.5,18.4-11.4c3.1-1.9,4.1-6.1,2.2-9.2l-42.8-69.2
			c-0.2-0.4-0.6-0.8-1-1.2c-0.1-0.1-0.1-0.1-0.2-0.2l-0.1-0.1c-0.3-0.3-0.6-0.5-0.9-0.7c-0.2-0.1-0.3-0.2-0.4-0.2
			c-0.4-0.2-0.7-0.3-1.1-0.4l-0.3-0.1c-0.5-0.1-1-0.2-1.5-0.2h-0.1c-0.1,0-0.2,0-0.2,0c-0.5,0-0.9,0.1-1.3,0.2
			c-0.1,0-0.3,0.1-0.4,0.1c-0.6,0.2-1.1,0.4-1.6,0.7L89.6,100.3c-3.1,1.9-4.1,6.1-2.2,9.2l9.5,15.3c0.6,0.9,0.3,2.2-0.6,2.8
			C96,127.8,95.6,127.9,95.3,127.9z"/>
	</g>
	<g>
		<path class="st0" d="M200.4,127.2h-50.6l-0.4-0.5c-1.5-1.7-2.9-3.5-4.1-5.4c-10.2-16.5-5.1-38.2,11.3-48.4c8-5,17.4-6.5,26.5-4.4
			s16.9,7.7,21.8,15.7c8.3,13.4,6.6,30.9-4.1,42.4L200.4,127.2z M151.1,124.2h48c9.4-10.6,10.8-26.3,3.3-38.3
			c-4.5-7.3-11.6-12.4-20-14.4s-17-0.5-24.3,4c-15.1,9.4-19.7,29.2-10.4,44.3C148.8,121.3,149.9,122.8,151.1,124.2z"/>
	</g>
	<g>
		<path class="st0" d="M190.4,106.8c-0.2-0.3-0.4-0.5-0.6-0.6c-0.2-0.1-0.4-0.2-0.5-0.2c-0.2,0-0.3,0-0.5,0.1l-10.2,6.3l-5.1-8.3
			l6.3-3.9c0.1-0.1,0.2-0.2,0.3-0.3c0.1-0.1,0.1-0.3,0.1-0.6c0-0.2-0.1-0.5-0.2-0.8c-0.1-0.3-0.3-0.7-0.6-1.2
			c-0.3-0.4-0.5-0.8-0.7-1.1c-0.2-0.3-0.4-0.5-0.6-0.6c-0.2-0.1-0.4-0.2-0.5-0.2c-0.2,0-0.3,0-0.5,0.1l-6.3,3.9l-1.5-2.4
			c-0.6-0.9-1-1.8-1.3-2.6c-0.3-0.8-0.4-1.6-0.4-2.3c0-0.7,0.3-1.4,0.6-1.9s1-1.1,1.8-1.6s1.5-0.8,2.2-0.9s1.3-0.2,1.9-0.2
			c0.6,0,1.1,0,1.5,0.1c0.4,0,0.7,0,0.9-0.1c0.1-0.1,0.2-0.2,0.3-0.3c0.1-0.1,0.1-0.3,0-0.6c0-0.2-0.1-0.5-0.3-0.8
			c-0.1-0.3-0.3-0.7-0.6-1.1c-0.2-0.4-0.5-0.7-0.7-1s-0.4-0.5-0.5-0.6c-0.2-0.2-0.3-0.3-0.5-0.4s-0.4-0.2-0.7-0.2
			c-0.3-0.1-0.8-0.1-1.3-0.1c-0.6,0-1.2,0.1-1.8,0.3c-0.6,0.1-1.3,0.4-2,0.7c-0.7,0.3-1.4,0.6-2.1,1.1c-1.6,1-2.8,2-3.8,3.2
			c-0.9,1.2-1.6,2.4-1.8,3.8c-0.3,1.4-0.2,2.9,0.3,4.5c0.4,1.6,1.2,3.4,2.4,5.3l1.3,2.1l-2.5,1.5c-0.1,0.1-0.2,0.2-0.3,0.4
			c-0.1,0.1-0.1,0.3-0.1,0.6c0,0.2,0.1,0.5,0.3,0.8c0.1,0.3,0.3,0.7,0.6,1.1c0.3,0.5,0.5,0.8,0.8,1.1c0.2,0.3,0.4,0.5,0.6,0.6
			s0.4,0.2,0.5,0.2c0.2,0,0.3,0,0.4-0.1l2.5-1.5l5.1,8.3l-2.5,1.5c-0.1,0.1-0.2,0.2-0.3,0.4c-0.1,0.2-0.1,0.3-0.1,0.6
			c0,0.2,0.1,0.5,0.3,0.9c0.1,0.3,0.4,0.7,0.6,1.2c0.3,0.4,0.5,0.8,0.8,1.1c0.2,0.3,0.5,0.5,0.7,0.6s0.4,0.2,0.5,0.2
			c0.2,0,0.3,0,0.4-0.1l18.8-11.6c0.1-0.1,0.2-0.2,0.3-0.3c0.1-0.1,0.1-0.3,0-0.6c0-0.2-0.1-0.5-0.3-0.9c-0.1-0.3-0.3-0.7-0.6-1.2
			C190.9,107.4,190.6,107.1,190.4,106.8"/>
	</g>
	<g>
		<path class="st0" d="M172.5,123L172.5,123c-0.3,0-0.6-0.1-0.9-0.3c-0.2-0.2-0.5-0.4-0.8-0.7c-0.2-0.3-0.5-0.7-0.8-1.1
			c-0.3-0.5-0.5-0.9-0.7-1.2c-0.2-0.4-0.3-0.7-0.3-1s0-0.6,0.1-0.9c0.1-0.2,0.3-0.4,0.5-0.6l2.1-1.3l-4.6-7.5l-2.1,1.3
			c-0.2,0.1-0.4,0.2-0.7,0.2c-0.2,0-0.5-0.1-0.8-0.3c-0.2-0.2-0.5-0.4-0.7-0.7c-0.3-0.3-0.5-0.7-0.8-1.1s-0.5-0.9-0.6-1.2
			c-0.2-0.4-0.3-0.7-0.3-1s0-0.6,0.1-0.8c0.1-0.2,0.3-0.4,0.5-0.6l2.1-1.3l-1.1-1.7c-1.2-1.9-2-3.8-2.5-5.4
			c-0.4-1.7-0.5-3.3-0.3-4.8c0.3-1.5,0.9-2.8,1.9-4s2.3-2.3,3.9-3.3c0.7-0.4,1.4-0.8,2.1-1.1c0.7-0.3,1.4-0.5,2.1-0.7
			c0.7-0.2,1.3-0.2,1.9-0.3c0.6,0,1.1,0,1.5,0.1s0.6,0.2,0.8,0.3c0.2,0.1,0.4,0.3,0.6,0.5c0.2,0.2,0.4,0.4,0.6,0.7
			c0.2,0.3,0.4,0.6,0.7,1s0.5,0.9,0.6,1.2c0.2,0.4,0.3,0.7,0.3,1s0,0.6-0.1,0.8c-0.1,0.2-0.3,0.4-0.5,0.6c-0.3,0.2-0.7,0.3-1.3,0.2
			c-0.4,0-0.9-0.1-1.4-0.1s-1.1,0.1-1.8,0.2c-0.6,0.1-1.3,0.4-2,0.9c-0.7,0.4-1.2,0.9-1.6,1.5c-0.3,0.5-0.5,1.1-0.6,1.7
			c0,0.6,0.1,1.3,0.4,2.1c0.3,0.8,0.7,1.6,1.3,2.5l1.2,2l5.9-3.6c0.2-0.1,0.5-0.2,0.7-0.2c0.3,0,0.5,0.1,0.8,0.3
			c0.2,0.2,0.5,0.4,0.7,0.7c0.2,0.3,0.5,0.6,0.8,1.1s0.5,0.9,0.7,1.2c0.2,0.4,0.2,0.7,0.3,1c0,0.3,0,0.6-0.1,0.8
			c-0.1,0.2-0.3,0.4-0.5,0.5l-5.9,3.6l4.6,7.5l9.8-6.1c0.2-0.1,0.5-0.2,0.7-0.2c0.3,0,0.5,0.1,0.8,0.3c0.2,0.2,0.5,0.4,0.7,0.7l0,0
			c0.3,0.3,0.5,0.7,0.8,1.1s0.5,0.9,0.6,1.2c0.2,0.4,0.3,0.7,0.3,1s0,0.6-0.1,0.8c-0.1,0.2-0.3,0.4-0.5,0.6l-18.8,11.6
			C173,123,172.8,123,172.5,123z M167.5,107.2l5.7,9.2l-2.9,1.8c-0.1,0-0.1,0.1-0.1,0.1s0,0.1,0,0.3c0,0.2,0.1,0.4,0.2,0.7
			c0.1,0.3,0.3,0.7,0.6,1.1s0.5,0.7,0.7,1c0.2,0.2,0.4,0.4,0.6,0.5c0.2,0.1,0.3,0.1,0.3,0.1h0.1l18.8-11.6c0.1,0,0.1-0.1,0.1-0.1
			s0-0.1,0-0.3c0-0.2-0.1-0.4-0.2-0.7c-0.1-0.3-0.3-0.7-0.6-1.1s-0.5-0.8-0.7-1s-0.4-0.4-0.6-0.5c-0.2-0.1-0.2-0.1-0.3-0.1
			s-0.1,0-0.2,0l-10.6,6.6l-5.7-9.2l6.7-4.2c0.1,0,0.1-0.1,0.1-0.1s0-0.1,0-0.3c0-0.2-0.1-0.4-0.2-0.7c-0.1-0.3-0.3-0.7-0.6-1.1
			s-0.5-0.7-0.7-1c-0.2-0.2-0.4-0.4-0.5-0.5s-0.2-0.1-0.3-0.1s-0.1,0-0.2,0l-6.7,4.2l-1.7-2.8c-0.6-1-1.1-1.9-1.3-2.7
			c-0.3-0.9-0.4-1.7-0.4-2.5s0.3-1.5,0.7-2.2s1.1-1.2,1.9-1.8c0.8-0.5,1.6-0.8,2.4-1c0.7-0.1,1.4-0.2,2-0.2s1.1,0,1.5,0.1
			c0.4,0,0.5,0,0.6-0.1c0,0,0.1,0,0.1-0.1c0,0,0-0.1,0-0.3c0-0.1-0.1-0.3-0.2-0.7c-0.1-0.3-0.3-0.7-0.6-1.1c-0.2-0.4-0.5-0.7-0.6-1
			c-0.2-0.2-0.3-0.4-0.5-0.6c-0.1-0.1-0.2-0.2-0.4-0.3c-0.1,0-0.3-0.1-0.6-0.2s-0.7-0.1-1.2-0.1s-1.1,0.1-1.7,0.2
			c-0.6,0.1-1.3,0.4-1.9,0.6c-0.7,0.3-1.3,0.6-2,1c-1.5,0.9-2.7,2-3.6,3.1c-0.9,1.1-1.5,2.3-1.7,3.6c-0.2,1.3-0.2,2.8,0.2,4.3
			c0.4,1.6,1.2,3.3,2.3,5.2l1.6,2.6l-2.9,1.8c-0.1,0-0.1,0.1-0.1,0.1s0,0.1,0,0.3c0,0.2,0.1,0.4,0.2,0.7c0.1,0.3,0.3,0.7,0.6,1.1
			s0.5,0.8,0.7,1s0.4,0.4,0.5,0.5c0.2,0.1,0.2,0.1,0.3,0.1s0.1,0,0.2-0.1L167.5,107.2z"/>
	</g>
	<g>
		<path class="st1" d="M251.2,164v-29.7c0-4.8-3.9-8.8-8.7-8.8H84c-4.8,0-8.7,3.9-8.7,8.8v108c0,4.8,3.9,8.8,8.7,8.8h158.5
			c4.8,0,8.7-3.9,8.7-8.8v-29.7V164z"/>
	</g>
	<g>
		<path class="st0" d="M242.4,254H84c-6.5,0-11.7-5.3-11.7-11.8v-108c0-6.5,5.3-11.8,11.7-11.8h158.5c6.5,0,11.7,5.3,11.7,11.8v108
			C254.2,248.7,248.9,254,242.4,254z M84,128.5c-3.2,0-5.7,2.6-5.7,5.8v108c0,3.2,2.6,5.8,5.7,5.8h158.5c3.2,0,5.7-2.6,5.7-5.8v-108
			c0-3.2-2.6-5.8-5.7-5.8H84z"/>
	</g>
	<g>
		<path class="st1" d="M233.4,213.3c-4.7,0-8.5-3.8-8.5-8.6c0-4.7,3.8-8.6,8.5-8.6s8.5,3.8,8.5,8.6
			C242,209.5,238.1,213.3,233.4,213.3 M268.3,187.4c-1.1-0.4-2.4-0.7-4-0.7h-30.6c-9.9,0-17.9,8.1-17.9,18s8,18,17.9,18h30.6
			c1.6,0,2.9-0.3,4-0.7c2.7-0.9,4.2-2.8,5-5.4c1-3.2,1.2-7.3,1.2-11.9c0-4.6-0.1-8.7-1.2-11.9C272.5,190.2,271,188.3,268.3,187.4"/>
	</g>
	<g>
		<path class="st0" d="M264.3,224.8h-30.6c-11,0-19.9-9-19.9-20s8.9-20,19.9-20h30.6c1.6,0,3.1,0.2,4.6,0.8c3.1,1.1,5.2,3.3,6.3,6.7
			c1.2,3.5,1.3,8,1.3,12.6s-0.1,9-1.3,12.6c-1.1,3.4-3.2,5.6-6.3,6.7C267.5,224.5,266,224.8,264.3,224.8z M233.7,188.8
			c-8.8,0-15.9,7.2-15.9,16s7.1,16,15.9,16h30.6c1.2,0,2.2-0.2,3.3-0.6c1.9-0.7,3.1-1.9,3.8-4.1c1-3,1.1-7,1.1-11.3
			s-0.1-8.3-1.1-11.3c-0.7-2.2-1.9-3.5-3.8-4.1l0,0c-1.1-0.4-2.1-0.6-3.3-0.6L233.7,188.8L233.7,188.8z M233.4,215.3
			c-5.8,0-10.5-4.7-10.5-10.6c0-5.8,4.7-10.6,10.5-10.6s10.5,4.7,10.5,10.6C244,210.6,239.2,215.3,233.4,215.3z M233.4,198.2
			c-3.6,0-6.5,3-6.5,6.6s2.9,6.6,6.5,6.6s6.5-3,6.5-6.6C240,201.1,237,198.2,233.4,198.2z"/>
	</g>
</g>
</svg>
