<?xml version="1.0" encoding="utf-8"?>
<!-- Generator: Adobe Illustrator 19.2.0, SVG Export Plug-In . SVG Version: 6.00 Build 0)  -->
<!DOCTYPE svg PUBLIC "-//W3C//DTD SVG 1.1//EN" "http://www.w3.org/Graphics/SVG/1.1/DTD/svg11.dtd">
<svg version="1.1" id="council-tax-svg" xmlns="http://www.w3.org/2000/svg" xmlns:xlink="http://www.w3.org/1999/xlink" x="0px" y="0px"
	 viewBox="0 0 340 340" style="enable-background:new 0 0 340 340;" xml:space="preserve" >
<style type="text/css">
                .st0{fill:#071C2C;}
                .st1{fill:#FFFFFF;}
				svg:hover {  cursor:pointer;}
                svg:hover .st0 {  fill:#830065;}
</style>

  
<g>
	<rect x="166.9" y="239.3" class="st0" width="144.5" height="6"/>
</g>
<g>
	<path class="st0" d="M195.9,198.2h-29.8v-29.8h29.8V198.2z M169.1,195.2h23.8v-23.8h-23.8V195.2z"/>
</g>
<g>
	<rect x="167.8" y="182.3" class="st0" width="26.4" height="2"/>
</g>
<g>
	<rect x="180" y="170.1" class="st0" width="2" height="26.4"/>
</g>
<g>
	<path class="st0" d="M298.1,198.2h-29.8v-29.8h29.8V198.2z M271.3,195.2h23.8v-23.8h-23.8V195.2z"/>
</g>
<g>
	<rect x="270" y="182.3" class="st0" width="26.4" height="2"/>
</g>
<g>
	<rect x="282.2" y="170.1" class="st0" width="2" height="26.4"/>
</g>
<path class="st0" d="M326.5,128.6L307,108.7V74.3c0-5.7-4.8-9.3-9.3-9.3H286c-5.7,0-9,4.8-9,9.3v4l-35.9-36.4
	c-2.4-2.4-5.7-3.8-9-3.8s-6.7,1.4-9,3.8l-85.2,86.7c-2.4,2.4-3.7,5.6-3.6,8.9c0,3.4,1.5,6.5,3.9,8.9c1.9,1.9,4,3.1,7,3.4V170h6
	v-23.2c0-0.9-0.5-1.7-1.1-2.2c-0.6-0.6-1.5-0.8-2.4-0.7c-2,0.2-4-0.4-5.4-1.8c-1.3-1.2-2-2.9-2-4.7c0-1.8,0.7-3.4,1.9-4.7L227.3,46
	c1.2-1.3,3-2,4.7-2s3.5,0.7,4.7,2l41,41.6c0.9,0.9,2.2,1.1,3.4,0.7c1.1-0.5,1.9-1.6,1.9-2.8V74.3c0-1.1,0.5-3.3,3-3.3h11.8
	c1.1,0,3.3,0.8,3.3,3.3v35.7c0,0.8,0.2,1.5,0.8,2.1l20.4,20.7c1.2,1.3,1.9,2.9,1.9,4.7c0,1.8-0.7,3.4-2,4.7
	c-1.4,1.4-3.4,2.1-5.3,1.9c-0.8-0.1-1.9,0.2-2.5,0.7c-0.6,0.6-1.2,1.4-1.2,2.2V239h-62v-61.1c0-5.5-4-10.9-11.8-10.9H225
	c-5.6,0-11,3.1-11,10.9V239h-47v6h46.6c3.3,0,6.4-2.4,6.4-5.7v-61.4c0-4.4,2.6-4.9,5-4.9h14.1c4.8,0,5.8,3.2,5.8,4.9v61.4
	c0,3.3,2.2,5.7,5.5,5.7h62.8c3.3,0,5.7-2.4,5.7-5.7v-89.4c3-0.4,5.2-1.6,7.1-3.5c2.4-2.4,3.9-5.5,3.9-8.9
	C330,134.1,328.8,131,326.5,128.6z"/>
<g>
	<g>
		<path class="st0" d="M83.5,235.2c-13.8,0-25-11.2-25-25c0-13.8,11.2-25,25-25c13.8,0,25,11.2,25,25
			C108.5,224,97.3,235.2,83.5,235.2z M83.5,188.1c-12.1,0-22,9.9-22,22c0,12.1,9.9,22,22,22c12.1,0,22-9.9,22-22
			C105.5,198,95.6,188.1,83.5,188.1z"/>
	</g>
	<g>
		<path class="st0" d="M94.2,221.8c0-0.3-0.1-0.6-0.2-0.8c-0.1-0.2-0.2-0.3-0.3-0.4c-0.1-0.1-0.3-0.1-0.4-0.1H82.6v-8.7h6.6
			c0.1,0,0.3,0,0.4-0.1c0.1-0.1,0.2-0.2,0.3-0.4c0.1-0.2,0.2-0.4,0.2-0.7c0-0.3,0.1-0.7,0.1-1.2c0-0.5,0-0.8-0.1-1.1
			c0-0.3-0.1-0.6-0.2-0.7c-0.1-0.2-0.2-0.3-0.3-0.4c-0.1-0.1-0.3-0.1-0.4-0.1h-6.6v-2.5c0-1,0.1-1.8,0.2-2.6
			c0.2-0.8,0.4-1.4,0.8-1.9c0.4-0.5,0.8-0.9,1.4-1.2c0.6-0.3,1.3-0.4,2.1-0.4c0.8,0,1.5,0.1,2.1,0.3c0.6,0.2,1.1,0.5,1.5,0.7
			c0.4,0.3,0.8,0.5,1.1,0.7c0.3,0.2,0.5,0.3,0.8,0.3c0.1,0,0.3,0,0.4-0.1c0.1-0.1,0.2-0.2,0.3-0.4c0.1-0.2,0.1-0.4,0.2-0.7
			c0-0.3,0.1-0.7,0.1-1.1c0-0.4,0-0.8,0-1.1c0-0.3-0.1-0.5-0.1-0.7c-0.1-0.2-0.1-0.4-0.2-0.5c-0.1-0.1-0.2-0.3-0.4-0.5
			c-0.2-0.2-0.5-0.4-1-0.7c-0.4-0.3-1-0.5-1.5-0.7c-0.6-0.2-1.2-0.3-1.8-0.4c-0.7-0.1-1.4-0.2-2.1-0.2c-1.6,0-3.1,0.2-4.3,0.6
			c-1.3,0.4-2.3,1.1-3.2,2c-0.8,0.9-1.5,2.1-1.9,3.6c-0.4,1.4-0.7,3.2-0.7,5.1v2.2h-2.6c-0.1,0-0.3,0-0.4,0.1
			c-0.1,0.1-0.2,0.2-0.3,0.4c-0.1,0.2-0.2,0.4-0.2,0.7c0,0.3-0.1,0.7-0.1,1.1c0,0.5,0,0.9,0.1,1.2c0,0.3,0.1,0.6,0.2,0.7
			c0.1,0.2,0.2,0.3,0.3,0.4c0.1,0.1,0.2,0.1,0.4,0.1h2.6v8.7h-2.6c-0.1,0-0.3,0-0.4,0.1c-0.1,0.1-0.2,0.2-0.3,0.4
			c-0.1,0.2-0.2,0.5-0.2,0.8c0,0.3-0.1,0.7-0.1,1.2c0,0.5,0,0.8,0.1,1.2c0,0.3,0.1,0.6,0.2,0.8c0.1,0.2,0.2,0.3,0.3,0.4
			c0.1,0.1,0.2,0.1,0.4,0.1h19.6c0.1,0,0.3,0,0.4-0.1c0.1-0.1,0.2-0.2,0.3-0.4c0.1-0.2,0.2-0.5,0.2-0.8c0-0.3,0.1-0.7,0.1-1.2
			C94.3,222.5,94.2,222.1,94.2,221.8"/>
	</g>
	<g>
		<path class="st0" d="M93.3,225.9H73.6c-0.3,0-0.5-0.1-0.7-0.2c-0.2-0.1-0.3-0.3-0.5-0.6c-0.1-0.2-0.2-0.5-0.2-0.9
			c-0.1-0.3-0.1-0.8-0.1-1.2c0-0.5,0-0.9,0.1-1.2c0-0.4,0.1-0.7,0.2-0.9c0.1-0.3,0.3-0.5,0.5-0.6c0.2-0.1,0.4-0.2,0.7-0.2h2.1v-7.7
			h-2.1c-0.2,0-0.5-0.1-0.7-0.2c-0.2-0.1-0.4-0.3-0.5-0.6c-0.1-0.2-0.2-0.5-0.3-0.9c-0.1-0.3-0.1-0.8-0.1-1.3c0-0.5,0-0.9,0.1-1.2
			c0-0.4,0.1-0.7,0.2-0.9c0.1-0.3,0.3-0.5,0.5-0.6c0.2-0.1,0.4-0.2,0.7-0.2h2.1v-1.7c0-2,0.2-3.8,0.7-5.3c0.5-1.5,1.1-2.8,2-3.7
			c0.9-1,2-1.7,3.4-2.2c1.3-0.4,2.8-0.7,4.5-0.7c0.7,0,1.5,0.1,2.1,0.2c0.7,0.1,1.3,0.3,1.9,0.5c0.6,0.2,1.1,0.4,1.6,0.7
			c0.5,0.3,0.9,0.5,1.1,0.8c0.2,0.2,0.4,0.4,0.5,0.6c0.1,0.2,0.2,0.4,0.3,0.7c0.1,0.2,0.1,0.5,0.1,0.8c0,0.3,0,0.7,0,1.1
			c0,0.5,0,0.9-0.1,1.2c0,0.3-0.1,0.6-0.2,0.9c-0.1,0.3-0.3,0.5-0.5,0.6c-0.5,0.3-1.1,0.3-1.7-0.2c-0.3-0.2-0.6-0.5-1-0.7
			c-0.4-0.2-0.9-0.5-1.4-0.7c-0.5-0.2-1.2-0.3-1.9-0.3c-0.7,0-1.4,0.1-1.9,0.4c-0.5,0.2-0.9,0.6-1.2,1c-0.3,0.5-0.6,1-0.7,1.7
			c-0.2,0.7-0.2,1.6-0.2,2.5v2h6.1c0.2,0,0.5,0.1,0.7,0.2c0.2,0.1,0.4,0.3,0.5,0.6c0.1,0.2,0.2,0.5,0.2,0.9c0.1,0.3,0.1,0.7,0.1,1.2
			c0,0.5,0,0.9-0.1,1.3c-0.1,0.4-0.1,0.7-0.3,0.9c-0.1,0.3-0.3,0.5-0.5,0.6c-0.2,0.1-0.4,0.2-0.7,0.2h-6.1v7.7h10.2
			c0.2,0,0.5,0.1,0.7,0.2c0.2,0.1,0.4,0.3,0.5,0.6c0.1,0.2,0.2,0.5,0.2,0.9v0c0.1,0.3,0.1,0.8,0.1,1.3c0,0.5,0,0.9-0.1,1.2
			c-0.1,0.4-0.1,0.7-0.2,0.9c-0.1,0.3-0.3,0.5-0.5,0.6C93.8,225.9,93.5,225.9,93.3,225.9z M73.6,221c0,0-0.1,0-0.1,0
			c0,0-0.1,0.1-0.1,0.2c0,0.1-0.1,0.3-0.2,0.6c0,0.3-0.1,0.7-0.1,1.1c0,0.4,0,0.8,0.1,1.1c0,0.3,0.1,0.5,0.2,0.6
			c0.1,0.2,0.1,0.2,0.1,0.2c0,0,0.1,0,0.1,0h19.6c0.1,0,0.1,0,0.1,0c0,0,0.1-0.1,0.1-0.2c0.1-0.2,0.1-0.4,0.2-0.6
			c0-0.3,0.1-0.7,0.1-1.1c0-0.4,0-0.8-0.1-1.1c0-0.3-0.1-0.5-0.2-0.7c-0.1-0.1-0.1-0.2-0.1-0.2c0,0-0.1,0-0.1,0H82.1v-9.7h7.1
			c0.1,0,0.1,0,0.1,0l0,0c0,0,0.1,0,0.1-0.2c0.1-0.1,0.1-0.3,0.2-0.6c0-0.3,0.1-0.6,0.1-1.1c0-0.4,0-0.8-0.1-1.1
			c0-0.3-0.1-0.5-0.2-0.6c-0.1-0.1-0.1-0.2-0.1-0.2c0,0-0.1,0-0.1,0h-7.1v-3c0-1,0.1-1.9,0.3-2.7c0.2-0.8,0.5-1.5,0.9-2.1
			c0.4-0.6,0.9-1,1.6-1.3c0.6-0.3,1.4-0.5,2.3-0.5c0.9,0,1.6,0.1,2.3,0.4c0.6,0.2,1.2,0.5,1.6,0.8c0.4,0.3,0.8,0.5,1.1,0.8
			c0.3,0.2,0.4,0.2,0.5,0.2c0.1,0,0.1-0.1,0.2-0.2c0-0.1,0.1-0.3,0.1-0.6c0-0.3,0.1-0.7,0.1-1.1c0-0.4,0-0.8,0-1
			c0-0.3-0.1-0.5-0.1-0.7c0-0.1-0.1-0.3-0.1-0.4c-0.1-0.1-0.2-0.3-0.4-0.5c-0.2-0.2-0.5-0.4-0.9-0.6c-0.4-0.2-0.9-0.4-1.4-0.6
			c-0.5-0.2-1.1-0.3-1.7-0.4c-0.6-0.1-1.3-0.2-2-0.2c-1.6,0-3,0.2-4.2,0.6c-1.2,0.4-2.2,1-3,1.9c-0.8,0.9-1.4,2-1.8,3.4
			c-0.4,1.4-0.6,3.1-0.6,5v2.7h-3.1c0,0-0.1,0-0.1,0c0,0-0.1,0.1-0.1,0.2c0,0.1-0.1,0.3-0.1,0.6c0,0.3-0.1,0.7-0.1,1.1
			c0,0.4,0,0.8,0.1,1.1c0.1,0.3,0.1,0.5,0.2,0.6c0.1,0.1,0.1,0.2,0.1,0.2c0,0,0.1,0,0.1,0h3.1v9.7H73.6z"/>
	</g>
</g>
<g>
	<path class="st0" d="M171.5,239.6h-42.5v-16.7h42.5V239.6z M132.9,235.6h34.5v-8.7h-34.5V235.6z"/>
</g>
<g>
	<rect x="151" y="238" class="st0" width="6" height="3"/>
	<polygon class="st0" points="128,247 16,247 16,173 151,173 151,225 157,225 157,167 10,167 10,253 128,253 	"/>
</g>
<g>
	<path class="st0" d="M168.3,255.7h-42.5V239h42.5V255.7z M129.8,251.7h34.5V243h-34.5V251.7z"/>
</g>
<g>
	<path class="st0" d="M172,271.9h-42.5v-16.7H172V271.9z M133.5,267.9H168v-8.7h-34.5V267.9z"/>
</g>
</svg>
