<?xml version="1.0" encoding="utf-8"?>
<!-- Generator: Adobe Illustrator 19.2.0, SVG Export Plug-In . SVG Version: 6.00 Build 0)  -->
<!DOCTYPE svg PUBLIC "-//W3C//DTD SVG 1.1//EN" "http://www.w3.org/Graphics/SVG/1.1/DTD/svg11.dtd">
<svg version="1.1" id="Layer_1" xmlns="http://www.w3.org/2000/svg" xmlns:xlink="http://www.w3.org/1999/xlink" x="0px" y="0px"
	 viewBox="12 -70 340 340" style="enable-background:new 12 -70 340 340;" xml:space="preserve" >
<style type="text/css">
                .st0{fill:#071C2C;}
                .st1{fill:#FFFFFF;}
    svg:hover {  cursor:pointer;}
                svg:hover .st0 {  fill:#830065;}
</style>
<g>
	<g>
		<g>
			<path class="st0" d="M86.5,153.5c2.9,0.3,5.8,1.4,8.4,3l2.1-0.4c0.5-0.1,0.9-0.6,0.8-1.1l-1.2-8.4c-0.1-0.4-0.4-0.8-0.8-0.8
				l-3.8-0.6l0.4-1.4c0.1-0.4,0-0.8-0.4-1.1l-2.9-2.1c-0.2-0.1-0.3-0.2-0.5-0.2l-1-0.1l2.7-16.7c0.1-0.5-0.3-1.1-0.8-1.1l-4-0.7
				c-0.3,0-0.5,0-0.7,0.2s-0.4,0.4-0.4,0.7l-3.1,19l-1.8,1.3C83.5,144.5,86.5,148.4,86.5,153.5z"/>
			<path class="st0" d="M36.2,165.3c0.1,0,0.3,0,0.4-0.1l4.9-2.2c0.3-0.2,0.6-0.5,0.6-0.9c0-0.4-0.2-0.7-0.5-0.9l-3.3-1.8l6.7-12
				c1.1,0.8,2.2,1.5,3.3,2.3c-0.2,0.2-0.3,0.6-0.3,0.9c0.1,0.3,0.3,0.6,0.6,0.8l0.3,0.1l-4.7,8.4c-0.2,0.4-0.2,0.8,0.1,1.2
				c0.3,0.3,0.8,0.4,1.2,0.2l0.7-0.3c0.1-15.4,17.9-12.2,17.9-12.2c2.9-4.4,6.7-6.4,10.4-6.6l1.5-9.3c0.1-0.5-0.3-1.1-0.8-1.1
				l-4-0.7c-0.5-0.1-1.1,0.3-1.1,0.8l-1.6,9.6l-8.8-1.4c-0.3-0.1-0.6,0-0.8,0.2l-5.6,5c-4.2-2.8-8.2-5.7-12-8.9
				c-0.2-0.2-0.5-0.3-0.8-0.2c-0.3,0.1-0.5,0.2-0.7,0.5l-2.2,3.9c-0.2,0.4-0.1,1,0.2,1.3c1.2,1,2.4,1.9,3.7,2.9l-7,12.5l-4-2.2
				c-0.5-0.3-1.1-0.1-1.4,0.4l-2.1,3.8c-0.1,0.2-0.2,0.5-0.1,0.8c0.1,0.3,0.2,0.5,0.5,0.6l8.3,4.7C35.8,165.2,36,165.3,36.2,165.3z"
				/>
		</g>
		<g>
			<path class="st0" d="M107,184H33.1c-1.5,0-2.8-1.1-3-2.6c0-0.2-0.6-4.7,1-9.6c1.4-4.2,4.6-9.4,12-11.3c0.1-4.6,1.6-8.3,4.5-11
				c4.7-4.3,11.6-4.3,15-4.1c5-6.4,11.7-7.3,16.6-5.8c5.3,1.6,9.2,6,10.1,11.4c8.3,1.9,15.3,8.9,18.8,15.4c3.2,6,3.7,11.8,1.5,16
				C109.1,183.4,108.1,184,107,184z M36,178h68.9c0.4-2.4-0.3-5.5-2-8.8c-3-5.6-9.5-11.9-16.6-12.7c-1.5-0.2-2.7-1.4-2.7-3
				c0-3.9-2.4-7.1-6-8.2c-4.1-1.2-8.1,0.6-10.9,4.9c-0.7,1-1.9,1.5-3,1.3c-2.2-0.4-8.5-0.7-11.8,2.4c-2,1.8-2.8,4.7-2.4,8.7
				c0.1,1.6-1,3-2.6,3.2C37.9,167.1,36.2,174.1,36,178z"/>
		</g>
	</g>
	<polygon class="st0" points="200.7,94.9 219.7,125.8 223.2,125.8 204.8,95.9 210.1,92.6 197.3,71.9 199.7,70.5 212.4,91.2 
		217.7,88 240.9,125.8 244.4,125.8 218.7,83.9 213.4,87.1 200.7,66.4 193.2,70.9 205.9,91.7 	"/>
	<g>
		<g>
			<path class="st0" d="M156.2,183.5c-11.8,0-21.4-9.7-21.4-21.7s9.6-21.7,21.4-21.7s21.4,9.7,21.4,21.7S168.1,183.5,156.2,183.5z
				 M156.2,146.2c-8.5,0-15.4,7-15.4,15.7c0,8.6,6.9,15.7,15.4,15.7s15.4-7,15.4-15.7C171.7,153.2,164.7,146.2,156.2,146.2z"/>
		</g>
		<g>
			<path class="st0" d="M282.7,162.2c0-0.1,0-0.2,0-0.4c0-2,0.3-3.9,0.9-5.6l-109.8,0.1c0.5,1.8,0.8,3.6,0.8,5.6c0,0.1,0,0.3,0,0.4
				L282.7,162.2z"/>
			<path class="st0" d="M333.8,108.1l-17.2-41.8c-0.5-1.1-1.6-1.9-2.8-1.9c0,0,0,0,0,0l-46.1,0.1c-1.7,0-3,1.3-3,3v55.3H106.5
				c-1.7,0-3,1.3-3,3v22.4c0,1.3,0.9,2.5,2.2,2.9l32.2,9c0.2-2.1,0.7-4,1.5-5.8l-29.9-8.3v-17.2h158.2c1.7,0,3-1.3,3-3V70.5
				l41.1-0.1l16.2,39.4v46.4l-9.3,0c0.6,1.8,0.9,3.7,0.9,5.7c0,0.1,0,0.2,0,0.3l11.5,0c1.7,0,3-1.3,3-3v-50
				C334,108.8,333.9,108.4,333.8,108.1z"/>
		</g>
		<g>
			<path class="st0" d="M301.1,183.5c-11.8,0-21.4-9.7-21.4-21.7s9.6-21.7,21.4-21.7s21.4,9.7,21.4,21.7S312.9,183.5,301.1,183.5z
				 M301.1,146.2c-8.5,0-15.4,7-15.4,15.7c0,8.6,6.9,15.7,15.4,15.7s15.4-7,15.4-15.7C316.6,153.2,309.6,146.2,301.1,146.2z"/>
		</g>
		<g>
			<path class="st0" d="M156.2,170.2c-4.6,0-8.3-3.8-8.3-8.4s3.7-8.4,8.3-8.4s8.3,3.8,8.3,8.4S160.8,170.2,156.2,170.2z
				 M156.2,155.4c-3.5,0-6.3,2.9-6.3,6.4s2.8,6.4,6.3,6.4s6.3-2.9,6.3-6.4S159.7,155.4,156.2,155.4z"/>
		</g>
		<g>
			<path class="st0" d="M301.1,170.2c-4.6,0-8.3-3.8-8.3-8.4s3.7-8.4,8.3-8.4s8.3,3.8,8.3,8.4S305.7,170.2,301.1,170.2z
				 M301.1,155.4c-3.5,0-6.3,2.9-6.3,6.4s2.8,6.4,6.3,6.4s6.3-2.9,6.3-6.4S304.6,155.4,301.1,155.4z"/>
		</g>
	</g>
	<g>
		<path class="st0" d="M328.7,106.1h-44.1c-0.4,0-0.8-0.2-1.1-0.4c-0.3-0.3-0.4-0.7-0.4-1.1l0.1-27.7c0-0.8,0.7-1.5,1.5-1.5h31.8
			c0.6,0,1.1,0.3,1.4,0.9L330,104c0.2,0.5,0.2,1-0.1,1.4C329.6,105.8,329.2,106.1,328.7,106.1z M286,103.1h40.3l-10.9-24.7h-29.3
			L286,103.1z"/>
	</g>
	<g>
		<g>
			<path class="st0" d="M106.4,127.2c-3.1,0-5.7-1.1-7.6-2.3c-3.6-2.2-5.5-5.3-5.7-5.7L67.9,77.9c-0.9-1.4-0.4-3.3,1-4.1l142.2-86.3
				c0.7-0.4,1.5-0.5,2.3-0.3c0.8,0.2,1.4,0.7,1.9,1.4l25.1,41.4c6.5,10.8-0.6,19-5.4,21.9l-120.1,72.9
				C111.8,126.5,108.9,127.2,106.4,127.2z M74.6,77.3l23.6,38.8c0.5,0.9,5.5,8.3,13.6,3.3L232,46.6c0.9-0.5,8.3-5.5,3.3-13.6
				L211.7-5.9L74.6,77.3z"/>
		</g>
	</g>
</g>
</svg>
