<?xml version="1.0" encoding="utf-8"?>
<!-- Generator: Adobe Illustrator 20.1.0, SVG Export Plug-In . SVG Version: 6.00 Build 0)  -->
<!DOCTYPE svg PUBLIC "-//W3C//DTD SVG 1.1//EN" "http://www.w3.org/Graphics/SVG/1.1/DTD/svg11.dtd">
<svg version="1.1" id="Layer_1" xmlns="http://www.w3.org/2000/svg" xmlns:xlink="http://www.w3.org/1999/xlink" x="0px" y="0px"
	 width="15.4px" height="15px" viewBox="0 0 15.4 15" style="enable-background:new 0 0 15.4 15;" xml:space="preserve">
<style type="text/css">
	.st0{fill:#830065;}
	.st1{fill:#FFFFFF;}
</style>
<polygon class="st0" points="0,0 0,15 15.4,15 15.4,0 "/>
<path class="st1" d="M13.5,2.4c-0.3-0.4-0.8-0.6-1.4-0.5l0,0c-0.3,0.1-0.6,0.2-0.8,0.5L6.1,9.8L3.6,8.3C3,8,2.2,8.2,1.8,8.8
	C1.6,9.1,1.5,9.5,1.6,9.7c0.1,0.3,0.3,0.6,0.6,0.8l3.6,2.1c0.2,0.1,0.4,0.2,0.7,0.2c0.4,0,0.8-0.2,1.1-0.6l5.9-8.5
	C13.8,3.3,13.8,2.8,13.5,2.4z"/>
</svg>
