<?xml version="1.0" encoding="utf-8"?>
<!-- Generator: Adobe Illustrator 20.1.0, SVG Export Plug-In . SVG Version: 6.00 Build 0)  -->
<!DOCTYPE svg PUBLIC "-//W3C//DTD SVG 1.1//EN" "http://www.w3.org/Graphics/SVG/1.1/DTD/svg11.dtd">
<svg version="1.1" id="Layer_1" xmlns="http://www.w3.org/2000/svg" xmlns:xlink="http://www.w3.org/1999/xlink" x="0px" y="0px"
	 width="13.3px" height="19.1px" viewBox="0 0 13.3 19.1" style="enable-background:new 0 0 13.3 19.1;" xml:space="preserve">
<style type="text/css">
	.st0{fill:#830065;}
	.st1{fill:#FFFFFF;}
</style>
<g id="group-63" transform="translate(153.292 -9360)">
	<g id="group-52" transform="translate(-906 42)">
		<path class="st0" d="M759.3,9318L759.3,9318c-3.7,0-6.6,3-6.6,6.6c0,1.1,0.3,2.2,0.8,3.2l4.8,8.6c0.2,0.4,0.6,0.6,1.1,0.6
			c0.4,0,0.8-0.2,1-0.6l4.8-8.6c0.5-1,0.8-2.1,0.8-3.2C766,9321,763,9318,759.3,9318z"/>
		<path class="st1" d="M759.3,9321.7c-1.6,0-3,1.3-3,3c0,1.6,1.3,3,3,3c0,0,0,0,0,0c0.8,0,1.5-0.3,2.1-0.9c0.6-0.6,0.9-1.3,0.9-2.1
			C762.3,9323,761,9321.7,759.3,9321.7z"/>
	</g>
</g>
</svg>
