<?xml version="1.0" encoding="utf-8"?>
<!-- Generator: Adobe Illustrator 19.1.0, SVG Export Plug-In . SVG Version: 6.00 Build 0)  -->
<!DOCTYPE svg PUBLIC "-//W3C//DTD SVG 1.1//EN" "http://www.w3.org/Graphics/SVG/1.1/DTD/svg11.dtd">
<svg version="1.1" id="Layer_1" xmlns="http://www.w3.org/2000/svg" xmlns:xlink="http://www.w3.org/1999/xlink" x="0px" y="0px"
	 viewBox="-390 566.2 59.6 59.3" style="enable-background:new -390 566.2 59.6 59.3;" xml:space="preserve">
<style type="text/css">
	.st0{fill:#FFFFFF;}
</style>
<path class="st0" d="M-330.7,617.6l-15.8-15.9c-0.4-0.4-0.9-0.4-1.3-0.1c2.4-3.6,3.8-7.9,3.8-12.6c-0.1-12.5-10.4-22.8-23.1-22.8
	c-12.7,0-22.9,10.3-22.9,22.9c0,12.6,10.3,22.9,22.9,22.9c4.7,0,9.1-1.4,12.7-3.9c-0.1,0.1-0.1,0.3-0.1,0.5c0,0.3,0.1,0.5,0.3,0.7
	l15.9,15.9c0.2,0.2,0.4,0.3,0.7,0.3h0.4c3.8,0,6.8-3.1,6.8-6.8v-0.4C-330.4,618-330.5,617.8-330.7,617.6z M-367.1,608.1
	c-10.5,0-19-8.5-19-19s8.5-19,19-19c10.4,0,19,8.5,19,19S-356.6,608.1-367.1,608.1z"/>
</svg>
