<?xml version="1.0" encoding="utf-8"?>
<!-- Generator: Adobe Illustrator 19.2.1, SVG Export Plug-In . SVG Version: 6.00 Build 0)  -->
<!DOCTYPE svg PUBLIC "-//W3C//DTD SVG 1.1//EN" "http://www.w3.org/Graphics/SVG/1.1/DTD/svg11.dtd">
<svg version="1.1" id="Layer_1" xmlns="http://www.w3.org/2000/svg" xmlns:xlink="http://www.w3.org/1999/xlink" x="0px" y="0px"
	 width="18px" height="18px" viewBox="0 0 18 18" style="enable-background:new 0 0 18 18;" xml:space="preserve">
<style type="text/css">
                .st0{fill:#071C2C;}
                .st1{fill:#FFFFFF;}
    svg:hover {  cursor:pointer;}
                svg:hover .st0 {  fill:#830065;}
</style>
<g>
	<path class="st0" d="M16.5,0l-13,0C3.2,0,2.9,0.3,2.9,0.6l0,2l1.2,0l0-1.4l11.8,0l0,9.9c0,0.5-0.2,0.9-0.7,1.1
		c-0.7,0.3-1.4,0.3-2.8,0.3c-0.2,0-0.3,0-0.5,0.2c-0.1,0.1-0.2,0.3-0.2,0.5c0.1,1.1,0.1,2.8-0.5,3.3c-0.3,0.2-0.4,0.3-0.7,0.3
		c-0.3,0-6.4,0-6.4,0l0-5.8l-1.2,0l0,6.4c0,0.3,0.3,0.6,0.6,0.6c0,0,7.2,0,7.4,0c0.4,0,0.8-0.1,1.2-0.4c0.5-0.3,3.8-3.8,4.2-4.3
		c0.4-0.4,0.8-1.1,0.8-2.6v0l0-10.2C17.1,0.3,16.8,0,16.5,0L16.5,0z"/>
	<path class="st0" d="M1.5,10.1l1.5,0l1.2,0l9.7,0c0.3,0,0.5-0.2,0.5-0.5l0-5.5c0-0.3-0.2-0.5-0.5-0.5l-9.7,0l-1.2,0l-1.5,0
		c-0.3,0-0.5,0.2-0.5,0.5l0,5.5C0.9,9.9,1.2,10.1,1.5,10.1L1.5,10.1z M10,5.2l2.5,0l0,0.7l-1.5,0l0,0.6l1.3,0l0,0.7l-1.3,0l0,1.3
		l-1,0L10,5.2L10,5.2z M6.2,5.2l1.5,0c0.3,0,0.5,0,0.7,0.1c0.2,0.1,0.3,0.2,0.4,0.3C9,5.8,9.1,6,9.2,6.2c0.1,0.2,0.1,0.4,0.1,0.6
		c0,0.3,0,0.6-0.1,0.8C9,7.8,8.9,7.9,8.8,8.1C8.7,8.2,8.5,8.3,8.3,8.3C8.1,8.4,7.9,8.4,7.7,8.4l-1.5,0L6.2,5.2L6.2,5.2z M2.8,5.2
		l0.1,0l1.2,0l0.4,0c0.4,0,0.6,0.1,0.8,0.3c0.2,0.2,0.3,0.4,0.3,0.7c0,0.3-0.1,0.6-0.3,0.8C5.1,7.1,4.8,7.2,4.3,7.2l-0.3,0l-0.3,0
		l0,1.2l-0.9,0H2.8L2.8,5.2L2.8,5.2z"/>
	<path class="st0" d="M8.2,7.4c0.1-0.1,0.1-0.3,0.1-0.6c0-0.3-0.1-0.6-0.2-0.7C8,6,7.8,5.9,7.5,5.9l-0.3,0l0,1.8l0.2,0
		c0.2,0,0.4,0,0.4-0.1C8,7.6,8.1,7.5,8.2,7.4L8.2,7.4z"/>
	<path class="st0" d="M4.1,6.6c0.2,0,0.3,0,0.4-0.1c0.1-0.1,0.1-0.2,0.1-0.3c0-0.1,0-0.2-0.1-0.3C4.4,5.9,4.3,5.8,4.1,5.8
		c0,0,0,0,0,0l-0.3,0l0,0.7L4.1,6.6C4.1,6.6,4.1,6.6,4.1,6.6L4.1,6.6z"/>
</g>
</svg>
