<?xml version="1.0" encoding="utf-8"?>
<!-- Generator: Adobe Illustrator 19.2.1, SVG Export Plug-In . SVG Version: 6.00 Build 0)  -->
<!DOCTYPE svg PUBLIC "-//W3C//DTD SVG 1.1//EN" "http://www.w3.org/Graphics/SVG/1.1/DTD/svg11.dtd">
<svg version="1.1" id="Layer_1" xmlns="http://www.w3.org/2000/svg" xmlns:xlink="http://www.w3.org/1999/xlink" x="0px" y="0px"
	 width="18px" height="18px" viewBox="0 0 18 18" style="enable-background:new 0 0 18 18;" xml:space="preserve">
<style type="text/css">
                .st0{fill:#071C2C;}
                .st1{fill:#FFFFFF;}
    svg:hover {  cursor:pointer;}
                svg:hover .st0 {  fill:#830065;}
</style>
<g>
	<g>
		<path class="st0" d="M17.5,5.2c-0.3-0.3-0.7-0.4-1.1-0.4H14V1.1C14,0.5,13.5,0,12.9,0H5.1C4.5,0,4,0.5,4,1.1v3.7H1.7
			C1.2,4.8,0.8,5,0.5,5.2C0.2,5.6,0,6,0,6.3V13c0,0.4,0.2,0.8,0.5,1.1c0.3,0.3,0.7,0.5,1.1,0.5h1.1c0.1,0,0.3,0,0.4-0.1
			c0.1-0.1,0.1-0.3,0.1-0.4l0-2.7h11.3v2.8c0,0.2,0,0.3,0.1,0.4s0.3,0.1,0.4,0.1l1.1,0c0.5,0,0.8-0.1,1.1-0.5
			c0.3-0.3,0.5-0.7,0.5-1.1V6.3C18,6,17.8,5.6,17.5,5.2z M5,1.1h7.9v3.7H5V1.1z M16.9,13c0,0.1,0,0.2-0.1,0.3s-0.3,0.1-0.4,0.1h-0.6
			v-2.2c0-0.6-0.5-1.1-1.1-1.1H3.3c-0.6,0-1.1,0.5-1.1,1.1v2.2H1.6c-0.1,0-0.3,0-0.4-0.1s-0.1-0.2-0.1-0.3V6.4c0-0.1,0-0.2,0.1-0.3
			S1.5,6,1.6,6h14.7c0.1,0,0.3,0,0.4,0.1s0.1,0.2,0.1,0.3V13z"/>
		<circle class="st0" cx="15.5" cy="7.3" r="0.8"/>
		<circle class="st0" cx="13.2" cy="7.3" r="0.8"/>
	</g>
	<g>
		<path class="st0" d="M12.4,11.8H5.5c-0.9,0-1.6,0.7-1.6,1.6v2.9c0,0.9,0.7,1.6,1.6,1.6h6.9c0.9,0,1.6-0.7,1.6-1.6v-2.9
			C14,12.5,13.3,11.8,12.4,11.8z M12.9,16.4c0,0.3-0.2,0.5-0.5,0.5H5.5c-0.3,0-0.5-0.2-0.5-0.5v-2.9c0-0.2,0.2-0.5,0.5-0.5h6.9
			c0.3,0,0.5,0.2,0.5,0.5V16.4z"/>
		<path class="st0" d="M11.7,15.2H6.1c-0.3,0-0.6,0.3-0.6,0.6c0,0.3,0.2,0.6,0.6,0.6h5.6c0.3,0,0.6-0.2,0.6-0.6
			C12.3,15.5,12,15.2,11.7,15.2z"/>
		<path class="st0" d="M11.7,13.5H6.1c-0.3,0-0.6,0.3-0.6,0.6c0,0.3,0.2,0.6,0.6,0.6h5.6c0.3,0,0.6-0.2,0.6-0.6
			C12.3,13.8,12,13.5,11.7,13.5z"/>
	</g>
</g>
</svg>
