<?xml version="1.0" encoding="utf-8"?>
<!-- Generator: Adobe Illustrator 19.2.0, SVG Export Plug-In . SVG Version: 6.00 Build 0)  -->
<!DOCTYPE svg PUBLIC "-//W3C//DTD SVG 1.1//EN" "http://www.w3.org/Graphics/SVG/1.1/DTD/svg11.dtd">
<svg version="1.1" id="Layer_1" xmlns="http://www.w3.org/2000/svg" xmlns:xlink="http://www.w3.org/1999/xlink" x="0px" y="0px"
	 viewBox="0 0 595.3 841.9" style="enable-background:new 0 0 595.3 841.9;" xml:space="preserve">
<style type="text/css">
	.st0{fill:#041C2C;}
</style>
<g>
	<path class="st0" d="M303.9,427.6h-13.8c-1.8,0-3.2,1.4-3.2,3.2v5.9c0,1.8,1.4,3.2,3.2,3.2h13.8c1.8,0,3.2-1.4,3.2-3.2v-5.9
		C307.1,429,305.7,427.6,303.9,427.6z M304.9,436.7c0,0.5-0.4,1-1,1h-13.8c-0.5,0-1-0.4-1-1v-5.9c0-0.5,0.4-1,1-1h13.8
		c0.5,0,1,0.4,1,1V436.7z"/>
	<path class="st0" d="M314,414.4c-0.6-0.6-1.4-0.9-2.3-0.9h-4.6c0,0,0,0,0,0v-7.4c0-1.2-1-2.2-2.2-2.2h-15.7c-1.2,0-2.2,1-2.2,2.2
		v7.4c0,0,0,0,0,0h-4.6c-0.9,0-1.7,0.3-2.3,0.9c-0.6,0.6-1,1.4-1,2.2V430c0,0.8,0.4,1.6,1,2.2c0.6,0.6,1.4,0.9,2.3,0.9h2.3
		c0.3,0,0.6-0.1,0.8-0.3c0.2-0.2,0.3-0.5,0.3-0.8l-0.1-5.4h22.7v5.5c0,0.3,0.1,0.6,0.3,0.8c0.2,0.2,0.5,0.3,0.8,0.3c0,0,0,0,0,0
		l2.3-0.1c0.9,0,1.7-0.3,2.3-0.9c0.6-0.6,1-1.4,1-2.2v-13.4C315,415.8,314.6,415,314,414.4z M289.1,406.1L289.1,406.1h15.7l0,7.4
		l-15.7,0V406.1z M312.8,430c0,0.2-0.1,0.4-0.3,0.6c-0.2,0.2-0.5,0.3-0.8,0.3l-1.1,0v-4.3c0-1.2-1-2.2-2.2-2.2h-22.7
		c-1.2,0-2.2,1-2.2,2.3l0,4.3h-1.2c-0.3,0-0.6-0.1-0.8-0.3c-0.2-0.2-0.3-0.4-0.3-0.6c0,0,0,0,0,0v-13.4c0-0.2,0.1-0.4,0.3-0.6
		c0.2-0.2,0.5-0.3,0.8-0.3h29.5c0.3,0,0.6,0.1,0.8,0.3c0.2,0.2,0.3,0.4,0.3,0.6V430z"/>
	<circle class="st0" cx="310" cy="418.5" r="1.6"/>
	<circle class="st0" cx="305.5" cy="418.5" r="1.6"/>
	<path class="st0" d="M302.5,434.3h-11.2c-0.6,0-1.1,0.5-1.1,1.1s0.5,1.1,1.1,1.1h11.2c0.6,0,1.1-0.5,1.1-1.1
		S303.1,434.3,302.5,434.3z"/>
	<path class="st0" d="M302.5,430.9h-11.2c-0.6,0-1.1,0.5-1.1,1.1s0.5,1.1,1.1,1.1h11.2c0.6,0,1.1-0.5,1.1-1.1
		S303.1,430.9,302.5,430.9z"/>
</g>
</svg>
