<svg xmlns="http://www.w3.org/2000/svg" xmlns:xlink="http://www.w3.org/1999/xlink" width="200" height="38.796" viewBox="0 0 200 38.796">
  <defs>
    <clipPath id="clip-path">
      <rect id="Rectangle_8" data-name="Rectangle 8" width="200" height="38.796" fill="none"/>
    </clipPath>
  </defs>
  <g id="Vector_Smart_Object" data-name="Vector Smart Object" transform="translate(100 19.398)">
    <g id="Group_2" data-name="Group 2" transform="translate(-100 -19.398)">
      <g id="Group_1" data-name="Group 1" clip-path="url(#clip-path)">
        <path id="Path_1" data-name="Path 1" d="M201.405,79.079C166.642,71.9,134.263,75.09,101,77.416c-33,2.552-66.871,4.238-98.543-.742l1.052-.2c31.884,4.7,65.684,2.561,98.215-.559,32.8-2.914,64.324-6.81,97.775-.865q.968,2.023,1.9,4.03" transform="translate(-1.405 -41.084)" fill="#ccd0d6"/>
        <path id="Path_2" data-name="Path 2" d="M199.938,63.271C133.722,52.56,67.076,75.586,0,63.531q1.154-.9,2.294-1.814C68.467,72.134,134.136,48.31,199.3,57.8q.324,2.741.639,5.471" transform="translate(0 -31.704)" fill="#ccd0d6"/>
        <path id="Path_3" data-name="Path 3" d="M7.253,8.888a2.737,2.737,0,0,0,.592.051,4.76,4.76,0,0,0,3.4-.9A2.628,2.628,0,0,0,12.22,5.98c0-1.852-1.467-3.088-3.577-3.088-.257,0-.592.026-.978.052l-.412.025Zm-.026,8.673a11.99,11.99,0,0,0,2.5.308c2.574,0,4.529-1.673,4.529-3.937a3.335,3.335,0,0,0-2.419-3.268,16.481,16.481,0,0,0-3.192-.258c-.386,0-.72.026-1.415.052v7.1M4.268,18.8c.051-.128.129-.308.206-.514.025-.18.051-.283.051-.36L4.551,3.175c0-.772-.205-1.107-1.107-1.956H7.794a12.558,12.558,0,0,1,4.941.7,3.891,3.891,0,0,1,2.548,3.654,3.387,3.387,0,0,1-.695,2.085,3.672,3.672,0,0,1-1.622,1.107,4.723,4.723,0,0,1,2.342.953,4.628,4.628,0,0,1,1.8,3.886,6.035,6.035,0,0,1-1.544,3.963c-1.6,1.724-3.423,2.213-8.158,2.213H3.29a2.872,2.872,0,0,0,.978-.978" transform="translate(-1.879 -0.696)" fill="#001431"/>
        <path id="Path_4" data-name="Path 4" d="M38.649,19.536a2.587,2.587,0,0,0,.36-1.235v-.566L38.983,4.721a2.491,2.491,0,0,1,.8-2A3.274,3.274,0,0,1,42,1.838,3.643,3.643,0,0,0,41.5,4.016V17.735A5.6,5.6,0,0,0,41.66,19a1.784,1.784,0,0,0,.823,1.133H38.031a2.756,2.756,0,0,0,.618-.592" transform="translate(-21.719 -1.049)" fill="#001431"/>
        <path id="Path_5" data-name="Path 5" d="M246.628,19.536a2.587,2.587,0,0,0,.359-1.235v-.566l-.025-13.013a2.49,2.49,0,0,1,.8-2,3.274,3.274,0,0,1,2.216-.879,3.644,3.644,0,0,0-.495,2.178V17.735A5.6,5.6,0,0,0,249.639,19a1.782,1.782,0,0,0,.823,1.133H246.01a2.76,2.76,0,0,0,.618-.592" transform="translate(-140.492 -1.049)" fill="#001431"/>
        <path id="Path_6" data-name="Path 6" d="M110.44,19.536a2.587,2.587,0,0,0,.36-1.235v-.566l-.026-13.013a2.493,2.493,0,0,1,.8-2,3.274,3.274,0,0,1,2.216-.879,3.642,3.642,0,0,0-.494,2.178V17.735A5.594,5.594,0,0,0,113.451,19a1.785,1.785,0,0,0,.823,1.133h-4.451a2.753,2.753,0,0,0,.617-.592" transform="translate(-62.718 -1.049)" fill="#001431"/>
        <path id="Path_7" data-name="Path 7" d="M54.189,13.443a5.588,5.588,0,0,1,1.93-.282,8.962,8.962,0,0,1,2.445.308,3.706,3.706,0,0,1,1.57.823c.824.7.978,1.081.978,2.677V22.94c0,1.056.18,1.493.849,1.75a2.915,2.915,0,0,0,1.545.232h.257l-1.544,1.9a3.125,3.125,0,0,1-.618.077c-1.621,0-3.165-1.287-3.165-2.625l.026-1V19.8c-.36.155-.617.232-.746.283-.051,0-.515.1-1.338.284a8.443,8.443,0,0,0-2.548.824,1.941,1.941,0,0,0-.875,1.7c0,1.313,1.107,2.187,2.831,2.187a7.817,7.817,0,0,0,2.47-.463l-1.466,1.982a8.223,8.223,0,0,1-2.188.411,4.591,4.591,0,0,1-4.452-4.323c0-1.956,1.442-3.165,4.5-3.706l1.442-.257c1.647-.308,2.341-.772,2.341-1.7,0-1.03-.875-1.7-2.239-1.7a5.466,5.466,0,0,0-1.338.18,15.484,15.484,0,0,0-2.754.849Z" transform="translate(-28.639 -7.516)" fill="#001431"/>
        <path id="Path_8" data-name="Path 8" d="M90.868,16.6a3.782,3.782,0,0,0-.386-.36,4.963,4.963,0,0,0-2.805-.849c-2.5,0-4.247,1.981-4.247,4.812,0,2.934,2.188,4.992,5.3,4.992a6.571,6.571,0,0,0,4.5-1.672l-1.982,3.14a7.912,7.912,0,0,1-2.907.489c-4.453,0-7.772-2.882-7.772-6.768,0-4.117,3.294-7.1,7.823-7.1a8.327,8.327,0,0,1,2.471.334Z" transform="translate(-46.014 -7.584)" fill="#001431"/>
        <path id="Path_9" data-name="Path 9" d="M121.5,15.981a2.5,2.5,0,0,0,.8-1.519.713.713,0,0,0-.36-.643h4.3L121.2,19.352l4.658,5.405a8.232,8.232,0,0,0,2.574,2.213h-3.243a1.942,1.942,0,0,1-1.467-.592l-.8-1-4.607-5.842Z" transform="translate(-67.566 -7.892)" fill="#001431"/>
        <path id="Path_10" data-name="Path 10" d="M139.965,13.469a5.674,5.674,0,0,0,2.341-.489v1.8a7.3,7.3,0,0,1,.926-.747,6.129,6.129,0,0,1,3.372-1,6.574,6.574,0,0,1,6.588,6.614,7,7,0,0,1-6.768,7.154,6.861,6.861,0,0,1-1.75-.257L143,24.355a6.235,6.235,0,0,0,2.7.668,4.862,4.862,0,0,0,3.345-1.234,6.071,6.071,0,0,0,1.39-3.783c0-2.882-1.981-5.2-4.478-5.2-2.29,0-3.629,1.518-3.629,4.143V30.582a3.258,3.258,0,0,0,.155,1.261,1.821,1.821,0,0,0,.875,1.132h-4.5a1.848,1.848,0,0,0,.824-1.132,2.433,2.433,0,0,0,.129-.849c0-.1-.026-.258-.026-.412V16.351a8.26,8.26,0,0,0-.206-1.956,3.094,3.094,0,0,0-.747-.953c.386,0,.747.026,1.133.026" transform="translate(-79.284 -7.413)" fill="#001431"/>
        <path id="Path_11" data-name="Path 11" d="M176.755,19.559a4.98,4.98,0,0,0,4.967,5.147c2.522,0,4.349-2.187,4.349-5.2a4.809,4.809,0,0,0-4.71-5.1c-2.676,0-4.607,2.059-4.607,4.967Zm4.89-7.18a6.781,6.781,0,0,1,7.18,7.18,6.983,6.983,0,0,1-2.547,5.456,7.394,7.394,0,0,1-5.019,1.6c-4.35,0-7.205-2.831-7.205-7.181,0-4.168,3.114-7.051,7.591-7.051" transform="translate(-99.398 -7.069)" fill="#001431"/>
        <path id="Path_12" data-name="Path 12" d="M213.055,19.559a4.98,4.98,0,0,0,4.967,5.147c2.522,0,4.348-2.187,4.348-5.2a4.809,4.809,0,0,0-4.709-5.1c-2.676,0-4.607,2.059-4.607,4.967Zm4.89-7.18a6.78,6.78,0,0,1,7.179,7.18,6.98,6.98,0,0,1-2.547,5.456,7.39,7.39,0,0,1-5.018,1.6c-4.35,0-7.206-2.831-7.206-7.181,0-4.168,3.114-7.051,7.592-7.051" transform="translate(-120.128 -7.069)" fill="#001431"/>
        <path id="Path_13" data-name="Path 13" d="M305.444,18.51a5.058,5.058,0,0,0,5.044,5.227c2.561,0,4.416-2.222,4.416-5.279a4.884,4.884,0,0,0-4.782-5.175c-2.719,0-4.678,2.091-4.678,5.044Zm4.965-7.291A6.885,6.885,0,0,1,317.7,18.51a7.088,7.088,0,0,1-2.588,5.54,7.5,7.5,0,0,1-5.1,1.621c-4.416,0-7.317-2.875-7.317-7.292,0-4.233,3.162-7.16,7.709-7.16" transform="translate(-172.866 -6.407)" fill="#830065"/>
        <path id="Path_14" data-name="Path 14" d="M340.787,12.046a6.749,6.749,0,0,0,2.927-.523v9.041a3.288,3.288,0,0,0,.444,1.987,3.294,3.294,0,0,0,2.8,1.1,3.844,3.844,0,0,0,2.509-.784c.574-.522.784-1.071.784-2.508v-5.8a2.671,2.671,0,0,0-.914-2.508,7.838,7.838,0,0,0,.784.026,6.485,6.485,0,0,0,2.719-.5V22.943a3.279,3.279,0,0,0,.13,1.28,1.824,1.824,0,0,0,.758,1.15h-3.554V24.2a4.224,4.224,0,0,1-1.411.967,5.069,5.069,0,0,1-2.64.653c-3.319,0-5.018-1.828-5.018-5.409V14.685c0-1.515-.13-1.8-.992-2.639Z" transform="translate(-194.229 -6.581)" fill="#830065"/>
        <path id="Path_15" data-name="Path 15" d="M375.559,12.351a8.133,8.133,0,0,0,3.084-.471v1.7c.339-.313.627-.575.888-.784a5.386,5.386,0,0,1,3.267-.967c3.162,0,4.991,1.778,4.991,4.861v7.03a3.525,3.525,0,0,0,.13.652,2.034,2.034,0,0,0,.837,1.177h-4.6a1.825,1.825,0,0,0,.811-1.15,3.1,3.1,0,0,0,.156-1.28V17.447a3.836,3.836,0,0,0-.522-2.509,2.892,2.892,0,0,0-2.456-.993,4.395,4.395,0,0,0-2.744.837c-.575.576-.732,1.071-.732,2.639l.026,5.7a5.056,5.056,0,0,0,.079.6,5.643,5.643,0,0,0,.1.652,1.9,1.9,0,0,0,.757,1.177H375.14a1.734,1.734,0,0,0,.758-1.15,4.315,4.315,0,0,0,.131-1.254V14.99c0-1.593-.053-1.828-.889-2.665.157,0,.288.026.419.026" transform="translate(-214.236 -6.755)" fill="#830065"/>
        <path id="Path_16" data-name="Path 16" d="M419.712,15.5a3.742,3.742,0,0,0-.392-.365,5.038,5.038,0,0,0-2.849-.863c-2.535,0-4.311,2.012-4.311,4.886,0,2.98,2.221,5.071,5.383,5.071a6.669,6.669,0,0,0,4.573-1.7L420.1,25.722a8.029,8.029,0,0,1-2.953.5c-4.521,0-7.891-2.927-7.891-6.873,0-4.181,3.345-7.212,7.944-7.212a8.412,8.412,0,0,1,2.509.34Z" transform="translate(-233.72 -6.929)" fill="#830065"/>
        <path id="Path_17" data-name="Path 17" d="M441.186.862a1.766,1.766,0,0,1-.131,3.528,1.73,1.73,0,0,1-1.7-1.7A1.818,1.818,0,0,1,441.186.862M439.7,18.135a2.374,2.374,0,0,0,.1-.679,2.124,2.124,0,0,0,.027-.523v-.078L439.8,8.806c0-1.83-.052-2.012-.915-2.954a10.69,10.69,0,0,0,1.306.08,7.246,7.246,0,0,0,2.3-.5V17.456a2.346,2.346,0,0,0,.105.652,2,2,0,0,0,.861,1.177h-4.651a1.988,1.988,0,0,0,.888-1.15" transform="translate(-250.595 -0.492)" fill="#830065"/>
        <path id="Path_18" data-name="Path 18" d="M277.9,5.242c-.247-.172-.42-.272-.568-.37a7.4,7.4,0,0,0-3.927-.988c-4.347,0-7.359,2.914-7.359,7.137a6.914,6.914,0,0,0,1.852,4.89,8.613,8.613,0,0,0,5.828,2.444,11.638,11.638,0,0,0,6.741-2.4l-2.025,3.952a25.913,25.913,0,0,1-4.568.42,13.393,13.393,0,0,1-4.594-.691,8.7,8.7,0,0,1-5.8-8.323,9.253,9.253,0,0,1,3.457-7.26c1.976-1.581,4.4-2.3,7.729-2.3a12.978,12.978,0,0,1,3.236.419Z" transform="translate(-150.47 -1.005)" fill="#830065"/>
        <path id="Path_19" data-name="Path 19" d="M453.817,18.115a2.649,2.649,0,0,0,.368-1.265v-.579l-.026-13.319A2.549,2.549,0,0,1,454.978.9a3.351,3.351,0,0,1,2.269-.9,3.712,3.712,0,0,0-.508,2.229V16.271a5.83,5.83,0,0,0,.159,1.291,1.831,1.831,0,0,0,.843,1.159h-4.557a2.831,2.831,0,0,0,.633-.606" transform="translate(-258.805 0)" fill="#830065"/>
      </g>
    </g>
  </g>
</svg>
