<?xml version="1.0" encoding="utf-8"?>
<!-- Generator: Adobe Illustrator 19.1.0, SVG Export Plug-In . SVG Version: 6.00 Build 0)  -->
<!DOCTYPE svg PUBLIC "-//W3C//DTD SVG 1.1//EN" "http://www.w3.org/Graphics/SVG/1.1/DTD/svg11.dtd">
<svg version="1.1" id="Layer_1" xmlns="http://www.w3.org/2000/svg" xmlns:xlink="http://www.w3.org/1999/xlink" x="0px" y="0px"
	 viewBox="0 0 8 8.1" style="enable-background:new 0 0 8 8.1;" xml:space="preserve">
<style type="text/css">
	.st0{fill:#0C1D2C;}
</style>
<path class="st0" d="M6.5,4c0-0.2,0-0.5-0.1-0.6h0.7v3.5c0,0.2-0.1,0.3-0.3,0.3H1.2C1.1,7.2,0.9,7,0.9,6.8V3.4h0.7
	C1.6,3.6,1.5,3.8,1.5,4c0,1.4,1.1,2.5,2.5,2.5C5.4,6.5,6.5,5.4,6.5,4 M2.5,4c0-0.9,0.7-1.6,1.5-1.6c0.8,0,1.5,0.7,1.5,1.6
	c0,0.9-0.7,1.6-1.5,1.6C3.1,5.6,2.5,4.9,2.5,4 M5.5,2.2V1.2c0-0.2,0.1-0.3,0.3-0.3h0.9c0.2,0,0.3,0.1,0.3,0.3v0.9
	c0,0.2-0.1,0.3-0.3,0.3H5.8C5.7,2.5,5.5,2.3,5.5,2.2 M0.9,0C0.4,0,0,0.4,0,0.9v6.2c0,0.5,0.4,0.9,0.9,0.9h6.1C7.6,8.1,8,7.7,8,7.1
	V0.9C8,0.4,7.6,0,7.1,0H0.9z"/>
</svg>
