<?xml version="1.0" encoding="utf-8"?>
<!-- Generator: Adobe Illustrator 19.1.0, SVG Export Plug-In . SVG Version: 6.00 Build 0)  -->
<!DOCTYPE svg PUBLIC "-//W3C//DTD SVG 1.1//EN" "http://www.w3.org/Graphics/SVG/1.1/DTD/svg11.dtd">
<svg version="1.1" id="Layer_1" xmlns="http://www.w3.org/2000/svg" xmlns:xlink="http://www.w3.org/1999/xlink" x="0px" y="0px"
	 viewBox="0 0 9.1 7.4" style="enable-background:new 0 0 9.1 7.4;" xml:space="preserve">
<style type="text/css">
	.st0{fill:#0C1D2C;}
</style>
<g>
	<path class="st0" d="M6.3,0c-1,0-1.9,0.8-1.9,1.9c0,0.1,0,0.3,0,0.4C2.9,2.2,1.5,1.5,0.6,0.3C0.5,0.6,0.4,0.9,0.4,1.3
		c0,0.6,0.3,1.2,0.8,1.5c-0.3,0-0.6-0.1-0.8-0.2c0,0,0,0,0,0c0,0.9,0.6,1.7,1.5,1.8c-0.2,0-0.3,0.1-0.5,0.1c-0.1,0-0.2,0-0.3,0
		c0.2,0.7,0.9,1.3,1.7,1.3C2.1,6.3,1.3,6.6,0.4,6.6c-0.1,0-0.3,0-0.4,0c0.8,0.5,1.8,0.8,2.8,0.8c3.4,0,5.3-2.8,5.3-5.3
		c0-0.1,0-0.2,0-0.2c0.4-0.3,0.7-0.6,0.9-1C8.7,1,8.4,1.1,8,1.2c0.4-0.2,0.7-0.6,0.8-1C8.4,0.3,8.1,0.5,7.6,0.6C7.3,0.2,6.8,0,6.3,0
		"/>
</g>
</svg>
