<?xml version="1.0" encoding="utf-8"?>
<!-- Generator: Adobe Illustrator 19.1.0, SVG Export Plug-In . SVG Version: 6.00 Build 0)  -->
<!DOCTYPE svg PUBLIC "-//W3C//DTD SVG 1.1//EN" "http://www.w3.org/Graphics/SVG/1.1/DTD/svg11.dtd">
<svg version="1.1" id="Layer_1" xmlns="http://www.w3.org/2000/svg" xmlns:xlink="http://www.w3.org/1999/xlink" x="0px" y="0px"
	 viewBox="-416 592.5 8.1 8.1" style="enable-background:new -416 592.5 8.1 8.1;" xml:space="preserve">
<style type="text/css">
	.st0{fill:#0C1D2C;}
	.st1{fill:#E7E7E7;}
</style>
<g>
	<polygon class="st0" points="-412.6,597.3 -410.8,596.3 -412.6,595.5 	"/>
	<path class="st0" d="M-408.4,592.5h-7.2c-0.2,0-0.4,0.2-0.4,0.4v7.3c0,0.2,0.2,0.4,0.4,0.4h7.3c0.2,0,0.4-0.2,0.4-0.5v-7.2
		C-407.9,592.6-408.1,592.5-408.4,592.5z M-408.6,596.8c0,0.6-0.1,1.1-0.1,1.1s-0.1,0.5-0.3,0.7c-0.3,0.3-0.6,0.3-0.7,0.3
		c-0.9,0.1-2.3,0.1-2.3,0.1s-1.8,0-2.3-0.1c-0.1,0-0.4,0-0.7-0.3c-0.2-0.2-0.3-0.7-0.3-0.7s-0.1-0.6-0.1-1.1v-0.5
		c0-0.6,0.1-1.1,0.1-1.1s0.1-0.5,0.3-0.7c0.3-0.3,0.6-0.3,0.7-0.3c0.9-0.1,2.3-0.1,2.3-0.1s1.4,0,2.3,0.1c0.2,0,0.4,0,0.7,0.3
		c0.2,0.2,0.3,0.7,0.3,0.7s0.1,0.6,0.1,1.1V596.8z"/>
</g>
<polyline class="st1" points="-411.1,596.5 -412.6,595.5 -410.9,596.4 "/>
</svg>
