<?xml version="1.0" encoding="utf-8"?>
<!-- Generator: Adobe Illustrator 19.1.0, SVG Export Plug-In . SVG Version: 6.00 Build 0)  -->
<!DOCTYPE svg PUBLIC "-//W3C//DTD SVG 1.1//EN" "http://www.w3.org/Graphics/SVG/1.1/DTD/svg11.dtd">
<svg version="1.1" id="Layer_1" xmlns="http://www.w3.org/2000/svg" xmlns:xlink="http://www.w3.org/1999/xlink" x="0px" y="0px"
	 viewBox="0 0 466.3 90.5" style="enable-background:new 0 0 466.3 90.5;" xml:space="preserve">
<style type="text/css">
	.st0{fill:#FFFFFF;}
</style>
<g>
	<path class="st0" d="M466.3,88.6c-81-16.7-156.5-9.3-234.1-3.9C155.3,90.7,76.3,94.6,2.5,83c0.8-0.2,1.6-0.3,2.5-0.5
		c74.3,11,153.1,6,229-1.3c76.5-6.8,150-15.9,228-2C463.4,82.3,464.8,85.5,466.3,88.6"/>
	<path class="st0" d="M466.1,73.6C311.8,48.6,156.4,102.3,0,74.2c1.8-1.4,3.6-2.8,5.3-4.2c154.3,24.3,307.4-31.3,459.3-9.1
		C465.2,65.1,465.7,69.4,466.1,73.6"/>
	<path class="st0" d="M5.6,42.2c0.1-0.3,0.3-0.7,0.5-1.2c0.1-0.4,0.1-0.7,0.1-0.8L6.2,5.8c0-1.8-0.5-2.6-2.6-4.6h10.1
		c5.5,0,8.5,0.4,11.5,1.6c3.7,1.6,5.9,4.7,5.9,8.5c0,1.9-0.6,3.5-1.6,4.9c-0.8,1.1-1.7,1.6-3.8,2.6c2.8,0.6,4,1,5.5,2.2
		c2.8,2,4.2,5.3,4.2,9.1c0,3.3-1.3,6.7-3.6,9.2c-3.7,4-8,5.2-19,5.2H3.3C4.6,43.5,5.2,43,5.6,42.2 M12.5,39.3
		c2.8,0.5,4.1,0.7,5.8,0.7c6,0,10.6-3.9,10.6-9.2c0-3.7-2.3-6.7-5.6-7.6c-1.7-0.4-4.3-0.6-7.4-0.6c-0.9,0-1.7,0.1-3.3,0.1V39.3z
		 M12.5,19.1c0.7,0.1,0.9,0.1,1.4,0.1c4,0,6.1-0.5,7.9-2.1c1.6-1.4,2.3-2.9,2.3-4.8c0-4.3-3.4-7.2-8.3-7.2c-0.6,0-1.4,0.1-2.3,0.1
		l-1,0.1V19.1z"/>
	<path class="st0" d="M39.5,43.1c0.4-0.5,0.8-2,0.8-2.9v-1.3L40.2,8.6c-0.1-2.5,1-3.8,1.9-4.7c0,0,2-2.1,5.2-2
		c0.2,0-1.2,0.9-1.2,5.1v32c0,0.7,0.1,2.1,0.4,2.9c0.2,1,0.6,1.6,1.9,2.6H38C38.7,43.9,39.2,43.5,39.5,43.1"/>
	<path class="st0" d="M247.5,43.1c0.4-0.5,0.8-2,0.8-2.9v-1.3l-0.1-30.3c-0.1-2.5,1-3.8,1.9-4.7c0,0,2-2.1,5.2-2
		c0.2,0-1.2,0.9-1.2,5.1v32c0,0.7,0.1,2.1,0.4,2.9c0.2,1,0.6,1.6,1.9,2.6H246C246.7,43.9,247.2,43.5,247.5,43.1"/>
	<path class="st0" d="M111.3,43.1c0.4-0.5,0.8-2,0.8-2.9v-1.3L112,8.6c-0.1-2.5,1-3.8,1.9-4.7c0,0,2-2.1,5.2-2
		c0.2,0-1.2,0.9-1.2,5.1v32c0,0.7,0.1,2.1,0.4,2.9c0.2,1,0.6,1.6,1.9,2.6h-10.4C110.5,43.9,111,43.5,111.3,43.1"/>
	<path class="st0" d="M59.6,13.8c1.9-0.5,2.6-0.7,4.5-0.7c2,0,4.1,0.2,5.7,0.7c1.3,0.3,2.5,1,3.7,1.9c1.9,1.6,2.3,2.5,2.3,6.2V36
		c0,2.5,0.4,3.5,2,4.1c1,0.5,1.6,0.5,3.6,0.5h0.6L78.3,45c-0.7,0.1-1,0.2-1.4,0.2c-3.8,0-7.4-3-7.4-6.1l0.1-2.3v-8.1
		c-0.8,0.4-1.4,0.5-1.7,0.7c-0.1,0-1.2,0.2-3.1,0.7c-2.4,0.4-4.7,1.2-5.9,1.9c-1.3,0.8-2,2.2-2,4c0,3.1,2.6,5.1,6.6,5.1
		c1.7,0,2.9-0.2,5.8-1.1l-3.4,4.6c-2.2,0.7-3.9,1-5.1,1c-5.4,0-10.4-4.9-10.4-10.1c0-4.6,3.4-7.4,10.5-8.6l3.4-0.6
		c3.8-0.7,5.5-1.8,5.5-4c0-2.4-2-4-5.2-4c-0.9,0-1.9,0.1-3.1,0.4c-2,0.4-3.3,0.8-6.4,2L59.6,13.8z"/>
	<path class="st0" d="M104.6,21c-0.4-0.4-0.7-0.7-0.9-0.8c-1.6-1.2-4.2-2-6.5-2c-5.8,0-9.9,4.6-9.9,11.2c0,6.8,5.1,11.6,12.4,11.6
		c4,0,8.6-1.7,10.5-3.9l-4.6,7.3c-3,1-4.3,1.1-6.8,1.1c-10.4,0-18.1-6.7-18.1-15.8c0-9.6,7.7-16.6,18.2-16.6c2.1,0,3.1,0.1,5.8,0.8
		V21z"/>
	<path class="st0" d="M125.8,18.9c1.2-1.3,1.9-2.6,1.9-3.5c0-0.6-0.2-1-0.8-1.5h10L125,26.7l10.9,12.6c2.8,3.1,3.2,3.5,6,5.2h-6.5
		h-1c-1.4,0-2.9-0.6-3.4-1.4l-1.9-2.3l-10.7-13.6L125.8,18.9z"/>
	<path class="st0" d="M141.5,14.1c1.9,0,2.8-0.2,5.5-1.1v4.2c0.9-0.8,1.6-1.4,2.2-1.7c2-1.4,5-2.3,7.9-2.3c8.5,0,15.4,6.8,15.4,15.4
		c0,9.1-7.1,16.7-15.8,16.7c-1.1,0-2.1-0.1-4.1-0.6l-3.9-5.1c2.9,1.2,4.2,1.6,6.3,1.6c3.1,0,6.2-1.2,7.8-2.9c1.9-2,3.2-5.7,3.2-8.8
		c0-6.7-4.6-12.1-10.4-12.1c-5.3,0-8.5,3.5-8.5,9.7V54c0,1.6,0.1,2,0.4,2.9c0.3,1.1,0.7,1.6,2,2.6h-10.5c1.3-1,1.6-1.5,1.9-2.6
		c0.2-0.7,0.3-1.3,0.3-2c0-0.2-0.1-0.6-0.1-1V20.8c-0.1-2.3-0.2-3.8-0.5-4.6c-0.2-0.5-0.8-1.3-1.7-2.2
		C139.7,14.1,140.6,14.1,141.5,14.1"/>
	<path class="st0" d="M191.8,12.4c10,0,16.7,6.7,16.7,16.7c0,5-2,9.4-5.9,12.7c-2.9,2.5-6.8,3.7-11.7,3.7
		c-10.1,0-16.8-6.6-16.8-16.7C174.1,19.1,181.3,12.4,191.8,12.4 M180.4,29.1c0.2,7,5,12,11.6,12c5.9,0,10.1-5.1,10.1-12.1
		c0-6.8-4.7-11.9-11-11.9c-6.2,0-10.7,4.8-10.7,11.6V29.1z"/>
	<path class="st0" d="M228.1,12.4c10,0,16.7,6.7,16.7,16.7c0,5-2,9.4-5.9,12.7c-2.9,2.5-6.8,3.7-11.7,3.7
		c-10.1,0-16.8-6.6-16.8-16.7C210.4,19.1,217.6,12.4,228.1,12.4 M216.7,29.1c0.2,7,5,12,11.6,12c5.9,0,10.1-5.1,10.1-12.1
		c0-6.8-4.7-11.9-11-11.9c-6.2,0-10.7,4.8-10.7,11.6V29.1z"/>
	<path class="st0" d="M320.7,11.2c10.2,0,17,6.8,17,17c0,5.1-2.1,9.6-6,12.9c-3,2.6-6.9,3.8-11.9,3.8c-10.3,0-17.1-6.7-17.1-17
		C302.7,18,310.1,11.2,320.7,11.2 M309.1,28.2c0.2,7.1,5.1,12.2,11.8,12.2c6,0,10.3-5.2,10.3-12.3c0-6.9-4.8-12.1-11.1-12.1
		c-6.3,0-10.9,4.9-10.9,11.8V28.2z"/>
	<path class="st0" d="M341.7,12.7c2.9,0,3.7-0.1,6.8-1.2v21.1c0,2.3,0.3,3.5,1,4.6c1.1,1.6,3.5,2.6,6.5,2.6c2.4,0,4.3-0.6,5.8-1.8
		c1.3-1.2,1.8-2.5,1.8-5.8V18.6c0-3.2-0.2-4-2.1-5.8c0.6,0.1,1.2,0.1,1.8,0.1c2.5,0,3.3-0.1,6.3-1.2v26.5c0,1.8,0,1.9,0.3,3
		c0.2,1.2,0.6,1.6,1.8,2.7h-8.3v-2.7c-1.2,1.2-1.6,1.5-3.3,2.3c-2.3,1.2-3.8,1.5-6.2,1.5c-7.7,0-11.7-4.3-11.7-12.6V18.9
		c0-3.5-0.3-4.2-2.3-6.2H341.7z"/>
	<path class="st0" d="M376.1,13c3.1,0,3.9-0.1,7.2-1.1v4c0.8-0.7,1.5-1.3,2.1-1.8c2-1.5,4.5-2.3,7.6-2.3c7.4,0,11.6,4.1,11.6,11.3
		v15v1.4c0,0.4,0.2,1,0.3,1.5c0.3,1.2,0.7,1.7,2,2.7h-10.7c1.3-1,1.6-1.5,1.9-2.7c0.3-0.9,0.4-1.2,0.4-3V24.9c0-3.2-0.3-4.6-1.2-5.8
		c-1-1.5-3-2.3-5.7-2.3c-2.6,0-5.1,0.8-6.4,2c-1.3,1.3-1.7,2.5-1.7,6.2l0.1,13.3c0,0.2,0.1,0.7,0.2,1.4c0.1,0.5,0.1,1,0.2,1.5
		c0.2,1,0.6,1.7,1.8,2.7h-10.5c1.2-1,1.5-1.5,1.8-2.7c0.2-0.9,0.3-1.6,0.3-2.9v-19c0-3.7-0.1-4.3-2.1-6.2
		C375.5,13,375.8,13,376.1,13"/>
	<path class="st0" d="M433.6,20c-0.4-0.4-0.7-0.7-0.9-0.9c-1.6-1.2-4.3-2-6.6-2c-5.9,0-10.1,4.7-10.1,11.4c0,6.9,5.2,11.8,12.6,11.8
		c4.1,0,8.7-1.7,10.7-4l-4.7,7.4c-3,1-4.4,1.2-6.9,1.2c-10.5,0-18.4-6.8-18.4-16c0-9.7,7.8-16.8,18.5-16.8c2.1,0,3.2,0.1,5.9,0.8V20
		z"/>
	<path class="st0" d="M440.9,41.1c0.2-0.6,0.2-1.2,0.2-1.6c0.1-0.1,0.1-0.6,0.1-1.2v-0.2l-0.1-18.8c0-4.3-0.1-4.7-2.1-6.9
		c1,0.1,2.1,0.2,3,0.2c1.5,0,2.7-0.3,5.4-1.2v26.6v1.4c0,0.4,0.1,0.9,0.2,1.5c0.4,1.2,0.7,1.7,2,2.7h-10.8
		C440.1,42.8,440.5,42.3,440.9,41.1 M444.4,0.9c2.1,0,3.9,1.9,3.9,4.3c0,2.2-1.9,4-4.2,4c-2.1,0-3.9-1.8-4-4
		C440.1,2.8,442,0.9,444.4,0.9"/>
	<path class="st0" d="M297.1,9.9c-0.6-0.4-1-0.6-1.3-0.9c-2.4-1.5-5.6-2.3-9.2-2.3c-10.1,0-17.2,6.8-17.2,16.6
		c0,4.5,1.5,8.5,4.3,11.4c3.2,3.4,8.8,5.7,13.6,5.7c5.2,0,10.4-1.8,15.7-5.6l-4.7,9.2c-5.2,0.8-7.4,1-10.7,1
		c-4.1,0-7.4-0.5-10.7-1.6c-8.1-2.7-13.5-10.6-13.5-19.4c0-6.7,2.9-12.8,8.1-16.9c4.6-3.7,10.2-5.4,18-5.4c2.3,0,3.9,0.2,7.5,1V9.9z
		"/>
	<path class="st0" d="M454.7,42.2c0.4-0.6,0.9-2,0.9-2.9v-1.4l-0.1-31.1c-0.1-2.5,1-3.9,1.9-4.8c0,0,2.1-2.1,5.3-2.1
		c0.2,0-1.2,0.9-1.2,5.2v32.7c0,0.7,0.1,2.1,0.4,3c0.2,1,0.6,1.7,2,2.7h-10.6C453.9,43.1,454.4,42.7,454.7,42.2"/>
</g>
</svg>
