<?xml version="1.0" encoding="utf-8"?>
<!-- Generator: Adobe Illustrator 19.1.0, SVG Export Plug-In . SVG Version: 6.00 Build 0)  -->
<!DOCTYPE svg PUBLIC "-//W3C//DTD SVG 1.1//EN" "http://www.w3.org/Graphics/SVG/1.1/DTD/svg11.dtd">
<svg version="1.1" id="Õ_xBA__x2264__x201E__x5F_1"
	 xmlns="http://www.w3.org/2000/svg" xmlns:xlink="http://www.w3.org/1999/xlink" x="0px" y="0px" viewBox="0 0 64.2 49.9"
	 style="enable-background:new 0 0 64.2 49.9;" xml:space="preserve">
<style type="text/css">
	.st0{fill:#FFFFFF;}
</style>
<g>
	<path class="st0" d="M33.1,0L14.9,12.4c-1.4,1-2.6,1.8-2.6,1.8c0,0-1.4,0-3.1,0H0v21.6h12.4l20.7,14.1V0z"/>
	<path class="st0" d="M51.7,26.2c0-5.5-3.3-10.7-8.4-13c-3.5,0.8-3.6,4.2-1.5,5.4c2.7,1.6,4.4,4.5,4.4,7.6c0,3.5-2.2,6.8-5.5,8.2
		c-1,2.8,0.7,4.6,2.5,4.6c0.5,0,0.9-0.1,1.4-0.4C49,36,51.7,31.3,51.7,26.2z"/>
	<path class="st0" d="M50.9,3.2c-2.5-1.5-6.1,0.8-4.7,5c7,3.4,11.4,10.4,11.4,18c0,7.6-4.4,14.7-11.4,18c-1.2,3.4,0.9,5.4,3,5.4
		c0.6,0,1.1-0.1,1.7-0.4c8.2-4.8,13.3-13.6,13.3-23C64.2,16.7,59.1,7.9,50.9,3.2z"/>
</g>
</svg>
