<svg xmlns="http://www.w3.org/2000/svg" width="100" height="100" viewBox="0 0 100 100">
  <g id="Group_2641" data-name="Group 2641" transform="translate(-548 -636)">
    <g id="Group_2571" data-name="Group 2571" transform="translate(-166 331)">
      <g id="Path_3372" data-name="Path 3372" transform="translate(714 305)" fill="#fff">
        <path d="M 50 98 C 43.51915740966797 98 37.23324203491211 96.73117065429688 31.31685638427734 94.22874450683594 C 25.60128593444824 91.81125640869141 20.4677562713623 88.35001373291016 16.05887222290039 83.94113159179688 C 11.64999961853027 79.53224182128906 8.188742637634277 74.39872741699219 5.771256923675537 68.68315887451172 C 3.268828630447388 62.76675796508789 2 56.48084259033203 2 50 C 2 43.51915740966797 3.268828630447388 37.23324203491211 5.771256923675537 31.31685638427734 C 8.188742637634277 25.60128593444824 11.64999961853027 20.4677562713623 16.05887222290039 16.05887222290039 C 20.4677562713623 11.64999961853027 25.60128593444824 8.188742637634277 31.31685638427734 5.771256923675537 C 37.23324203491211 3.268828630447388 43.51915740966797 2 50 2 C 56.48084259033203 2 62.76675796508789 3.268828630447388 68.68315887451172 5.771256923675537 C 74.39872741699219 8.188742637634277 79.53224182128906 11.64999961853027 83.94113159179688 16.05887222290039 C 88.35001373291016 20.4677562713623 91.81125640869141 25.60128593444824 94.22874450683594 31.31685638427734 C 96.73117065429688 37.23324203491211 98 43.51915740966797 98 50 C 98 56.48084259033203 96.73117065429688 62.76675796508789 94.22874450683594 68.68315887451172 C 91.81125640869141 74.39872741699219 88.35001373291016 79.53224182128906 83.94113159179688 83.94113159179688 C 79.53224182128906 88.35001373291016 74.39872741699219 91.81125640869141 68.68315887451172 94.22874450683594 C 62.76675796508789 96.73117065429688 56.48084259033203 98 50 98 Z" stroke="none"/>
        <path d="M 50 4 C 43.78828430175781 4 37.76448440551758 5.215682983398438 32.095947265625 7.613265991210938 C 26.61878204345703 9.929916381835938 21.69893646240234 13.24723052978516 17.47308349609375 17.47308349609375 C 13.24723052978516 21.69893646240234 9.929916381835938 26.61878204345703 7.613265991210938 32.095947265625 C 5.215682983398438 37.76448440551758 4 43.78828430175781 4 50 C 4 56.21171569824219 5.215682983398438 62.23551559448242 7.613265991210938 67.904052734375 C 9.929916381835938 73.38121795654297 13.24723052978516 78.30107116699219 17.47308349609375 82.52691650390625 C 21.69893646240234 86.75276947021484 26.61878204345703 90.07008361816406 32.095947265625 92.38673400878906 C 37.76448440551758 94.78431701660156 43.78828430175781 96 50 96 C 56.21171569824219 96 62.23551559448242 94.78431701660156 67.904052734375 92.38673400878906 C 73.38121795654297 90.07008361816406 78.30107116699219 86.75276947021484 82.52691650390625 82.52691650390625 C 86.75276947021484 78.30107116699219 90.07008361816406 73.38121795654297 92.38673400878906 67.904052734375 C 94.78431701660156 62.23551559448242 96 56.21171569824219 96 50 C 96 43.78828430175781 94.78431701660156 37.76448440551758 92.38673400878906 32.095947265625 C 90.07008361816406 26.61878204345703 86.75276947021484 21.69893646240234 82.52691650390625 17.47308349609375 C 78.30107116699219 13.24723052978516 73.38121795654297 9.929916381835938 67.904052734375 7.613265991210938 C 62.23551559448242 5.215682983398438 56.21171569824219 4 50 4 M 50 0 C 77.61423492431641 0 100 22.38576507568359 100 50 C 100 77.61423492431641 77.61423492431641 100 50 100 C 22.38576507568359 100 0 77.61423492431641 0 50 C 0 22.38576507568359 22.38576507568359 0 50 0 Z" stroke="none" fill="#8dba3a"/>
      </g>
    </g>
    <g id="Group_2599" data-name="Group 2599" transform="translate(543.279 526.815)">
      <path id="Path_3503" data-name="Path 3503" d="M38.545,159.57c3.465,2.357,10.532,5.211,10.532,5.211s.506,5.158,1.131,8.129a2.433,2.433,0,0,0,2.681,1.859,2.481,2.481,0,0,0,2.244-2.676c-.4-3.99-1.078-7.554-1.261-9.888a2.8,2.8,0,0,0-1.077-2.164c-1.5-1.129-7.763-5.086-7.763-5.086l4.488-6.486,2.885,2.182a5.538,5.538,0,0,0,2.688.215c1.9-.258,6.486-.9,6.486-.9a2.132,2.132,0,0,0,1.037-2.291c-.216-1.578-1.039-1.744-1.772-1.709-1.777.08-6.248,0-6.248,0s-1.429-4.849-3.407-5.894c-1.907-1.008-3.31-1.2-5.314,0-4.655,2.844-8.474,12.231-8.812,14.884C36.817,156.871,37.458,158.832,38.545,159.57Z" fill="none" stroke="#0b1c2b" stroke-linejoin="round" stroke-width="2"/>
      <path id="Path_3504" data-name="Path 3504" d="M47.149,174.8a9.414,9.414,0,1,1-11.174-7.236A9.412,9.412,0,0,1,47.149,174.8Z" fill="none" stroke="#0b1c2b" stroke-linecap="round" stroke-linejoin="round" stroke-width="2"/>
      <path id="Path_3505" data-name="Path 3505" d="M80.706,167.627a9.415,9.415,0,1,1-11.174-7.237A9.415,9.415,0,0,1,80.706,167.627Z" fill="none" stroke="#0b1c2b" stroke-linecap="round" stroke-linejoin="round" stroke-width="2"/>
      <line id="Line_96" data-name="Line 96" x2="10.41" y2="18.503" transform="translate(60.811 150.181)" fill="none" stroke="#0b1c2b" stroke-linecap="round" stroke-linejoin="round" stroke-width="2"/>
      <path id="Path_3506" data-name="Path 3506" d="M51.176,158.921l12.971-2.652-9.059,15.393" fill="none" stroke="#0b1c2b" stroke-linecap="round" stroke-linejoin="round" stroke-width="2"/>
      <path id="Path_3507" data-name="Path 3507" d="M50.8,174.021l-12.857,2.748,6.229-14.146" fill="none" stroke="#0b1c2b" stroke-linecap="round" stroke-linejoin="round" stroke-width="2"/>
      <path id="Path_3508" data-name="Path 3508" d="M48.333,136.011a6.87,6.87,0,0,1,2.23-7.058,6.733,6.733,0,0,1,5.361-1.344,9,9,0,0,1,4.9,3.168c1.076,1.328,1.584,3.859,1.053,4.568l-.352.332-2.514-1.8c-.8.357-2.847,1.918-1.31,3.334a4.324,4.324,0,0,0,.806.63l1.049.067,1.086.773a9.915,9.915,0,0,1-2.5,2.551A35.306,35.306,0,0,0,52.5,137.7,43.339,43.339,0,0,0,48.333,136.011Z" fill="none" stroke="#0b1c2b" stroke-linecap="round" stroke-linejoin="round" stroke-width="2"/>
    </g>
  </g>
</svg>
