<svg xmlns="http://www.w3.org/2000/svg" width="100" height="100" viewBox="0 0 100 100">
  <g id="Group_2571" data-name="Group 2571" transform="translate(-714 -305)">
    <g id="Path_3372" data-name="Path 3372" transform="translate(714 305)" fill="#fff">
      <path d="M 50 98 C 43.51915740966797 98 37.23324203491211 96.73117065429688 31.31685638427734 94.22874450683594 C 25.60128593444824 91.81125640869141 20.4677562713623 88.35001373291016 16.05887222290039 83.94113159179688 C 11.64999961853027 79.53224182128906 8.188742637634277 74.39872741699219 5.771256923675537 68.68315887451172 C 3.268828630447388 62.76675796508789 2 56.48084259033203 2 50 C 2 43.51915740966797 3.268828630447388 37.23324203491211 5.771256923675537 31.31685638427734 C 8.188742637634277 25.60128593444824 11.64999961853027 20.4677562713623 16.05887222290039 16.05887222290039 C 20.4677562713623 11.64999961853027 25.60128593444824 8.188742637634277 31.31685638427734 5.771256923675537 C 37.23324203491211 3.268828630447388 43.51915740966797 2 50 2 C 56.48084259033203 2 62.76675796508789 3.268828630447388 68.68315887451172 5.771256923675537 C 74.39872741699219 8.188742637634277 79.53224182128906 11.64999961853027 83.94113159179688 16.05887222290039 C 88.35001373291016 20.4677562713623 91.81125640869141 25.60128593444824 94.22874450683594 31.31685638427734 C 96.73117065429688 37.23324203491211 98 43.51915740966797 98 50 C 98 56.48084259033203 96.73117065429688 62.76675796508789 94.22874450683594 68.68315887451172 C 91.81125640869141 74.39872741699219 88.35001373291016 79.53224182128906 83.94113159179688 83.94113159179688 C 79.53224182128906 88.35001373291016 74.39872741699219 91.81125640869141 68.68315887451172 94.22874450683594 C 62.76675796508789 96.73117065429688 56.48084259033203 98 50 98 Z" stroke="none"/>
      <path d="M 50 4 C 43.78828430175781 4 37.76448440551758 5.215682983398438 32.095947265625 7.613265991210938 C 26.61878204345703 9.929916381835938 21.69893646240234 13.24723052978516 17.47308349609375 17.47308349609375 C 13.24723052978516 21.69893646240234 9.929916381835938 26.61878204345703 7.613265991210938 32.095947265625 C 5.215682983398438 37.76448440551758 4 43.78828430175781 4 50 C 4 56.21171569824219 5.215682983398438 62.23551559448242 7.613265991210938 67.904052734375 C 9.929916381835938 73.38121795654297 13.24723052978516 78.30107116699219 17.47308349609375 82.52691650390625 C 21.69893646240234 86.75276947021484 26.61878204345703 90.07008361816406 32.095947265625 92.38673400878906 C 37.76448440551758 94.78431701660156 43.78828430175781 96 50 96 C 56.21171569824219 96 62.23551559448242 94.78431701660156 67.904052734375 92.38673400878906 C 73.38121795654297 90.07008361816406 78.30107116699219 86.75276947021484 82.52691650390625 82.52691650390625 C 86.75276947021484 78.30107116699219 90.07008361816406 73.38121795654297 92.38673400878906 67.904052734375 C 94.78431701660156 62.23551559448242 96 56.21171569824219 96 50 C 96 43.78828430175781 94.78431701660156 37.76448440551758 92.38673400878906 32.095947265625 C 90.07008361816406 26.61878204345703 86.75276947021484 21.69893646240234 82.52691650390625 17.47308349609375 C 78.30107116699219 13.24723052978516 73.38121795654297 9.929916381835938 67.904052734375 7.613265991210938 C 62.23551559448242 5.215682983398438 56.21171569824219 4 50 4 M 50 0 C 77.61423492431641 0 100 22.38576507568359 100 50 C 100 77.61423492431641 77.61423492431641 100 50 100 C 22.38576507568359 100 0 77.61423492431641 0 50 C 0 22.38576507568359 22.38576507568359 0 50 0 Z" stroke="none" fill="#8dba3a"/>
    </g>
    <g id="Group_2589" data-name="Group 2589" transform="translate(335 34.007)">
      <circle id="Ellipse_113" data-name="Ellipse 113" cx="5.76" cy="5.76" r="5.76" transform="translate(418.73 319.75)" fill="none" stroke="#0b1c2b" stroke-linecap="round" stroke-linejoin="round" stroke-width="2"/>
      <rect id="Rectangle_147833" data-name="Rectangle 147833" width="9.6" height="9.6" rx="1.92" transform="translate(439.424 303.788) rotate(-45)" fill="none" stroke="#0b1c2b" stroke-linecap="round" stroke-linejoin="round" stroke-width="2"/>
      <path id="Path_3495" data-name="Path 3495" d="M430.034,324.039l14.82-14.82-4.073-4.073-14.82,14.82a5.586,5.586,0,0,1,4.073,4.073Z" fill="none" stroke="#0b1c2b" stroke-linecap="round" stroke-linejoin="round" stroke-width="2"/>
      <path id="Path_3496" data-name="Path 3496" d="M430.034,324.039a5.586,5.586,0,0,0-4.073-4.073l8.032-8.032a7.68,7.68,0,0,0-10.861,0l-1.158,1.158a7.681,7.681,0,0,1-3.7,2.052l-3.46.8a11.517,11.517,0,0,0-5.555,3.079l-.379.379c-6,6-4.641,14.366,1.358,20.364s14.366,7.356,20.364,1.358l.379-.379a11.515,11.515,0,0,0,3.079-5.556l.8-3.459a7.686,7.686,0,0,1,2.053-3.7l1.158-1.157a7.68,7.68,0,0,0,0-10.861Z" fill="none" stroke="#0b1c2b" stroke-linecap="round" stroke-linejoin="round" stroke-width="2"/>
      <g id="Group_2589-2" data-name="Group 2589">
        <path id="Path_3497" data-name="Path 3497" d="M453,307.871l-.007,0-2.037-2.037v-.014h.014l2.037,2.037v.014Z" fill="none" stroke="#0b1c2b" stroke-linecap="round" stroke-linejoin="round" stroke-width="2"/>
        <path id="Path_3498" data-name="Path 3498" d="M450.285,310.586l-.007,0-2.036-2.036v-.014a.009.009,0,0,1,.013,0l2.036,2.036v.014Z" fill="none" stroke="#0b1c2b" stroke-linecap="round" stroke-linejoin="round" stroke-width="2"/>
        <path id="Path_3499" data-name="Path 3499" d="M444.175,299.046l-.007,0-2.036-2.036v-.014h.014l2.036,2.036v.014Z" fill="none" stroke="#0b1c2b" stroke-linecap="round" stroke-linejoin="round" stroke-width="2"/>
        <path id="Path_3500" data-name="Path 3500" d="M441.46,301.762l-.007,0-2.036-2.037v-.014h.014l2.036,2.037v.014Z" fill="none" stroke="#0b1c2b" stroke-linecap="round" stroke-linejoin="round" stroke-width="2"/>
      </g>
      <path id="Path_3501" data-name="Path 3501" d="M420.417,335.014l-5.431-5.431a1.92,1.92,0,0,0-2.715,2.715l5.43,5.431a1.92,1.92,0,1,0,2.716-2.715Z" fill="none" stroke="#0b1c2b" stroke-linecap="round" stroke-linejoin="round" stroke-width="2"/>
    </g>
  </g>
</svg>
