<svg xmlns="http://www.w3.org/2000/svg" width="100" height="100" viewBox="0 0 100 100">
  <g id="Group_2647" data-name="Group 2647" transform="translate(-216 -837)">
    <g id="Group_2571" data-name="Group 2571" transform="translate(-498 532)">
      <g id="Path_3372" data-name="Path 3372" transform="translate(714 305)" fill="#fff">
        <path d="M 50 98 C 43.51915740966797 98 37.23324203491211 96.73117065429688 31.31685638427734 94.22874450683594 C 25.60128593444824 91.81125640869141 20.4677562713623 88.35001373291016 16.05887222290039 83.94113159179688 C 11.64999961853027 79.53224182128906 8.188742637634277 74.39872741699219 5.771256923675537 68.68315887451172 C 3.268828630447388 62.76675796508789 2 56.48084259033203 2 50 C 2 43.51915740966797 3.268828630447388 37.23324203491211 5.771256923675537 31.31685638427734 C 8.188742637634277 25.60128593444824 11.64999961853027 20.4677562713623 16.05887222290039 16.05887222290039 C 20.4677562713623 11.64999961853027 25.60128593444824 8.188742637634277 31.31685638427734 5.771256923675537 C 37.23324203491211 3.268828630447388 43.51915740966797 2 50 2 C 56.48084259033203 2 62.76675796508789 3.268828630447388 68.68315887451172 5.771256923675537 C 74.39872741699219 8.188742637634277 79.53224182128906 11.64999961853027 83.94113159179688 16.05887222290039 C 88.35001373291016 20.4677562713623 91.81125640869141 25.60128593444824 94.22874450683594 31.31685638427734 C 96.73117065429688 37.23324203491211 98 43.51915740966797 98 50 C 98 56.48084259033203 96.73117065429688 62.76675796508789 94.22874450683594 68.68315887451172 C 91.81125640869141 74.39872741699219 88.35001373291016 79.53224182128906 83.94113159179688 83.94113159179688 C 79.53224182128906 88.35001373291016 74.39872741699219 91.81125640869141 68.68315887451172 94.22874450683594 C 62.76675796508789 96.73117065429688 56.48084259033203 98 50 98 Z" stroke="none"/>
        <path d="M 50 4 C 43.78828430175781 4 37.76448440551758 5.215682983398438 32.095947265625 7.613265991210938 C 26.61878204345703 9.929916381835938 21.69893646240234 13.24723052978516 17.47308349609375 17.47308349609375 C 13.24723052978516 21.69893646240234 9.929916381835938 26.61878204345703 7.613265991210938 32.095947265625 C 5.215682983398438 37.76448440551758 4 43.78828430175781 4 50 C 4 56.21171569824219 5.215682983398438 62.23551559448242 7.613265991210938 67.904052734375 C 9.929916381835938 73.38121795654297 13.24723052978516 78.30107116699219 17.47308349609375 82.52691650390625 C 21.69893646240234 86.75276947021484 26.61878204345703 90.07008361816406 32.095947265625 92.38673400878906 C 37.76448440551758 94.78431701660156 43.78828430175781 96 50 96 C 56.21171569824219 96 62.23551559448242 94.78431701660156 67.904052734375 92.38673400878906 C 73.38121795654297 90.07008361816406 78.30107116699219 86.75276947021484 82.52691650390625 82.52691650390625 C 86.75276947021484 78.30107116699219 90.07008361816406 73.38121795654297 92.38673400878906 67.904052734375 C 94.78431701660156 62.23551559448242 96 56.21171569824219 96 50 C 96 43.78828430175781 94.78431701660156 37.76448440551758 92.38673400878906 32.095947265625 C 90.07008361816406 26.61878204345703 86.75276947021484 21.69893646240234 82.52691650390625 17.47308349609375 C 78.30107116699219 13.24723052978516 73.38121795654297 9.929916381835938 67.904052734375 7.613265991210938 C 62.23551559448242 5.215682983398438 56.21171569824219 4 50 4 M 50 0 C 77.61423492431641 0 100 22.38576507568359 100 50 C 100 77.61423492431641 77.61423492431641 100 50 100 C 22.38576507568359 100 0 77.61423492431641 0 50 C 0 22.38576507568359 22.38576507568359 0 50 0 Z" stroke="none" fill="#8dba3a"/>
      </g>
    </g>
    <g id="Group_2629" data-name="Group 2629" transform="translate(-169 -129.995)">
      <g id="Group_2627" data-name="Group 2627" transform="translate(169 8)">
        <g id="Group_2618" data-name="Group 2618" transform="translate(-591.047 708.02)">
          <g id="Group_2613" data-name="Group 2613">
            <path id="Path_3535" data-name="Path 3535" d="M881.047,306.292a126.86,126.86,0,0,1-24-2.18,126.958,126.958,0,0,0-24-2.18v24.057h48Z" fill="none" stroke="#0b1c2b" stroke-linecap="round" stroke-linejoin="round" stroke-width="2"/>
            <path id="Path_3536" data-name="Path 3536" d="M857.047,302.09c-1.978.385-4.051.72-6.19,1.011,2.139.29,4.212.625,6.19,1.011a126.86,126.86,0,0,0,24,2.18v-6.383A126.855,126.855,0,0,0,857.047,302.09Z" fill="none" stroke="#0b1c2b" stroke-linecap="round" stroke-linejoin="round" stroke-width="2"/>
          </g>
        </g>
        <g id="Group_2619" data-name="Group 2619" transform="translate(-55 870)">
          <g id="Group_2609" data-name="Group 2609">
            <rect id="Rectangle_147839" data-name="Rectangle 147839" width="12" height="20" rx="5.99" transform="translate(333 115)" fill="none" stroke="#0b1c2b" stroke-linecap="round" stroke-linejoin="round" stroke-width="2"/>
            <path id="Path_3534" data-name="Path 3534" d="M339.01,143.01A.009.009,0,0,1,339,143V127c0-.011.019-.011.019,0v16A.009.009,0,0,1,339.01,143.01Z" fill="none" stroke="#0b1c2b" stroke-linecap="round" stroke-linejoin="round" stroke-width="2"/>
          </g>
        </g>
        <g id="Group_2620" data-name="Group 2620" transform="translate(-604.537 710.015)">
          <circle id="Ellipse_115" data-name="Ellipse 115" cx="6" cy="6" r="6" transform="translate(851.047 273.989)" fill="none" stroke="#0b1c2b" stroke-linecap="round" stroke-linejoin="round" stroke-width="2"/>
          <g id="Group_2614" data-name="Group 2614">
            <path id="Path_3538" data-name="Path 3538" d="M857.047,274a.009.009,0,0,1-.01-.01v-4a.01.01,0,0,1,.019,0v4A.009.009,0,0,1,857.047,274Z" fill="none" stroke="#0b1c2b" stroke-linecap="round" stroke-linejoin="round" stroke-width="2"/>
            <path id="Path_3539" data-name="Path 3539" d="M857.047,290a.009.009,0,0,1-.01-.01v-4a.01.01,0,0,1,.019,0v4A.009.009,0,0,1,857.047,290Z" fill="none" stroke="#0b1c2b" stroke-linecap="round" stroke-linejoin="round" stroke-width="2"/>
            <path id="Path_3540" data-name="Path 3540" d="M852.8,275.757l-.007,0-2.829-2.829v-.014h.014l2.829,2.829v.014Z" fill="none" stroke="#0b1c2b" stroke-linecap="round" stroke-linejoin="round" stroke-width="2"/>
            <path id="Path_3541" data-name="Path 3541" d="M864.118,287.07l-.007,0-2.829-2.829v-.014a.01.01,0,0,1,.014,0l2.829,2.829v.014Z" fill="none" stroke="#0b1c2b" stroke-linecap="round" stroke-linejoin="round" stroke-width="2"/>
            <path id="Path_3542" data-name="Path 3542" d="M851.047,280h-4a.01.01,0,1,1,0-.02h4a.01.01,0,0,1,0,.02Z" fill="none" stroke="#0b1c2b" stroke-linecap="round" stroke-linejoin="round" stroke-width="2"/>
            <path id="Path_3543" data-name="Path 3543" d="M867.047,280h-4a.01.01,0,1,1,0-.02h4a.01.01,0,0,1,0,.02Z" fill="none" stroke="#0b1c2b" stroke-linecap="round" stroke-linejoin="round" stroke-width="2"/>
            <path id="Path_3544" data-name="Path 3544" d="M849.975,287.07l-.006,0v-.014l2.828-2.829a.01.01,0,0,1,.014,0v.014l-2.829,2.829Z" fill="none" stroke="#0b1c2b" stroke-linecap="round" stroke-linejoin="round" stroke-width="2"/>
            <path id="Path_3545" data-name="Path 3545" d="M861.289,275.757l-.007,0v-.014l2.829-2.829h.014v.014l-2.829,2.829Z" fill="none" stroke="#0b1c2b" stroke-linecap="round" stroke-linejoin="round" stroke-width="2"/>
          </g>
        </g>
      </g>
    </g>
  </g>
</svg>
