<svg xmlns="http://www.w3.org/2000/svg" xmlns:xlink="http://www.w3.org/1999/xlink" width="100" height="100" viewBox="0 0 100 100">
  <defs>
    <clipPath id="clip-path">
      <path id="Path_3549" data-name="Path 3549" d="M93.123,433.227l-6.667-18a2,2,0,0,0-1.9-1.367H77.786c-1.81,3.328-3.788,6.582-5.411,9.141a3.994,3.994,0,0,1-6.75,0c-1.623-2.559-3.6-5.813-5.411-9.141H53.441a2,2,0,0,0-1.9,1.367l-6.667,18a2,2,0,0,0,1.9,2.633h44.45A2,2,0,0,0,93.123,433.227Z" fill="none" stroke="#0b1c2b" stroke-linecap="round" stroke-linejoin="round" stroke-width="2"/>
    </clipPath>
  </defs>
  <g id="Group_2648" data-name="Group 2648" transform="translate(-382 -837)">
    <g id="Group_2571" data-name="Group 2571" transform="translate(-332 532)">
      <g id="Path_3372" data-name="Path 3372" transform="translate(714 305)" fill="#fff">
        <path d="M 50 98 C 43.51915740966797 98 37.23324203491211 96.73117065429688 31.31685638427734 94.22874450683594 C 25.60128593444824 91.81125640869141 20.4677562713623 88.35001373291016 16.05887222290039 83.94113159179688 C 11.64999961853027 79.53224182128906 8.188742637634277 74.39872741699219 5.771256923675537 68.68315887451172 C 3.268828630447388 62.76675796508789 2 56.48084259033203 2 50 C 2 43.51915740966797 3.268828630447388 37.23324203491211 5.771256923675537 31.31685638427734 C 8.188742637634277 25.60128593444824 11.64999961853027 20.4677562713623 16.05887222290039 16.05887222290039 C 20.4677562713623 11.64999961853027 25.60128593444824 8.188742637634277 31.31685638427734 5.771256923675537 C 37.23324203491211 3.268828630447388 43.51915740966797 2 50 2 C 56.48084259033203 2 62.76675796508789 3.268828630447388 68.68315887451172 5.771256923675537 C 74.39872741699219 8.188742637634277 79.53224182128906 11.64999961853027 83.94113159179688 16.05887222290039 C 88.35001373291016 20.4677562713623 91.81125640869141 25.60128593444824 94.22874450683594 31.31685638427734 C 96.73117065429688 37.23324203491211 98 43.51915740966797 98 50 C 98 56.48084259033203 96.73117065429688 62.76675796508789 94.22874450683594 68.68315887451172 C 91.81125640869141 74.39872741699219 88.35001373291016 79.53224182128906 83.94113159179688 83.94113159179688 C 79.53224182128906 88.35001373291016 74.39872741699219 91.81125640869141 68.68315887451172 94.22874450683594 C 62.76675796508789 96.73117065429688 56.48084259033203 98 50 98 Z" stroke="none"/>
        <path d="M 50 4 C 43.78828430175781 4 37.76448440551758 5.215682983398438 32.095947265625 7.613265991210938 C 26.61878204345703 9.929916381835938 21.69893646240234 13.24723052978516 17.47308349609375 17.47308349609375 C 13.24723052978516 21.69893646240234 9.929916381835938 26.61878204345703 7.613265991210938 32.095947265625 C 5.215682983398438 37.76448440551758 4 43.78828430175781 4 50 C 4 56.21171569824219 5.215682983398438 62.23551559448242 7.613265991210938 67.904052734375 C 9.929916381835938 73.38121795654297 13.24723052978516 78.30107116699219 17.47308349609375 82.52691650390625 C 21.69893646240234 86.75276947021484 26.61878204345703 90.07008361816406 32.095947265625 92.38673400878906 C 37.76448440551758 94.78431701660156 43.78828430175781 96 50 96 C 56.21171569824219 96 62.23551559448242 94.78431701660156 67.904052734375 92.38673400878906 C 73.38121795654297 90.07008361816406 78.30107116699219 86.75276947021484 82.52691650390625 82.52691650390625 C 86.75276947021484 78.30107116699219 90.07008361816406 73.38121795654297 92.38673400878906 67.904052734375 C 94.78431701660156 62.23551559448242 96 56.21171569824219 96 50 C 96 43.78828430175781 94.78431701660156 37.76448440551758 92.38673400878906 32.095947265625 C 90.07008361816406 26.61878204345703 86.75276947021484 21.69893646240234 82.52691650390625 17.47308349609375 C 78.30107116699219 13.24723052978516 73.38121795654297 9.929916381835938 67.904052734375 7.613265991210938 C 62.23551559448242 5.215682983398438 56.21171569824219 4 50 4 M 50 0 C 77.61423492431641 0 100 22.38576507568359 100 50 C 100 77.61423492431641 77.61423492431641 100 50 100 C 22.38576507568359 100 0 77.61423492431641 0 50 C 0 22.38576507568359 22.38576507568359 0 50 0 Z" stroke="none" fill="#8dba3a"/>
      </g>
    </g>
    <g id="Group_2645" data-name="Group 2645" transform="translate(0 -78.289)">
      <g id="Group_2625" data-name="Group 2625" transform="translate(363.227 554.149)">
        <g id="Group_2623" data-name="Group 2623">
          <g id="Group_2622" data-name="Group 2622" clip-path="url(#clip-path)">
            <path id="Path_3548" data-name="Path 3548" d="M91.225,435.86H46.775a2,2,0,0,1-1.9-2.633l6.667-18a2,2,0,0,1,1.9-1.367H84.559a2,2,0,0,1,1.9,1.367l6.667,18A2,2,0,0,1,91.225,435.86Z" fill="none" stroke="#0b1c2b" stroke-linecap="round" stroke-linejoin="round" stroke-width="2"/>
          </g>
          <path id="Path_3550" data-name="Path 3550" d="M93.123,433.227l-6.667-18a2,2,0,0,0-1.9-1.367H77.786c-1.81,3.328-3.788,6.582-5.411,9.141a3.994,3.994,0,0,1-6.75,0c-1.623-2.559-3.6-5.813-5.411-9.141H53.441a2,2,0,0,0-1.9,1.367l-6.667,18a2,2,0,0,0,1.9,2.633h44.45A2,2,0,0,0,93.123,433.227Z" fill="none" stroke="#0b1c2b" stroke-linecap="round" stroke-linejoin="round" stroke-width="2"/>
        </g>
        <g id="Group_2624" data-name="Group 2624">
          <path id="Path_3551" data-name="Path 3551" d="M83,400.14C83,405.4,76.518,416.467,72.375,423a3.994,3.994,0,0,1-6.75,0C61.482,416.467,55,405.4,55,400.14a14,14,0,0,1,28,0Z" fill="none" stroke="#0b1c2b" stroke-linecap="round" stroke-linejoin="round" stroke-width="2"/>
        </g>
      </g>
      <g id="Group_2635" data-name="Group 2635" transform="translate(-168 -52)">
        <g id="Group_2634" data-name="Group 2634">
          <path id="Path_3552" data-name="Path 3552" d="M0,0H2V8.884" transform="translate(598.5 1005.5)" fill="none" stroke="#0b1c2b" stroke-linecap="round" stroke-linejoin="round" stroke-width="2"/>
          <g id="Group_2634-2" data-name="Group 2634">
            <g id="Ellipse_117" data-name="Ellipse 117" transform="translate(598 1000)" fill="#fff" stroke="#0b1c2b" stroke-width="2">
              <circle cx="1.8" cy="1.8" r="1.8" stroke="none"/>
              <circle cx="1.8" cy="1.8" r="0.8" fill="none"/>
            </g>
            <line id="Line_99" data-name="Line 99" x2="4" transform="translate(598.5 1014.5)" fill="none" stroke="#0b1c2b" stroke-linecap="round" stroke-width="2"/>
          </g>
        </g>
      </g>
    </g>
  </g>
</svg>
