<svg id="Group_2714" data-name="Group 2714" xmlns="http://www.w3.org/2000/svg" xmlns:xlink="http://www.w3.org/1999/xlink" width="32.104" height="34.606" viewBox="0 0 32.104 34.606">
  <defs>
    <clipPath id="clip-path">
      <rect id="Rectangle_147856" data-name="Rectangle 147856" width="32.104" height="34.606" fill="#041c2c"/>
    </clipPath>
  </defs>
  <g id="Group_2670" data-name="Group 2670" clip-path="url(#clip-path)">
    <path id="Path_3587" data-name="Path 3587" d="M31.963,107.275a6.358,6.358,0,0,0-7.536-4.881h0a6.436,6.436,0,0,0-.85.245L20.5,97.168a1.461,1.461,0,0,0,.353-1.28c-.172-1.234-1-1.2-1.266-1.182-.858.039-2.839.012-3.429,0a13.456,13.456,0,0,0-.516-1.342,4.2,4.2,0,0,0-1.518-2.042,2.951,2.951,0,0,0-3.3.007,11.684,11.684,0,0,0-3.569,4.436,16.2,16.2,0,0,0-1.636,4.34A3.136,3.136,0,0,0,6.567,103a22.063,22.063,0,0,0,2.475,1.393l-.987,2.241a6.316,6.316,0,0,0-3.032-.09H5.018A6.35,6.35,0,0,0,6.338,119.1a6.4,6.4,0,0,0,1.341-.143,6.35,6.35,0,0,0,5.006-6.637l1.289-.275c.024-.005.047-.012.07-.019a1.633,1.633,0,0,0,1.332.688A1.721,1.721,0,0,0,17.09,110.9c-.02-.2-.044-.4-.071-.6.008-.013.018-.025.026-.038l4.467-7.59.467.83a6.35,6.35,0,1,0,9.984,3.778M10.68,105.166c.9.4,1.63.71,1.907.824.117.525.592,2.668.946,4.3l-1.226.262A6.3,6.3,0,0,0,9.8,107.421c-.03-.019-.06-.037-.09-.055Zm-1.709,3.88a4.5,4.5,0,0,1,1.541,1.89l-2.619.56Zm1.189,6.172a4.538,4.538,0,1,1-4.759-6.9h0a4.52,4.52,0,0,1,1.909,0l-1.793,4.071a.905.905,0,0,0,1.018,1.25l4.35-.93a4.506,4.506,0,0,1-.73,2.512m6.369-7.655c-.148-.7-.3-1.361-.437-1.942-.122-.525-.227-.979-.3-1.338l0-.01a3.08,3.08,0,0,0-.568-1.167l4.471-.914Zm-3.256-5.9s-2.025-1.307-2.495-1.6l2.6-3.9,1.144,1.622.009.012c.315.391,1.038.332,1.772.209.577-.078,1.589-.219,2.416-.334a.908.908,0,0,0,.067.15l1.367,2.429ZM26.7,113.042a4.54,4.54,0,0,1-3.828-7.95l1.928,3.427a.905.905,0,1,0,1.578-.888l-1.9-3.383c.107-.031.215-.06.326-.083h0a4.539,4.539,0,0,1,1.9,8.877" transform="translate(0 -84.496)" fill="#041c2c"/>
    <path id="Path_3588" data-name="Path 3588" d="M173.964,5.374a24.93,24.93,0,0,1,2.381.965,20.237,20.237,0,0,1,3.225,2.019.234.234,0,0,0,.277.005,5.948,5.948,0,0,0,1.5-1.535.234.234,0,0,0-.058-.322l-.628-.447a.234.234,0,0,0-.121-.043L180,5.982a2.272,2.272,0,0,1-.375-.3l-.006-.006a.606.606,0,0,1-.239-.555,1.65,1.65,0,0,1,.818-.928l1.338.958a.234.234,0,0,0,.3-.02l.2-.192a.228.228,0,0,0,.027-.03c.387-.517.054-2.1-.612-2.926A5.464,5.464,0,0,0,178.486.068l-.015,0a4.133,4.133,0,0,0-3.291.828,4.219,4.219,0,0,0-1.365,4.322.234.234,0,0,0,.149.16" transform="translate(-161.578 0)" fill="#041c2c"/>
  </g>
</svg>
