<svg xmlns="http://www.w3.org/2000/svg" xmlns:xlink="http://www.w3.org/1999/xlink" width="27.657" height="27.007" viewBox="0 0 27.657 27.007">
  <defs>
    <clipPath id="clip-path">
      <rect id="Rectangle_147816" data-name="Rectangle 147816" width="27.657" height="27.007" fill="#041c2c"/>
    </clipPath>
  </defs>
  <g id="Group_2702" data-name="Group 2702" transform="translate(0 0)">
    <g id="Group_2550" data-name="Group 2550" transform="translate(0 0)" clip-path="url(#clip-path)">
      <path id="Path_3376" data-name="Path 3376" d="M12,46.894l-.1.128a2.056,2.056,0,0,1-.328.342l.351,1.3c.59,2.2,1.172,3.3,3.852,3.084l-1.962-7.327c-.656.97-1.3,1.81-1.813,2.468" transform="translate(-6.453 -24.774)" fill="#041c2c"/>
      <path id="Path_3377" data-name="Path 3377" d="M21.739,17.22l-5.518-2.1-.56,1.064L3.934,16.19h-.56a1.125,1.125,0,1,1,0-2.25c1.5,0,1.557-1.331,1.557-2.249H3.374a3.373,3.373,0,0,0-.9,6.623v7.375a1.924,1.924,0,0,1-1.344,1.776V30.38c0,2.623.869,3.143,2.37,3.146l.554-.031V29.851a3.011,3.011,0,0,1,.768-1.866l0,.012c.625-.809,1.425-1.853,2.193-3.063h.015l0-.009a17.115,17.115,0,0,0,.994-1.758c.018-.037.031-.071.05-.107l.067-.109,7.322,2.633v4.242c0,2.279.376,3.692,2.251,3.692l.673.01V26.085a4.375,4.375,0,0,0,1.945-2.605Z" transform="translate(0 -6.519)" fill="#041c2c"/>
      <path id="Path_3378" data-name="Path 3378" d="M48.436,4.86,43.955,3.187,43.072.555c-.458,0-.752.276-.883,1.023L41.563,0C41,0,40.64.3,40.5,1.124l-.372,2.146L37.835,7.62l5.248,1.991-.05.221.337-1.492h2.8c1.136,0,1.631-.486,2.241-2.141l.319-.616c.074-.318-.009-.678-.294-.724" transform="translate(-21.098 0)" fill="#041c2c"/>
      <path id="Path_3379" data-name="Path 3379" d="M43.74,43.367v4.489c.547,1.756,1.267,2.618,3.661,2.421l-2.276-8.5a5.3,5.3,0,0,1-1.385,1.587" transform="translate(-24.391 -23.298)" fill="#041c2c"/>
    </g>
  </g>
</svg>
