<svg id="Group_2715" data-name="Group 2715" xmlns="http://www.w3.org/2000/svg" xmlns:xlink="http://www.w3.org/1999/xlink" width="39.229" height="28.614" viewBox="0 0 39.229 28.614">
  <defs>
    <clipPath id="clip-path">
      <rect id="Rectangle_147857" data-name="Rectangle 147857" width="39.229" height="28.614" fill="#041c2c"/>
    </clipPath>
  </defs>
  <g id="Group_2672" data-name="Group 2672" clip-path="url(#clip-path)">
    <path id="Path_3589" data-name="Path 3589" d="M379.033,76.66a18.136,18.136,0,0,0,0,19.95c5.524-2.141,9.862-8.541,10.781-9.975-.919-1.434-5.257-7.834-10.781-9.975m3.944,11.31a.936.936,0,1,1,.936-.936.936.936,0,0,1-.936.936" transform="translate(-350.585 -71.47)" fill="#041c2c"/>
    <path id="Path_3590" data-name="Path 3590" d="M6.734,121.019H6.728c.048-.238.71-3.7-1.037-5.69-1.81-2.064-5.519-1.772-5.519-1.772s-.776,3.639,1.034,5.7a6.431,6.431,0,0,0,4.372,1.764,6.424,6.424,0,0,0-4.368,1.752c-1.815,2.059-1.049,5.7-1.049,5.7s3.709.3,5.524-1.757,1.049-5.7,1.049-5.7" transform="translate(0 -105.856)" fill="#041c2c"/>
    <path id="Path_3591" data-name="Path 3591" d="M133.106,63.628a9.781,9.781,0,0,0-2.779-.426c-5.533,0-11.684,5.247-14.858,8.375-1.214,1.2-2.073,2.161-2.379,2.511.317.364,1.2,1.353,2.445,2.576,3.161,3.1,9.286,8.31,14.8,8.31a9.773,9.773,0,0,0,2.776-.426,19.049,19.049,0,0,1,0-20.919" transform="translate(-105.434 -58.923)" fill="#041c2c"/>
    <path id="Path_3592" data-name="Path 3592" d="M271.277,367.93a23.973,23.973,0,0,0,.583,3.706,13.328,13.328,0,0,0,3.769-2.087,16.893,16.893,0,0,1-4.352-1.619" transform="translate(-252.912 -343.021)" fill="#041c2c"/>
    <path id="Path_3593" data-name="Path 3593" d="M271.985,3.568q.3,0,.6.022C270.078.863,265.315,0,265.315,0a26.509,26.509,0,0,0-.188,5.594,14.657,14.657,0,0,1,6.858-2.026" transform="translate(-247.088 0)" fill="#041c2c"/>
  </g>
</svg>
