<svg id="Group_2709" data-name="Group 2709" xmlns="http://www.w3.org/2000/svg" xmlns:xlink="http://www.w3.org/1999/xlink" width="16.754" height="34.207" viewBox="0 0 16.754 34.207">
  <defs>
    <clipPath id="clip-path">
      <rect id="Rectangle_147850" data-name="Rectangle 147850" width="16.754" height="34.207" fill="#041c2c"/>
    </clipPath>
  </defs>
  <g id="Group_2657" data-name="Group 2657" clip-path="url(#clip-path)">
    <path id="Path_3574" data-name="Path 3574" d="M12.564,20.937A4.184,4.184,0,0,0,9.081,22.8V16.749a.693.693,0,0,0,0-.078c.069-.014.138-.03.207-.049a3.472,3.472,0,0,0,2.443-2.443,3.472,3.472,0,0,0,3.351-5.807,3.47,3.47,0,0,0-3.351-5.807,3.472,3.472,0,0,0-6.7,0A3.472,3.472,0,0,0,1.674,8.372a3.472,3.472,0,0,0,3.351,5.807,3.471,3.471,0,0,0,2.65,2.492.7.7,0,0,0,0,.078V22.8a4.184,4.184,0,0,0-3.483-1.863H0v4.188a4.189,4.189,0,0,0,4.189,4.189H7.671V33.5h0a.7.7,0,0,0,.7.705h.011a.686.686,0,0,0,.075-.005.7.7,0,0,0,.47-.265.712.712,0,0,0,.149-.435V29.314h3.483a4.188,4.188,0,0,0,4.189-4.189V20.937ZM5.584,8.372a2.792,2.792,0,1,1,2.792,2.792A2.792,2.792,0,0,1,5.584,8.372" transform="translate(0.001 0)" fill="#041c2c"/>
  </g>
</svg>
