<svg id="Group_2713" data-name="Group 2713" xmlns="http://www.w3.org/2000/svg" xmlns:xlink="http://www.w3.org/1999/xlink" width="23.233" height="33.846" viewBox="0 0 23.233 33.846">
  <defs>
    <clipPath id="clip-path">
      <rect id="Rectangle_147855" data-name="Rectangle 147855" width="23.233" height="33.846" fill="#041c2c"/>
    </clipPath>
  </defs>
  <g id="Group_2668" data-name="Group 2668" clip-path="url(#clip-path)">
    <path id="Path_3586" data-name="Path 3586" d="M22.395,14.82h-9.94V4.878a3.2,3.2,0,0,1,6.407,0,.838.838,0,1,0,1.676,0A4.891,4.891,0,0,0,15.662,0h-.008a4.883,4.883,0,0,0-4.038,2.152A4.884,4.884,0,0,0,7.578,0H7.571A4.891,4.891,0,0,0,2.695,4.876s0,.006,0,.009a.838.838,0,0,0,1.676-.007,3.2,3.2,0,0,1,6.407,0v9.94H.838a.838.838,0,1,0,0,1.676H2.859v.509a4.721,4.721,0,0,0,4.715,4.715h.674v4.715a2.023,2.023,0,0,1-2.021,2.021,3.372,3.372,0,0,0-3.368,3.368v1.347a.674.674,0,0,0,.674.674H19.7a.674.674,0,0,0,.674-.674V31.825a3.372,3.372,0,0,0-3.368-3.368,2.023,2.023,0,0,1-2.021-2.021V21.721h.674a4.721,4.721,0,0,0,4.715-4.715V16.5h2.021a.838.838,0,1,0,0-1.676" fill="#041c2c"/>
  </g>
</svg>
