<svg id="Group_2712" data-name="Group 2712" xmlns="http://www.w3.org/2000/svg" xmlns:xlink="http://www.w3.org/1999/xlink" width="32" height="32" viewBox="0 0 32 32">
  <defs>
    <clipPath id="clip-path">
      <rect id="Rectangle_147854" data-name="Rectangle 147854" width="32" height="32" fill="#041c2c"/>
    </clipPath>
  </defs>
  <g id="Group_2666" data-name="Group 2666" clip-path="url(#clip-path)">
    <path id="Path_3585" data-name="Path 3585" d="M19.25,25.5l.53-2.291a5.091,5.091,0,0,1,1.36-2.451l.767-.767a5.087,5.087,0,0,0,.221-6.958l4.3-4.3a1.6,1.6,0,0,0,1.982-.184l.654.654a.662.662,0,0,0,.468.194h.009a.663.663,0,0,0,.663-.661V8.729a.663.663,0,0,0-.194-.47l-.653-.653.853-.853.654.653A.667.667,0,0,0,32,6.937V6.927a.662.662,0,0,0-.194-.467l-.654-.654a1.6,1.6,0,0,0-.022-2.24l-2.7-2.7a1.6,1.6,0,0,0-2.24-.022L25.539.194A.663.663,0,0,0,25.071,0h-.009A.662.662,0,0,0,24.4.664V.673a.662.662,0,0,0,.194.467l.652.652-.853.853-.651-.652h0a.662.662,0,0,0-.468-.194h-.009a.662.662,0,0,0-.662.661v.009a.662.662,0,0,0,.194.47l.652.653a1.6,1.6,0,0,0-.184,1.982l-4.3,4.3a5.087,5.087,0,0,0-6.955.224l-.767.767a5.088,5.088,0,0,1-2.451,1.359l-2.292.53a7.63,7.63,0,0,0-3.68,2.04l-.251.251c-3.975,3.975-3.075,9.517.9,13.491s9.517,4.873,13.491.9l.251-.251A7.628,7.628,0,0,0,19.25,25.5m-6.34-9.455a3.042,3.042,0,1,1-3.042,3.042,3.043,3.043,0,0,1,3.042-3.042M9.151,26.408,5.585,22.841a.768.768,0,0,1,1.087-1.087l3.566,3.566a.768.768,0,1,1-1.087,1.087" transform="translate(0)" fill="#041c2c"/>
  </g>
</svg>
