<svg id="Group_2703" data-name="Group 2703" xmlns="http://www.w3.org/2000/svg" xmlns:xlink="http://www.w3.org/1999/xlink" width="30.093" height="30.095" viewBox="0 0 30.093 30.095">
  <defs>
    <clipPath id="clip-path">
      <rect id="Rectangle_147818" data-name="Rectangle 147818" width="30.093" height="30.095" fill="#041c2c"/>
    </clipPath>
  </defs>
  <g id="Group_2553" data-name="Group 2553" clip-path="url(#clip-path)">
    <path id="Path_3384" data-name="Path 3384" d="M99.408,443.652v.005l-.1.128a2.049,2.049,0,0,1-.327.341l.35,1.3c.589,2.2,1.169,3.293,3.843,3.077l-1.958-7.311c-.655.968-1.3,1.806-1.809,2.462" transform="translate(-93.877 -418.44)" fill="#041c2c"/>
    <path id="Path_3385" data-name="Path 3385" d="M329.306,69.352H332.1c1.133,0,1.627-.485,2.236-2.136l.318-.615c.074-.317-.009-.677-.293-.722h0l-4.471-1.669-.881-2.626c-.457,0-.75.275-.881,1.021l-.625-1.574c-.562,0-.921.3-1.061,1.121l-.371,2.141-2.288,4.34,5.236,1.987Z" transform="translate(-307.088 -57.884)" fill="#041c2c"/>
    <path id="Path_3386" data-name="Path 3386" d="M311.97,229.551l-5.506-2.1-.4.758,5.066,5.066Z" transform="translate(-290.283 -215.727)" fill="#041c2c"/>
    <path id="Path_3387" data-name="Path 3387" d="M3.922,165.6H3.363a1.122,1.122,0,0,1,0-2.245c1.5,0,1.553-1.328,1.553-2.244H3.363a3.365,3.365,0,0,0-.9,6.608v7.358a1.92,1.92,0,0,1-1.341,1.772v2.908c0,2.617.867,3.136,2.365,3.139l.553-.031v-3.636a3,3,0,0,1,.766-1.862v.012c.624-.807,1.422-1.849,2.188-3.056h.015v-.009A17.079,17.079,0,0,0,8,172.557c.018-.037.031-.071.05-.107l.067-.109,7.306,2.627V179.2c0,2.274.375,3.684,2.246,3.684l.671.01v-7.426a4.367,4.367,0,0,0,.609-.451l-9.425-9.425Z" transform="translate(0 -152.8)" fill="#041c2c"/>
    <path id="Path_3388" data-name="Path 3388" d="M30.052,28.318,2.036.3A1.031,1.031,0,0,0,.578,1.76L28.594,29.776a1.031,1.031,0,0,0,1.459-1.459" transform="translate(-0.261 0)" fill="#041c2c"/>
    <path id="Path_3389" data-name="Path 3389" d="M374.65,444.006c-.105.095-.213.187-.326.273v4.482c.546,1.752,1.264,2.612,3.653,2.415l-1.405-5.249Z" transform="translate(-355.022 -421.111)" fill="#041c2c"/>
  </g>
</svg>
