<svg id="Group_2718" data-name="Group 2718" xmlns="http://www.w3.org/2000/svg" xmlns:xlink="http://www.w3.org/1999/xlink" width="32" height="35.81" viewBox="0 0 32 35.81">
  <defs>
    <clipPath id="clip-path">
      <rect id="Rectangle_147860" data-name="Rectangle 147860" width="32" height="35.81" fill="#041c2c"/>
    </clipPath>
  </defs>
  <g id="Group_2678" data-name="Group 2678" clip-path="url(#clip-path)">
    <path id="Path_3598" data-name="Path 3598" d="M42.458,304.352A84.41,84.41,0,0,1,27.019,302.9a83.488,83.488,0,0,0-15.26-1.431v14.9h30.7Z" transform="translate(-10.943 -280.566)" fill="#041c2c"/>
    <path id="Path_3599" data-name="Path 3599" d="M236.43,63.349V58.057a3.952,3.952,0,0,0-3.952-3.952h-.013a3.952,3.952,0,0,0-3.952,3.952v5.292a3.953,3.953,0,0,0,3.311,3.9v2.786a83.406,83.406,0,0,0-11.138,1.322q-.5.1-1.022.19.523.093,1.024.191l.027,0q.465.087.93.169l.228.039c.246.042.491.085.737.125l.254.04c.238.038.477.076.715.112l.253.037c.24.036.479.071.719.1l.244.033c.243.033.487.066.731.1l.235.029q.372.046.744.09l.222.025q.378.043.757.082l.214.021q.383.039.767.074l.206.018q.388.035.775.066l.2.015q.389.03.778.057l.206.013q.387.025.774.047l.215.011q.38.02.761.037l.233.01q.369.015.737.028l.264.008q.349.01.7.018l.308.006.645.009.37,0h.3v-3.24q-1.4,0-2.8.052V67.244a3.952,3.952,0,0,0,3.286-3.9" transform="translate(-204.43 -50.353)" fill="#041c2c"/>
    <path id="Path_3600" data-name="Path 3600" d="M14.349,6.806a.672.672,0,0,0-.468-.21H11.835A4.6,4.6,0,0,0,10.967,4.5L12.4,3.069a.66.66,0,0,0,.193-.467V2.593a.66.66,0,0,0-.66-.66h-.009a.66.66,0,0,0-.467.193L10.025,3.561a4.6,4.6,0,0,0-2.095-.869V.664A.66.66,0,0,0,7.9.459.666.666,0,0,0,6.634.45.66.66,0,0,0,6.6.664V2.692a4.6,4.6,0,0,0-2.1.871L3.067,2.127A.66.66,0,0,0,2.6,1.934H2.592a.66.66,0,0,0-.66.66V2.6a.66.66,0,0,0,.193.467L3.561,4.505A4.6,4.6,0,0,0,2.695,6.6H.648A.666.666,0,0,0,.667,7.928H2.7a4.6,4.6,0,0,0,.869,2.093L2.128,11.458a.66.66,0,0,0-.193.466v.009a.66.66,0,0,0,.66.66H2.6A.66.66,0,0,0,3.07,12.4l1.436-1.436a4.6,4.6,0,0,0,2.092.868V13.86c0,.017,0,.035,0,.052s0,.02,0,.03a.668.668,0,0,0,.661.584q.032,0,.065,0l.031,0a.665.665,0,0,0,.57-.659V11.831a4.6,4.6,0,0,0,2.092-.868L11.459,12.4a.66.66,0,0,0,.467.193h.009a.66.66,0,0,0,.66-.66v-.009a.66.66,0,0,0-.193-.467l-1.436-1.436a4.6,4.6,0,0,0,.869-2.093h2.048a.666.666,0,0,0,.467-1.122M9.633,9.554c-.012.01-.023.02-.035.031a.655.655,0,0,0-.046.05,3.286,3.286,0,0,1-2.239.924.662.662,0,0,0-.1,0,3.287,3.287,0,0,1-2.238-.928c-.014-.016-.028-.032-.043-.046L4.9,9.558a3.287,3.287,0,0,1-.932-2.221c0-.017,0-.034,0-.051a.654.654,0,0,0,0-.095,3.286,3.286,0,0,1,.919-2.214.67.67,0,0,0,.09-.09,3.286,3.286,0,0,1,2.21-.924.661.661,0,0,0,.078.005h0c.023,0,.046,0,.068,0l.013,0h0a3.286,3.286,0,0,1,2.193.912.666.666,0,0,0,.11.11,3.286,3.286,0,0,1,.911,2.2.657.657,0,0,0,0,.1c0,.017,0,.034,0,.05a3.287,3.287,0,0,1-.928,2.217" transform="translate(0 0)" fill="#041c2c"/>
  </g>
</svg>
