<svg id="Group_2704" data-name="Group 2704" xmlns="http://www.w3.org/2000/svg" xmlns:xlink="http://www.w3.org/1999/xlink" width="26.288" height="33.267" viewBox="0 0 26.288 33.267">
  <defs>
    <clipPath id="clip-path">
      <rect id="Rectangle_147819" data-name="Rectangle 147819" width="26.288" height="33.267" fill="#041c2c"/>
    </clipPath>
  </defs>
  <g id="Group_2555" data-name="Group 2555" clip-path="url(#clip-path)">
    <path id="Path_3390" data-name="Path 3390" d="M53.633,5.817a3.407,3.407,0,1,1,3.513,3.3,3.407,3.407,0,0,1-3.513-3.3M59.927,12.6a2.119,2.119,0,0,0-2.19-2.287h-.059a5.393,5.393,0,0,1-4.608-2.3,1.8,1.8,0,1,0-2.942,2.07,9.006,9.006,0,0,0,4.9,3.485l.059,2.761a8.136,8.136,0,0,0-6.31,3.6,1.889,1.889,0,0,0,.148,2.213Zm9.818-9.83a2.342,2.342,0,0,1-.21,2.935l1.222,1.344a4.165,4.165,0,0,0,.47-5.3c-.76-1.1-.985-1.39-1.008-1.419a.9.9,0,0,0-1.407,1.12c.009.011.218.278.933,1.318" transform="translate(-45.68 0)" fill="#041c2c"/>
    <path id="Path_3391" data-name="Path 3391" d="M8.8,129.665h3.791v3.362l1.2.318v-3.734c2.612-.252,3.844-1.4,4.918-3.6.706-1.443,2.356-5.212,3.584-8.043Zm9.773,3.826a3.384,3.384,0,0,0-3.111,1.541L4.229,132.044l19.925-17.275-1.129-1.242-21,18.2v2.827A2.888,2.888,0,0,0,.364,138.72,2.9,2.9,0,1,0,3.7,134.535v-.893l11.23,2.985a3.369,3.369,0,0,0,3.072,3.574c.1.008.192.012.287.012a3.367,3.367,0,0,0,.282-6.723m-14.4,3.116a1.459,1.459,0,1,1-2.678.306,1.447,1.447,0,0,1,.53-.761v.532a.839.839,0,1,0,1.678,0V136.1a1.441,1.441,0,0,1,.47.5m13.955,2.161a1.928,1.928,0,0,1,.162-3.849c.055,0,.109,0,.163.007a1.928,1.928,0,1,1-.325,3.842" transform="translate(0 -106.946)" fill="#041c2c"/>
  </g>
</svg>
