<svg xmlns="http://www.w3.org/2000/svg" width="35.736" height="28.516" viewBox="0 0 35.736 28.516">
  <g id="Group_2701" data-name="Group 2701" transform="translate(-352.795 -840.84)">
    <path id="Path_3380" data-name="Path 3380" d="M55.776,197.194a1.347,1.347,0,0,0-1.228-.795H48.7a1.347,1.347,0,0,0-1.228.795l-3.655,8.129a1.347,1.347,0,1,0,2.457,1.1l2.66-5.916-2.844,9.7H48.56v7.776a1.347,1.347,0,0,0,2.693,0V210.21h.735v7.776a1.347,1.347,0,0,0,2.693,0V210.21h2.139L54.1,200.041l2.871,6.386a1.347,1.347,0,0,0,2.457-1.1Z" transform="translate(309.102 650.023)" fill="#041c2c"/>
    <path id="Path_3381" data-name="Path 3381" d="M143.925,102.4a2.4,2.4,0,1,0-2.4-2.4,2.4,2.4,0,0,0,2.4,2.4" transform="translate(216.799 743.243)" fill="#041c2c"/>
    <path id="Path_3382" data-name="Path 3382" d="M445.218,205.61l-1.454-7.236a2.466,2.466,0,0,0-2.411-1.975H435.3a2.466,2.466,0,0,0-2.411,1.974l-1.454,7.236a1.347,1.347,0,0,0,1.055,1.586,1.373,1.373,0,0,0,.267.027,1.347,1.347,0,0,0,1.319-1.082l1.189-5.916v17.7a1.386,1.386,0,0,0,1.214,1.4,1.347,1.347,0,0,0,1.479-1.34v-9.952a.368.368,0,0,1,.735,0v9.894a1.386,1.386,0,0,0,1.214,1.4,1.347,1.347,0,0,0,1.479-1.34V200.225l1.189,5.916a1.347,1.347,0,0,0,1.319,1.082,1.371,1.371,0,0,0,.267-.027,1.347,1.347,0,0,0,1.055-1.586" transform="translate(-56.713 650.023)" fill="#041c2c"/>
    <path id="Path_3383" data-name="Path 3383" d="M513.744,102.4a2.4,2.4,0,1,0-2.4-2.4,2.4,2.4,0,0,0,2.4,2.4" transform="translate(-132.129 743.243)" fill="#041c2c"/>
    <rect id="Rectangle_147817" data-name="Rectangle 147817" width="2.179" height="28.311" transform="translate(370.145 841.038)" fill="#041c2c"/>
  </g>
</svg>
