<svg id="Group_2719" data-name="Group 2719" xmlns="http://www.w3.org/2000/svg" xmlns:xlink="http://www.w3.org/1999/xlink" width="32.246" height="33.122" viewBox="0 0 32.246 33.122">
  <defs>
    <clipPath id="clip-path">
      <rect id="Rectangle_147861" data-name="Rectangle 147861" width="32.246" height="33.122" fill="#041c2c"/>
    </clipPath>
  </defs>
  <g id="Group_2681" data-name="Group 2681" clip-path="url(#clip-path)">
    <path id="Path_3601" data-name="Path 3601" d="M105.4,0a9.047,9.047,0,0,0-9.037,9.037c0,2.566,2.645,8.209,7.258,15.483a2.105,2.105,0,0,0,3.558,0c4.681-7.381,7.258-12.88,7.258-15.483A9.047,9.047,0,0,0,105.4,0m-.222,4.68a1.247,1.247,0,1,1-1.247,1.247,1.247,1.247,0,0,1,1.247-1.247m1.8,10.738h-2.771a.693.693,0,0,1,0-1.386h.693V9.182h-.693a.693.693,0,0,1,0-1.386h1.386a.693.693,0,0,1,.693.693v5.542h.693a.693.693,0,1,1,0,1.386" transform="translate(-89.279 0.001)" fill="#041c2c"/>
    <path id="Path_3602" data-name="Path 3602" d="M26.9,261.134H22.6c-1.287,2.339-2.648,4.552-3.582,6.025a3.429,3.429,0,0,1-4.731,1.063,3.451,3.451,0,0,1-1.064-1.064c-.932-1.469-2.291-3.679-3.582-6.025h-4.3a.723.723,0,0,0-.687.495l-.007.02L.035,274.108a.724.724,0,0,0,.689.944h30.8a.724.724,0,0,0,.69-.944L27.59,261.629a.723.723,0,0,0-.687-.495" transform="translate(0 -241.93)" fill="#041c2c"/>
  </g>
</svg>
