<?xml version="1.0" encoding="utf-8"?>
<!-- Generator: Adobe Illustrator 19.1.0, SVG Export Plug-In . SVG Version: 6.00 Build 0)  -->
<!DOCTYPE svg PUBLIC "-//W3C//DTD SVG 1.1//EN" "http://www.w3.org/Graphics/SVG/1.1/DTD/svg11.dtd">
<svg version="1.1" id="Layer_1" xmlns="http://www.w3.org/2000/svg" xmlns:xlink="http://www.w3.org/1999/xlink" x="0px" y="0px"
	 viewBox="0 0 173.5 266" style="enable-background:new 0 0 173.5 266;" xml:space="preserve">
<style type="text/css">
	.st0{clip-path:url(#SVGID_2_);fill:#FFFFFF;}
</style>
<g>
	<defs>
		<rect id="SVGID_1_" width="173.5" height="266"/>
	</defs>
	<clipPath id="SVGID_2_">
		<use xlink:href="#SVGID_1_"  style="overflow:visible;"/>
	</clipPath>
	<path class="st0" d="M86.8,0C38.9,0,0,38.8,0,86.8c0,15.2,3.9,29.5,10.8,41.9l76,137.3l76-137.3c6.9-12.4,10.8-26.7,10.8-41.9
		C173.5,38.8,134.7,0,86.8,0z M86.8,126.2c-21.8,0-39.5-17.7-39.5-39.5C47.3,65,65,47.3,86.8,47.3c21.8,0,39.5,17.7,39.5,39.5
		C126.3,108.6,108.6,126.2,86.8,126.2z"/>
</g>
</svg>
