<?xml version="1.0" encoding="utf-8"?>
<!-- Generator: Adobe Illustrator 21.1.0, SVG Export Plug-In . SVG Version: 6.00 Build 0)  -->
<svg version="1.1" id="Layer_1" xmlns="http://www.w3.org/2000/svg" xmlns:xlink="http://www.w3.org/1999/xlink" x="0px" y="0px"
	 viewBox="0 0 26.7 26.7" style="enable-background:new 0 0 26.7 26.7;" xml:space="preserve">
<style type="text/css">
	.st0{clip-path:url(#SVGID_2_);fill:#3F5293;}
	.st1{clip-path:url(#SVGID_2_);fill:#FFFFFF;}
</style>
<g>
	<defs>
		<rect id="SVGID_1_" width="26.7" height="26.7"/>
	</defs>
	<clipPath id="SVGID_2_">
		<use xlink:href="#SVGID_1_"  style="overflow:visible;"/>
	</clipPath>
	<path class="st0" d="M25.3,26.7c0.8,0,1.5-0.7,1.5-1.5V1.5c0-0.8-0.7-1.5-1.5-1.5H1.5C0.7,0,0,0.7,0,1.5v23.8
		c0,0.8,0.7,1.5,1.5,1.5H25.3z"/>
	<path class="st1" d="M18.4,26.7V16.4h3.5l0.5-4h-4V9.8c0-1.2,0.3-2,2-2h2.1V4.2c-0.4,0-1.6-0.2-3.1-0.2c-3.1,0-5.2,1.9-5.2,5.3v3
		h-3.5v4h3.5v10.4H18.4z"/>
</g>
</svg>
