<?xml version="1.0" standalone="no"?>
<!DOCTYPE svg PUBLIC "-//W3C//DTD SVG 20010904//EN"
 "http://www.w3.org/TR/2001/REC-SVG-20010904/DTD/svg10.dtd">
<svg version="1.0" xmlns="http://www.w3.org/2000/svg"
 width="260.000000pt" height="260.000000pt" viewBox="0 0 260.000000 260.000000"
 preserveAspectRatio="xMidYMid meet">
<metadata>
Created by potrace 1.11, written by Peter Selinger 2001-2013
</metadata>
<g transform="translate(0.000000,260.000000) scale(0.100000,-0.100000)"
fill="#000000" stroke="none">
<path d="M1310 2483 c0 -5 -12 -9 -27 -10 -15 0 -32 -8 -39 -17 -6 -9 -19 -16
-28 -16 -9 0 -16 -4 -16 -10 0 -5 17 -10 38 -10 47 0 66 -12 68 -44 0 -14 6
-32 13 -40 7 -8 9 -20 5 -27 -5 -8 -10 -7 -16 5 -8 13 -13 15 -24 5 -9 -7 -11
-17 -5 -27 6 -10 2 -26 -11 -49 -11 -19 -15 -33 -9 -33 6 0 11 5 11 10 0 6 4
10 9 10 13 0 4 -114 -9 -118 -5 -2 -10 -11 -10 -20 0 -9 -19 -33 -42 -54 -34
-31 -38 -38 -20 -33 23 7 23 6 16 -42 -8 -52 -9 -77 -3 -136 5 -55 19 -57 19
-3 0 73 27 54 43 -29 5 -28 3 -31 -29 -41 -33 -11 -34 -10 -42 20 l-8 31 -6
-26 c-2 -14 -1 -36 4 -48 7 -19 13 -22 39 -16 29 7 31 6 24 -16 -12 -36 -55
-64 -55 -36 0 23 -16 38 -34 31 -13 -5 -16 -14 -13 -34 5 -25 -7 -50 -24 -50
-3 0 -5 14 -3 30 2 17 -1 30 -6 30 -6 0 -10 -8 -11 -17 0 -10 -2 -28 -5 -40
-3 -20 0 -23 26 -23 l30 0 -5 -83 c-5 -94 -17 -137 -40 -137 -9 0 -14 4 -11 9
10 15 -19 42 -37 35 -18 -6 -24 -44 -7 -44 5 0 -6 -26 -25 -57 -36 -60 -38
-85 -3 -43 l20 25 -7 -35 c-3 -19 -9 -49 -12 -67 -4 -22 1 -45 16 -73 11 -22
21 -47 21 -55 0 -24 43 -131 48 -117 2 7 -1 25 -6 41 -6 16 -6 34 -1 42 5 8 9
12 10 9 0 -3 2 -14 5 -25 6 -30 5 -171 -1 -243 -4 -41 -3 -62 4 -62 6 0 10 3
10 8 -4 23 4 33 10 12 6 -19 2 -31 -14 -50 -16 -18 -24 -43 -29 -90 -5 -47 -4
-61 4 -50 8 11 9 0 6 -40 -12 -139 -18 -195 -22 -201 -2 -4 3 -10 12 -13 24
-9 26 -8 19 15 -4 12 3 50 15 90 l22 68 25 -37 c29 -43 83 -102 94 -102 4 0
-12 39 -36 87 -53 106 -62 143 -34 136 10 -3 19 -1 19 4 0 5 6 18 14 28 12 17
16 17 30 5 16 -12 16 -11 5 13 -9 20 -9 33 1 56 15 37 26 32 39 -16 9 -31 7
-40 -7 -56 -16 -18 -16 -19 8 -16 17 3 26 -1 28 -13 3 -15 -4 -18 -45 -18 -69
-1 -33 -18 54 -26 l70 -7 1 -36 c1 -20 4 -45 6 -57 2 -12 7 -70 11 -130 3 -60
8 -118 10 -129 2 -11 4 -24 4 -29 1 -6 5 -6 11 0 5 5 11 51 12 102 l3 93 37
-43 c20 -24 40 -40 44 -36 4 4 2 13 -3 20 -19 25 -52 134 -57 188 l-5 55 19
-50 20 -50 -6 60 c-3 33 -7 74 -10 90 -31 206 -37 372 -16 411 6 11 7 26 3 33
-5 7 -2 36 6 65 8 28 25 89 37 135 20 77 23 81 34 60 11 -22 12 -20 7 16 -2
22 -5 50 -5 62 0 13 -8 24 -20 28 -13 4 -20 15 -20 31 0 28 -25 43 -43 25 -18
-18 -24 -13 -36 33 -15 62 -15 140 2 133 6 -3 20 -8 30 -12 9 -4 17 -3 17 3 0
6 3 19 7 29 6 16 5 16 -10 5 -20 -17 -33 -10 -53 29 -12 24 -13 34 -3 45 18
21 -6 47 -32 33 -10 -5 -19 -16 -19 -23 0 -16 -55 -27 -69 -13 -17 17 -1 46
24 41 27 -5 40 9 50 55 5 23 4 31 -4 27 -6 -4 -11 -13 -11 -20 0 -24 -23 -34
-58 -24 -22 6 -30 13 -25 21 4 7 8 17 8 22 3 28 29 106 38 112 7 4 8 -15 4
-60 -3 -37 -2 -69 2 -72 12 -7 23 58 23 137 0 38 4 65 9 62 13 -8 11 3 -7 37
-8 17 -13 37 -10 45 3 8 -1 14 -9 14 -8 0 -12 6 -9 13 2 7 -4 23 -14 35 -22
25 -38 150 -22 166 14 14 12 52 -3 65 -9 7 -13 32 -12 76 1 36 0 65 -1 65 -2
0 -4 -3 -4 -7z m-2 -48 c-3 -3 -9 2 -12 12 -6 14 -5 15 5 6 7 -7 10 -15 7 -18z
m17 -331 c2 -25 -1 -34 -12 -34 -8 0 -11 5 -8 10 4 6 2 16 -3 23 -6 7 -8 25
-5 41 5 24 7 26 15 12 5 -10 11 -33 13 -52z m-24 -95 c-15 -44 -13 -59 4 -29
8 14 15 23 15 20 15 -70 2 -172 -22 -176 -9 -1 -18 5 -20 15 -8 29 0 155 11
185 15 39 26 25 12 -15z m88 -466 c-1 -46 -3 -82 -6 -80 -7 8 -41 113 -46 144
-6 39 -1 45 29 31 24 -11 25 -16 23 -95z m-138 75 c3 -34 2 -119 -1 -148 -2
-19 -4 -16 -11 15 -16 81 -20 116 -14 135 9 27 25 25 26 -2z m117 -164 c31
-42 24 -68 -21 -72 -30 -3 -35 0 -31 16 6 21 -20 49 -31 32 -9 -14 -24 -13
-21 3 1 6 10 39 20 71 l18 59 22 -40 c13 -22 33 -53 44 -69z m96 -53 c12 -23
20 -30 26 -22 5 10 9 9 13 -3 5 -13 -1 -16 -29 -16 -21 0 -33 4 -29 10 4 6 3
10 -2 9 -36 -6 -40 0 -29 58 10 54 10 55 20 27 6 -16 19 -44 30 -63z m-233 24
c12 -25 21 -47 18 -49 -2 -2 -27 -6 -55 -10 l-51 -6 26 55 c14 29 29 54 33 54
4 1 17 -19 29 -44z m199 -59 c0 -3 -4 -8 -10 -11 -5 -3 -10 -1 -10 4 0 6 5 11
10 11 6 0 10 -2 10 -4z m-86 -18 c-3 -4 3 -8 13 -9 158 -5 157 -5 151 -70 -6
-54 -74 -172 -87 -150 -14 22 1 72 23 81 37 14 48 34 36 65 -7 20 -7 31 1 41
9 11 7 14 -10 14 -20 0 -22 -4 -16 -43 6 -41 5 -43 -20 -45 -22 -2 -26 2 -22
17 6 26 -10 51 -29 44 -11 -4 -15 -15 -12 -34 4 -25 1 -29 -19 -29 -20 0 -22
4 -17 25 11 45 9 58 -9 61 -15 2 -18 -2 -14 -18 3 -11 1 -32 -4 -46 -9 -22 -7
-30 10 -44 33 -26 33 -127 -1 -248 -12 -44 -13 -44 -18 -15 -4 24 -11 31 -34
33 -28 4 -29 3 -23 -37 9 -71 -9 -44 -22 32 -7 39 -15 78 -17 85 -2 9 15 12
63 12 51 0 63 3 56 13 -15 19 -43 129 -43 170 0 36 17 86 33 98 12 9 37 7 31
-3z m-196 -15 c-13 -3 -18 -15 -18 -44 0 -33 3 -40 18 -37 11 2 19 15 22 38 4
27 10 36 28 38 21 3 22 1 15 -25 -4 -15 -7 -67 -6 -115 1 -49 -1 -88 -5 -88
-17 1 -29 17 -28 40 1 33 -33 41 -41 9 -12 -46 -30 50 -21 114 9 69 13 77 36
76 15 -1 15 -2 0 -6z m135 -210 c9 -18 17 -34 17 -35 0 -2 -16 -2 -35 0 -34 4
-35 5 -35 47 0 24 3 51 7 61 5 15 8 13 17 -12 6 -16 19 -43 29 -61z m-179 -54
c-19 -18 -19 -18 -20 4 -1 12 -7 36 -14 53 -7 17 -10 39 -6 49 5 14 12 7 33
-34 25 -52 25 -53 7 -72z m400 34 c-6 -42 -10 -68 -13 -94 -1 -4 -8 -9 -16
-13 -16 -6 -45 39 -45 70 0 13 64 81 78 84 1 0 0 -21 -4 -47z m-78 -108 l37
-55 -38 -46 c-21 -25 -40 -42 -44 -37 -3 4 -17 20 -30 35 l-24 28 29 64 c16
36 30 66 31 66 2 0 19 -25 39 -55z m-223 -101 c16 -30 15 -32 -14 -73 -34 -45
-26 -56 11 -16 29 31 37 31 46 3 8 -22 6 -149 -2 -157 -2 -2 -15 8 -28 22 -16
17 -22 33 -19 47 6 24 -15 53 -34 46 -12 -5 -13 3 -8 42 8 55 25 126 29 121 2
-2 11 -18 19 -35z m233 -88 c-5 -56 -23 -101 -58 -146 -26 -33 -32 -32 -34 10
-2 19 -5 68 -7 108 -4 58 -2 72 9 72 13 0 19 -13 15 -33 -1 -5 4 -7 11 -4 7 2
21 0 31 -5 18 -9 25 6 7 17 -8 5 -7 11 1 21 22 27 30 14 25 -40z m34 -138 c0
-13 9 -43 20 -67 24 -52 24 -51 6 -51 -9 0 -16 12 -18 28 -2 21 -8 26 -23 24
-24 -5 -37 -21 -31 -44 4 -19 -45 -33 -56 -15 -18 29 -7 62 35 103 48 48 67
54 67 22z m-240 -50 c0 -25 -12 -58 -21 -58 -10 0 -12 31 -3 54 7 19 24 21 24
4z m-103 -50 c-3 -8 -6 -5 -6 6 -1 11 2 17 5 13 3 -3 4 -12 1 -19z"/>
</g>
</svg>
