<?xml version="1.0" encoding="utf-8"?>
<!-- Generator: Adobe Illustrator 19.1.0, SVG Export Plug-In . SVG Version: 6.00 Build 0)  -->
<!DOCTYPE svg PUBLIC "-//W3C//DTD SVG 1.1//EN" "http://www.w3.org/Graphics/SVG/1.1/DTD/svg11.dtd">
<svg version="1.1" id="Layer_1" xmlns="http://www.w3.org/2000/svg" xmlns:xlink="http://www.w3.org/1999/xlink" x="0px" y="0px"
	 viewBox="0 0 8.1 8.1" style="enable-background:new 0 0 8.1 8.1;" xml:space="preserve">
<style type="text/css">
	.st0{clip-path:url(#SVGID_2_);
  fill:#0C1D2C;}
 rect:hover { fill:red;}
</style>
<g>
	<defs>
		<rect id="SVGID_1_" y="0" width="8.1" height="8.1"/>
	</defs>
	<clipPath id="SVGID_2_">
		<use xlink:href="#SVGID_1_"  style="overflow:visible;"/>
	</clipPath>
	<path class="st0" d="M8.1,7.6V0.4C8.1,0.2,7.9,0,7.6,0H0.4C0.2,0,0,0.2,0,0.4v7.2c0,0.2,0.2,0.4,0.4,0.4h3.9V5H3.3V3.7h1.1V2.8
		c0-1,0.6-1.6,1.6-1.6c0.4,0,0.8,0,0.9,0v1.1l-0.6,0C5.7,2.4,5.6,2.6,5.6,3v0.8h1.2L6.6,5h-1v3.1h2.1C7.9,8.1,8.1,7.9,8.1,7.6"/>
</g>
</svg>
