<?xml version="1.0" encoding="utf-8"?>
<!-- Generator: Adobe Illustrator 19.2.0, SVG Export Plug-In . SVG Version: 6.00 Build 0)  -->
<!DOCTYPE svg PUBLIC "-//W3C//DTD SVG 1.1//EN" "http://www.w3.org/Graphics/SVG/1.1/DTD/svg11.dtd">
<svg version="1.1" id="Layer_1" xmlns="http://www.w3.org/2000/svg" xmlns:xlink="http://www.w3.org/1999/xlink" x="0px" y="0px"
	 viewBox="0 0 340 340" style="enable-background:new 0 0 340 340;" xml:space="preserve">
<style type="text/css">
                .st0{fill:#071C2C;}
                .st1{fill:#FFFFFF;}
    svg:hover {  cursor:pointer;}
                svg:hover .st0 {  fill:#830065;}
</style>
<path class="st0" d="M104,71.5l17.2,16.4l0.2,4.3c-0.1-0.1-0.2-0.1-0.2-0.2l-19.7-18.8c-0.3-0.3-0.5-0.7-0.5-1.1L104,71.5z"/>
<path class="st0" d="M143.4,51c0-2,0.3-2.8,0.9-3.5c0.3-0.3,0.6-0.5,1-0.5h58.6c0.2,0,0.5,0,0.7,0.3c0.7,0.7,1.1,1.7,1.3,3.7h3
	c-0.3-2-0.9-4.4-2.2-5.7c-0.8-0.8-1.8-1.3-2.9-1.3h-58.6c-1.4,0-2.5,0.5-3.4,1.5c-1.2,1.4-1.5,3.5-1.6,5.5H143.4z"/>
<path class="st0" d="M178.9,64l-67.8-0.8l0.1-1.3l1.1-9.9h108.9l8.6,12h3.6l-10.2-14.1c-0.3-0.4-0.7-0.9-1.2-0.9H111
	c-0.8,0-1.4,0.8-1.5,1.5L108,63.3c0,0.2,0,0.7,0,0.7H178.9z"/>
<g>
	<path class="st0" d="M243.3,74H96.7c-0.8,0-1.5-0.7-1.5-1.5v-8.8c0-0.8,0.7-1.5,1.5-1.5h146.6c0.8,0,1.5,0.7,1.5,1.5v8.8
		C244.8,73.4,244.1,74,243.3,74z M98.2,71h143.6v-5.8H98.2V71z"/>
</g>
<g>
	<g>
		<path class="st0" d="M137.7,250c-5.5,0-9.9-4.6-9.9-10.2s4.4-10.2,9.9-10.2s9.9,4.6,9.9,10.2S143.1,250,137.7,250z M137.7,232.6
			c-3.8,0-6.9,3.2-6.9,7.2s3.1,7.2,6.9,7.2s6.9-3.2,6.9-7.2S141.5,232.6,137.7,232.6z"/>
	</g>
</g>
<g>
	<path class="st0" d="M223.8,73l-6.9,176.5l-61.6,0.1c1.5-2.9,2.4-6.2,2.4-9.8c0-11.3-9-20.6-20-20.6c-2.5,0-4.9,0.5-7.1,1.4
		l-7-147.6h-6l7.2,151.1c-4.3,3.8-7.1,9.4-7.1,15.7c0,11.3,9,20.6,20,20.6c5,0,9.5-1.9,13-5l69.3,0v0c1,0,2.8-1.1,2.9-2.7L229.8,73
		H223.8z M123.7,239.8c0-8,6.3-14.6,14-14.6s14,6.5,14,14.6s-6.3,14.6-14,14.6S123.7,247.8,123.7,239.8z"/>
</g>
</svg>
