<?xml version="1.0" encoding="utf-8"?>
<!-- Generator: Adobe Illustrator 19.2.1, SVG Export Plug-In . SVG Version: 6.00 Build 0)  -->
<!DOCTYPE svg PUBLIC "-//W3C//DTD SVG 1.1//EN" "http://www.w3.org/Graphics/SVG/1.1/DTD/svg11.dtd">
<svg version="1.1" id="Layer_1" xmlns="http://www.w3.org/2000/svg" xmlns:xlink="http://www.w3.org/1999/xlink" x="0px" y="0px"
	 width="340px" height="340px" viewBox="0 0 340 340" style="enable-background:new 0 0 340 340;" xml:space="preserve">
<style type="text/css">
                .st0{fill:#071C2C;}
                .st1{fill:#FFFFFF;}
    svg:hover {  cursor:pointer;}
                svg:hover .st0 {  fill:#830065;}
</style>
<g>
	<path class="st0" d="M255,254.3c-1.7,0-3-1.3-3-3v-145c0-1.7,1.3-3,3-3s3,1.3,3,3v145C258,253,256.7,254.3,255,254.3z"/>
</g>
<path class="st0" d="M293,110.5c0-0.8-0.7-1.5-1.5-1.5h-31c-0.8,0-1.5,0.7-1.5,1.5v17c0,0.8,0.7,1.5,1.5,1.5h31
	c0.8,0,1.5-0.7,1.5-1.5V110.5z M290,126h-28v-14h28V126z"/>
<g>
	<path class="st0" d="M191.2,200.7c-6.8,0-12.4,5.5-12.4,12.2c0,6.7,5.5,12.2,12.4,12.2s12.4-5.5,12.4-12.2
		C203.6,206.1,198.1,200.7,191.2,200.7z M191.2,222c-5.2,0-9.4-4.1-9.4-9.2c0-5.1,4.2-9.2,9.4-9.2c5.2,0,9.4,4.1,9.4,9.2
		C200.6,217.9,196.4,222,191.2,222z"/>
	<path class="st0" d="M92.1,200.7c-6.8,0-12.4,5.5-12.4,12.2c0,6.7,5.5,12.2,12.4,12.2s12.4-5.5,12.4-12.2
		C104.4,206.1,98.9,200.7,92.1,200.7z M92.1,222c-5.2,0-9.4-4.1-9.4-9.2c0-5.1,4.2-9.2,9.4-9.2s9.4,4.1,9.4,9.2
		C101.4,217.9,97.2,222,92.1,222z"/>
	<path class="st0" d="M207,94.5c0-0.8-0.7-1.5-1.5-1.5h-128c-0.8,0-1.5,0.7-1.5,1.5v90c0,0.8,0.7,1.5,1.5,1.5h128
		c0.8,0,1.5-0.7,1.5-1.5V94.5z M145.6,96L79,162.5V96H145.6z M79,166.7L149.8,96H204v21.7L139.4,183H79V166.7z M143.6,183l60.4-61.1
		V183H143.6z"/>
	<path class="st0" d="M124.3,83H159c2.9,0,5.3-2.2,5.3-5s-2.4-5-5.3-5h-34.8c-2.9,0-5.3,2.2-5.3,5S121.4,83,124.3,83z M124.3,76H159
		c1.3,0,2.3,0.8,2.3,2s-1,2-2.3,2h-34.8c-1.3,0-2.3-0.8-2.3-2S123,76,124.3,76z"/>
	<path class="st0" d="M234.4,98H232v-7.2c0-2-1.6-3.8-3.7-3.8H216V69.2c0-5.2-4-9.2-9.2-9.2H76.5c-5.2,0-9.5,4-9.5,9.2V87H55
		c-2,0-4,1.8-4,3.8V98h-2.1c-2.5,0-4.9,2.4-4.9,4.9v26.6c0,2.5,2.4,4.6,4.9,4.6h12.2c2.5,0,4.9-2.1,4.9-4.6v-26.6
		c0-2.5-2.4-4.9-4.9-4.9H59v-4h8v135.1c0,4.7,3.5,8.5,8,9.2l0.2,8.3c0,4.2,3.4,7.4,7.6,7.4h17c4.2,0,7.3-3.1,7.3-7.2V238h69v8.9
		c0,4.1,3.4,7.1,7.6,7.1h17c4.2,0,7.5-3,7.5-7.1v-8.6c5-0.6,8-4.5,8-9.2V94h9v4h-2.8c-2.5,0-4.2,2.4-4.2,4.9v26.6
		c0,2.5,1.7,4.6,4.2,4.6h12.2c2.5,0,4.6-2.1,4.6-4.6v-26.6C239,100.4,236.9,98,234.4,98z M57.1,91c-0.8,0-1.1,1.1-1.1,2v6.9
		c0,0.8,0.3,1.2,1.1,1.2h3.9c0.9,0,1.9,1,1.9,1.9v26.6c0,0.8-1.1,1.6-1.9,1.6H48.9c-0.9,0-1.9-0.7-1.9-1.6v-26.6
		c0-0.8,1-1.9,1.9-1.9h3.9c0.8,0,1.2-0.4,1.2-1.2v-9c0-0.4,0.6-0.8,1-0.8h12v1H57.1z M104,246.8c0,2.5-1.8,4.2-4.3,4.2h-17
		c-2.5,0-4.6-2.1-4.6-4.6l-0.1-8.4H104V246.8z M200.5,251h-17c-2.5,0-4.6-1.6-4.6-4.1V238h26v8.9C205,249.4,203.1,251,200.5,251z
		 M210,229.1c0,1.8-1.3,2.9-3.2,2.9H76.5c-1.8,0-3.5-1.1-3.5-2.9V69.2c0-1.8,1.7-3.2,3.5-3.2h130.3c1.8,0,3.2,1.3,3.2,3.2V229.1z
		 M236,129.4c0,0.8-0.7,1.6-1.6,1.6h-12.2c-0.9,0-1.2-0.7-1.2-1.6v-26.6c0-0.8,0.4-1.9,1.2-1.9h3.9c0.8,0,1.8-0.4,1.8-1.2V93
		c0-0.8-1-2-1.8-2H216v-1h12.3c0.4,0,0.7,0.4,0.7,0.8v9c0,0.8,0.7,1.2,1.5,1.2h3.9c0.9,0,1.6,1,1.6,1.9V129.4z"/>
</g>
</svg>
