<?xml version="1.0" encoding="utf-8"?>
<!-- Generator: Adobe Illustrator 19.2.0, SVG Export Plug-In . SVG Version: 6.00 Build 0)  -->
<!DOCTYPE svg PUBLIC "-//W3C//DTD SVG 1.1//EN" "http://www.w3.org/Graphics/SVG/1.1/DTD/svg11.dtd">
<svg version="1.1" id="Layer_1" xmlns="http://www.w3.org/2000/svg" xmlns:xlink="http://www.w3.org/1999/xlink" x="0px" y="0px"
	 viewBox="0 0 340 340" style="enable-background:new 0 0 340 340;" xml:space="preserve">
<style type="text/css">
	.st0{fill:#071C2C;}
	.st1{clip-path:url(#SVGID_2_);fill:#071C2C;}
	.st2{clip-path:url(#SVGID_2_);}
</style>
<path class="st0" d="M174,175.5c0-0.8-0.7-1.5-1.5-1.5h-64c-0.8,0-1.5,0.7-1.5,1.5v47c0,0.8,0.7,1.5,1.5,1.5h64
	c0.8,0,1.5-0.7,1.5-1.5V175.5z M140.7,177L110,207.2V177H140.7z M110,211.4l34.9-34.4H171v11.8L139.4,221H110V211.4z M143.7,221
	l27.3-28v28H143.7z"/>
<g>
	<defs>
		<rect id="SVGID_1_" width="340" height="340"/>
	</defs>
	<clipPath id="SVGID_2_">
		<use xlink:href="#SVGID_1_"  style="overflow:visible;"/>
	</clipPath>
	<path class="st1" d="M278.9,104.8c0-0.3-0.1-0.5-0.1-0.8c0-0.2-0.1-0.3-0.1-0.5c-0.2-0.8-0.4-1.5-0.8-2.2l-18.8-35
		c-1.4-2.7-4.2-4.4-7.3-4.4H88.2c-3.1,0-5.8,1.7-7.3,4.4l-18.8,35c-0.3,0.6-0.6,1.4-0.8,2.1c0,0.1-0.1,0.3-0.1,0.5
		c0,0.3-0.1,0.6-0.1,0.8c0,0.2-0.1,0.4-0.1,0.5v34.4c0,12,8,22.3,19,25.8v85.1c0,1.7,1.3,3.3,2.9,3.3h174.2c1.7,0,2.9-1.7,2.9-3.3
		v-85.1c11-3.5,19-13.8,19-25.8v-34.4C279,105.2,278.9,105,278.9,104.8z M229,248h-34v-68h34V248z M254,248h-19v-71.3
		c0-1.7-1.8-2.7-3.5-2.7H192c-1.7,0-3,1-3,2.7V248H86v-81.2c1,0.1,1.5,0.2,2.3,0.2h2.4c7.2,0,13.9-2.8,19-7.7c5.1,5,11.8,7.7,19,7.7
		h2.4c7.2,0,13.9-2.8,19-7.7c5.1,5,11.8,7.7,19,7.7h2.4c7.2,0,13.9-2.8,19-7.7c5.1,5,11.8,7.7,19,7.7h2.4c7.2,0,13.9-2.8,19-7.7
		c5.1,5,11.8,7.7,19,7.7h2.4c0.8,0,1.3-0.1,2.3-0.2V248z M273,139.8c0,11.6-9.6,21.2-21.3,21.2h-2.4c-6.5,0-12.6-3-16.6-8.1
		c-0.6-0.7-1.4-1.2-2.4-1.2s-1.8,0.5-2.4,1.2C224,158,218,161,211.5,161h-2.4c-6.5,0-12.6-3-16.6-8.1c-0.6-0.7-1.4-1.2-2.4-1.2
		c-0.9,0-1.8,0.5-2.4,1.2c-4.1,5.1-10.1,8.1-16.6,8.1h-2.4c-6.5,0-12.6-3-16.6-8.1c-0.6-0.7-1.4-1.2-2.4-1.2c-0.9,0-1.8,0.5-2.4,1.2
		c-4.1,5.1-10.1,8.1-16.6,8.1h-2.4c-6.5,0-12.6-3-16.6-8.1c-0.6-0.7-1.4-1.2-2.4-1.2c-0.9,0-1.8,0.5-2.4,1.2
		c-4.1,5.1-10.1,8.1-16.6,8.1h-2.4c-11.7,0-21.3-9.6-21.3-21.2v-34.3c0-0.1,0.1-0.2,0.1-0.3c0-0.1,0-0.2,0-0.2l0-0.2
		c0.1-0.3,0.1-0.5,0.2-0.6l18.8-35c0.4-0.7,1.2-1.2,2-1.2h163.6c0.8,0,1.6,0.5,2,1.2l18.8,35c0.1,0.1,0.1,0.3,0.2,0.7l0,0.1
		c0,0.1,0,0.2,0,0.2c0,0,0.1,0,0.1,0.1c0,0.1,0.1,0.2,0.1,0.3V139.8z"/>
	<g class="st2">
		<path class="st0" d="M146.9,100.1h-30.8l7.1-24.5h26L146.9,100.1z M145,139.8c0,7.5-6.1,13.6-13.6,13.6H129
			c-7.5,0-13.6-6.1-13.6-13.6v-29.1H145V139.8z"/>
	</g>
	<g class="st2">
		<path class="st0" d="M225.6,139.8c0,7.5-6.1,13.6-13.6,13.6h-2.4c-7.5,0-13.6-6.1-13.6-13.6v-29.1h29.6V139.8z M192.1,75.6h26
			l7.1,24.5h-30.8L192.1,75.6z"/>
	</g>
</g>
<g>
	<path class="st0" d="M187.5,108.9h-34c-1.7,0-3-1.3-3-3s1.3-3,3-3h34c1.7,0,3,1.3,3,3S189.2,108.9,187.5,108.9z"/>
</g>
<g>
	<path class="st0" d="M267.5,108.9h-37c-1.7,0-3-1.3-3-3s1.3-3,3-3h37c1.7,0,3,1.3,3,3S269.2,108.9,267.5,108.9z"/>
</g>
<g>
	<path class="st0" d="M109,108.9H75c-1.7,0-3-1.3-3-3s1.3-3,3-3h34c1.7,0,3,1.3,3,3S110.7,108.9,109,108.9z"/>
</g>
</svg>
