<?xml version="1.0" encoding="utf-8"?>
<!-- Generator: Adobe Illustrator 19.2.1, SVG Export Plug-In . SVG Version: 6.00 Build 0)  -->
<!DOCTYPE svg PUBLIC "-//W3C//DTD SVG 1.1//EN" "http://www.w3.org/Graphics/SVG/1.1/DTD/svg11.dtd">
<svg version="1.1" id="Layer_1" xmlns="http://www.w3.org/2000/svg" xmlns:xlink="http://www.w3.org/1999/xlink" x="0px" y="0px"
	 width="340px" height="340px" viewBox="0 0 340 340" style="enable-background:new 0 0 340 340;" xml:space="preserve">
<style type="text/css">
                .st0{fill:#071C2C;}
                .st1{fill:#FFFFFF;}
    svg:hover {  cursor:pointer;}
                svg:hover .st0 {  fill:#830065;}
</style>
<g>
	<path class="st0" d="M162,127.8c0,7.5,5.6,13.2,13.1,13.2h2.4c7.5,0,13.5-5.7,13.5-13.2V99h-29V127.8z"/>
	<polygon class="st0" points="162.2,88 193,88 195.3,64 169.3,64 	"/>
	<polygon class="st0" points="264.2,64 238.2,64 240.5,88 271.3,88 	"/>
	<path class="st0" d="M242,127.8c0,7.5,6.2,13.2,13.7,13.2h2.4c7.5,0,14-5.7,14-13.2V99h-30V127.8z"/>
	<path class="st0" d="M233.6,91h-34c-1.7,0-3,1.3-3,3s1.3,3,3,3h34c1.7,0,3-1.3,3-3S235.2,91,233.6,91z"/>
	<path class="st0" d="M313.6,91h-37c-1.7,0-3,1.3-3,3s1.3,3,3,3h37c1.7,0,3-1.3,3-3S315.2,91,313.6,91z"/>
	<path class="st0" d="M155.1,91h-34c-1.7,0-3,1.3-3,3s1.3,3,3,3h34c1.7,0,3-1.3,3-3S156.7,91,155.1,91z"/>
</g>
<g>
	<path class="st0" d="M88.4,185.1c-13.8,0-25,11.2-25,25c0,13.8,11.2,25,25,25c13.8,0,25-11.2,25-25
		C113.4,196.4,102.2,185.1,88.4,185.1z M88.4,232.2c-12.1,0-22-9.9-22-22c0-12.1,9.9-22,22-22c12.1,0,22,9.9,22,22
		C110.4,222.3,100.6,232.2,88.4,232.2z"/>
	<path class="st0" d="M99,220.2c-0.2-0.1-0.5-0.2-0.8-0.2H88v-8h6.1c0.2,0,0.5,0.1,0.7-0.1c0.2-0.1,0.4-0.3,0.5-0.5
		c0.1-0.2,0.2-0.5,0.3-0.8c0.1-0.3,0.1-0.7,0.1-1.2c0-0.5,0-0.9-0.1-1.2c-0.1-0.4-0.1-0.6-0.2-0.9c-0.1-0.3-0.3-0.7-0.5-0.8
		c-0.2-0.1-0.4-0.4-0.7-0.4H88v-1.6c0-0.9,0.1-1.8,0.3-2.5c0.1-0.7,0.4-1.3,0.7-1.7c0.3-0.4,0.7-0.8,1.2-1c0.5-0.2,1.1-0.4,1.9-0.4
		c0.8,0,1.4,0.1,1.9,0.3c0.6,0.2,1,0.5,1.4,0.7c0.4,0.3,0.8,0.5,1,0.7c0.6,0.5,1.3,0.6,1.7,0.2c0.2-0.1,0.3-0.3,0.5-0.6
		c0.1-0.2,0.2-0.5,0.2-0.9c0-0.3,0.1-0.7,0.1-1.2c0-0.4,0-0.8,0-1.1c0-0.3-0.1-0.6-0.1-0.8c-0.1-0.3-0.2-0.5-0.3-0.7
		c-0.1-0.2-0.3-0.4-0.5-0.6c-0.2-0.2-0.6-0.5-1.1-0.8c-0.5-0.3-1-0.5-1.6-0.7c-0.6-0.2-1.2-0.4-1.9-0.5c-0.7-0.1-1.4-0.2-2.1-0.2
		c-1.7,0-3.2,0.2-4.5,0.7c-1.3,0.5-2.5,1.2-3.4,2.2c-0.9,1-1.4,2.2-1.9,3.7c-0.5,1.5-0.5,3.3-0.5,5.3v1.3h-2.4
		c-0.2,0-0.5,0.3-0.7,0.4c-0.2,0.1-0.4,0.4-0.5,0.7c-0.1,0.2-0.2,0.6-0.2,0.9c0,0.3-0.1,0.8-0.1,1.2c0,0.5,0,0.9,0.1,1.3
		c0.1,0.4,0.1,0.7,0.3,0.9c0.1,0.3,0.3,0.3,0.5,0.5c0.2,0.1,0.4,0.1,0.7,0.1H81v8h-2.4c-0.2,0-0.5,0.1-0.7,0.2
		c-0.2,0.1-0.4,0.3-0.5,0.6c-0.1,0.2-0.2,0.5-0.2,0.9c0,0.3-0.1,0.8-0.1,1.2c0,0.5,0,0.9,0.1,1.2c0.1,0.4,0.1,0.7,0.2,0.9
		c0.1,0.3,0.3,0.5,0.5,0.6c0.2,0.1,0.4,0.3,0.7,0.3h19.6c0.3,0,0.5-0.1,0.7-0.3c0.2-0.1,0.3-0.4,0.5-0.6c0.1-0.2,0.2-0.5,0.2-0.9
		c0.1-0.3,0.3-0.8,0.3-1.2c0-0.5,0.1-0.9,0.1-1.3v0c0-0.4-0.3-0.6-0.4-0.9C99.5,220.5,99.2,220.3,99,220.2z"/>
	<path class="st0" d="M324.9,92.9c0-0.3-0.1-0.5-0.1-0.8c0-0.2-0.1-0.3-0.1-0.5c-0.2-0.8-0.4-1.5-0.8-2.2l-18.8-35
		c-1.4-2.7-4.2-4.4-7.3-4.4H134.3c-3.1,0-5.8,1.7-7.3,4.4l-18.8,35c-0.3,0.6-0.6,1.4-0.8,2.2c0,0.1-0.1,0.3-0.1,0.5
		c0,0.3-0.2,0.6-0.2,0.8c0,0.2-0.1,0.4-0.1,0.6v34.4c0,12,8,22.3,19,25.8V167H15v86h116v3h3v16h43v-17h-4v-13h130.2
		c1.7,0,2.8-1.6,2.8-3.3v-85.1c11-3.5,19-13.8,19-25.8V93.4C325,93.2,325,93.1,324.9,92.9z M134,239h-3v11H18v-80h141v53h-25V239z
		 M185.5,209H162v-15.3l29-28.7h26v11.9L185.5,209z M217,181.1V209h-27.3L217,181.1z M162,189.4V167h-6v-2h30.7L162,189.4z M172,227
		v9h-34v-9H172z M135,243h34v9h-34V243z M173,268h-35v-9h35V268z M275,236h-34v-68h34V236z M300,236h-19v-71.3
		c0-1.7-1.7-2.7-3.4-2.7h-39.5c-1.7,0-3.1,1.1-3.1,2.7V236h-59v-13h-14v-11h56.9c0.8,0,1.1-0.9,1.1-1.7v-47.1c0-0.8-0.2-1.2-1.1-1.2
		h-64.3c-0.8,0-1.6,0.4-1.6,1.2v3.8h-21v-12.1c1,0.1,1.5,0.1,2.3,0.1h2.4c7.2,0,13.9-2.8,19-7.7c5.1,5,11.8,7.7,19,7.7h2.4
		c7.2,0,13.9-2.8,19-7.7c5.1,5,11.8,7.7,19,7.7h2.4c7.2,0,13.9-2.8,19-7.7c5.1,5,11.8,7.7,19,7.7h2.4c7.2,0,13.9-2.8,19-7.7
		c5.1,5,11.8,7.7,19,7.7h2.4c0.8,0,1.2-0.1,2.2-0.1V236z M319,127.8c0,11.6-9.5,21.2-21.2,21.2h-2.4c-6.5,0-12.6-3-16.6-8.1
		c-0.6-0.7-1.4-1.2-2.4-1.2c-0.9,0-1.8,0.4-2.4,1.2c-4.1,5.1-10.1,8.1-16.6,8.1h-2.4c-6.5,0-12.6-3-16.6-8.1
		c-0.6-0.7-1.4-1.2-2.4-1.2c-0.9,0-1.8,0.4-2.4,1.2c-4.1,5.1-10.1,8.1-16.6,8.1h-2.4c-6.5,0-12.6-3-16.6-8.1
		c-0.6-0.7-1.4-1.2-2.4-1.2c-0.9,0-1.8,0.4-2.4,1.2c-4.1,5.1-10.1,8.1-16.6,8.1h-2.4c-6.5,0-12.4-3-16.4-8.1
		c-0.6-0.7-1.2-1.2-2.2-1.2v0c-1,0-2,0.4-2.5,1.2c-4.1,5.1-10.3,8.1-16.8,8.1h-2.4c-11.7,0-21.3-9.5-21.3-21.2V93.6
		c0-0.1,0.1-0.2,0.1-0.3c0-0.1,0.1-0.2,0.1-0.2l0.1-0.2c0.1-0.3,0.1-0.5,0.2-0.6l18.8-35c0.4-0.7,1.2-1.2,2-1.2h163.6
		c0.8,0,1.6,0.5,2,1.2l18.8,35c0.1,0.1,0.1,0.3,0.2,0.6l0,0.1c0,0.1,0,0.1,0,0.2c0,0,0,0,0,0.1c0,0.1,0,0.2,0,0.3V127.8z"/>
</g>
</svg>
