<?xml version="1.0" encoding="utf-8"?>
<!-- Generator: Adobe Illustrator 19.2.1, SVG Export Plug-In . SVG Version: 6.00 Build 0)  -->
<!DOCTYPE svg PUBLIC "-//W3C//DTD SVG 1.1//EN" "http://www.w3.org/Graphics/SVG/1.1/DTD/svg11.dtd">
<svg version="1.1" id="Layer_1" xmlns="http://www.w3.org/2000/svg" xmlns:xlink="http://www.w3.org/1999/xlink" x="0px" y="0px"
	 width="340px" height="340px" viewBox="0 0 340 340" style="enable-background:new 0 0 340 340;" xml:space="preserve">
<style type="text/css">
                .st0{fill:#071C2C;}
                .st1{fill:#FFFFFF;}
    svg:hover {  cursor:pointer;}
                svg:hover .st0 {  fill:#830065;}
</style>
<path class="st0" d="M198.3,145.7c-2.1-3.2-4.8-5.7-7.7-7.2c-2.6-1.3-4.9-1.6-6.3-1.6c-0.1,0-0.2,0-0.4,0h-3.8
	c5.2-2.9,8.7-8.3,8.7-14.6c0-9.2-7.5-16.7-16.7-16.7c-9.2,0-16.7,7.5-16.7,16.7c0,6.3,3.5,11.8,8.7,14.6h-3.8c-0.3,0-0.6,0-0.8,0
	c-3.7,0.2-7.3,1.7-10.7,4.3c-1.8,1.4-3.4,2.9-5,4.4c-1.8,1.7-3.5,3.3-5.3,4.6c-3,2.1-6.8,4-13.2,4c-0.3,0-0.1,0-1.1,0V31.5
	c0-1.7-1.3-3-3-3s-3,1.3-3,3v122.8l-0.8,0.1l-0.3,0.2c-2.7,1.1-4.6,3.5-4.9,6.4c-0.5,3.6,1.6,7.1,5,8.4l0.1,0.1l0.9,0.2v84.5
	c0,1.7,1.3,3,3,3s3-1.3,3-3v-83.9c7,0.1,12-1,17.2-3.5c4.5-2.2,8.8-5,10.8-7.5v87.9c0,5.9,5,10.6,10.8,10.6c3.8,0,7.3-2,9.1-5.1
	c1.9,3,5.4,5.1,9.2,5.1c5.8,0,10.8-4.8,10.8-10.6v-47.8c1,1.5,3.1,2.4,5.2,2.6c4.4,0.2,8-3.1,8.3-7.5c0.2-4.2,0.3-8.2,0.3-12
	C205.8,165.4,203.3,153.4,198.3,145.7z M158.2,122.4c0-7.7,6.2-13.9,13.9-13.9c7.7,0,13.9,6.2,13.9,13.9c0,7.7-6.2,13.9-13.9,13.9
	C164.4,136.2,158.2,130,158.2,122.4z M118.2,166.5l-0.3-0.1c-2.1-0.8-3.3-2.9-3-5.2c0.2-1.9,1.3-3.3,2.9-4l0.3,0v9.3L118.2,166.5z
	 M202.6,194.2c-0.2,2.6-2.3,4.7-4.9,4.7c-0.1,0-0.2,0-0.3,0c-2.7-0.2-4.8-2.5-4.6-5.2c0.2-4.1,0.3-7.8,0.3-11.3
	c0-12.4-1.3-20.3-3.1-25.1c-0.4-1-1-1.9-1-2.6v92.6c0,4.2-3.8,7.6-8,7.6c-4.2,0-8-3.4-8-7.6V192h-2v55.2c0,4.2-3.8,7.6-8,7.6
	c-4.2,0-8-3.4-8-7.6v-95c0,0.5-0.9,1-1.6,1.6c-3.2,3-7.1,7.1-13.3,10c-4.1,1.9-9,3.1-14.9,3.1h-0.1c-0.2,0-0.2,0-1.2,0v-9.8
	c1,0,0.7,0,1,0c6.9,0,11.2-2,14.9-4.6c3.7-2.6,6.7-6.1,10.5-9.1c2.3-1.8,5.4-3.4,9.1-3.6c0.2,0,24.6,0,24.7,0c1.1,0,3,0.2,5.1,1.3
	c2.2,1.1,4.6,3,6.6,6.1c4.1,6.2,7,16.5,7.1,35.1C202.9,186,202.8,189.9,202.6,194.2z"/>
<g>
	<g>
		<path class="st0" d="M126.4,41.2c0,4,0,8,0,12c5.8,2.2,11.7,3.1,17.5,3.3C138,52.7,132.2,47.8,126.4,41.2"/>
	</g>
	<g>
		<path class="st0" d="M159.2,40.7c-8,0.1-16-0.2-24.1-2.4c8,7.4,16,12.3,24.1,16.2V40.7z"/>
	</g>
	<g>
		<path class="st0" d="M187.8,53.5c5.8,0.2,11.7,1.1,17.5,3.3v-7.2C199.4,49.5,193.6,51,187.8,53.5"/>
	</g>
	<g>
		<path class="st0" d="M172.4,40.4v12.7c8-5,16-8.9,24.1-10.3C188.4,40.6,180.4,40.3,172.4,40.4"/>
	</g>
	<g>
		<path class="st0" d="M205.3,74.9c0-2.4,0-4.8,0-7.2c-5.8-1.7-11.7-2-17.5-1.7C193.6,68.4,199.4,71.2,205.3,74.9"/>
	</g>
	<g>
		<path class="st0" d="M205.2,59c-11.8-4.2-23.7-3.2-35.5-1.6V40.5c-2.6,0.1-5.3,0.1-7.9,0.2v17.8c-11.8,1.6-23.7,2.6-35.5-1.6v10.9
			c11.8,3.6,23.7,1.9,35.5-0.3v17.8c2.6-0.8,5.3-1.6,7.9-2.4V65.9c11.8-2.2,23.7-3.9,35.5-0.3V59z"/>
	</g>
	<g>
		<path class="st0" d="M179,53.7c8.8-5,17.5-8.2,26.3-7.7c-2-0.9-3.9-1.7-5.9-2.3c-8.8,0.9-17.5,5.1-26.3,10.6
			C175,54,177,53.8,179,53.7"/>
	</g>
	<g>
		<path class="st0" d="M152.7,56.4c-8.8-4.7-17.5-11.1-26.3-21.2v4c6.8,7.7,13.6,13.2,20.4,17.4C148.7,56.6,150.7,56.5,152.7,56.4"
			/>
	</g>
	<g>
		<path class="st0" d="M152.7,72c-8.8,6.6-17.5,13-26.3,17.4c2,0.4,3.9,0.6,5.9,0.7c8.8-5.4,17.5-12.4,26.3-19.1
			C156.6,71.4,154.6,71.7,152.7,72"/>
	</g>
	<g>
		<path class="st0" d="M179,67c8.8,3.1,17.5,6.3,26.3,11.6v-2.4c-6.8-4.3-13.6-7.3-20.4-9.9C182.9,66.4,180.9,66.7,179,67"/>
	</g>
	<g>
		<path class="st0" d="M126.4,71.3v12c5.8-2.7,11.7-6.3,17.5-10.3C138,73.4,132.2,73,126.4,71.3"/>
	</g>
	<g>
		<path class="st0" d="M159.2,86V72.2c-8,6.2-16,12.8-24.1,18.1C143.2,90.2,151.2,88.3,159.2,86"/>
	</g>
	<g>
		<path class="st0" d="M172.4,82c8-2.3,16-4.2,24.1-4.3c-8-3.5-16-5.8-24.1-8.4V82z"/>
	</g>
</g>
</svg>
