<?xml version="1.0" encoding="utf-8"?>
<!-- Generator: Adobe Illustrator 25.0.0, SVG Export Plug-In . SVG Version: 6.00 Build 0)  -->
<svg version="1.1" id="Layer_3" xmlns="http://www.w3.org/2000/svg" xmlns:xlink="http://www.w3.org/1999/xlink" x="0px" y="0px"
	 viewBox="0 0 340 340" style="enable-background:new 0 0 340 340;" xml:space="preserve">
<style type="text/css">
                .st0{fill:#071C2C;}
                .st1{fill:#FFFFFF;}
    svg:hover {  cursor:pointer;}
                svg:hover .st0 {  fill:#830065;}
</style>
<path class="st0" d="M139.1,103.9c0.3,0.7,1.1,1,2.4,1c2.5,0,4.6,0,4.6-3.8c0-1.6-0.4-2.5-0.7-3.2c-0.3-0.8-0.5-1.2-0.2-2.4
	c0.5-1.6,0.5-2.9-0.2-3.8c-0.4-0.6-1.1-0.9-1.9-0.9c-0.7,0-1.3,0.3-1.8,1c-0.8,1.1-0.9,2.9-0.4,4.7c0.9,2.5,0.7,3,0.1,3.6
	C139.9,101.2,138.6,102.7,139.1,103.9z"/>
<path class="st0" d="M259.3,198.2c7.1-13.9,11.1-29.6,11.1-46.3c0-56.1-45.7-101.8-101.8-101.8C112.5,50.2,66.9,95.8,66.9,152
	c0,29.5,12.6,56.1,32.8,74.7l-20.1,19.6c-0.1,0.1-0.2,0.2-0.2,0.2c-5.6,6.1-8.7,14-8.7,22.2c0,18.2,15,33.1,33.3,33.1
	c8.1,0,15.9-2.9,21.9-8.2c0.1-0.1,0.2-0.2,0.3-0.3l13.9-13.9c1.6-1.2,3.5-2,5.5-2.1l59.4-5.4c0,0,0.1,0,0.1,0
	c2.5-0.3,4.9-1.1,6.7-2.3c0.1-0.1,0.2-0.2,0.4-0.3l56-43.6c0,0,0.1,0,0.1-0.1c3.3-2.6,5.1-6.9,5.1-11.6
	C273.5,205.8,267.3,199.1,259.3,198.2z M207.7,154.3c1.1,1.1,2.5,2.6,3.9,4.1c2.7,2.9,5.4,5.9,6.9,6.8c3.4,2.1,9.7,2.9,16.1-1.7
	c1.8-1.3,2.5-2,2.5-2.7c0-0.6-0.4-1.1-0.9-1.5c-0.9-0.8-2.2-2-1.8-5.3c0.3-3.1-0.3-5.2-1.8-6.1c-1.6-1-4-0.4-5.6,0.7
	c-2,1.4-4.1-0.6-7.6-4.1c-0.1-0.1-0.1-0.2-0.1-0.2c0,0,0.1-0.2,0.6-0.4c4.3-1.7,23.8-1.1,27,0.5c1.8,0.9,3.9,0.7,6.2-0.4
	c3.8-2,7.4-6.6,9.5-10.6c1.2,6,1.8,12.2,1.8,18.5c0,17.1-4.5,33.2-12.4,47.1c-1.2,0.4-2.3,1-3.3,1.7l-38.8,25.1
	c0.1-0.7,0.2-1.5,0.2-2.2c0-5.2-2.6-9.7-6.6-12.4c0.8-5.3,3.4-8,6.9-11.5l1-1c4.8-4.8,14.9-14.7,14.9-23.3c0-0.2-0.1-0.3-0.2-0.4
	c-0.1-0.1-0.3-0.1-0.5,0c-3.7,1.9-10.2,4.2-11.8,2.6c-0.8-0.8-1.7-1.5-2.8-2.2c-2.1-1.6-4.6-3.4-6.2-6.7c-0.9-1.8-2.5-4.2-4.2-6.8
	c-2.6-4-6.2-9.6-5.7-10.9c0.1-0.3,0.5-0.5,0.9-0.6C198.3,149.6,205.1,151.7,207.7,154.3z M72.9,152c0-34.4,18.2-64.6,45.5-81.5
	c-0.5,0.9-0.8,1.8-0.9,2.6c-0.2,2.1,0.8,3.9,3.1,5.3c1.3,0.8,3.1,1.2,5.1,1.2c7.8,0,19.2-5.1,21.9-7c8.3-5.5,11-11.5,10.1-14.8
	c-0.1-0.4-0.3-0.7-0.5-1c3.8-0.4,7.6-0.7,11.5-0.7c7.8,0,15.4,0.9,22.6,2.7c0.9,2.4,2.3,6.4,3.5,8.6c0.9,1.8,1.2,2.9,0.9,3.7
	c-0.3,0.8-1.3,1.5-3.1,2.2c-2.3,0.9-4.2,3.3-5.9,5.5c-1.4,1.7-2.8,3.5-3.8,3.5c-1.5,0-2.3-1.1-2.7-1.7l2.9-1.4
	c0.2-0.1,0.3-0.4,0.2-0.7c-0.1-0.1-1.9-3.6-9.5-4.4c-5.6-0.6-8.9,2-11.6,4.1c-1,0.8-1.9,1.5-2.7,1.9c-1.2,0.6-5.2,2.8-5.9,5.7
	c-0.3,1.1,0,2.2,0.8,3.3c0.1,0.1,0.3,0.2,0.4,0.2c0.1,0,10.4-0.5,14.4,3.2c1,0.9,1.4,2,1.5,3.3c-0.6,0.6-5.2,1.3-8.5,1.8
	c-6.6,1-11,1.8-11.9,3.2c-1.6,2.5-5.7,6.4-9.5,6.4c-0.9,0-1.4,0.2-1.8,0.6c-0.5,0.6-0.3,1.5-0.1,2.4c0.2,0.8,0.4,1.6,0,2.2
	c-0.2,0.4-0.8,0.6-1.5,0.7c-2,0.3-4.3-0.2-6.6-0.6c-3.3-0.7-6.5-1.4-7.6,0.9c-1,2-3.1,6.9-2,10c0.4,1.1,1.2,1.8,2.2,2.2
	c4.3,1.7,12.3,0.5,15.2-1.7c5.2-3.9,12.9-3.7,17.4-1.1c1.7,0.9,5.2,3.5,5.5,5.5c0.1,0.5-0.1,0.9-0.5,1.3c-1.4,1.4-2.5,1.3-3.1,1.3
	c-0.3,0-0.7-0.1-0.9,0.2c-0.1,0.1-0.2,0.3-0.2,0.6c0,0.9,1.9,2.4,3.4,3.1c1.7,0.7,2.7,0.3,3.2-0.2c1.7-1.7,3.6-6,2.6-8
	c-0.6-1.2-1.2-6.3-0.1-8.4c0.3-0.5,0.6-0.8,1-0.8c8.4-1.1,11.8,11.4,12.2,12.8c0.4,1.7,1.8,2.9,4,3.6c1.8,0.5,3.9,0.6,5.7,0.1
	c1.1-0.3,2-0.7,2.7-1.1c0.8-0.4,1.5-0.7,1.8-0.5c0.2,0.1,0.4,0.4,0.6,1.2c0.6,2.5-0.3,7.5-1.8,9.4c-0.2,0.3-0.6,0.7-1.1,0.7
	c-0.8,0-1.5,0.2-2.3,0.3c-1.7,0.4-3.6,0.8-7.5-0.3c-1.1-0.3-2.2-0.7-3.3-1c-3.4-1.1-6.1-2-7.7-1.1c-0.6,0.3-1,0.9-1.2,1.6
	c-0.3,1.1-0.8,1.8-1.5,2.1c-1,0.4-2.5,0.2-4.4-0.8c-1-0.5-2.3-1-3.8-1.5c-2.5-0.9-5.7-2-6-3.1c0-0.1-0.1-0.3,0.1-0.5
	c1.2-1.8,1.7-4.9,0.5-6.5c-0.6-0.8-1.6-1.2-2.7-0.9c-1.2,0.3-3.1,0.1-5.1-0.1c-3.4-0.3-7.2-0.7-9.9,0.9c-1.9,1.2-3.6,0.8-5.4,0.3
	c-1.8-0.4-3.6-0.8-5.4,0.5c-1.5,1.2-2.5,3.1-3.5,4.9c-1.1,2.2-2.1,4.1-3.6,4.1c-2,0-5.3,2.2-7.8,4.4c-1.2,1.1-5.1,4.8-5.1,7.7
	c0,4.1-0.8,9.8-2.4,12.1c-0.2,0.3-0.8,1.2,1,5.5c2.7,6.5,9.3,16.9,12.6,17.6c2,0.4,3.9,0.5,6,0.6c2.3,0.1,4.9,0.3,8.8,0.8
	c0.7,0.1,1.4,0.2,2.3,0.2c4.4,0.4,10.3,0.9,14.8,6.4c1.5,1.9,3.4,5.9,5,10.7h-13.5c-13.5,0-26.2,4.9-36.1,13.9
	C84.9,205,72.9,179.9,72.9,152z M264.6,221l-56,43.6c-0.9,0.6-2.5,1.2-4.1,1.4l-59.4,5.4c-3.4,0.3-6.5,1.6-9,3.6L122,289.2
	c-4.8,4.2-11.1,6.7-18,6.7c-15.1,0-27.3-12.1-27.3-27.1c0-7,2.7-13.4,7.1-18.2l22.7-22.2c8.6-8.5,20.5-13.8,33.6-13.8H195
	c5,0,9,4,9,9c0,4.9-4.1,9-9,9h-27.3c-1.9,0-3.4,1.5-3.4,3.4c0,1.9,1.5,3.4,3.4,3.4h24.2c10,0,11.2-2.1,17.5-6l42.5-27.5
	c1.6-1.1,3.5-1.7,5.6-1.7c5.5,0,10,4.4,10,9.9C267.5,216.7,266.5,219.4,264.6,221z"/>
</svg>
