<?xml version="1.0" encoding="utf-8"?>
<!-- Generator: Adobe Illustrator 19.2.1, SVG Export Plug-In . SVG Version: 6.00 Build 0)  -->
<!DOCTYPE svg PUBLIC "-//W3C//DTD SVG 1.1//EN" "http://www.w3.org/Graphics/SVG/1.1/DTD/svg11.dtd">
<svg version="1.1" id="Layer_1" xmlns="http://www.w3.org/2000/svg" xmlns:xlink="http://www.w3.org/1999/xlink" x="0px" y="0px"
	 width="340px" height="340px" viewBox="0 0 340 340" style="enable-background:new 0 0 340 340;" xml:space="preserve">
<style type="text/css">
                .st0{fill:#071C2C;}
                .st1{fill:#FFFFFF;}
    svg:hover {  cursor:pointer;}
                svg:hover .st0 {  fill:#830065;}
</style>
<path class="st0" d="M291.9,134.9c0-2.1-0.9-4-2.4-5.4c-1.5-1.4-3.4-2.2-5.5-2.2c-4.3,0.1-7.7,3.6-7.6,7.8c0,0.4,0,0.8,0,1.2
	c0,5.9-0.7,11.2-2.1,15.4c-0.4-7.6-6.8-13.7-14.5-13.7c-3.1,0-5.9,1-8.3,2.6c2.9-6.6,5.1-15.7,5-28c0-0.6,0.1-1.1,0.1-1.7
	c0-2.3-1-4.4-2.6-6c-1.6-1.6-3.8-2.4-6-2.4c-4.7,0.1-8.4,4-8.3,8.6c0,0.5,0,0.9,0,1.4c0,10-1.6,18-4.7,23.8c0.4-1.4,0.6-2.9,0.6-4.4
	c0-9.2-7.5-16.7-16.6-16.7c-3.4,0-6.5,1-9.1,2.7c2.7-7.5,4.7-17.3,4.7-30c0-0.7,0-1.4,0-2c-0.1-5.6-4.7-10.2-10.3-10.2
	c0,0-0.1,0-0.1,0c-5.7,0-10.2,4.8-10.1,10.5c0,0.6,0,1.2,0,1.8c0,10.3-1.5,18.9-4.4,25.4c0.1-0.8,0.1-1.6,0.1-2.4
	c0-10.9-8.9-19.9-19.8-19.9c-10.9,0-19.8,9.1-19.8,20c0,0.9,0.1,1.9,0.2,2.8c-2.9-6.5-4.4-15.2-4.4-25.7c0-0.6,0-1.2,0-1.7
	c0.1-5.7-4.4-10.4-10.1-10.5c-2.8-0.1-5.3,1-7.3,2.9c-2,1.9-3.1,4.5-3.1,7.2c0,0.7,0,1.4,0,2c0,12.6,1.9,22.4,4.5,29.8
	c-2.6-1.7-5.7-2.7-9-2.7c-9.2,0-16.6,7.5-16.6,16.7c0,1.5,0.2,2.9,0.6,4.3c-3.1-5.8-4.7-13.8-4.7-23.7c0-0.5,0-1,0-1.4
	c0-2.3-0.8-4.4-2.4-6.1s-3.7-2.6-6-2.6c-2.3-0.1-4.4,0.8-6,2.4c-1.6,1.6-2.6,3.7-2.6,5.9c0,0.6,0,1.2,0,1.7
	c0,12.2,2.1,21.2,4.9,27.8c-2.3-1.6-5.1-2.5-8-2.5c-7.7,0-14,6.2-14.5,13.8c-1.4-4.2-2.1-9.4-2.1-15.4c0-0.4,0-0.8,0-1.2
	c0-2.1-0.7-4-2.2-5.5c-1.4-1.5-3.4-2.3-5.4-2.4c-2.1,0-4,0.7-5.5,2.2c-1.5,1.4-2.3,3.4-2.4,5.4c0,0.5,0,1,0,1.4
	c0,17.3,5.4,27.2,9.7,32.3c2.1,2.5,4.2,4.2,6.2,5.4v72.6c0,5.4,4.1,9.8,9.5,9.8c2.7,0,4.9-1.1,6.7-2.8c1.8,1.7,4.3,2.8,6.9,2.8
	c5.4,0,9.9-4.4,9.9-9.8V174c1-1,3-2.4,5-4.3v75.7c0,6,4.8,10.9,10.8,10.9c3.3,0,6.2-1.5,8.2-3.7c2,2.3,4.9,3.7,8.2,3.7
	c6,0,10.9-4.9,10.9-10.9v-87.8c2-1.3,4-3.2,7-6v92.5c0,7.2,6,13.1,13.2,13.1c3.8,0,7.3-1.6,9.7-4.2c2.4,2.6,6,4.2,9.8,4.2
	c7.2,0,13.3-5.9,13.3-13.1v-92.6c2,2.8,5,4.8,7,6.1v87.8c0,6,4.8,10.9,10.9,10.9c3.3,0,6.2-1.5,8.2-3.7c2,2.3,4.8,3.7,8.1,3.7
	c6,0,10.8-4.9,10.8-10.9v-76c2,2,4,3.5,5,4.6v72.6c0,5.4,4.5,9.8,9.9,9.8c2.7,0,5.1-1.1,6.9-2.8c1.8,1.7,4.5,2.8,7.1,2.8
	c5.4,0,10.1-4.4,10.1-9.8V174c1-1.2,3.6-2.9,5.7-5.4c4.3-5.2,9.4-15,9.3-32.3C292,135.9,291.9,135.4,291.9,134.9z M259.9,141.9
	c5.8,0,10.5,4.7,10.5,10.5c0,4.3-2.6,8-6.3,9.6h-8.4c-3.7-1.6-6.3-5.3-6.3-9.6C249.4,146.6,254.1,141.9,259.9,141.9z M245.4,151.7
	l-0.2-0.5c0,0,0.1-0.1,0.1-0.1c0.1-0.1,0.1-0.1,0.2-0.2C245.5,151.1,245.4,151.4,245.4,151.7z M219,119.4c7,0,12.6,5.6,12.6,12.6
	c0,5.6-3.6,10.3-8.7,12c-0.3,0.1-0.6,0.2-0.9,0.3c0,0,0,0,0,0c-0.1,0-0.1,0-0.2,0c0,0,0,0,0,0c-0.2,0-0.4,0.1-0.6,0.1
	c0,0-0.1,0-0.1,0c-0.1,0-0.1,0-0.2,0c0,0-0.1,0-0.1,0c0,0-0.1,0-0.1,0c-0.1,0-0.1,0-0.2,0c0,0-0.1,0-0.1,0c-0.1,0-0.2,0-0.3,0
	c0,0-0.1,0-0.1,0c-0.1,0-0.1,0-0.2,0c0,0-0.1,0-0.1,0c-0.1,0-0.1,0-0.2,0c0,0-0.1,0-0.1,0c-0.1,0-0.2,0-0.3,0s-0.2,0-0.3,0
	c0,0-0.1,0-0.1,0c-0.1,0-0.1,0-0.2,0c0,0-0.1,0-0.1,0c-0.1,0-0.1,0-0.2,0c0,0-0.1,0-0.1,0c-0.1,0-0.2,0-0.3,0c0,0-0.1,0-0.1,0
	c-0.1,0-0.1,0-0.2,0c0,0-0.1,0-0.1,0c0,0-0.1,0-0.1,0c-0.1,0-0.1,0-0.2,0c0,0-0.1,0-0.1,0c-0.2,0-0.4-0.1-0.6-0.1c0,0,0,0,0,0
	c-0.1,0-0.1,0-0.2,0c0,0,0,0,0,0c-0.3-0.1-0.6-0.2-0.9-0.3c-5-1.7-8.7-6.4-8.7-12C206.4,125,212,119.4,219,119.4z M202.9,136.3
	c-0.2-0.4-0.4-0.8-0.6-1.2l-0.8-1.7c0.3-0.4,0.6-0.7,0.9-1.1C202.4,133.6,202.6,135,202.9,136.3z M170,96.2
	c8.2,0,14.8,6.6,14.8,14.8c0,6.5-4.2,12.1-10.1,14h-9.5c-5.9-2-10.1-7.5-10.1-14C155.2,102.8,161.8,96.2,170,96.2z M138.4,133.5
	l-0.7,1.6c-0.2,0.4-0.4,0.8-0.6,1.2c0.3-1.2,0.5-2.5,0.5-3.8C137.8,132.8,138.1,133.1,138.4,133.5z M120.9,119.4
	c7,0,12.6,5.6,12.6,12.6c0,5.6-3.6,10.3-8.7,12H117c-5-1.7-8.7-6.4-8.7-12C108.3,125,113.9,119.4,120.9,119.4z M80.1,141.9
	c5.8,0,10.5,4.7,10.5,10.5c0,4.3-2.6,8-6.3,9.6c-0.1,0-0.2,0.1-0.2,0.1c0,0,0,0,0,0c-0.1,0-0.2,0.1-0.2,0.1c0,0,0,0,0,0
	c-0.1,0-0.2,0.1-0.2,0.1c0,0,0,0,0,0c-0.1,0-0.2,0.1-0.2,0.1c0,0,0,0,0,0c-0.1,0-0.2,0-0.2,0.1c0,0,0,0,0,0c-0.1,0-0.1,0-0.2,0.1
	c0,0,0,0,0,0c-0.1,0-0.1,0-0.2,0.1c0,0,0,0,0,0c-0.1,0-0.1,0-0.2,0c0,0,0,0-0.1,0c-0.1,0-0.1,0-0.2,0c0,0,0,0-0.1,0
	c-0.1,0-0.1,0-0.2,0c0,0-0.1,0-0.1,0c-0.1,0-0.1,0-0.2,0c0,0-0.1,0-0.1,0c-0.1,0-0.1,0-0.2,0c0,0-0.1,0-0.1,0c-0.1,0-0.1,0-0.2,0
	c0,0-0.1,0-0.1,0c-0.1,0-0.1,0-0.2,0c0,0-0.1,0-0.1,0c-0.1,0-0.1,0-0.2,0c0,0-0.1,0-0.1,0c-0.1,0-0.2,0-0.3,0c-0.1,0-0.2,0-0.3,0
	c0,0-0.1,0-0.1,0c-0.1,0-0.1,0-0.2,0c0,0-0.1,0-0.1,0c-0.1,0-0.1,0-0.2,0c0,0-0.1,0-0.1,0c-0.1,0-0.1,0-0.2,0c0,0-0.1,0-0.1,0
	c-0.1,0-0.1,0-0.2,0c0,0-0.1,0-0.1,0c-0.1,0-0.1,0-0.2,0c0,0-0.1,0-0.1,0c-0.1,0-0.1,0-0.2,0c0,0,0,0-0.1,0c-0.1,0-0.1,0-0.2,0
	c0,0,0,0-0.1,0c-0.1,0-0.1,0-0.2,0c0,0,0,0,0,0c-0.1,0-0.1,0-0.2-0.1c0,0,0,0,0,0c-0.1,0-0.1,0-0.2-0.1c0,0,0,0,0,0
	c-0.1,0-0.2,0-0.2-0.1c0,0,0,0,0,0c-0.1,0-0.2-0.1-0.2-0.1c0,0,0,0,0,0c-0.1,0-0.2-0.1-0.2-0.1c0,0,0,0,0,0c-0.1,0-0.2-0.1-0.2-0.1
	c0,0,0,0,0,0c-0.1,0-0.2-0.1-0.2-0.1c-3.7-1.6-6.3-5.3-6.3-9.6C69.6,146.6,74.3,141.9,80.1,141.9z M102,162.6
	c-1,1.3-1.5,2.5-2.4,3.5c-2.5,3-4.6,4.7-6.6,5.7v74.8c0,3.2-2.8,5.8-6,5.8s-6-2.6-6-5.8V205h-2v41.6c0,3.2-2.3,5.8-5.5,5.8
	c-3.2,0-5.5-2.6-5.5-5.8v-74.8c-2-1-4.7-2.7-7.1-5.7c-4.5-5.4-8.7-14.6-8.7-29.8c0-0.4-0.1-0.9-0.1-1.4c0-2.1,1.7-3.7,3.8-3.7
	c2.1,0,3.7,1.7,3.6,3.8c0,0.4,0,0.8,0,1.2c0,12.6,3,20,5.9,24.1c2.6,3.6,5.3,4.6,6.3,5.6H74h12.2h2.3c0.3-0.2,0.7-0.5,1.1-0.8
	c1.1-0.6,2.6-1.8,4.3-3.8c1.4-1.6,2.8-3.9,3.9-7.1c1.5,1.4,3.3,2.4,4.3,3.2V162.6z M94.5,151.1c0,0.1,0.1,0.1,0.1,0.2l-0.1,0.3
	C94.5,151.4,94.5,151.3,94.5,151.1z M144.4,148.5c-3,3.6-5.4,5.7-8.4,6.8v90.1c0,3.8-3.2,6.9-7,6.9c-3.8,0-7-3.1-7-6.9V195h-2v50.4
	c0,3.8-3.2,6.9-7,6.9c-3.8,0-7-3.1-7-6.9v-90.1c-2-1.2-5.4-3.2-8.4-6.8c-5.4-6.4-10.4-17.6-10.4-35.8c0-0.5,0-1.1,0-1.6
	c0-2.5,2.1-4.5,4.5-4.4c2.5,0,4.4,2.1,4.4,4.6c0,0.5,0,1,0,1.5c0,15.2,3.6,23.9,7.1,28.8c3.2,4.4,6.4,5.5,7.6,6.5h4.9H126h4.9
	c0.3,0,0.8-0.4,1.4-0.8c1.3-0.7,3.2-2.1,5.1-4.4c1.3-1.5,2.6-3.5,3.8-6c2,2,3.7,3.4,5.7,4.6v3.7C146,146.3,145.2,147.5,144.4,148.5z
	 M179.8,252C179.8,252,179.7,252,179.8,252C179.8,252,179.8,252,179.8,252z M188,244.1c0,4.5-3.6,8-8.1,8c0,0-0.2-0.1-0.2-0.1
	c0,0,0,0,0,0c-4.5,0-7.7-3.4-7.7-7.9V185h-3v59.1c0,3.9-3.1,7-6.9,7.8c-0.6,0.1-1.2,0.1-1.8,0.1c0,0,0,0,0,0s0,0,0,0
	c-4.5,0-8.3-3.4-8.3-7.9V138.3c-2-1.4-6.1-3.8-9.6-8c-6.3-7.6-12.1-20.6-12-42.1c0-0.6,0-1.4,0-2c0.1-2.9,2.4-5.3,5.2-5.3
	c0,0,0.1,0,0.1,0c2.9,0,5.2,2.5,5.2,5.4c0,0.6,0,1.2,0,1.8c0,17.8,4.2,28.2,8.4,33.9c3.7,5.1,7.5,6.8,8.9,7.8h4.9h13.9h4.9
	c0.7-0.5,0.9-0.6,1.6-1c1.5-0.9,3.7-2.6,6-5.3c4.5-5.4,9.6-15.8,9.6-35.4c0,0,0,0,0-0.1c0-0.1,0-0.1,0-0.2c0-0.5,0-1,0-1.5
	c0,0,0,0,0,0c0,0,0,0,0,0c0-2.9,2.5-5.3,5.4-5.3c2.9,0,5.6,2.3,5.6,5.2c0,0,0,0,0,0.1c0,0.6-0.2,1.2-0.2,1.9
	c0,21.4-5.8,34.5-12.1,42.1c-3.5,4.2-6.6,6.6-9.6,8V244.1z M234,155.3v90.1c0,3.8-2.7,6.9-6.5,6.9c-3.8,0-6.5-3.1-6.5-6.9V195h-3
	v50.4c0,3.8-3.2,6.9-7,6.9c-3.8,0-7-3.1-7-6.9v-90.1c-2-1.2-5.4-3.2-8.4-6.8c-0.9-1-1.6-2.2-2.6-3.5v-3.7c2-1.1,3.7-2.6,5.7-4.6
	c1.2,2.5,2.5,4.5,3.8,6c1.9,2.3,3.8,3.7,5.1,4.5c0.6,0.3,1.1,0.8,1.4,0.8h4.9h10.2h4.9c1.2-1,4.4-2.2,7.6-6.5
	c3.5-4.9,7.1-13.5,7.1-28.7c0-0.5,0-1,0-1.5c0-2.5,1.9-4.5,4.4-4.6c2.5,0,4.5,1.9,4.6,4.4c0,0.6-0.1,1.1-0.1,1.6
	c0,18.3-4.9,29.4-10.3,35.8C239.4,152.1,237,154.2,234,155.3z M279.6,166.1c-2.5,3-4.6,4.7-6.6,5.7v74.8c0,3.2-2.8,5.8-6,5.8
	c-3.2,0-6-2.6-6-5.8V205h-2v41.6c0,3.2-2.8,5.8-6,5.8c-3.2,0-6-2.6-6-5.8v-74.8c-1-1-4.2-2.7-6.6-5.7c-0.9-1-1.4-2.2-2.4-3.5v-5
	c1-0.8,3-1.8,4.3-3.1c1.2,3,2.5,5.2,3.9,6.8c1.6,1.9,3.1,3.3,4.2,3.9c0.5,0.3,0.4,0.3,1.1,0.8h2.3H266h2.3c1-1,3.7-1.9,6.3-5.6
	c2.9-4.1,5.9-11.3,5.9-24c0-0.4,0-0.9,0-1.3c0-2.1,1.6-3.8,3.7-3.8c2.1,0,3.8,1.6,3.8,3.6c0,0.5,0.1,0.9,0.1,1.4
	C288,151.5,284.1,160.8,279.6,166.1z"/>
</svg>
