<?xml version="1.0" encoding="utf-8"?>
<!-- Generator: Adobe Illustrator 24.1.0, SVG Export Plug-In . SVG Version: 6.00 Build 0)  -->
<svg version="1.1" id="Layer_1" xmlns="http://www.w3.org/2000/svg" xmlns:xlink="http://www.w3.org/1999/xlink" x="0px" y="0px"
	 viewBox="0 0 340 340" style="enable-background:new 0 0 340 340;" xml:space="preserve">
<style type="text/css">
                .st0{fill:#071C2C;}
                .st1{fill:#FFFFFF;}
    svg:hover {  cursor:pointer;}
                svg:hover .st0 {  fill:#e32924;}
</style>
<g>
	<path class="st0" d="M245.3,284.2c-1.4-0.3-3.4,0.9-4.2,1.9c-0.3-1.3-1.6-3.2-3-3.6c-2.5-0.6-4.5,1.1-5.2,3.6c-1,3.9,5.6,11,5.6,11
		h0c0,0,9-3.6,9.8-7.5C248.9,287.2,247.8,284.8,245.3,284.2z"/>
	<path class="st0" d="M231.6,236.1c-1,0.1-2.1,1.3-2.5,2.2c-0.5-0.8-1.8-1.9-2.8-1.8c-1.8,0.1-2.9,1.7-2.8,3.6
		c0.2,2.9,6.2,6.4,6.2,6.4s5.5-4.4,5.2-7.3C234.7,237.4,233.5,236,231.6,236.1z"/>
	<path class="st0" d="M106.2,49.4L106.2,49.4c0,0,4.5-6.3,3.3-9.2c-0.7-1.9-2.5-3-4.4-2.3c-1.1,0.4-1.8,2-2,3.1
		c-0.8-0.7-2.5-1.5-3.5-1.1c-1.9,0.7-2.6,2.7-1.9,4.6C98.7,47.4,106.2,49.4,106.2,49.4z"/>
	<path class="st0" d="M137.6,294.6c-1-0.2-2.4,0.8-3,1.5c-0.3-0.9-1.3-2.3-2.3-2.5c-1.8-0.3-3.2,1-3.6,2.8c-0.6,2.8,4.4,7.8,4.4,7.8
		s6.4-2.9,6.8-5.8C140.3,296.6,139.4,294.9,137.6,294.6z"/>
	<path class="st0" d="M55.3,208.9c-1.1-0.3-2.7,0.7-3.4,1.5c-0.3-1-1.3-2.6-2.4-2.8c-2-0.5-3.6,0.9-4.1,2.8
		c-0.8,3.1,4.4,8.8,4.4,8.8h0c0,0,7.2-2.8,7.8-5.9C58.1,211.2,57.2,209.3,55.3,208.9z"/>
	<path class="st0" d="M38.1,316.7c-0.8,0.5-1,2-0.9,2.9c-0.8-0.4-2.3-0.6-3-0.1c-1.4,1-1.4,2.7-0.5,4c1.5,2.1,7.8,2,7.8,2v0
		c0,0,2.1-5.9,0.6-8C41,316.2,39.4,315.7,38.1,316.7z"/>
	<path class="st0" d="M36.1,227.8L36.1,227.8c0,0,2-6,0.5-8c-1-1.3-2.7-1.8-4-0.8c-0.7,0.5-1,2-0.8,2.9c-0.8-0.4-2.3-0.6-3,0
		c-1.3,1-1.4,2.7-0.4,4.1C29.8,228,36.1,227.8,36.1,227.8z"/>
	<path class="st0" d="M98.6,247.7c-1.4,0.6-2.3,3-2.4,4.4c-1.1-0.9-3.5-1.8-4.9-1.1c-2.5,1.1-3.2,3.9-2.1,6.5c1.7,4,12,5.9,12,5.9h0
		c0,0,5.4-9,3.6-12.9C103.6,247.8,101.1,246.5,98.6,247.7z"/>
	<path class="st0" d="M274.5,164.7c0.3-5.9-0.2-11.7-1.4-17.2c1.5-1.7,2.7-3.7,2.6-5.3c-0.2-2.3-1.8-4.1-4.1-3.9
		c-0.4,0-0.7,0.2-1.1,0.4c-1.3-3.4-3-6.7-5-9.7c0.2-0.5,0.3-1.1,0.2-1.5c-0.2-2.3-1.8-4.1-4.1-3.9c-0.1,0-0.1,0-0.2,0
		c-5.5-6.4-12.8-11.4-21.7-14.4c0.5-0.9,0.8-1.8,0.7-2.6c-0.2-2.3-1.8-4.1-4.1-3.9c-1.3,0.1-2.7,1.7-3.1,2.8c-0.6-1-2.2-2.4-3.5-2.3
		c-2.1,0.2-3.4,1.8-3.5,3.9c-6.8,0.4-14,2.8-21,6.3c-0.2,0-0.5,0-0.8,0c-0.9,0.1-1.9,0.9-2.5,1.8c-0.3,0.2-0.6,0.4-1,0.5
		c-0.8-0.9-2.1-1.9-3.2-1.8c-2.3,0.2-3.6,2.2-3.5,4.5c0,0.4,0.2,0.9,0.4,1.3c-5.5,3.8-10.4,8-13.8,12c-1-3.7-2.7-8-4.8-12.3
		c1.1-1.9,1.8-4,1.4-5.6c-0.7-2.5-2.7-4.1-5.2-3.5c-0.3,0.1-0.7,0.3-1,0.5c-0.9-1.4-1.8-2.7-2.7-4.1c0.8-1.2,1.3-2.5,1.2-3.5
		c-0.2-2.3-1.8-4.1-4.1-3.9c-0.7,0.1-1.4,0.6-2,1.2c-2.5-2.8-5.1-5.4-7.9-7.5c0.1-0.2,0.2-0.4,0.2-0.6c0.5-2.3-0.5-4.4-2.8-5
		c-1.2-0.3-2.8,0.7-3.7,1.6c-0.1,0-0.2-0.1-0.2-0.1c-0.4-1.1-1.4-2.7-2.6-2.9c-1.3-0.3-2.4,0.1-3.2,0.8c0,0-0.1,0-0.1,0
		c-2.4-0.6-4.8-0.9-7.1-1.2c2.7-1.4,6.2-3.6,6.7-6c0.5-2.5-0.6-4.9-3.1-5.5c-1.4-0.3-3.4,0.9-4.2,1.9c-0.3-1.3-1.6-3.2-3-3.6
		c-2.5-0.6-4.5,1.1-5.2,3.6c-0.7,2.7,2.2,6.9,4.1,9.3c-7.9-0.1-15.3,1.6-22,4.9c-0.1-0.4-0.3-0.8-0.5-1.1c-1.6-2-4.3-1.9-6.3-0.3
		c-1.6,1.3-2.1,4.3-2.3,7c-0.6,0.5-1.2,0.9-1.7,1.4c-0.3,0-0.5,0-0.8,0c-1.3,0.1-2.7,1.7-3.1,2.8c-0.6-1-2.2-2.4-3.5-2.3
		c-2.3,0.2-3.6,2.2-3.5,4.5c0.1,1.3,1.1,2.7,2.4,4c-1.5,1.9-2.8,4-4.1,6.1c-0.6-0.4-1.3-0.8-2-0.7c-2.3,0.2-3.6,2.2-3.5,4.5
		c0.1,1.1,0.8,2.3,1.8,3.3c-1.8,3.9-3.2,8.1-4.3,12.5c-0.8,3.2-1.2,6.5-1.2,10c-0.6-1.1-1.5-2.3-2.6-2.6c-2.5-0.6-4.5,1.1-5.2,3.6
		c-1,3.9,5.6,11,5.6,11h0c0,0,1.3-0.5,3-1.4c0.5,3,1.2,6.2,2,9.3c-0.2-0.1-0.5-0.1-0.7-0.1c-2.3,0.2-3.6,2.2-3.5,4.5
		c0.2,3.6,7.8,8,7.8,8h0c0,0,0.2-0.1,0.4-0.4c1.4,3.6,2.9,7.1,4.6,10.7c-0.6,0.6-1,1.4-1.2,2.3c-1,3.9,5.6,11,5.6,11h0
		c0,0,0.8-0.3,2-0.9c3.3,6,6.8,11.9,10.5,17.6c-0.3,0.7-0.4,1.5-0.5,2.1c-1.1-0.8-3.3-1.5-4.6-0.8c-2.3,1.2-2.8,3.7-1.7,6
		c1.7,3.6,11.4,4.9,11.4,4.9h0c0,0,0.7-1.2,1.4-3c8.5,12.4,17,23.4,23.8,31.7c-0.2,0.4-0.4,0.9-0.6,1.4c-1,3.9,5.6,11,5.6,11h0
		c0,0,1.8-0.7,3.9-1.9c2.8,3.3,4.5,5.1,4.5,5.1l0,0c0,0,6.2-2.5,15.9-6.9c3.5,1.1,9.3,0.1,9.3,0.1l0,0c0,0,0.4-2.2,0.5-4.7
		c7.1-3.4,15.1-7.5,23.5-12.1c2.6,1.5,5.2,2.5,5.2,2.5h0c0,0,4.1-4.7,5.2-8.5c10.9-6.5,22-13.7,31.8-21.6c0.6,0.4,1,0.6,1,0.6h0
		c0,0,3.9-3.2,5.7-6.3c4-3.5,7.6-7.1,10.9-10.7c1.5,2.2,3.1,4,3.1,4h0c0,0,9-3.6,9.8-7.5c0.5-2.5-0.6-4.9-3.1-5.5
		c-1.2-0.3-2.7,0.6-3.7,1.4c4.6-6.3,7.8-12.8,9.2-19.4c0.3-1.3,0.5-2.6,0.7-3.9c1.3-1.7,2.2-3.5,2.1-5
		C275.6,166.6,275.2,165.5,274.5,164.7z"/>
	<path class="st0" d="M200.2,260.8c-1.6,0.4-3,2.7-3.4,4.2c-1-1.1-3.3-2.5-4.9-2.1c-2.9,0.7-4.1,3.5-3.4,6.4
		c1,4.5,11.5,8.4,11.5,8.4h0c0,0,7.4-8.4,6.2-12.9C205.4,262,203,260.1,200.2,260.8z"/>
	<path class="st0" d="M274.4,243.8c-0.8-0.5-2.3-0.1-3,0.3c0.1-0.9-0.3-2.3-1.1-2.8c-1.4-0.9-3-0.3-3.9,1.1c-1.4,2.2,1.1,8,1.1,8h0
		c0,0,6.3-0.3,7.6-2.5C276,246.3,275.8,244.6,274.4,243.8z"/>
	<path class="st0" d="M307.6,141.4c-0.9-0.3-2.2,0.3-2.9,0.9c-0.1-0.9-0.8-2.2-1.6-2.5c-1.6-0.6-3,0.4-3.6,1.9
		c-0.9,2.4,2.8,7.6,2.8,7.6h0c0,0,6.1-1.6,6.9-4.1C309.7,143.6,309.2,142,307.6,141.4z"/>
	<path class="st0" d="M321.5,294.5c-0.7-0.3-1.7,0.2-2.3,0.6c-0.1-0.7-0.5-1.7-1.2-2c-1.2-0.5-2.3,0.2-2.9,1.4c-0.8,1.9,1.9,6,1.9,6
		h0c0,0,4.8-1.1,5.5-3C323.1,296.3,322.7,295,321.5,294.5z"/>
	<path class="st0" d="M216.8,329.3c-0.5-0.3-1.5-0.1-2,0.2c0-0.6-0.2-1.5-0.8-1.9c-1-0.6-2-0.1-2.6,0.8c-0.9,1.5,0.9,5.3,0.9,5.3
		s4.2-0.3,5-1.8C217.9,331,217.8,329.8,216.8,329.3z"/>
	<path class="st0" d="M329.4,12.4c0.7-1.1,0.7-2.4-0.3-3.2c-0.6-0.4-1.7-0.2-2.3,0c0.1-0.7-0.1-1.8-0.7-2.2c-1-0.8-2.3-0.4-3.1,0.6
		c-1.2,1.6,0.4,6.2,0.4,6.2S328.3,14,329.4,12.4z"/>
	<path class="st0" d="M289.8,187.3c-1.4-0.3-3.3,0.9-4.2,1.9c-0.3-1.3-1.6-3.2-3-3.6c-2.5-0.6-4.5,1.1-5.2,3.6c-1,3.9,5.6,11,5.6,11
		h0c0,0,9-3.6,9.8-7.5C293.4,190.3,292.3,187.9,289.8,187.3z"/>
	<path class="st0" d="M330.8,132c-0.6-0.6-1.9-0.5-2.7-0.3c0.2-0.7,0.1-2.1-0.5-2.6c-1.1-1-2.6-0.8-3.6,0.3
		c-1.6,1.7-0.4,7.1-0.4,7.1s5.6,0.8,7.1-0.9C331.7,134.6,331.8,133,330.8,132z"/>
	<path class="st0" d="M207.5,58.6L207.5,58.6c0,0,5.6-2.9,5.9-5.5c0.2-1.7-0.7-3.1-2.3-3.3c-0.9-0.1-2.1,0.8-2.6,1.5
		c-0.3-0.8-1.2-2-2.1-2.1c-1.7-0.2-2.9,1-3.1,2.6C202.8,54.4,207.5,58.6,207.5,58.6z"/>
	<path class="st0" d="M280.9,165.7c0,0,7.2-2.8,7.8-5.9c0.4-2-0.5-3.9-2.4-4.3c-1.1-0.3-2.7,0.7-3.4,1.5c-0.3-1-1.3-2.6-2.4-2.8
		c-2-0.5-3.6,0.9-4.1,2.8C275.7,160,280.9,165.7,280.9,165.7L280.9,165.7z"/>
	<path class="st0" d="M292.5,115.5c-0.9-0.7-2.7-0.5-3.7,0c0.2-1-0.1-2.9-1-3.6c-1.6-1.2-3.6-0.7-4.9,0.9c-2,2.5,0.3,9.8,0.3,9.8h0
		c0,0,7.7,0.4,9.6-2.1C294.2,118.8,294.2,116.7,292.5,115.5z"/>
	<path class="st0" d="M261.1,89.1c0,0,5.4-4.5,5.1-7.3c-0.2-1.8-1.5-3.2-3.3-3.1c-1,0.1-2.1,1.4-2.5,2.2c-0.5-0.8-1.8-1.9-2.8-1.8
		c-1.8,0.2-2.9,1.8-2.7,3.6C255,85.6,261.1,89.1,261.1,89.1z"/>
	<path class="st0" d="M182.6,86.7c0,0,5.5-4.4,5.2-7.3c-0.2-1.8-1.4-3.3-3.3-3.1c-1,0.1-2.1,1.3-2.5,2.2c-0.5-0.8-1.8-1.9-2.8-1.8
		c-1.8,0.1-2.9,1.7-2.8,3.6C176.5,83.1,182.6,86.7,182.6,86.7z"/>
	<path class="st0" d="M127.8,15L127.8,15c0,0,4.4-3.5,4.2-5.8c-0.1-1.5-1.2-2.6-2.6-2.5c-0.8,0.1-1.7,1.1-2,1.8
		c-0.4-0.6-1.4-1.5-2.2-1.5c-1.5,0.1-2.3,1.4-2.2,2.9C123,12.2,127.8,15,127.8,15z"/>
	<path class="st0" d="M208.7,94.7c-1,3.9,5.6,11,5.6,11h0c0,0,9-3.6,9.8-7.5c0.5-2.5-0.6-4.9-3.1-5.5c-1.4-0.3-3.4,0.9-4.2,1.9
		c-0.3-1.3-1.6-3.2-3-3.6C211.3,90.5,209.3,92.2,208.7,94.7z"/>
	<path class="st0" d="M77.3,85.4c0,0,6-7.8,4.6-11.6c-0.8-2.4-3-3.9-5.5-3.1c-1.4,0.4-2.4,2.5-2.7,3.8c-1-0.9-3.1-2-4.4-1.5
		c-2.5,0.8-3.4,3.3-2.6,5.8C67.9,82.6,77.3,85.4,77.3,85.4z"/>
	<path class="st0" d="M70.3,122.7c0,0,5.5-4.4,5.2-7.3c-0.2-1.8-1.4-3.3-3.3-3.1c-1,0.1-2.1,1.3-2.5,2.2c-0.5-0.8-1.8-1.9-2.8-1.8
		c-1.8,0.1-2.9,1.7-2.8,3.6C64.2,119.1,70.3,122.7,70.3,122.7z"/>
	<path class="st0" d="M41.7,92c-1-0.2-2.4,0.6-3.1,1.4c-0.2-0.9-1.1-2.3-2.1-2.6c-1.8-0.4-3.3,0.8-3.7,2.6c-0.7,2.8,4,8,4,8
		s6.5-2.6,7.1-5.4C44.3,94.2,43.5,92.4,41.7,92z"/>
	<path class="st0" d="M15.5,19c-0.9,0.1-1.9,1.3-2.2,2.1c-0.5-0.7-1.7-1.7-2.6-1.6c-1.7,0.2-2.6,1.6-2.4,3.3
		c0.2,2.6,5.8,5.6,5.8,5.6h0c0,0,4.8-4.1,4.5-6.7C18.3,20.1,17.1,18.8,15.5,19z"/>
	<path class="st0" d="M72.7,172.7c-1.3,0.1-2.7,1.7-3.1,2.8c-0.6-1-2.2-2.4-3.5-2.3c-2.3,0.2-3.6,2.2-3.5,4.5c0.2,3.6,7.8,8,7.8,8h0
		c0,0,6.8-5.5,6.5-9.1C76.6,174.3,75,172.5,72.7,172.7z"/>
</g>
</svg>
