<?xml version="1.0" encoding="utf-8"?>
<!-- Generator: Adobe Illustrator 19.2.1, SVG Export Plug-In . SVG Version: 6.00 Build 0)  -->
<!DOCTYPE svg PUBLIC "-//W3C//DTD SVG 1.1//EN" "http://www.w3.org/Graphics/SVG/1.1/DTD/svg11.dtd">
<svg version="1.1" id="Layer_1" xmlns="http://www.w3.org/2000/svg" xmlns:xlink="http://www.w3.org/1999/xlink" x="0px" y="0px"
	 width="340px" height="340px" viewBox="0 0 340 340" style="enable-background:new 0 0 340 340;" xml:space="preserve">
<style type="text/css">
                .st0{fill:#071C2C;}
                .st1{fill:#FFFFFF;}
    svg:hover {  cursor:pointer;}
                svg:hover .st0 {  fill:#830065;}
</style>
<g>
	<path class="st0" d="M151.5,196.4c0,10.2,8.3,18.5,18.5,18.5s18.5-8.3,18.5-18.5s-8.3-18.5-18.5-18.5S151.5,186.2,151.5,196.4z
		 M182.5,196.4c0,6.9-5.6,12.5-12.5,12.5s-12.5-5.6-12.5-12.5s5.6-12.5,12.5-12.5S182.5,189.5,182.5,196.4z"/>
	<path class="st0" d="M170,81.8c10.2,0,18.5-8.3,18.5-18.5s-8.3-18.5-18.5-18.5s-18.5,8.3-18.5,18.5S159.8,81.8,170,81.8z M170,50.8
		c6.9,0,12.5,5.6,12.5,12.5s-5.6,12.5-12.5,12.5s-12.5-5.6-12.5-12.5S163.1,50.8,170,50.8z"/>
	<path class="st0" d="M96,155.8c10.2,0,18.5-8.3,18.5-18.5c0-4.1-1.4-7.9-3.6-10.9c6.9-10,16.2-18,27.1-23.4v11.7
		c0,3.3,2.8,6.4,6.1,6.4h51.8c3.3,0,6.1-3.1,6.1-6.4v-11.4c11,5.4,19.9,13.5,26.7,23.6c-2,3-3.2,6.5-3.2,10.4
		c0,10.2,8.3,18.5,18.5,18.5s18.5-8.3,18.5-18.5s-8.3-18.5-18.5-18.5c-4.1,0-7.9,1.4-11,3.7c-7.9-11.3-19-20.2-31-25.8v-0.2
		c0-7.4-6.1-13.4-13.5-13.4h-5.9c-1.6,0-3.1,0.7-4.2,1.8l-8.4,8.4l-8.4-8.4c-1.1-1.1-2.6-1.8-4.2-1.8h-5.9c-7.4,0-13.5,6-13.5,13.3
		c-12.5,5.6-23.4,14.5-31.4,25.8c-3-2.1-6.6-3.3-10.6-3.3c-10.2,0-18.5,8.3-18.5,18.5S85.8,155.8,96,155.8z M244,124.8
		c6.9,0,12.5,5.6,12.5,12.5s-5.6,12.5-12.5,12.5s-12.5-5.6-12.5-12.5S237.1,124.8,244,124.8z M144,96.4c0-4.1,3.4-7.4,7.5-7.4h5.9
		l10,10c1.4,1.4,3.8,1.4,5.2,0l10-10h5.9c4.1,0,7.5,3.3,7.5,7.4V115h-52V96.4z M96,124.8c6.9,0,12.5,5.6,12.5,12.5
		s-5.6,12.5-12.5,12.5s-12.5-5.6-12.5-12.5S89.2,124.8,96,124.8z"/>
	<path class="st0" d="M262.4,157h-5.9c-1.6,0-3.1,0.6-4.2,1.7l-8.4,8.4l-8.4-8.4c-1.1-1.1-2.6-1.7-4.2-1.7h-5.9
		c-7.4,0-13.5,6-13.5,13.4v18.2c0,3.3,2.8,6.4,6.1,6.4h17.5c-6.5,15-18.5,27.7-33.5,35.3v-0.8c0-7.4-6.1-13.5-13.5-13.5h-5.9
		c-1.6,0-3.1,0.7-4.2,1.8l-8.4,8.4l-8.4-8.4c-1.1-1.1-2.6-1.8-4.2-1.8h-5.9c-7.4,0-13.5,6.1-13.5,13.5v1.4
		c-16-7.6-27.7-20.8-34.3-35.9h18.3c3.3,0,6.1-3.1,6.1-6.5v-18.2c0-7.4-6.1-13.4-13.5-13.4h-5.9c-1.6,0-3.1,0.6-4.2,1.7l-8.4,8.4
		l-8.4-8.4c-1.1-1.1-2.6-1.8-4.2-1.8h-5.9c-7.4,0-13.6,6-13.6,13.4v18.2c0,3.3,2.9,6.5,6.2,6.5h27.1c7.3,18.1,21.8,34.2,40.8,42.5
		v10.2c0,3.3,2.8,6.3,6.1,6.3h51.8c3.3,0,6.1-3,6.1-6.3V237c18.2-8.4,32.8-24,40-42h27.9c3.3,0,6.2-3.1,6.2-6.4v-18.2
		C276,163,269.8,157,262.4,157z M70,189v-18.6c0-4.1,3.5-7.4,7.6-7.4h5.9l10,10c1.4,1.4,3.8,1.4,5.2,0l10-10h5.9
		c4.1,0,7.5,3.3,7.5,7.4V189H70z M144,248v-18.5c0-4.1,3.4-7.5,7.5-7.5h5.9l10,10.1c1.4,1.4,3.8,1.4,5.2,0l10-10h5.9
		c4.1,0,7.4,3.5,7.4,7.6l0,18.4H144z M218,189v-18.6c0-4.1,3.4-7.4,7.5-7.4h5.9l10,10c1.4,1.4,3.8,1.4,5.2,0l10-10h5.9
		c4.1,0,7.4,3.5,7.4,7.6l0,18.4H218z"/>
</g>
</svg>
