<?xml version="1.0" encoding="utf-8"?>
<!-- Generator: Adobe Illustrator 20.0.0, SVG Export Plug-In . SVG Version: 6.00 Build 0)  -->
<!DOCTYPE svg PUBLIC "-//W3C//DTD SVG 1.1//EN" "http://www.w3.org/Graphics/SVG/1.1/DTD/svg11.dtd">
<svg version="1.1" id="Layer_1" xmlns="http://www.w3.org/2000/svg" xmlns:xlink="http://www.w3.org/1999/xlink" x="0px" y="0px"
	 width="340px" height="340px" viewBox="0 0 340 340" style="enable-background:new 0 0 340 340;" xml:space="preserve">
<style type="text/css">
           .st0{fill:#071C2C;}
                .st1{fill:#FFFFFF;}
    svg:hover {  cursor:pointer;}
                svg:hover .st0 {  fill:#830065;}
</style>
<g>
	<ellipse transform="matrix(0.6571 -0.7538 0.7538 0.6571 -27.5192 132.7113)" class="st0" cx="132.1" cy="96.6" rx="4" ry="4"/>
	<path class="st0" d="M274.6,233.5c-0.1,0-0.1,0-0.2,0l-0.4,0c-22.9,0-35.5-13.3-46.2-27.2c-9-25.5-30.7-48.1-59.8-62.3
		c-0.1-0.1-0.3-0.1-0.4-0.2l-2.1-0.8c-1.4-12.8-1.3-33.1-1-42.6c11.1-13.8,5.1-36.5,4.8-37.5c-0.6-2.4-2.7-4.1-5.1-4.4
		c-2.4-0.3-4.8,1-6,3.1c-0.9,1.7-2.7,4.9-4.9,8.3c-2.6-6.4-5.6-10.9-5.8-11.2c-1.4-2.1-4-3-6.4-2.4c-2.4,0.6-4.2,2.6-4.5,5.1
		c0,0.1-1.1,9.2-2.5,17.1c-0.8,0.1-1.7,0.2-2.4,0.4c-2,0.5-3.8,1.2-5.6,1.8c-5.3,2-6.7,2.2-8.3,0.8c-7.4-6.5-14.2-6.3-17.8-6.2
		l-0.7,0c-2,0-4.8,0.9-7.1,4.7c-3.9,6.4-6.6,21.3-2.1,30.1c3.9,7.6,13.8,9.7,21,11.2c1,0.2,2.1,0.4,3.1,0.7
		c-0.9,6.4-5,21.6-10.6,30.5c-1.2,1.5-2.2,3.9-2,6.7l5.3,85.2c0.4,7.3,6.3,12.9,13.6,13.2l0.4,0c7.1,0,13.1-5.3,13.9-12.3
		c0-0.2,0-0.3,0-0.5l1.4-35.1c5.4,2.6,12.1,5.6,18.4,8.4c3.2,1.5,6.4,2.9,9,4.1c1.9,2.8,4.2,5.4,6.5,7.5c-4.8,0.7-10,1.7-14.3,3.2
		c-4.5,1.6-7.8,4.6-9.2,8.5c-1.2,3.3-1,6.7,0.5,9.5c1.4,2.5,3.8,6.8,32.1,8.3c5.6,0.3,11.5,0.5,17.2,0.5c8.8,0,17.1-0.4,22.9-1.1
		c7.4-0.9,12-2.2,13.5-6.5c0.8-2.2,0.6-4.7-0.1-8.6c11.2,8.3,24.2,14.4,41,14.4l0.7,0c6.8-0.1,12.2-5.6,12.1-12.4
		C286.8,238.9,281.3,233.5,274.6,233.5z M120.3,118.3c-1.1-3.5-20.5-2.6-24.8-11c-4.2-8.4,0.6-26,4-26.1c3.4-0.1,8.4-0.6,14.5,4.7
		c6.1,5.3,12.9,0.2,19.2-1.3c1.7-0.4,3.8-0.3,5.9,0c1.8-8.7,3.5-22.6,3.5-22.6s6.9,10.2,8.3,21.2c5.9-6.1,12.7-18.9,12.7-18.9
		s6.1,22.4-4.9,33.6c-0.2,6.5-0.6,28.4,0.8,43.3l-45.2,3.4C118.6,133.4,121.1,120.8,120.3,118.3z M274.7,251.9c-0.2,0-0.4,0-0.7,0
		c-22.1,0-37.2-11.6-50.6-24.6c1.5,9.1,5,20.1,4,22.9c-0.4,1.1-3.6,1.9-8.5,2.5c-19,2.3-63.3,0.8-66.4-4.7c-1.4-2.5-0.3-7.4,5.5-9.4
		c10.3-3.6,28.8-3.9,25.8-5.9c-4.7-3.2-27.9-18.3-14.7-34.8c2.1-2.6,4.8-4,8-4.5c-5-1.1-9.7-0.1-13.4,4.6
		c-4.5,5.7-4.8,11.3-2.9,16.3c-9.2-4.4-22.7-10.1-29.9-14.1l-1.8,44.4c-0.5,4-3.9,7-8,7c-0.1,0-0.2,0-0.3,0
		c-4.1-0.1-7.5-3.4-7.8-7.5l-4.7-75.9l-0.5-8.5l-0.1-0.9c-0.2-1.7,0.8-2.7,0.8-2.7c1-1.5,2-3.3,2.9-5.1l48.7-3.7l5.3,2.1
		c31.5,15.4,49.9,38.7,57,59.8c11,14.3,25.4,30.3,51.6,30.3c0.2,0,0.4,0,0.6,0c3.4,0,6.2,2.8,6.2,6.2
		C280.9,249.1,278.2,251.9,274.7,251.9z"/>
</g>
</svg>
