<?xml version="1.0" encoding="utf-8"?>
<!-- Generator: Adobe Illustrator 19.2.0, SVG Export Plug-In . SVG Version: 6.00 Build 0)  -->
<!DOCTYPE svg PUBLIC "-//W3C//DTD SVG 1.1//EN" "http://www.w3.org/Graphics/SVG/1.1/DTD/svg11.dtd">
<svg version="1.1" id="Layer_1" xmlns="http://www.w3.org/2000/svg" xmlns:xlink="http://www.w3.org/1999/xlink" x="0px" y="0px"
	 viewBox="0 0 340 340" style="enable-background:new 0 0 340 340;" xml:space="preserve">
<style type="text/css">
                .st0{fill:#071C2C;}
                .st1{fill:#FFFFFF;}
    svg:hover {  cursor:pointer;}
                svg:hover .st0 {  fill:#830065;}
</style>
<g>
	<g>
		<path class="st0" d="M131.2,155.5c-23.5,0-42.6-19.1-42.6-42.6s19.1-42.6,42.6-42.6c23.5,0,42.6,19.1,42.6,42.6
			S154.7,155.5,131.2,155.5z M131.2,76.3c-20.2,0-36.6,16.4-36.6,36.6c0,20.2,16.4,36.6,36.6,36.6s36.6-16.4,36.6-36.6
			C167.8,92.8,151.4,76.3,131.2,76.3z"/>
	</g>
	<g>
		<path class="st0" d="M181.4,254.5H61.3c-1.7,0-3-1.3-3-3v-31c0-24.4,8.5-42.1,25.3-52.4c13.3-8.2,28-9.4,35.7-9.4
			c49.7,0,86.2-9.6,108.2-17.7c19.2-8.5,33.8-16.3,34.4-16.6c2.5-1.3,5.2-2.1,8-2.4l6-15.1c1-2.6,3-4.6,5.6-5.7
			c2.5-1.1,5.4-1.1,7.9-0.1c0,0,0,0,0,0c5.3,2.1,7.9,8.2,5.8,13.5l-6.5,16.2c0.5,0.8,0.9,1.4,1.3,2.1c4.8,9,2.3,20.4-5.9,26.5
			c-0.1,0.1-0.2,0.2-0.3,0.2l-0.7,0.5c-6.2,4.3-40.1,26.5-98.7,46.7v44.7C184.4,253.2,183,254.5,181.4,254.5z M64.3,248.5h114.1
			v-41.7c0-2.6,1.6-4.8,4-5.7c57.9-20,91.2-41.8,97.3-46l0.5-0.4c0.1-0.1,0.2-0.1,0.2-0.2c5.8-4.4,7.6-12.5,4.2-18.9
			c-0.2-0.5-0.5-0.9-0.9-1.5c-1.1-1.7-1.4-3.8-0.6-5.6l6.5-16.2c0.9-2.3-0.2-4.8-2.4-5.7c0,0,0,0,0,0c-1.1-0.4-2.3-0.4-3.3,0
			c-1.1,0.5-1.9,1.3-2.4,2.4l-6,15.1c-0.8,2.1-2.8,3.6-5.1,3.8c-2,0.2-3.9,0.7-5.7,1.7c-0.6,0.3-15.4,8.2-34.8,16.9
			c-0.1,0-0.1,0.1-0.2,0.1c-22.4,8.3-59.8,18.1-110.4,18.1c-7,0-20.5,1.1-32.5,8.5c-14.9,9.2-22.5,25.1-22.5,47.3V248.5z"/>
	</g>
	<g>
		<path class="st0" d="M216.2,117.7c-1.1,0-2.2-0.2-3.3-0.6c-5-1.8-7.8-7.2-6.3-12.2c-1.6,0.3-3.4,0.2-5-0.3l0,0
			c-5.2-1.7-8-7.4-6.3-12.6c1.8-5.3,6.2-7.5,15.5-10.4c1.3-0.4,2.7-0.8,4.3-1.3L227,46.4c1.4-3.9,4.9-6.5,9-6.7
			c4.1-0.1,7.9,2.3,9.5,6L257,72.1c8.3-0.6,11.7,0.5,14.4,2.5c4.4,3.3,5.3,9.5,2,13.9c-1.8,2.4-4.6,3.8-7.5,4l1.1,2.5
			c2.2,5-0.1,10.9-5.1,13.1c-2.4,1.1-5.1,1.1-7.6,0.1c-2.5-1-4.4-2.8-5.5-5.3l-3.9-9c-4.5,0.9-9.5,1.9-14.3,3.1l-4.9,14.1
			C224.2,115.1,220.4,117.7,216.2,117.7z M209.1,100.9c0.3,0,0.7,0.1,1,0.3c0.5,0.4,0.7,1.1,0.5,1.7l-0.9,2.6
			c-1.3,3.6,0.7,7.6,4.3,8.8c0.7,0.3,1.5,0.4,2.3,0.4c3,0,5.6-1.9,6.6-4.7l5.2-14.9c0.2-0.5,0.6-0.8,1.1-1
			c5.5-1.3,11.3-2.6,16.4-3.5c0.7-0.1,1.4,0.2,1.6,0.9l4.4,10.1c0.7,1.7,2.1,3,3.8,3.7c1.7,0.7,3.6,0.6,5.3-0.1
			c3.5-1.5,5.1-5.6,3.6-9.1l-2.1-4.8c-0.2-0.5-0.1-1.1,0.2-1.6c0.4-0.4,0.9-0.6,1.5-0.5c2.7,0.6,5.5-0.4,7.1-2.6
			c2.3-3.1,1.7-7.4-1.4-9.7c-2.2-1.7-5.3-2.6-13.4-1.8c-0.6,0.1-1.3-0.3-1.5-0.9l-11.9-27.3c-1.1-2.6-3.8-4.2-6.6-4.2
			c-2.9,0.1-5.3,1.9-6.3,4.7l-12.1,34.7c-0.2,0.5-0.5,0.8-1,1c-1.9,0.5-3.5,1-5,1.5c-8.3,2.6-12.2,4.4-13.5,8.5
			c-1.2,3.6,0.8,7.6,4.4,8.8l0,0c1.9,0.6,4,0.4,5.7-0.6C208.6,101,208.9,100.9,209.1,100.9z M233.6,81.9c-0.9,0-1.7-0.4-2.2-1
			c-0.7-0.8-0.9-1.9-0.6-3l3.5-10.2c0.4-1.2,1.5-2,2.7-2c1.2,0,2.4,0.7,2.9,1.8c0,0,0,0,0,0l3.8,8.7c0.4,0.8,0.3,1.8-0.1,2.6
			c-0.4,0.8-1.2,1.4-2.1,1.5c-2.3,0.4-4.7,0.9-7.3,1.5C234,81.9,233.8,81.9,233.6,81.9z M237.1,68.8
			C237.1,68.8,237.1,68.8,237.1,68.8l-3.5,10.2c2.5-0.5,5-1,7.3-1.5L237.1,68.8C237.1,68.8,237.1,68.8,237.1,68.8z"/>
	</g>
</g>
</svg>
