<?xml version="1.0" encoding="utf-8"?>
<!-- Generator: Adobe Illustrator 19.2.1, SVG Export Plug-In . SVG Version: 6.00 Build 0)  -->
<!DOCTYPE svg PUBLIC "-//W3C//DTD SVG 1.1//EN" "http://www.w3.org/Graphics/SVG/1.1/DTD/svg11.dtd">
<svg version="1.1" id="Layer_1" xmlns="http://www.w3.org/2000/svg" xmlns:xlink="http://www.w3.org/1999/xlink" x="0px" y="0px"
	 width="340px" height="340px" viewBox="0 0 340 340" style="enable-background:new 0 0 340 340;" xml:space="preserve">
<style type="text/css">
	.st0{fill:#041C2C;}
</style>
<g>
	<path class="st0" d="M157.8,247.5c-3.5-2.8-10.3-4.5-18.5-4.5h0c-5.2,0-10.1,0.6-13.8,1.9c-2,0.7-3.6,1.5-4.8,2.5
		c-1.6,1.3-2.5,2.9-2.5,4.7c0,1.8,0.9,3.4,2.5,4.7c3.5,2.8,10.3,4.5,18.6,4.5c5.2,0,10.1-0.7,13.8-2c2-0.7,3.6-1.5,4.8-2.5
		c1.6-1.3,2.5-2.9,2.5-4.7C160.3,250.4,159.5,248.8,157.8,247.5z M155.9,254.5c-0.9,0.8-2.2,1.4-3.9,2c-3.4,1.2-8,1.9-12.8,1.9
		c-7.5,0-13.7-1.5-16.7-3.9c-0.9-0.8-1.4-1.6-1.4-2.4c0-0.8,0.5-1.7,1.4-2.4c0.9-0.8,2.2-1.4,3.9-2c3.4-1.2,8-1.9,12.8-1.9
		c7.5,0,13.7,1.5,16.7,3.9c0.9,0.8,1.4,1.6,1.4,2.4C157.3,253,156.8,253.8,155.9,254.5z"/>
	<path class="st0" d="M272.2,241.7c-0.2-2.3-1.5-4.4-3.5-5.9c-3.1-2.3-6.3-3.8-12.6-4.4c-2-0.2-4-0.1-5.9-0.1c-1.4,0-2.8,0-4.3,0
		c0.1-0.8,0.2-1.6,0.3-2.4c0-0.5,0-1,0-1.6c4.8,0.5,9.3-0.9,11.7-1.8c1.8-0.6,3.2-1.3,4.3-2.2c1-0.8,2.1-2.5,2.1-4.4
		c0-1.1-0.3-2.7-2.1-4.1c-3.1-2.4-9.2-3.8-16.5-3.9c-0.1,0-0.1,0-0.3,0c0.1,1,0.2,2,0.3,3c6.6,0,12,1.2,14.6,3.2
		c0.7,0.5,1,1.1,1,1.7c0,0.9-0.6,1.8-1,2c-0.8,0.6-1.9,1.2-3.4,1.7c-3.2,1.1-6.9,2.1-10.8,1.6c0,0.2,0,0.4,0,0.7c0,0,0,0,0,0.1
		c0-10.6-1.2-19.6-3.6-27.5c-3.6-11.9-10.2-21.4-19.2-27.2c-4.4-2.9-9.2-4.9-14.4-6.1c0.7-0.4,1.4-0.8,2.1-1.2
		c3.7-1.8,7.3-2.7,11.3-2.7c6.9,0,14.3,2.6,22.7,8c7.5,4.8,17.6,2.6,22.4-4.9c2.3-3.7,3.1-8,2.2-12.2c-0.9-4.2-3.5-7.8-7.1-10.1
		c-13.5-8.7-27-13-40.1-13c0,0-0.1,0-0.1,0c-9.2,0-18.1,2.1-26.4,6.4c-7.9,4.1-15,9.9-21.3,17.4c-7.8-5.5-10.7-12.1-13.7-21.5
		l13.6-56.8c0.8-3.3,0.2-6.6-1.5-9.5c-1.8-2.9-4.5-4.9-7.8-5.6c-3.3-0.8-6.6-0.2-9.5,1.5c-2.9,1.8-4.9,4.5-5.6,7.8l-13.8,57.7
		c-0.9,0.7-1.8,1.4-2.8,2.1c1.2-3.3,1.7-6.9,1.4-10.6c-0.6-6.5-3.6-12.4-8.6-16.6c-10.3-8.7-25.7-7.3-34.4,3
		c-8.1,9.6-7.5,23.7,1,32.6l-32.5-8.5c-3.2-0.8-6.6-0.4-9.5,1.3c-2.9,1.7-4.9,4.4-5.8,7.7c-0.8,3.2-0.4,6.6,1.3,9.5
		c1.7,2.9,4.4,4.9,7.7,5.8l59.6,15.5c13.5,15.9,25.8,22.1,44.2,31.3l2.4,1.2c0.7,0.4,1.7,0.7,2.1,0.9c0.1,0,0.2,0.1,0.3,0.1
		c2.1,0.6,9.3,2.4,14.2-0.2c0,0,2.7-1.4,6.7-2.7c4.7-1.6,9.6-2.5,13.4-2.5c0,0,0.1,0,0.1,0c2.4,0,4.5,0.3,6.2,0.9
		c2.5,1,4.4,2.2,6.4,5.7c1,1.8,2.4,5.1,3.4,10.5c-0.5,0-1.2-0.1-1.4-0.1l-0.7-0.1c-6.2-1-15.1-1.5-27.3-1.5
		c-22.7,0-44.1,1.7-60.3,4.8c-8,1.5-14.3,3.3-18.8,5.3c-2.5,1.1-4.4,2.3-5.7,3.5c-1.7,1.6-2.6,3.5-2.7,5.4c0,1.2,0.5,2.5,1.4,3.5
		c2.5,2.7,7,3.8,13.4,4.7c6.2,0.8,14.8,1.2,25.5,1.2c3.4,0,7,0,10.7-0.1c0.6,0,1.2,0,1.9,0c5.8,0,10.3,0.7,13.3,2
		c2.9,1.3,4.1,2.9,5.6,4.9c0.4,0.6,0.9,1.2,1.4,1.8c3,3.8,7.5,5.6,14,5.6c3.5,0,8.2,0.1,13.7,0.2c7.4,0.2,15.8,0.4,24.5,0.4
		c14.4,0,25.2-0.5,33.1-1.6c5.1-0.7,8.9-1.7,11.7-2.9c1.7-0.8,3-1.6,4-2.6c1.2-1.3,1.9-2.9,1.9-4.5
		C272.2,242.1,272.2,241.9,272.2,241.7z M96.3,107.1c6.5-7.8,18.1-8.8,25.9-2.2c7.8,6.5,8.8,18.1,2.2,25.9
		c-6.5,7.8-18.1,8.8-25.9,2.2C90.8,126.5,89.8,114.9,96.3,107.1z M205.3,190.6c-2.4-0.9-5.3-1.3-8.3-1.3c-5.3,0-11,1.3-15.4,2.8
		c-4.2,1.4-7.2,2.8-7.5,3c-3.2,1.7-9.8-0.2-9.8-0.2s-1-0.3-1.4-0.6c-19.9-10-32.3-15.7-46-32.5l-61.4-16c-3.5-0.9-5.6-4.5-4.7-8
		c0.9-3.5,4.5-5.6,8-4.7l57.4,14.9c7.7-5.8,17.7-13.5,25.3-19.3L155.7,69c0.8-3.5,4.4-5.7,7.9-4.8c3.5,0.8,5.7,4.4,4.8,7.9l-14,58.4
		c4.1,12.8,7.9,21.9,21.4,29.2c0.3-0.4,0.7-0.9,1-1.3c4.7-6,11.7-13.4,21.7-18.6c6.7-3.5,14.7-5.8,23.7-5.8c11.3,0,23.8,3.7,37,12.1
		c4.8,3,6.2,9.4,3.1,14.1c-3,4.8-9.4,6.1-14.1,3.1c-10.7-6.8-19.1-8.9-26-8.9c-5.3,0-9.8,1.3-13.9,3.3c-4.1,2-7.7,4.9-10.7,7.9
		c-1.1,1.1-2.1,2.3-3.1,3.4c0.8,0,1.7-0.1,2.5-0.1c7.3,0,15.6,1.5,23,6.4c7.5,4.9,13.5,13,16.7,23.9c2.2,7.3,3.3,15.8,3.3,25.8
		c0,1.2,0,2.3,0,3.5c-0.1,5.6-4.7,10-10.2,10c-0.1,0-0.2,0-0.3,0c-5.6-0.1-10.1-4.8-10-10.5c0-1,0-2.1,0-3.1c0-12.8-2.2-21-4.9-26
		C211.9,194.1,209,192,205.3,190.6z M269,242.3L269,242.3c0,0.8-0.3,1.7-1,2.4c-0.7,0.7-1.6,1.4-3,1.9c-2.5,1.1-6,2-10.9,2.6
		c-7.7,1.1-18.4,1.6-32.7,1.6c-8.6,0-17-0.2-24.4-0.4c-5.3-0.1-10-0.2-13.4-0.2c-7.4,0-10.3-2.3-12-4.5c-0.5-0.6-0.9-1.1-1.3-1.7
		c-1.5-2.1-3.2-4.2-6.8-5.8c-3.4-1.5-8.2-2.2-14.5-2.2c-0.6,0-1.3,0-1.9,0c-3.6,0.1-7.2,0.1-10.6,0.1c-10.6,0-19-0.4-25.1-1.2
		c-5.6-0.8-9.8-1.7-11.6-3.8c-0.4-0.4-0.6-1-0.6-1.5c0-1.1,0.6-2.2,1.7-3.2c1.1-1,2.7-2,4.9-3c4.2-1.9,10.3-3.6,18.1-5.1
		c15.9-3,37.2-4.7,59.7-4.7c12,0,20.8,0.5,26.8,1.5l0.6,0.1c0.4,0.1,1.5,0.2,2.4,0.3c0.3,2.7,0.5,5.8,0.5,9.4c0,0,0,0,0,0
		c0,0.9-0.2,1.9-0.2,2.9c-0.2,8.9,6.8,16.6,15.7,16.9c6.8,0,13-4.4,15.4-10.5c1.8,0.1,3.5,0.1,5.2,0.1c1.9,0,3.7-0.1,5.6,0.1
		c5.7,0.5,8.4,1.7,11.1,3.8c1,0.7,2.1,2,2.2,3.8C269.1,242.1,269,242.2,269,242.3z"/>
</g>
</svg>
