<?xml version="1.0" encoding="utf-8"?>
<!-- Generator: Adobe Illustrator 19.2.1, SVG Export Plug-In . SVG Version: 6.00 Build 0)  -->
<!DOCTYPE svg PUBLIC "-//W3C//DTD SVG 1.1//EN" "http://www.w3.org/Graphics/SVG/1.1/DTD/svg11.dtd">
<svg version="1.1" id="Layer_1" xmlns="http://www.w3.org/2000/svg" xmlns:xlink="http://www.w3.org/1999/xlink" x="0px" y="0px"
	 width="340px" height="340px" viewBox="0 0 340 340" style="enable-background:new 0 0 340 340;" xml:space="preserve">
<style type="text/css">
                .st0{fill:#071C2C;}
                .st1{fill:#FFFFFF;}
    svg:hover {  cursor:pointer;}
                svg:hover .st0 {  fill:#830065;}
</style>
<g>
	<path class="st0" d="M259,233V90.9c0-0.6-0.2-1.2-0.6-1.8L253,80c5.7-2,9.8-7.4,9.8-13.7c0-8-6.5-14.6-14.6-14.6
		s-14.6,6.5-14.6,14.6c0,6.2,3.9,11.5,9.4,13.6c-16.9,12.5-42.6,26.3-73.1,26.3c-30.5,0-56.1-13.8-73.1-26.3
		c5.5-2.1,9.4-7.4,9.4-13.6c0-8-6.5-14.6-14.6-14.6c-8,0-14.6,6.5-14.6,14.6c0,6.4,4.1,11.8,9.8,13.8l-5.5,9.1
		c-0.3,0.5-0.6,1.2-0.6,1.8V233h-9v12h40v-12h-10V91.8c17.4,11.1,40.8,21.3,68,21.3c27.2,0,50.6-10.3,68-21.3V233h-10v12h40v-12H259
		z M83.2,66.2c0-4.7,3.8-8.6,8.6-8.6s8.6,3.8,8.6,8.6s-3.8,8.6-8.6,8.6S83.2,70.9,83.2,66.2z M95,233h-7V91.8l3.4-6l3.6,6.1V233z
		 M239.6,66.2c0-4.7,3.8-8.6,8.6-8.6s8.6,3.8,8.6,8.6s-3.8,8.6-8.6,8.6S239.6,70.9,239.6,66.2z M252,233h-7V91.9l3.6-6.1l3.4,6V233z
		"/>
</g>
</svg>
