<?xml version="1.0" encoding="utf-8"?>
<!-- Generator: Adobe Illustrator 19.2.1, SVG Export Plug-In . SVG Version: 6.00 Build 0)  -->
<!DOCTYPE svg PUBLIC "-//W3C//DTD SVG 1.1//EN" "http://www.w3.org/Graphics/SVG/1.1/DTD/svg11.dtd">
<svg version="1.1" id="Layer_1" xmlns="http://www.w3.org/2000/svg" xmlns:xlink="http://www.w3.org/1999/xlink" x="0px" y="0px"
	 width="340px" height="340px" viewBox="0 0 340 340" style="enable-background:new 0 0 340 340;" xml:space="preserve">
<style type="text/css">
                .st0{fill:#071C2C;}
                .st1{fill:#FFFFFF;}
    svg:hover {  cursor:pointer;}
                svg:hover .st0 {  fill:#830065;}
</style>
<g>
	<path class="st0" d="M293.6,87H202v-9.5c0-4.1-3.4-8.5-8.6-8.5h-8.7c-4.1,0-8.6,3.3-8.6,8.5V87h-12v-9.5c0-5.2-4.5-8.5-8.6-8.5
		h-8.7c-5.2,0-8.6,4.4-8.6,8.5V87H46.4c-3.3,0-6.4,3.2-6.4,6.5v154.6c0,3.2,3,5.8,6,6V254h0.4h4.5h169.2H293h0.6
		c3.3,0,6.4-2.6,6.4-5.9V93.5C300,90.2,296.9,87,293.6,87z M179.3,93c1.7,0,2.7-0.9,2.7-2.5v-13c0-1.8,1.8-2.5,2.6-2.5h8.7
		c1.8,0,2.6,1.7,2.6,2.5v13c0,1.7,1,2.5,2.7,2.5H294v36H171V93H179.3z M141.3,93c1.7,0,2.7-0.9,2.7-2.5v-13c0-0.8,0.8-2.5,2.6-2.5
		h8.7c0.8,0,2.6,0.6,2.6,2.5v13c0,1.7,1,2.5,2.7,2.5h7.3v36H46V93H141.3z M126,248v-45.5c0-0.8-0.1-2.5,2.4-2.5h17.6
		c0.7,0,2.1,0.1,2.1,2.5V248H126z M154,248v-45.5c0-4.2-2.2-8.5-8.1-8.5h-17.6c-4.2,0-8.3,2.8-8.3,8.5V248H50.9H46V135h122v113H154z
		 M192,248v-45.4c0-2.5,1.2-2.6,2.1-2.6h17.5c2.5,0,2.4,1.7,2.4,2.5V248H192z M293,248h-73v-45.5c0-5.7-4.1-8.5-8.4-8.5h-17.6
		c-5.7,0-8.1,4.3-8.1,8.5V248h-15V135h123v113H293z"/>
	<path class="st0" d="M239,226h45v-31h-45V226z M263,223v-19h18v19H263z M281,202h-18v-4h18V202z M242,198h19v25h-19V198z"/>
	<path class="st0" d="M239,174h45v-30h-45V174z M263,171v-18h18v18H263z M281,151h-18v-4h18V151z M242,147h19v24h-19V147z"/>
	<path class="st0" d="M188,174h31v-30h-31V174z M191,171v-18h25v18H191z M216,147v4h-25v-4H216z"/>
	<path class="st0" d="M56,174h45v-30H56V174z M59,153h18v18H59V153z M98,171H79v-24h19V171z M77,147v4H59v-4H77z"/>
	<path class="st0" d="M121,174h31v-30h-31V174z M124,171v-18h25v18H124z M149,147v4h-25v-4H149z"/>
	<path class="st0" d="M56,226h45v-31H56V226z M59,204h18v19H59V204z M98,223H79v-25h19V223z M77,198v4H59v-4H77z"/>
</g>
</svg>
