<?xml version="1.0" encoding="utf-8"?>
<!-- Generator: Adobe Illustrator 19.2.1, SVG Export Plug-In . SVG Version: 6.00 Build 0)  -->
<!DOCTYPE svg PUBLIC "-//W3C//DTD SVG 1.1//EN" "http://www.w3.org/Graphics/SVG/1.1/DTD/svg11.dtd">
<svg version="1.1" id="Layer_1" xmlns="http://www.w3.org/2000/svg" xmlns:xlink="http://www.w3.org/1999/xlink" x="0px" y="0px"
	 width="340px" height="340px" viewBox="0 0 340 340" style="enable-background:new 0 0 340 340;" xml:space="preserve">
<style type="text/css">
                .st0{fill:#071C2C;}
                .st1{fill:#FFFFFF;}
    svg:hover {  cursor:pointer;}
                svg:hover .st0 {  fill:#830065;}
</style>
<g>
	<path class="st0" d="M228.9,199.1c-5.3-2.4-11.3-4.4-17.3-5.6c-7.3-1.5-14.4-2-20.5-1.2c-8.3,1-14.5,4.1-18.2,9.2v-44.1
		c0,0,0,0,0-0.1c6.1-0.6,12-2.8,17.5-6.4c13.1-8.7,22.1-25,25.6-45.8c4.7-6.1,7.2-13,7.2-20.1c0-11.1-5.9-21.4-16.5-29.1
		c-10.1-7.2-23.4-11.2-37.5-11.2c-14.1,0-27.4,4-37.5,11.2c-10.7,7.6-16.6,18-16.6,29.1c0,7.1,2.5,14.1,7.2,20.1
		c3.4,20.9,12.5,37.1,25.6,45.8c5.7,3.8,11.8,5.8,18.2,6.3c0.1,0,0.2-0.2,0.2-0.2h0.6v21.1c-3.7-5-9.9-8.2-18.2-9.2
		c-6.1-0.7-13.1-0.3-20.5,1.2c-6,1.3-12,3.2-17.3,5.6l-1.6,0.7l1,1.5c3.2,4.9,7.3,9.7,11.8,13.9c5.5,5.2,11.3,9.3,16.8,11.9
		c4.5,2.1,8.9,3.2,13,3.2c4.6,0,8.8-1.4,12.1-4.1c1.1-0.9,2.1-2,3-3.1v50.9c0,1.7,1.3,3,3,3c1.7,0,3-1.3,3-3v-27.7
		c0.9,1.2,1.8,2.2,3,3.1c3.3,2.7,7.5,4.1,12.1,4.1c4,0,8.4-1.1,13-3.2c5.5-2.6,11.3-6.7,16.8-11.9c4.4-4.2,8.5-9,11.8-13.9l1-1.5
		L228.9,199.1z M127.7,102c-0.1-0.2-0.3-0.4-0.5-0.6c-3.9-5-6-10.8-6-16.6c0-9.1,5-17.7,14-24.2c9.1-6.5,21.1-10.1,34-10.1
		c12.8,0,24.9,3.6,34,10.1c9.1,6.5,14,15.1,14,24.2c0,5.8-2.1,11.5-6,16.5c-0.1,0.1-0.3,0.3-0.4,0.4c0,0-2.4,3.1-6.3,6.1l-0.4,0.3
		c0,0,0,0,0,0c0,0,0,0-0.1,0c-0.3,0.2-0.6,0.4-0.9,0.6c-9.1,6.5-21.1,10.1-34,10.1c-12.8,0-24.9-3.6-34-10.1
		c-0.4-0.3-1.3-0.9-1.3-0.9C129.2,104.2,127.7,102,127.7,102z M151.3,145.7c-9.9-6.6-17.2-18.1-21.2-33.2c0.1,0.1,0.1,0.1,0.2,0.2
		c0,0,1,0.8,1.5,1.1c10.1,7.2,23.4,11.2,37.5,11.2c14.1,0,27.4-4,37.5-11.2c0.3-0.2,0.6-0.4,0.9-0.7l0,0c0.1-0.1,0.2-0.2,0.3-0.3
		l0.2-0.1c0.1,0,0.1-0.1,0.2-0.1c-4,15.1-11.3,26.5-21.2,33.1c-4.8,3.2-9.9,5.3-15.3,5.3h-5.2C161.2,151,156.1,148.9,151.3,145.7z
		 M162.1,200.5c-5.3,4.4-13.2,4.6-21.9,0.5c-5.2-2.4-10.7-6.3-16-11.3c-3.8-3.7-7.4-7.7-10.3-11.9c4.7-2,9.8-3.6,15-4.7
		c7-1.5,13.8-1.9,19.5-1.2c9.9,1.2,16.1,5.5,18.5,12.7v8.4C166.2,196,164.5,198.6,162.1,200.5z M215.7,213c-5.2,5-10.8,8.9-16,11.3
		c-8.6,4-16.6,3.8-21.9-0.5c-2.3-1.9-4-4.5-4.9-7.5v-8.4c2.4-7.2,8.6-11.5,18.5-12.7c5.7-0.7,12.5-0.3,19.5,1.2
		c5.2,1.1,10.3,2.7,15,4.7C223.1,205.2,219.6,209.3,215.7,213z"/>
	<path class="st0" d="M146.6,103.7c4.4,2.6,9.6,4.5,15.3,5.9c0.1,0,0.2,0,0.3,0c0.7,0,1.3-0.5,1.5-1.2c0.2-0.8-0.3-1.6-1.1-1.8
		c-5.4-1.3-10.3-3.2-14.4-5.6c-8.4-4.8-13-11.3-13-18.1c0-5.2,3.5-10,9.9-13.7c6.3-3.7,14.7-5.7,23.6-5.7c8.9,0,17.3,2,23.6,5.7
		c6.4,3.7,9.9,8.5,9.9,13.7c0,3.5-2.4,6.8-6.7,9.3c-4.3,2.5-10,3.9-16.1,3.9c-1.2,0-2.5-0.1-3.7-0.2c-5.1-0.5-9.9-2-13.5-4.2
		c-3.7-2.3-5.7-5.1-5.7-8c0-0.3,0-0.6,0.1-0.9c0.3-2,1.6-3.8,3.9-5c2.2-1.3,5.1-2,8.3-2c3.2,0,6.2,0.7,8.6,2.1
		c2.3,1.4,3.6,3.1,3.6,5c0,0.8,0.7,1.5,1.5,1.5s1.5-0.7,1.5-1.5c0-3-1.8-5.7-5.1-7.6c-2.8-1.6-6.3-2.5-10.1-2.5
		c-3.7,0-7.1,0.8-9.8,2.4c-3,1.7-4.9,4.3-5.3,7.2c-0.1,0.5-0.1,0.9-0.1,1.4c0,3.9,2.5,7.6,7.2,10.5c4,2.5,9.2,4.1,14.8,4.7
		c1.3,0.1,2.7,0.2,4,0.2c6.6,0,12.8-1.5,17.6-4.3c5.3-3.1,8.2-7.3,8.2-11.9c0-6.3-4-12.1-11.4-16.3c-6.8-3.9-15.7-6.1-25.1-6.1
		c-9.4,0-18.3,2.2-25.1,6.1c-7.3,4.2-11.4,10-11.4,16.3C132.1,90.9,137.3,98.3,146.6,103.7z"/>
</g>
</svg>
