<?xml version="1.0" encoding="utf-8"?>
<!-- Generator: Adobe Illustrator 20.1.0, SVG Export Plug-In . SVG Version: 6.00 Build 0)  -->
<!DOCTYPE svg PUBLIC "-//W3C//DTD SVG 1.1//EN" "http://www.w3.org/Graphics/SVG/1.1/DTD/svg11.dtd">
<svg version="1.1" id="Layer_1" xmlns="http://www.w3.org/2000/svg" xmlns:xlink="http://www.w3.org/1999/xlink" x="0px" y="0px"
	 width="340px" height="340px" viewBox="0 0 340 340" style="enable-background:new 0 0 340 340;" xml:space="preserve">
<style type="text/css">
                .st0{fill:#071C2C;}
                .st1{fill:#FFFFFF;}
    svg:hover {  cursor:pointer;}
                svg:hover .st0 {  fill:#830065;}
</style>
<g>
	<g>
		<path class="st0" d="M170,302.4c-2.2,0-4.2-1.2-5.3-3.1L92.9,168.8C85.8,155.8,82,141,82,126c0-48.8,39.5-88.5,88-88.5
			c48.5,0,88,39.7,88,88.5c0,14.9-3.8,29.7-10.9,42.8l-71.8,130.5C174.2,301.2,172.2,302.4,170,302.4z M170,43.6
			c-45.2,0-82,37-82,82.5c0,14,3.5,27.7,10.2,39.9L170,296.4l71.8-130.5C248.5,153.8,252,140,252,126C252,80.6,215.2,43.6,170,43.6z
			"/>
	</g>
	<g>
		<path class="st0" d="M170,165c-21.4,0-38.9-17.5-38.9-39c0-21.5,17.4-39.1,38.9-39.1c21.4,0,38.9,17.5,38.9,39.1
			C208.9,147.5,191.4,165,170,165z M170,89.9c-19.8,0-35.9,16.2-35.9,36.1c0,19.9,16.1,36,35.9,36c19.8,0,35.9-16.2,35.9-36
			C205.9,106.1,189.8,89.9,170,89.9z"/>
	</g>
</g>
</svg>
