<?xml version="1.0" encoding="utf-8"?>
<!-- Generator: Adobe Illustrator 19.2.0, SVG Export Plug-In . SVG Version: 6.00 Build 0)  -->
<!DOCTYPE svg PUBLIC "-//W3C//DTD SVG 1.1//EN" "http://www.w3.org/Graphics/SVG/1.1/DTD/svg11.dtd">
<svg version="1.1" id="Layer_1" xmlns="http://www.w3.org/2000/svg" xmlns:xlink="http://www.w3.org/1999/xlink" x="0px" y="0px"
	 viewBox="0 0 340 340" style="enable-background:new 0 0 340 340;" xml:space="preserve">
<style type="text/css">
                .st0{fill:#071C2C;}
                .st1{fill:#FFFFFF;}
    svg:hover {  cursor:pointer;}
                svg:hover .st0 {  fill:#830065;}
</style>
<g>
	<g>
		<path class="st0" d="M138.8,254h-38.4c-1.7,0-3-1.3-3-3V69.1c0-1.7,1.3-3,3-3h78.8c46.8,0,63.5,31.7,63.5,61.3
			s-16.7,61.3-63.5,61.3h-37.4V251C141.8,252.7,140.4,254,138.8,254z M103.4,248h32.4v-62.2c0-1.7,1.3-3,3-3h40.4
			c19.4,0,34.3-5.7,44.3-17.1c8.5-9.5,13.1-23.1,13.1-38.3s-4.7-28.7-13.1-38.3c-10.1-11.3-25-17.1-44.3-17.1h-75.8V248z
			 M168.7,157.7h-29.9c-1.7,0-3-1.3-3-3v-54.5c0-1.7,1.3-3,3-3h29.9c11.3,0,19.4,1.7,25.2,5.4c7.7,4.8,11.6,13.2,11.6,24.9
			C205.4,154.6,184.4,157.7,168.7,157.7z M141.8,151.7h26.9c21.9,0,30.8-7,30.8-24.3s-8.9-24.3-30.8-24.3h-26.9V151.7z"/>
	</g>
</g>
</svg>
