<?xml version="1.0" encoding="utf-8"?>
<!-- Generator: Adobe Illustrator 19.2.1, SVG Export Plug-In . SVG Version: 6.00 Build 0)  -->
<!DOCTYPE svg PUBLIC "-//W3C//DTD SVG 1.1//EN" "http://www.w3.org/Graphics/SVG/1.1/DTD/svg11.dtd">
<svg version="1.1" id="Layer_1" xmlns="http://www.w3.org/2000/svg" xmlns:xlink="http://www.w3.org/1999/xlink" x="0px" y="0px"
	 width="340px" height="340px" viewBox="0 0 340 340" style="enable-background:new 0 0 340 340;" xml:space="preserve">
<style type="text/css">
                .st0{fill:#071C2C;}
                .st1{fill:#FFFFFF;}
    svg:hover {  cursor:pointer;}
                svg:hover .st0 {  fill:#830065;}
</style>
<g>
	<polygon class="st0" points="125.6,202.5 117.6,205.7 96.7,207.5 109,210.7 102.9,213.8 128.2,213.2 145.4,215.7 136.8,211.3 
		154.1,208 134.2,207.1 	"/>
</g>
<g>
	<path class="st1" d="M93.4,167.5c0.6,0,1.2,0,1.8-0.3c0.3-0.2,0.7-0.5,0.9-0.8c0.1-0.1,0.2,0.5,0.3-0.5h-6.1
		C91.1,167,92.2,167.5,93.4,167.5z"/>
	<g>
		<path class="st1" d="M82.2,131.1c-1-2-3.4-2.9-5.5-1.9c-2,1-2.9,3.4-1.9,5.5l4.9,10.3l7.6,16h9.1l-11.6-24.3L82.2,131.1z"/>
	</g>
</g>
<path class="st0" d="M115.8,115.4l-2.3-0.9c0-0.2,0.1-0.3,0.1-0.5c2.4-9.3-2.5-18.8-11.4-22.3c-8.9-3.4-18.9,0.4-23.3,8.9
	c-0.1,0.2-0.2,0.4-0.3,0.6c-0.3,0-0.7,0.2-1,0.4c-1.1,0.9-2,3.2-1.8,4.6c0.1,0.7,0.5,1.2,1.1,1.5l2.3,0.9c-1.2,2.7-1.5,5.8-0.9,8.8
	c0.2,1.1,0.5,2.1,0.9,3c-4.5-0.4-9.6,1.4-13.7,6.2c-7.3,8.9-10.6,15.5-13.5,26.9l0,0.2c-1,6.1,0.7,10.8,5.3,13.8
	c0.1,0.2,0.1,0.3,0.2,0.5l0,0.1c0.2,0.6,2.9,7.7,2.9,17.2c0,6-1,11.7-3.1,17c-0.9,2.4-0.8,4.9,0.2,7.2c1,2.3,2.9,4.1,5.3,5
	c1.1,0.4,2.2,0.6,3.3,0.6c3.9,0,7.5-2.4,8.9-6.1c2.9-7.5,4.3-15.5,4.3-23.7c0-12.1-3.1-21.1-4.2-24.1c1.2-4.2,3.3-8.3,5.2-11.6
	l5.5,11.4h-1.4c-0.8,0-1.4,0.5-1.4,1.3v2.9c0,0.8,0.6,1.7,1.4,1.7h1.3c0,0.1,0.3,0.1,0.3,0.2v19.7c0,0.9,0.4,1.1,1.3,1.1H88v4.2
	c0,0.9,0.3,1.8,1.2,1.8H89v19.1c0,0.9,1,1.9,1.9,1.9h3.3c0.9,0,1.8-1.1,1.8-1.9V194h-0.2c0.9,0,1.2-1,1.2-1.8V188h0.8
	c0.9,0,1.2-0.2,1.2-1.1v-19.7c0-0.1,0.4-0.1,0.3-0.2h1.6c0.8,0,1-0.9,1-1.7v-2.9c0-0.8-0.2-1.3-1-1.3h-2.7l-10.9-22.6l0.8-2.3
	c1-2.6,1.2-5.1,0.8-7.4c1.2,0.3,2.4,0.4,3.6,0.4c1,0,1.9-0.1,2.9-0.3c3.8-0.8,7.2-3,9.3-6.2c0.7-1.1,1.3-2.3,1.7-3.5l6.7,2.6
	c0.4,0.2,0.8,0.2,1.2,0.2c0.5,0,0.9-0.1,1.4-0.3c0.8-0.4,1.5-1.1,1.8-1.9C118.4,118.1,117.5,116.1,115.8,115.4z M71.9,161.4
	c0.1,0.1,0.2,0.3,0.2,0.4c0.2,0.5,4.1,9.9,4.2,23.3c0,6.7-1,14.5-4.1,22.6c-1,2.6-3.4,4.1-6,4.1c-0.8,0-1.5-0.1-2.3-0.4
	c-3.3-1.3-5-5-3.7-8.3c2.4-6.4,3.1-12.6,3.1-18c0-10.2-2.9-18.8-3.5-19.6c-3.3-1.8-5.9-5-4.8-11.3c2.8-11.1,5.9-17.2,12.8-25.6
	c5.1-6.1,11.9-6.1,15.6-3.5c2.7,1.9,3.3,5.8,2.1,9.4l-2-4.1c-1.4-2.8-4.7-4-7.5-2.6c-1.4,0.7-2.4,1.8-2.9,3.2
	c-0.5,1.4-0.4,2.9,0.2,4.3l5.3,11C75.9,151,73.3,156.2,71.9,161.4z M84,165v-3h2.3l1.5,3H84z M95,186v6h-1v21h-3v-21h-1v-6h-2v-19
	h0.9c1,2,2.6,2.3,4.3,2.3c0.1,0,0.1,0.1,0.2,0.1c0.8,0,1.6-0.2,2.4-0.5c0.4-0.2,1-0.5,1.4-0.8c0.2-0.2-0.3,18-0.3,18H95z M101,162v3
	h-2.1c0.2-1,0.2-2-0.2-3H101z M97.1,161.9c0,0.1,0.1,0.2,0.1,0.2c0.4,0.9,0.4,1.9,0.1,2.7c-0.2,0.7-0.6,1.4-1.2,1.9
	c-0.3,0.2-0.6,0.5-0.9,0.6c-0.6,0.3-1.2,0.4-1.8,0.4c-1.5,0-3-0.9-3.7-2.3l-0.1-0.2l-0.2-0.4l-1.3-2.7l-8.4-17.4l-4.9-10.1
	c-1-2-0.1-4.5,1.9-5.5c2-1,4.4-0.2,5.4,1.8c0,0,0,0,0,0.1l2.6,5.4l1.9,3.9l0,0L97.1,161.9z M102.2,120.9c-3.3,4.9-9.6,6.5-14.7,4
	c-0.6-0.9-1.4-1.7-2.3-2.4c-0.6-0.4-1.1-0.7-1.8-1c-2.5-3.3-3.1-7.9-1.3-11.7l21.5,8.3C103.3,119.1,102.8,120,102.2,120.9z
	 M115.6,119c-0.1,0.3-0.3,0.5-0.6,0.7c-0.3,0.1-0.6,0.1-0.9,0l-36.1-13.9c0-0.6,0.5-1.7,0.8-2.2l1,0.4l0.4-1
	c0.2-0.5,0.4-0.9,0.6-1.3c3.9-7.5,12.7-10.8,20.5-7.8c7.8,3,12.1,11.4,10,19.6c-0.1,0.5-0.3,0.9-0.4,1.4l-0.4,1l4.3,1.7
	C115.6,117.7,115.9,118.4,115.6,119z"/>
<path class="st0" d="M308.6,145.5l-2.4-3.4c-0.5-0.7-1.4-0.8-2-0.4l-3.4,2.1c-3.5-6.7-7.5-11.7-12.1-15.4
	c-5.2-4.3-11.5-6.4-17.8-6.4c-0.1,0-0.1,0-0.2,0c-6.3,0-12.3,1.8-18.5,5.8l-0.5,0.2c-0.5,0.4-1.1,0.7-1.5,1.1
	c-0.3-0.1-0.6-0.1-0.9,0c-3.8,0.4-7.4,1.8-10.1,3.9c-0.6,0.5-1.2,1-1.7,1.5c0.4-1.2,0.7-2.5,0.8-3.9c0.5-4.7-0.6-9.2-3.1-13.1
	l3.8-1.5c0.8-0.3,1.3-1,1.5-1.9c0.3-1.8-0.9-4.9-2.3-6.1c-0.4-0.3-0.9-0.5-1.3-0.6c-0.1-0.3-0.3-0.6-0.4-0.9
	c-5.8-11.2-19.1-16.3-30.9-11.8c-11.8,4.5-18.2,17.2-15.1,29.5c0.1,0.2,0.1,0.4,0.2,0.7l-3,1.2c-2.3,0.9-3.5,3.5-2.6,5.9
	c0.4,1.1,1.3,2,2.4,2.5c0.6,0.3,1.2,0.4,1.8,0.4c0.6,0,1.1-0.1,1.6-0.3l8.1-3.1c0.5,3.3,1.9,6.6,4.1,9.4c3.9,4.9,9.7,7.4,15.5,7.4
	c4.4,0,8.8-1.4,12.4-4.4c1.3-1.1,2.5-2.3,3.5-3.6c-0.1,0.7-0.2,1.3-0.3,2c-0.4,4.9,1.8,10.1,5.5,13.9l0.4,0.3c0,0,0,0.1,0,0.1
	c0,8.5-3.6,16.2-10.5,23.6c-2.4,2.5-3.2,6.3-1.8,9.5l-31.4,19.7c-3.1,1.7-8.6,4.6-13,6.9c-0.1,0-0.1,0.1-0.2,0.1
	c-0.4-0.4-0.8-0.7-1.2-1.1l-4.6-3.4L177,212c-2.3-1.3-4.4-2-6.3-2c-6.1,0-8.3,3.9-9.8,6.7c-0.8,1.5-1.5,2.7-2.5,3.2
	c-1.8,0.8-3.1,2-4.4,3.1c-1.7,1.6-3.5,3.2-6.9,4.2c-3.9,1.1-5.4,3.6-6.8,5.9c-1.2,2-2.3,3.8-4.9,5.3c-2,1.1-3.5,1.7-5,2.2
	c-3,1.1-5.7,2-9.4,7.1l-0.4,0.5l0.1,0.6c0.4,2.1,2.9,3.2,4.8,3.8c7.6,2.5,26.8,3.6,46.1,3.6c23.9,0,48-1.6,50.7-4.1
	c0.5-0.5,0.8-1.1,0.6-1.8c-1.8-7.7-7.3-11-15.2-13.6c-3.4-1.2-5.1-4-6.7-6.7c-1.7-2.9-3.5-5.9-7.3-5.9c-0.1,0-0.2,0-0.4,0
	c3.8-2.2,7.3-4.7,9.3-6.7c1.2-1.2,0.8-2.5,0.3-3.6l30.4-19.1c0.3,0.2,0.6,0.3,1,0.3c3,0.5,6-0.5,8-2.6c1.1-1.2,2.2-2.4,3.3-3.7
	c0.1-0.1,0.1-0.2,0.2-0.3l1.8-2.7l7.7-4.9c-4.1,3.9-7.5,8.2-10.1,12.8c-4,7-6.1,14.8-6.1,22.6c0,10.7,3.8,21.5,11.2,32.5
	c2.3,3.3,6.1,5.2,10.1,5.2c0,0,0,0,0,0c2.4,0,4.8-0.6,6.8-1.9c2.7-1.8,4.5-4.5,5.2-7.7c0.6-3.2,0-6.4-1.9-9
	c-4.7-7-7.1-13.2-7.1-19.1c0-3.3,0.7-6.2,2.2-9.3c0.1-0.3,0.3-0.6,0.4-0.8c0.6,5.5,1.8,10.8,3.6,15.8c3.5,10,9.3,18.8,17.1,26.1
	c0,0,0.1,0.1,0.1,0.1c4.9,4.5,12.6,4.3,17.2-0.6c2.2-2.4,3.4-5.5,3.3-8.7c-0.1-3.2-1.5-6.2-3.9-8.5c-5-4.7-8.6-10.1-10.8-16.5
	c-1.8-5.1-2.7-10.8-2.7-16.8c0-7,1.3-12.6,1.7-14.1l0,0c1.4-3.4,1.6-7.4,0.5-11.8c0-0.1,0-0.2-0.1-0.3c-1.4-3.9-2.8-7.4-4.2-10.4
	l1.6-1c1.6,1.4,3.7,2.3,5.9,2.3c1.3,0,2.5-0.3,3.6-0.8c4-1.8,6.1-6.3,5-10.6l4.4-2.8c0.3-0.2,0.6-0.6,0.7-1
	C308.9,146.3,308.8,145.8,308.6,145.5z M189.7,131.8c-0.4,0.1-0.8,0.1-1.2,0c-0.4-0.2-0.7-0.5-0.8-0.9c-0.3-0.8,0.1-1.7,0.9-2
	l5.7-2.2l-0.5-1.4c-0.2-0.6-0.4-1.2-0.6-1.8c-2.8-10.8,2.9-21.9,13.2-25.9c2.6-1,5.2-1.5,7.8-1.5c7.9,0,15.5,4.4,19.3,11.8
	c0.3,0.5,0.5,1.1,0.8,1.7l0.6,1.4l1.3-0.5c0.5,0.6,1.1,2.1,1.1,2.9L189.7,131.8z M228.6,141.1c-7,5.6-17.2,4.5-22.8-2.5
	c-2-2.5-3.2-5.5-3.5-8.4l29.2-11.3C236.6,125.8,235.4,135.7,228.6,141.1z M241.5,136.1c0.1-0.1,0.2-0.1,0.2-0.2c0,0,0,0,0.1,0
	c0.1,0,0.1-0.1,0.2-0.1c0,0,0.1,0,0.1-0.1c0.1,0,0.1-0.1,0.2-0.1c0,0,0,0,0.1,0c0.1-0.1,0.2-0.1,0.2-0.2c0,0,0,0,0,0
	c0.1-0.1,0.2-0.1,0.3-0.2c0,0,0,0,0,0c0.1,0,0.2-0.1,0.2-0.1c0,0,0,0,0.1,0c0.1,0,0.2-0.1,0.2-0.1c0,0,0,0.1,0,0.1
	c0.1,0,0.2,0,0.3,0c0,0,0,0,0,0c-0.8,1-1.4,2.2-1.7,3.5c-0.7,3.1,0.3,6.1,2.5,8.3c3.3,3.1,8.3,3.3,11.8,0.4c0.3-0.2,0.6-0.5,0.8-0.7
	c0,0,0,0,0,0v0l0.1-0.1c0.2-0.2,0.5-0.4,0.8-0.8c0.7-0.6,1.9-1.6,3.3-2.6c0.9-0.6,1.7-1.1,2.6-1.5c1.6-0.6,3.1-0.9,4.5-1
	c5.5,5.3,9.5,10,12.8,15.5l-25.7,16.2c-2.5-3.4-10.1-13-12.6-16.3c0,0,0,0,0,0c-0.3-0.3-0.6-0.7-0.8-1
	C236.9,149.4,235.8,140.4,241.5,136.1z M273.1,139.9c1.3,0.3,2.7,1,4.5,2.4c2,1.6,4.9,4.8,8,11l-1.3,0.8
	C281.4,149.2,277.9,144.8,273.1,139.9z M232.1,182.5c7.5-8,10.1-15.6,10.8-21.7c1.1,1.5,2.7,3.4,4.7,6c2,2.5,4.3,5.5,5.4,6.9
	l-22.4,14C230.3,186,230.8,184,232.1,182.5z M193.7,227.1c2,0,3.1,1.6,4.7,4.4c1.7,2.9,3.8,6.5,8.3,8c7.9,2.7,11.5,5.6,13,10.6
	c-8,2.8-76.4,5.6-93.6-0.4c-1.2-0.4-1.9-0.8-2.2-1.1c2.9-3.6,4.7-4.3,7.4-5.3c1.5-0.5,3.2-1.2,5.4-2.4c3.3-1.9,4.8-4.3,6-6.4
	c1.3-2.2,2.3-3.8,5-4.6c4.1-1.1,6.2-3.1,8.1-4.8c1.2-1.1,2.2-2,3.6-2.6c1.9-0.9,2.9-2.7,3.9-4.4c1.5-2.6,2.9-5.1,7.2-5.1
	c1.4,0,3,0.5,4.8,1.6l4.5,3.3c0.1,0.1,0.2,0.2,0.3,0.2c-1.3,0.7-2.5,1.3-3.3,1.7c-0.6,0.3-0.9,1-0.8,1.6c0.7,3.7,1.9,4.8,4.4,7.1
	c0.3,0.3,0.6,0.4,1,0.4c0.1,0,0.2,0,0.3,0c2.2-0.4,5.1-1.5,8-2.9C191.1,226.7,192.4,227.1,193.7,227.1z M288.7,172.2
	c1,4.1,0.7,7.3-0.4,9.9c0,0.1,0,0.2-0.1,0.2c-0.6,2.3-1.7,7.9-1.7,14.7c0,5.4,0.7,11.6,2.8,17.6c2.1,6.1,5.6,12,11.4,17.4
	c3.6,3.4,3.8,9.1,0.4,12.7c-1.8,1.9-4.2,2.9-6.6,2.9c-2.2,0-4.5-0.8-6.5-2.4v0c-8-7.5-12.9-16.2-15.9-24.6c-2.8-8.1-3.7-16-3.7-22.8
	c-2.1,2.3-4,4.9-5.4,7.7c-1.5,3.2-2.5,6.5-2.5,10.4c0,5.3,1.7,12,7.4,20.5c2.8,4.1,1.7,9.9-2.4,12.7c-1.5,1-3.3,1.7-5,1.7
	c0,0,0,0,0,0c0,0,0,0,0,0c-2.9,0-5.7-1.6-7.5-4.2c-7.3-10.7-10.5-21.2-10.5-30.7c0-8,2.3-15.1,5.6-20.9c3.5-6.2,8.1-11,12.5-14.8
	c-0.4-0.8-0.7-1.5-1.1-2.3l25.3-15.9C286.1,165.3,287.4,168.6,288.7,172.2z M239.1,189.2l-7.2,4.5L201,213.1c0.8,1.4,1.4,2.3,0.7,3
	c-2.2,2.2-6.3,5-10.4,7.2c-0.1,0.1-0.3,0.1-0.4,0.2c0,0,0,0,0,0c-0.3,0.1-0.5,0.3-0.8,0.4c0,0,0,0,0,0c-0.4,0.2-0.8,0.4-1.2,0.6
	c0,0,0,0,0,0c-0.3,0.1-0.5,0.2-0.8,0.4c-2.3,1.1-4.5,1.9-6.3,2.2c-2.5-2.3-3.3-3.1-3.9-6.2c0.8-0.4,2-1.1,3.4-1.8l0,0
	c0.3-0.2,0.6-0.3,0.9-0.5c0,0,0.1,0,0.1-0.1c0.1,0,0.2-0.1,0.3-0.1c0,0,0,0,0,0c0.1,0,0.2-0.1,0.2-0.1c0.1,0,0.1-0.1,0.2-0.1
	c0.1,0,0.1-0.1,0.2-0.1c0,0,0,0,0.1,0c0.1,0,0.2-0.1,0.2-0.1c4.6-2.4,10.4-5.5,13.7-7.3l31.2-19.5l2.3-1.4l23.3-14.6v0l2.6-1.6v0
	l26.5-16.6l2.1-1.3l1.2-0.7c0.2,0.5,0.5,1,0.7,1.6c0.3,0.7,0.7,1.4,1.3,2L239.1,189.2z M300,152.1C300,152.1,300,152.1,300,152.1
	c0,0.1,0.2,0.3,0.2,0.4c-0.1,2.1-1.1,4.1-3.2,5.1c-0.8,0.3-1.6,0.5-2.3,0.5c-0.8,0-1.6-0.2-2.3-0.5c-0.1,0-0.1,0-0.2-0.1
	c0,0,0,0,0,0c0,0-0.1,0-0.1-0.1c0,0,0,0,0,0c-0.1,0-0.1-0.1-0.2-0.1c0,0,0,0,0,0c-0.1,0-0.1-0.1-0.2-0.1c0,0,0,0,0,0
	c-0.1-0.1-0.2-0.1-0.3-0.2c0,0,0,0,0,0c-0.1-0.1-0.2-0.2-0.3-0.2c-0.1-0.1-0.3-0.2-0.4-0.3c-0.5-0.5-0.9-1.1-1.2-1.8
	c-0.3-0.7-0.6-1.3-0.9-1.9c0,0,0,0,0,0c0-0.1-0.1-0.2-0.1-0.2c0-0.1-0.1-0.2-0.1-0.3c-3-6.2-6.1-9.9-8.9-12.1
	c-3.1-2.5-5.8-3.2-8.5-3.2c-0.4,0-0.8,0-1.2,0.1c0,0,0,0,0,0l0,0c-0.3,0-0.6,0.1-0.8,0.1c-3.1,0.5-6.2,1.9-8.6,3.5
	c-1.5,1-2.7,2-3.6,2.7c-0.4,0.4-0.7,0.7-0.9,0.8c-0.1,0.1-0.2,0.2-0.2,0.2c0,0,0,0,0,0v0c-0.2,0.2-0.3,0.3-0.5,0.5
	c-2.2,1.8-5.5,1.7-7.6-0.3c-1.4-1.3-1.9-3.1-1.8-4.8c0,0,0,0,0,0c0,0,0-0.1,0-0.2c0,0,0,0,0-0.1c0,0,0-0.1,0-0.1c0,0,0-0.1,0-0.1
	c0,0,0-0.1,0-0.1c0-0.1,0-0.1,0-0.2c0.2-1,0.7-1.9,1.4-2.7c0,0,0,0,0,0c0,0,0,0,0,0c0,0,0,0,0,0c0,0,0,0,0,0l0,0c0,0,0,0,0,0
	c0,0,0.1-0.1,0.2-0.2c0,0,0,0,0,0c0,0,0.1-0.1,0.1-0.1c0,0,0,0,0,0c0.1-0.1,0.3-0.3,0.5-0.4c0,0,0,0,0,0c0,0,0,0,0,0c0,0,0,0,0,0
	c0,0,0,0,0,0c0.1-0.1,0.3-0.3,0.4-0.4c0,0,0,0,0,0c0,0,0,0,0,0c0,0,0.1,0,0.1-0.1c0,0,0,0,0,0c0,0,0.1,0,0.1-0.1l0,0c0,0,0,0,0,0
	c0.2-0.2,0.5-0.4,0.8-0.7c0,0,0,0,0,0c0,0,0.1,0,0.1-0.1c0,0,0,0,0,0c0.1-0.1,0.1-0.1,0.2-0.2c0,0,0,0,0,0c0,0,0,0,0,0
	c0,0,0.1,0,0.1-0.1c0,0,0,0,0,0c0.1,0,0.1-0.1,0.2-0.1c0,0,0,0,0,0c0.2-0.1,0.4-0.3,0.5-0.4l0,0c0,0,0,0,0,0
	c0.3-0.3,0.7-0.5,1.1-0.8c0,0,0,0,0,0c0,0,0,0,0,0c0,0,0.1-0.1,0.1-0.1c0,0,0,0,0.1,0c0,0,0.1,0,0.1-0.1c0,0,0,0,0.1,0c0,0,0,0,0,0
	c0,0,0.1-0.1,0.1-0.1c0,0,0,0,0,0c0.1-0.1,0.2-0.1,0.3-0.2c0,0,0,0,0,0c0.4-0.3,0.8-0.6,1.3-0.9c0.1-0.1,0.3-0.2,0.5-0.3
	c4.1-2.6,9.7-5.2,16.5-5.3c5.1,0,10.7,1.7,15.7,5.7c4.2,3.3,8,8.1,11.4,14.7c0.1,0.1,0.1,0.2,0.2,0.4c0.1,0.2,0.2,0.4,0.3,0.5
	c0,0,0,0,0,0c0.1,0.2,0.2,0.3,0.3,0.5c0.5,0.9,0.9,1.9,1.3,2.9c0.1,0.2,0.1,0.3,0.2,0.5c0.1,0.2-0.1,0.3,0,0.5
	c0,0.1-0.1,0.3-0.1,0.4c0,0,0,0,0,0c0,0.1,0.2,0.7,0.2,0.7h-0.1C300.1,152,300,152,300,152.1z M303.3,149c-0.6-1.3-1.1-2.5-1.8-3.8
	l3.1-1.9l2.4,3.4L303.3,149z"/>
</svg>
