<?xml version="1.0" encoding="utf-8"?>
<!-- Generator: Adobe Illustrator 19.2.0, SVG Export Plug-In . SVG Version: 6.00 Build 0)  -->
<!DOCTYPE svg PUBLIC "-//W3C//DTD SVG 1.1//EN" "http://www.w3.org/Graphics/SVG/1.1/DTD/svg11.dtd">
<svg version="1.1" id="Layer_1" xmlns="http://www.w3.org/2000/svg" xmlns:xlink="http://www.w3.org/1999/xlink" x="0px" y="0px"
	 viewBox="0 0 340 340" style="enable-background:new 0 0 340 340;" xml:space="preserve">
<style type="text/css">
	.st0{fill:#071C2C;}
</style>
<path class="st0" d="M317.1,171.9c-3.1-23.5-9.4-40.9-18.8-51.8c-7.4-8.7-14.8-10.5-16.6-10.8c-0.9-0.2-2-0.5-3.3-0.7
	c0.3-0.2,0.6-0.3,0.9-0.5c4.7-2.9,7.9-7.4,9.1-12.8c2.6-11-4.3-22.1-15.3-24.6c-11-2.6-22.1,4.3-24.6,15.3
	c-1.2,5.3-0.3,10.8,2.6,15.5c1.9,3,4.5,5.4,7.5,7.1c-1.3,0.2-2.5,0.5-3.3,0.7c-1.8,0.3-9.2,2.1-16.6,10.8
	c-7.4,8.6-12.8,21.2-16.4,37.7c-0.4-0.7-0.8-1.5-1.3-2.2c-1-1.7-2.2-3.6-3.8-5.5c-1.2-1.4-2.6-2.8-4.7-3.9c-1-0.6-2.6-1.3-4.7-1.8
	c5.2-3.5,8.7-9.4,8.7-16.1c0-10.7-8.7-19.4-19.4-19.4c-10.7,0-19.4,8.7-19.4,19.4c0,6.7,3.4,12.6,8.6,16.1c-0.3,0-0.5,0.1-0.8,0.1
	c-0.7,0.1-7.1,1.5-13.4,9.2c-0.5,0.6-0.9,1.1-1.4,1.8c-0.1-0.2-0.1-0.3-0.2-0.5c-2-5-4.5-8.8-7.6-11.7c-3.2-3-7.1-4.9-11.1-5.2
	c-0.2,0-0.4,0-0.6,0c4.2-3.7,6.8-9,6.8-15c0-11.1-9-20.1-20.1-20.1c-11.1,0-20.1,9-20.1,20.1c0,6,2.7,11.4,6.8,15
	c-0.9,0-1.8,0.2-2.6,0.5c-2.1,0.6-4.1,1.8-5.6,3.3c-3.1,3-4.5,6.3-5.9,9.5l-0.2,0.4c-0.4,1-0.8,2-1.2,3.1
	c-0.5-18.8-3.5-32.3-9.4-41.2c-2.7-4.1-6-7.2-9.7-9c-3.3-1.6-6.1-2.5-8-2.5c-0.1,0-0.3,0-0.4,0h-3.9c6.2-3.7,10.3-10.5,10.3-18.2
	c0-11.7-9.5-21.3-21.3-21.3S45.7,72,45.7,83.8c0,7.7,4.2,14.5,10.3,18.2h-3.9c-0.1,0-0.3,0-0.4,0c-1.9,0-4.7,0.6-8,2.3
	c-4,2-9.7,6.6-13.6,16.7c-3.7,9.4-5.6,22-5.6,38.4c0,4.7,0.2,9.7,0.5,15c0.3,5.4,4.8,9.6,10.1,9.6c0.2,0,0.3,0,0.5,0
	c2.5-0.1,5.3-1.2,6.3-2.8v59.1c0,7.4,6.2,13.5,13.6,13.5c4.7,0,8.9-2.4,11.3-6.1c2.4,3.7,6.7,6.1,11.4,6.1c7.4,0,13.6-6.1,13.6-13.5
	V182c1,1.4,2.6,2.4,4.4,2.9c2.1,0.6,4.1,0.9,6.2,0.9c3.3,0,6.8-0.8,9.6-2.4c1.8-1,2.8-2.2,4.8-3.5v5.1v4v52.7c0,6.6,5.1,12,11.8,12
	c3.9,0,7.2-1.9,9.4-4.8c2.2,2.9,5.8,4.8,9.7,4.8c6.6,0,12.1-5.4,12.1-12v-42.8c1.6,1.9,4,3.1,6.9,3.1h0.1c1.5,0,3-0.2,4.3-0.9
	c-0.3,4.1-0.5,8-0.5,11.2c0,0.2,0,0.5,0.1,0.8c1.2,9.4,26,10.2,26.3,10.2s25-0.7,26.3-10.1c0-0.2,0.1-0.5,0.1-0.7
	c0-6.8-0.8-16.3-2.4-28.4c1.4,0.5,2.9,0.9,4.4,0.9c0,0,0,0,0,0c3.1,0,6.1-1.4,8.5-3.5l-2.6,12.8l-0.5,2.8l2.4,1.4
	c0,0,0.2,0.1,0.7,0.4c1.8,1,6.6,3.2,14.2,4.9v38.4c0,6.4,5.2,11.7,11.6,11.7c3.6,0,6.8-1.6,8.9-4.2c2.1,2.6,5.3,4.2,8.9,4.2
	c6.4,0,11.6-5.2,11.6-11.7v-38.5c7.5-1.7,12.3-4,14.1-4.9c0.4-0.2,0.6-0.4,0.6-0.4l2.4-1.5l-3.4-16.8c1.9,1.4,4.2,2,6.5,1.7
	C314.3,181.3,317.7,176.8,317.1,171.9z M252.4,86.8c2.1-8.9,10.9-14.4,19.8-12.3c8.9,2.1,14.4,10.9,12.3,19.8
	c-2.1,8.9-10.9,14.4-19.8,12.3C255.8,104.6,250.3,95.7,252.4,86.8z M181.8,128.2c0-8.5,6.9-15.4,15.4-15.4c8.5,0,15.4,6.9,15.4,15.4
	c0,8.5-6.9,15.4-15.4,15.4C188.6,143.6,181.8,136.7,181.8,128.2z M122,123c0-8.9,7.2-16.1,16.1-16.1c8.9,0,16.1,7.2,16.1,16.1
	s-7.2,16.1-16.1,16.1C129.2,139,122,131.8,122,123z M49.7,83.8c0-9.5,7.7-17.3,17.3-17.3c9.5,0,17.3,7.7,17.3,17.3
	c0,9.5-7.7,17.3-17.3,17.3C57.4,101.1,49.7,93.3,49.7,83.8z M156,241.7c0,4.4-3.6,8-8,8s-8-3.6-8-8V204h-4v37.7c0,4.4-3.1,8-7.5,8
	c-4.4,0-7.5-3.6-7.5-8V189h35V241.7z M267,242.2c0,4.2-3.3,7.7-7.5,7.7c-4.2,0-7.5-3.4-7.5-7.7v-37.6c4.3,0.7,9.3,1.3,15,1.3V242.2z
	 M285,242.2c0,4.2-3.3,7.7-7.5,7.7c-4.2,0-7.5-3.4-7.5-7.7v-36.3c5.7-0.1,10.7-0.6,15-1.4V242.2z M308.8,178
	c-2.7,0.4-5.2-1.6-5.6-4.3c-3.2-24-9.3-36.7-14.5-43.3c-0.1-0.1-0.1-0.1-0.2-0.2l13.2,64.9c0,0-0.2,0.1-0.5,0.3
	c-2.4,1.3-13.6,6.6-32.8,6.6s-30.4-5.4-32.8-6.6c-0.3-0.2-0.5-0.3-0.5-0.3l13.2-64.9c-5.2,6.5-11.5,19.3-14.7,43.5
	c-0.1,0.9-0.5,1.6-0.9,2.3c-0.2,0.8-0.7,1.7-1.3,2.3c-1.5,1.5-3.7,2.7-6,2.7c0,0,0,0-0.1,0c-1.5,0-2.9-0.5-4-1.1
	c-1.1-0.6-2-1.4-2.8-2.1c-1.2-1.1-2.1-2.4-3-3.7c2,12.9,3.9,28.2,3.9,38.5c0,0.1,0,0.1,0,0.2c-0.4,3.8-14.8,6.7-22.3,6.7
	c-7.6,0-21.9-2.9-22.3-6.7c0-0.1,0-0.1,0-0.2c0-12,2.7-31.2,4.9-45c-2.8,5.2-5.6,13.2-7,25.5c-0.1,1-0.5,1.7-1.1,2.4
	c-0.9,1.7-2.7,2.7-4.7,2.7c0,0,0,0-0.1,0c-2.9,0-4.9-1.9-4.9-4.9c0-0.1,0-0.2,0-0.3c0-11.3-1.1-20.2-2.8-26.7
	c-0.9-3.6-2.2-6.5-3.2-8.6V185h-35v-18.7c-1,1.6-1.7,3.2-2.6,4.8c-1.9,3.3-4.5,6.7-8.3,8.8c-2.2,1.2-4.8,2-7.6,2h-0.1
	c-1.7,0-3.4-0.4-5.1-0.8c-2-0.6-3.4-2.2-3.8-4.1c-0.6-1-1-2.3-0.9-3.6c0.3-5.1,0.4-9.8,0.4-14c0-15.4-1.7-25.2-3.9-31.2
	c-0.5-1.2-1.2-2.3-1.2-3.3v115.2c0,5.2-4.3,9.5-9.5,9.5c-5.2,0-9.5-4.2-9.5-9.5V171h-4v69.2c0,5.2-4.3,9.5-9.5,9.5
	c-5.2,0-9.5-4.2-9.5-9.5V125c-2,5.5-5.3,15.9-5.2,34.5c0,4.2,0.2,8.9,0.5,14c0.2,3.4-2.4,6.3-5.7,6.5c-0.1,0-0.2,0-0.4,0
	c-3.2,0-5.9-2.5-6.1-5.8c-0.3-5.3-0.5-10.2-0.5-14.7c0-17.4,2.1-28.9,5.3-36.9c3.1-7.9,7.6-12.4,11.7-14.5c2.6-1.3,5-2,6.3-2.1
	c0.1,0,0.2,0,0.2,0h29.7c0.1,0,0.2,0,0.2,0c1.4,0,3.7,0.5,6.3,1.9c2.7,1.4,5.7,3.9,8.2,7.7c5,7.7,8.7,20.6,8.8,43.8
	c0,3.4-0.1,7-0.3,10.8c0.1-0.1,0.2-0.1,0.3-0.2c1-0.7,2-2,3.1-3.7c2.1-3.5,3.8-8.5,5.7-13.1c1.3-3.1,2.5-6,5.1-8.5
	c1-1,2.4-1.9,4.1-2.4c0.5-0.2,1.1-0.3,1.7-0.3c0,0,1.1,0,1.3,0c0,0,2.2,0,5.2,0c2,0.7,4.1,1,6.3,1c2.2,0,4.3-0.4,6.3-1
	c4,0,7,0,7.1,0c3.3,0.3,6.4,1.8,8.8,4.1c2.8,2.6,4.9,6,6.6,10.3c1.1,2.6,2,5.6,2.7,8.9c1.8-3.8,3.5-6.7,5.5-9.1
	c5.1-6.3,9.9-7.7,10.9-7.9v0c1-0.2,0.8-0.1,1.1-0.2c1.7-0.3,3.9-0.7,6.8-0.9c1,0.2,2.1,0.3,3.2,0.3c1.1,0,2.1-0.1,3.1-0.3
	c5.9,0.3,8.9,1.5,10.3,2.3c1.6,0.8,2.7,2,3.6,3.1c1.3,1.5,2.3,3.1,3.4,4.9c2,3.4,4,7.3,5.7,10c0.3,0.5,0.7,1,1,1.5
	c3.7-24.7,10.7-38.6,17.4-46.4c6.5-7.6,12.7-9.2,14.4-9.5c1.4-0.4,6.7-1.6,12.4-1.6c5.7,0,11,1.3,12.4,1.6c1.7,0.3,7.9,1.9,14.4,9.5
	c7,8.2,14.3,22.9,17.8,49.7C313.5,175.1,311.6,177.6,308.8,178z"/>
<path class="st0" d="M199,219.6L199,219.6c0-0.1-0.8,0-1.9,0c-1.2,0-2.1-0.1-2.1-0.1v0.1c-4-0.1-12-0.6-17-3.7v29.3
	c0,3.6,4.8,8.2,10.5,8.2c3.5,0,6.7-1.7,8.5-4.4c1.9,2.7,5.1,4.4,8.6,4.4c5.6,0,10.4-4.6,10.4-10.2V216
	C212,219.1,204,219.6,199,219.6z M195,243.3c0,3.4-3,6.2-6.5,6.2s-6.5-2.8-6.5-6.2v-24c4,1.1,9,1.9,13,2.1V243.3z M212,243.3
	c0,3.4-3.1,6.2-6.5,6.2c-3.5,0-6.5-2.8-6.5-6.2v-21.9c4-0.2,9-1,13-2.1V243.3z"/>
</svg>
