<?xml version="1.0" encoding="utf-8"?>
<!-- Generator: Adobe Illustrator 19.2.1, SVG Export Plug-In . SVG Version: 6.00 Build 0)  -->
<!DOCTYPE svg PUBLIC "-//W3C//DTD SVG 1.1//EN" "http://www.w3.org/Graphics/SVG/1.1/DTD/svg11.dtd">
<svg version="1.1" id="Layer_1" xmlns="http://www.w3.org/2000/svg" xmlns:xlink="http://www.w3.org/1999/xlink" x="0px" y="0px"
	 width="340px" height="340px" viewBox="0 0 340 340" style="enable-background:new 0 0 340 340;" xml:space="preserve">
<style type="text/css">
                .st0{fill:#071C2C;}
                .st1{fill:#FFFFFF;}
    svg:hover {  cursor:pointer;}
                svg:hover .st0 {  fill:#830065;}
</style>
<path class="st0" d="M269.7,132.3c-3.2-8.2-17.8-14.7-43.5-19.5c-2.5-2-5.2-3.4-8.1-4.2c5.2-5,8.5-11.9,8.5-19.7
	c0-15-12.2-27.2-27.2-27.2s-27.2,12.2-27.2,27.2c0,13.6,10,24.9,23,26.9c-1.1,1.2-2,2.6-3,4.1c-0.6-1.2-1.5-2.4-2.6-3.3
	c-4.8-4.4-12.3-4-16.7,0.8c-12,13-23.1,14.7-30.4,14.7c0,0,0,0,0,0c-2.2,0-4.3-0.2-6.3-0.5c0-0.3,0-0.7,0-1
	c-0.5-4.4-1.9-8.3-3.9-11.5c1.5,0.2,3,0.3,4.4,0.3c13.9,0,26.6-9.6,29.9-23.7c1.9-8,0.5-16.2-3.8-23.1s-11.1-11.8-19.1-13.7
	c-16.5-3.8-33,6.4-36.8,22.9c-1.9,8-0.5,16.2,3.8,23.1c1,1.5,2.1,3,3.2,4.3c-4.6,0.1-9.4,1.4-13.6,3.8c-5,2.8-11.7,8.6-15.6,19.7
	c-7.8,23.3-9.4,38.8-6.5,63.9c0,0.2,0,0.3,0.1,0.5c3.4,17.8,14.9,22.6,23.6,23.9l-7.7,6.4c-8.4,6.9-9.6,19.2-2.7,27.7
	c3.8,4.6,9.3,7,15.3,7c0,0,0,0,0,0c4.6,0,9-1.4,12.6-4.3l50.1-41.3c6.4-5.3,8.8-14.3,6-22.1c-2.8-7.8-10.3-13.3-18.6-13.3h-27.7
	c0.6-8.8,2.1-17.6,3.8-26.1c3,0.4,6.2,0.7,9.6,0.7l0.4,0c9,0,25.6-2.3,41.6-16.7c-2,7.8-3.1,16.2-3.8,24.1c-0.1,0.7,0,1.4,0.2,2
	c-0.1,0-0.2,0.1-0.4,0.1c-5.3,1.7-8.3,7.5-6.5,12.8c0.9,2.9,3.1,5.2,5.8,6.3c0,6.5,0.1,13,0.5,18.9c0.4,6.2,7.1,7.7,16.1,8.1
	c-0.2,2.7-0.3,5.3-0.3,8c0,11.1,1.5,22.3,4.4,33.4c1.7,6.5,7.6,11,14.3,11c1.3,0,2.6-0.2,3.8-0.5c7.9-2.1,12.6-10.2,10.5-18.1
	c-2.3-8.6-3.4-17.2-3.4-25.8c0-3,0.1-6,0.4-9c5.7-0.6,10.9-1.3,14.8-2c4.7-0.9,13.5-2.7,13.1-9.7c-0.2-2.5-0.5-7.2-1.2-13.1
	c7.5-0.3,12.1-1.4,14.3-3.4C274.1,175.8,274.7,145,269.7,132.3z M178,88.9c0-11.9,9.6-21.5,21.5-21.5c11.9,0,21.5,9.6,21.5,21.5
	c0,8.1-4.5,15.2-11.2,18.9l0,0c-0.4,0.2-0.9,0.5-1.4,0.7c-0.2,0.1-0.3,0.2-0.5,0.2c-1.9,0.8-3.9,1.3-6,1.6l0,0
	c-0.8,0.1-1.6,0.1-2.4,0.1C187.6,110.4,178,100.8,178,88.9z M112.6,83c3.1-13.4,16.5-21.7,29.9-18.6c13.4,3.1,21.7,16.5,18.6,29.9
	c-3.1,13.4-16.5,21.7-29.9,18.6C117.8,109.8,109.5,96.4,112.6,83z M157.1,187c5.9,0,11.1,3.9,13,9.4c2,5.5,0.3,11.8-4.2,15.6
	l-50.4,41.5c-2.6,2.1-5.7,3.2-8.8,3.2c-4,0-8-1.7-10.7-5c-4.9-5.9-4-14.7,1.9-19.5l20.6-17.1h-2.7c-1.7,0-3.7,0.4-5.9,0.4
	c-10.2,0.1-22.4-1.7-25.8-19.5c-2.9-24.6-1.2-39.1,6.3-61.5c5.6-16.2,19.3-21.3,28.7-19c6.1,1.5,10,7.6,11.1,14.7
	c-1.4-0.4-2.7-0.9-3.7-1.3c-2.1-0.8-3.7-1.6-4.7-2.1c0,0,0,0,0,0c-0.5-0.3-0.9-0.5-1.1-0.6l-0.2-0.1c-5.5-3.5-12.8-2-16.3,3.5
	c-1.7,2.6-2.3,5.8-1.7,8.9c0.7,3.1,2.5,5.7,5.2,7.5l0.3,0.2c3.2,1.9,10,5.5,19.2,7.8c-2,10.4-4.1,22.6-4.1,33.3H157.1z M143.1,152.6
	l-0.4,0c-16.4-0.1-28.7-6.5-33.2-9.2l-0.2-0.1c-2-1.3-3.3-3.3-3.8-5.6c-0.5-2.3,0-4.6,1.2-6.6c1.7-2.6,4.5-4,7.4-4
	c1.7,0,3.3,0.5,4.8,1.4l0.2,0.1c0.3,0.1,0.7,0.4,1.2,0.7c0,0,0,0,0,0c1.1,0.6,2.8,1.4,5.1,2.3c3.9,1.5,10.1,3.4,17.2,3.4
	c0,0,0,0,0.1,0c7.8,0,19.7-1.8,32.6-15.7c3.3-3.6,8.9-3.8,12.5-0.6c1.3,1.2,2.3,2.8,2.7,4.5c-1.6,3.1-2.9,6.4-4,10
	C170,150,152.4,152.6,143.1,152.6z M177,177.1c-1.2-3.8,0.9-7.8,4.6-9c5-1.6,9.1-4.1,12.5-7.7c2.8-2.9,5.1-6.6,6.8-10.9
	c3.4-8.4,3.4-16.8,3.4-17.8l0-0.6c-0.1-1.9,0.6-3.7,1.9-5.2c1.3-1.4,3.1-2.2,5-2.3c0.1,0,0.2,0,0.3,0c1.8,0,3.5,0.7,4.8,1.9
	c1.4,1.3,2.2,3.1,2.3,5c0,0.1,0,0.5,0,1.2c0,2.9-0.3,8.7-2,15.6c-2.3,9.2-6.4,16.9-12.2,22.9c-5,5.3-11.2,9.1-18.4,11.4
	c-0.7,0.2-1.5,0.3-2.2,0.3C180.7,182.1,178,180.1,177,177.1z M220.9,204.7c-0.7,4.4-1.1,9.3-1.1,14.7c0,8.2,1,17.4,3.6,27.4
	c1.3,4.7-1.6,9.6-6.3,10.8c-0.8,0.2-1.5,0.3-2.3,0.3c-3.9,0-7.5-2.6-8.6-6.6c-3.1-11.6-4.2-22.3-4.2-31.9c0-5,0.3-9.6,0.8-13.9
	c-9.5,0-16.7-0.8-16.8-2.6c-0.3-5.1-0.5-11.3-0.5-18c0.4-0.1,0.9-0.2,1.3-0.3c7.7-2.5,14.3-6.6,19.7-12.2
	c6.1-6.4,10.5-14.6,12.9-24.3c1.8-7.2,2.1-13.3,2.1-16.3c0-0.8,0-1.3,0-1.4c-0.1-2.7-1.3-5.2-3.3-7.1c-2-1.8-4.6-2.8-7.3-2.7
	c-2.7,0.1-5.2,1.3-7,3.3c-1.8,2-2.8,4.6-2.7,7.3l0,0.5c0,0.9,0,8.8-3.2,16.6c-1.6,3.9-3.7,7.2-6.2,9.9c-1.6,1.6-3.3,3-5.3,4.2
	c1.9-20.9,6.9-41.2,17.9-47.3c0.2-0.1,0.4-0.2,0.6-0.3c0.2-0.1,0.3-0.1,0.5-0.2c0.2-0.1,0.4-0.2,0.7-0.3c0,0,0.1,0,0.1,0
	c0.5-0.2,1.1-0.4,1.6-0.5c0.1,0,0.1,0,0.2-0.1c0.9-0.2,1.9-0.4,2.9-0.4l0,0c0.2,0,0.3,0,0.5,0c25.4,0,34.9,56.8,36.7,85.5
	C248.6,201.4,235.3,203.6,220.9,204.7z M252.6,182.4c-1.4-11-3.9-25.4-8.2-38.7c-3.9-12-8.6-21-14-27c21.1,4.4,34,10.3,36.5,16.7
	c5.2,13.3,3.3,41.8-1.7,46.3C264.1,180.8,260.9,182.1,252.6,182.4z"/>
</svg>
