<?xml version="1.0" encoding="utf-8"?>
<!-- Generator: Adobe Illustrator 20.0.0, SVG Export Plug-In . SVG Version: 6.00 Build 0)  -->
<svg version="1.1" id="Layer_1" xmlns="http://www.w3.org/2000/svg" xmlns:xlink="http://www.w3.org/1999/xlink" x="0px" y="0px"
	 viewBox="0 0 340 340" style="enable-background:new 0 0 340 340;" xml:space="preserve">
<style type="text/css">
                .st0{fill:#071C2C;}
                .st1{fill:#FFFFFF;}
    svg:hover {  cursor:pointer;}
                svg:hover .st0 {  fill:#830065;}
</style>
<g>
	<polygon class="st0" points="222,92.6 227.3,101.3 223.3,104.3 	"/>
</g>
<path class="st0" d="M216.7,74.4c-1-0.1-2-0.1-3,0c-0.2,0-0.4,0.1-0.5,0.1c-0.6,0.1-1.2,0.3-1.9,0.6l-6.2-10.3l26.2-16.3l-24-40.3
	l-58.5,39.4l26,36.1l24.8-15.5l6.4,10.8c-1,1.3-1.9,3.1-2.2,5.1c-0.7,4-2.6,13.1-4.8,21.1c-2.7-8.7-10.8-15.1-20.5-15.1
	c-11.8,0-21.4,9.6-21.4,21.4c0,5.2,1.9,9.9,4.9,13.6c-1.5,0.3-3.3,0.8-5.2,1.7c-4,2-9.5,6.3-13.3,15.9c-3.4,8.6-5.1,20-5.1,34.8
	c0,4.2,0.1,8.7,0.4,13.4c0.4,6,5.4,10.8,11.4,10.8c0.2,0,0.4,0,0.6,0c1.1-0.1,2-0.3,3-0.6V249c0,7.9,6.6,14.4,14.5,14.4
	c3.9,0,7.5-1.5,10.1-4c2.6,2.5,6.1,4,10,4c8,0,14.4-6.5,14.4-14.4V143.7c3-1.8,5-4.2,7.3-7.4c3.8-5.2,7.1-12.1,9.9-20.5
	c1.8-5.3,3.3-11.2,4.5-17.4c0,0,0-0.1,0-0.1l1.3-7.5c0,0,0-0.1,0-0.1c0.2-1.1,0.3-2.3,0.5-3.4c0.4-3-0.4-6-2.3-8.5
	C222.4,76.4,219.7,74.8,216.7,74.4z M176.5,78.5l-22.2-29.7l51-34l19.2,32.6L176.5,78.5z M178.6,96.2c8.4,0,15.3,6.8,15.3,15.3
	c0,5.9-3.3,10.9-8.1,13.5c0,0,0,0,0,0c-0.3,0.2-0.6,0.3-1,0.5c-0.2,0.1-0.3,0.1-0.5,0.2c-0.3,0.1-0.7,0.3-1.1,0.4
	c-0.1,0-0.2,0.1-0.3,0.1c-0.3,0.1-0.7,0.2-1,0.3c-0.1,0-0.2,0.1-0.3,0.1c-0.4,0.1-0.8,0.1-1.3,0.2c-0.1,0-0.2,0-0.3,0
	c-0.5,0-0.9,0.1-1.4,0.1c-0.5,0-0.9,0-1.4-0.1c-0.1,0-0.2,0-0.3,0c-0.4,0-0.9-0.1-1.3-0.2c-0.1,0-0.2-0.1-0.3-0.1
	c-0.3-0.1-0.7-0.2-1-0.3c-0.1,0-0.2-0.1-0.3-0.1c-0.4-0.1-0.7-0.2-1.1-0.4c-0.2-0.1-0.3-0.1-0.5-0.2c-0.3-0.1-0.7-0.3-1-0.5
	c0,0,0,0,0,0c-4.8-2.6-8.1-7.6-8.1-13.5C163.4,103.1,170.2,96.2,178.6,96.2z M220.5,86.4c-0.1,1.1-0.3,2.2-0.5,3.3l-1.3,7.4
	c-1.2,6.1-2.6,11.7-4.3,16.7c-2.6,7.8-5.6,14.1-9,18.9c-2.3,3.2-4.8,5.7-8,7.3c-0.2,0.1-0.5,0.2-0.5,0.2v108.6
	c0,4.6-3.9,8.4-8.5,8.4c-4.6,0-8.5-3.8-8.5-8.4V188h-3v60.9c0,4.6-3.9,8.4-8.5,8.4c-4.6,0-8.5-3.8-8.5-8.4V147
	c-2,4.8-4.6,14.1-4.6,30.5c0,3.7,0.2,7.9,0.5,12.4c0.2,3-2.1,5.6-5.1,5.7c-0.1,0-0.2,0-0.3,0c-2.9,0-5.2-2.2-5.4-5.1
	c-0.3-4.7-0.4-9-0.4-13c0-15.4,1.9-25.6,4.7-32.6c2.8-7,6.7-11,10.3-12.8c2.3-1.2,4.4-1.3,5.6-1.3l26,0.2c0,0,0.7-0.2,1.2-0.5
	c0.5-0.3,1.3-0.9,2.1-1.7c1.7-1.7,3.7-4.7,5.7-8.7c3.9-7.9,7.4-19.9,9.4-34.7c0.9-4.6,4.7-5.1,4.7-5.1l0,0c0.5-0.1,0.9-0.1,1.4,0
	C218.8,80.7,220.9,83.5,220.5,86.4z"/>
</svg>
