<?xml version="1.0" encoding="utf-8"?>
<!-- Generator: Adobe Illustrator 19.2.1, SVG Export Plug-In . SVG Version: 6.00 Build 0)  -->
<!DOCTYPE svg PUBLIC "-//W3C//DTD SVG 1.1//EN" "http://www.w3.org/Graphics/SVG/1.1/DTD/svg11.dtd">
<svg version="1.1" id="Layer_1" xmlns="http://www.w3.org/2000/svg" xmlns:xlink="http://www.w3.org/1999/xlink" x="0px" y="0px"
	 width="340px" height="340px" viewBox="0 0 340 340" style="enable-background:new 0 0 340 340;" xml:space="preserve">
<style type="text/css">
                .st0{fill:#071C2C;}
                .st1{fill:#FFFFFF;}
    svg:hover {  cursor:pointer;}
                svg:hover .st0 {  fill:#830065;}
</style>
<g>
	<g>
		<path class="st0" d="M132.7,259.7c-1.1,0-2.3-0.1-3.4-0.3c-5.4-1-9.6-4.4-12.2-9.9c-4.8-10-0.5-20.2,2.7-27.7l0.1-0.4
			c3.1-7.4,6.6-14.8,10.6-22.8c-5.3,3.1-10.7,5.1-16.3,6.2c-5,1-9.8-0.3-13.2-3.6c-3.5-3.4-5-8.3-4.2-13.5c0.8-5,2.2-10,4.4-15.2
			c-3.5,2.3-6.9,4-10.5,5.4c-4,1.5-8.2,0.4-10.6-3c-2.7-3.7-2.7-9,0.2-12.5c12.8-16.1,25.5-33.4,39-52.9c2-2.8,5.8-3.6,8.7-1.7
			c2.9,1.8,3.8,5.6,2,8.6c-1.3,2.2-2.6,4.4-3.9,6.6c3.4-3.6,6.7-7.3,10-10.9c4-4.4,8.1-8.8,12.1-13.1c3.7-3.9,9.5-4.2,13.9-0.8
			c4.3,3.4,5.4,9.1,2.5,13.6c-6.2,9.8-12.3,20.4-19.4,33.6c12.7-13.3,25.9-27.9,40.3-44.4c4.7-5.4,12.2-6.4,18.1-2.3
			c5.5,3.8,9.1,11.8,5.1,19.4c-5.6,10.6-11.5,21.3-17.2,31.6l-0.1,0.2c-7.4,13.4-14.9,27-22.1,40.8c22.1-22.5,43.2-46.2,66-72.2l0,0
			c4.6-5.2,11.6-6.5,17.8-3.2c6.7,3.5,10.1,10.8,8.4,17.8c-3.4,13.6-10.9,25-18.1,36c-2.3,3.6-4.7,7.2-6.9,10.9
			c-8.5,14.2-18.6,30.4-30.7,44c-3.1,3.5-8,4.3-12.1,2c-3-1.7-5-4.5-5.4-7.7c-10.1,10.5-19.7,19.9-29.2,28.7
			C155.5,250,144.1,259.7,132.7,259.7z M148.3,177.4l-7,13.2c-6.4,12.1-11.4,22.6-15.9,33.1l-0.1,0.3c-3,7.1-6.5,15.2-2.8,22.8
			c1.8,3.7,4.5,6,8,6.6c10.1,1.9,23-9.8,24.5-11.1c11.7-10.8,23.6-22.7,36.3-36.2l9.5-10l-4.4,13.1c-0.7,2.2-1.4,4.4-2,6.6
			c-0.5,1.8,0.4,3.8,2.2,4.8c1.7,0.9,3.6,0.6,4.8-0.7c11.8-13.2,21.7-29.2,30.1-43.1c2.3-3.8,4.7-7.5,7.1-11.1
			c7-10.6,14.2-21.6,17.3-34.2c1.1-4.3-1.1-8.9-5.3-11.1c-3.7-2-7.8-1.3-10.5,1.9l0,0c-27.4,31.2-52.3,59.1-79.4,85.6l-12.2,11.9
			l7.4-15.4c9.5-19.6,20.1-38.9,30.4-57.5l0.2-0.3c5.7-10.3,11.6-20.9,17.2-31.5c2.4-4.5,0.1-9.3-3.2-11.6
			c-3.5-2.4-7.5-1.9-10.2,1.2c-14.6,16.8-28,31.6-40.9,45.1c-2.1,2.2-4.2,4.6-6.3,6.9c-2.9,3.2-5.9,6.6-9.1,9.7l-14.1,14.2l9.4-17.7
			c1-2,2.1-3.9,3.2-5.9c1.2-2.2,2.4-4.4,3.6-6.7c9-17.1,16.3-30.1,23.8-41.9c1.2-1.9,0.7-4.2-1.1-5.6c-1.9-1.5-4.3-1.4-5.8,0.3
			c-4,4.2-7.9,8.4-12,12.9c-8.8,9.6-17.8,19.4-27.4,28.3l-15.3,14.3l10.7-18c5.8-9.7,11-18.5,16.2-27.4c0.1-0.2,0.1-0.4-0.1-0.5
			c-0.2-0.1-0.4-0.1-0.5,0.1c-13.5,19.6-26.4,37-39.2,53.2c-1.1,1.4-1.1,3.7,0,5.3c0.9,1.2,2.2,1.5,3.6,1
			c6.3-2.4,12.2-6.3,19.2-12.5l13.8-12.3l-9.2,16c-5.4,9.4-8.3,17.2-9.6,25.1c-0.5,3.3,0.4,6.3,2.5,8.3c2,1.9,4.8,2.6,7.9,2
			c8.2-1.6,15.7-5.4,23.7-11.9L148.3,177.4z"/>
	</g>
</g>
</svg>
