<?xml version="1.0" encoding="utf-8"?>
<!-- Generator: Adobe Illustrator 19.2.0, SVG Export Plug-In . SVG Version: 6.00 Build 0)  -->
<!DOCTYPE svg PUBLIC "-//W3C//DTD SVG 1.1//EN" "http://www.w3.org/Graphics/SVG/1.1/DTD/svg11.dtd">
<svg version="1.1" id="Layer_1" xmlns="http://www.w3.org/2000/svg" xmlns:xlink="http://www.w3.org/1999/xlink" x="0px" y="0px"
	 viewBox="0 0 340 340" style="enable-background:new 0 0 340 340;" xml:space="preserve">
<style type="text/css">
                .st0{fill:#071C2C;}
                .st1{fill:#FFFFFF;}
    svg:hover {  cursor:pointer;}
                svg:hover .st0 {  fill:#830065;}
</style>
<g>
	<g>
		<path class="st0" d="M301.2,253.9h-21c-4.9,0-10.2-3.6-10.2-10.2v-2.4H70v2.4c0,6.6-5.3,10.2-10.2,10.2h-21
			c-6.6,0-10.2-5.3-10.2-10.2v-20.3c-1.6-4.4-2.8-7.6-2.8-21.8c0-6.7,0.3-13.4,0.8-19c-5.5-5.4-8.6-12.8-8.6-20.6
			c0-13,8.6-24.3,20.8-27.8l0.1-19c0-0.5,0.1-1.1,0.2-1.6c0.8-2.7,2.5-5.1,5.2-7.1c-0.3-0.2-0.7-0.5-1-0.7c-2.6-1.8-3.3-5.4-1.6-8.1
			c1.7-2.7,5.2-3.6,8-2.1l0.4,0.2l-0.2-1c-0.5-3,1.4-5.9,4.3-6.7c3-0.8,6,0.7,7.2,3.5l0.2,0.4c1.4-2.2,2.4-3,4.2-3.4
			c2.1-0.4,4.2,0.3,5.7,1.8c1.9,2.1,2,3.7,1,7.6c20.8-3,52.9-4.4,97.6-4.4c105.1,0,127.6,7.3,131,19.9c0.1,0.5,0.2,1,0.2,1.5l0.1,19
			c12.2,3.5,20.8,14.8,20.8,27.8c0,7.8-3.1,15.2-8.6,20.6c0.5,5.6,0.8,12.3,0.8,19c0,14.1-1.2,17.4-2.8,21.8v20.3
			C311.4,248.7,307.9,253.9,301.2,253.9z M67,235.3h206c1.7,0,3,1.3,3,3v5.4c0,4.2,4,4.2,4.2,4.2h21c4.2,0,4.2-4.1,4.2-4.2v-20.8
			c0-0.4,0.1-0.7,0.2-1l0.1-0.4c1.4-3.9,2.5-6.6,2.5-19.8c0-7.2-0.3-14.2-0.9-19.9c-0.1-1,0.3-1.9,1-2.5c5-4.4,7.7-10.5,7.7-17.2
			c0-11.1-7.6-20.4-18.4-22.5c-1.4-0.3-2.4-1.5-2.4-2.9l-0.1-21.4c-3.7-13.7-68.8-15.5-125.2-15.5c-47.9,0-81.1,1.6-101.3,5
			c-1,0.2-2.1-0.2-2.7-1c-0.7-0.8-0.9-1.8-0.6-2.8l0.2-0.8c0.7-2.5,1.3-4.5,1.5-5.4c-0.7,1.1-2.3,4.1-3.2,5.8
			c-0.5,1-1.6,1.7-2.8,1.6c-1.2-0.1-2.2-0.8-2.6-1.9l-2.5-6.3L57,101c0.2,1.1-0.3,2.3-1.2,2.9c-0.9,0.7-2.2,0.7-3.2,0.2l-5.8-3.2
			c1.6,1.1,3.3,2.3,4.8,3.4c0.9,0.6,1.3,1.7,1.2,2.7s-0.8,2-1.7,2.4c-3.6,1.7-5.7,3.6-6.3,5.7l-0.1,21.4c0,1.4-1,2.7-2.4,2.9
			c-10.8,2.1-18.4,11.4-18.4,22.5c0,6.7,2.7,12.8,7.7,17.2c0.7,0.6,1.1,1.6,1,2.5c-0.6,5.7-0.9,12.8-0.9,19.9
			c0,13.2,1,15.9,2.5,19.8l0.2,0.4c0.1,0.3,0.2,0.7,0.2,1v20.8c0,0.2,0,4.2,4.2,4.2h21c0.2,0,4.2,0,4.2-4.2v-5.4
			C64,236.6,65.3,235.3,67,235.3z"/>
	</g>
	<g>
		<path class="st0" d="M212.3,203.8c-3.8,0-5.6-2.8-5.6-5.6v-15.4c0-3.8,2.8-5.6,5.6-5.6h44.9v-15.4c0-19.4,15.8-35.3,35.3-35.3
			c0.7,0,2.4,0,3.2,0.1l-0.2,3c-0.6,0-2.2-0.1-3-0.1c-17.8,0-32.3,14.5-32.3,32.3v18.4h-47.8c-1.2,0-2.6,0.5-2.6,2.6v15.4
			c0,1.2,0.5,2.6,2.6,2.6h51.9c1.2,0,2.6-0.5,2.6-2.6l0-36.5c0-14.1,11.5-25.6,25.6-25.6c0.8,0,1.6,0,2.5,0.1c0.1,0,0.2,0,0.3,0
			l0.5,0l0,3l0,0v0l-0.4,0c-0.1,0-0.1,0-0.2,0l-0.1,0l-0.1,0c-0.3,0-0.5-0.1-0.8-0.1l-1.2,0c0,0,0,0,0,0c-0.1,0-0.2,0-0.2,0
			c-12.5,0-22.6,10.2-22.6,22.6l0,36.5c0,3.8-2.8,5.6-5.6,5.6H212.3z M141.9,203.8c-3.8,0-5.6-2.8-5.6-5.6v-15.4
			c0-3.8,2.8-5.6,5.6-5.6h53.3c3.8,0,5.6,2.8,5.6,5.6v15.4c0,3.8-2.8,5.6-5.6,5.6H141.9z M141.9,180.1c-1.2,0-2.6,0.5-2.6,2.6v15.4
			c0,1.2,0.5,2.6,2.6,2.6h53.3c1.2,0,2.6-0.5,2.6-2.6v-15.4c0-1.2-0.5-2.6-2.6-2.6H141.9z M74.3,203.8c-3.8,0-5.6-2.8-5.6-5.6
			l0-36.5c0-12.5-10.2-22.6-22.6-22.6c-0.5,0-1.9,0.1-3.6,0.3l-0.2-1.5l-0.1-1.5c1.1-0.1,3-0.3,3.9-0.3c14.1,0,25.6,11.5,25.6,25.6
			l0,36.5c0,1.2,0.5,2.6,2.6,2.6h50.5c1.2,0,2.6-0.5,2.6-2.6v-15.4c0-1.2-0.5-2.6-2.6-2.6H78.4v-18.4c0-17.8-14.5-32.3-32.3-32.3
			c-0.7,0-2.3,0-3,0.1l-0.2-3c0.8,0,2.5-0.1,3.2-0.1c19.4,0,35.3,15.8,35.3,35.3v15.4h43.4c3.8,0,5.6,2.8,5.6,5.6v15.4
			c0,3.8-2.8,5.6-5.6,5.6H74.3z M235.9,147.6c-3.9,0-7-3.1-7-7c0-3.9,3.1-7,7-7s7,3.1,7,7C242.9,144.4,239.7,147.6,235.9,147.6z
			 M235.9,136.6c-2.2,0-4,1.8-4,4s1.8,4,4,4s4-1.8,4-4S238.1,136.6,235.9,136.6z M168.6,147.6c-3.9,0-7-3.1-7-7c0-3.9,3.1-7,7-7
			c3.9,0,7,3.1,7,7C175.6,144.4,172.4,147.6,168.6,147.6z M168.6,136.6c-2.2,0-4,1.8-4,4s1.8,4,4,4c2.2,0,4-1.8,4-4
			S170.8,136.6,168.6,136.6z M102.7,147.6c-3.9,0-7-3.1-7-7c0-3.9,3.1-7,7-7c3.9,0,7,3.1,7,7C109.7,144.4,106.5,147.6,102.7,147.6z
			 M102.7,136.6c-2.2,0-4,1.8-4,4s1.8,4,4,4c2.2,0,4-1.8,4-4S104.9,136.6,102.7,136.6z"/>
	</g>
	<g>
		<path class="st0" d="M216.7,177.6l1.7-0.8c0.2-0.1,0.3-0.3,0.2-0.4c0-0.2-0.2-0.3-0.4-0.3l-6-0.1l5.7-2.1c0.2-0.1,0.3-0.3,0.3-0.4
			c0-0.2-0.2-0.3-0.4-0.3l-6.1-0.1l5.8-2.2c0.2-0.1,0.3-0.3,0.3-0.4c0-0.2-0.2-0.3-0.4-0.3l-6.6-0.1l5.8-2.6
			c0.2-0.1,0.3-0.3,0.2-0.5c-0.1-0.2-0.2-0.3-0.4-0.3l-6.4,0.9c-0.2,0-0.4,0.2-0.3,0.5c0,0.2,0.2,0.4,0.5,0.3l3.6-0.5l-4.9,2.2
			c-0.2,0.1-0.3,0.3-0.2,0.4c0,0.2,0.2,0.3,0.4,0.3l6.2,0.1l-5.8,2.2c-0.2,0.1-0.3,0.3-0.3,0.4c0,0.2,0.2,0.3,0.4,0.3l6.1,0.1
			l-5.7,2.1c-0.2,0.1-0.3,0.3-0.3,0.4c0,0.2,0.2,0.3,0.4,0.3l6.4,0.1l-1.7,0.8"/>
	</g>
	<g>
		<path class="st0" d="M217,178.1l-0.3-0.7l-1.5,0.7l-0.4-0.8l-4.6-0.1c-0.4,0-0.8-0.3-0.9-0.7c-0.1-0.4,0.2-0.9,0.6-1l3.1-1.1
			l-3.4,0c-0.4,0-0.8-0.3-0.9-0.7c-0.1-0.4,0.2-0.8,0.6-1l3.4-1.3l-3.6,0c-0.4,0-0.8-0.3-0.9-0.7c-0.1-0.4,0.1-0.8,0.5-1l1.7-0.8
			l-0.2,0c-0.2,0-0.5,0-0.7-0.2c-0.2-0.1-0.3-0.4-0.4-0.6c0-0.2,0-0.5,0.2-0.7c0.1-0.2,0.4-0.3,0.6-0.3l6.4-0.9
			c0.4-0.1,0.9,0.2,1,0.6c0.1,0.4-0.1,0.9-0.5,1.1l-3.7,1.7l4.3,0.1c0.4,0,0.8,0.3,0.9,0.7c0.1,0.4-0.2,0.8-0.6,1l-3.4,1.3l3.5,0
			c0.4,0,0.8,0.3,0.9,0.7c0.1,0.4-0.2,0.9-0.6,1l-3.2,1.2l3.3,0.1c0.4,0,0.8,0.3,0.9,0.7c0.1,0.4-0.1,0.8-0.5,1L217,178.1z
			 M216.6,176.5l0.1,0.6l1.1-0.5L216.6,176.5z M210.7,176.2l1.6,0l-0.1-0.6L210.7,176.2z M210.2,176.2L210.2,176.2
			C210.2,176.2,210.2,176.2,210.2,176.2z M215.7,173.6l0.1,0.6l1.5-0.6L215.7,173.6z M210.1,173.3l1.6,0l-0.1-0.6L210.1,173.3z
			 M215.4,170.5l0.1,0.6l1.5-0.6L215.4,170.5z M209.1,170.4L209.1,170.4C209.1,170.4,209.1,170.4,209.1,170.4z M209.5,170.2l1.3,0
			l-0.1-0.6L209.5,170.2z M213.8,167.4l0.2,0.6l1.9-0.9L213.8,167.4z M210.1,167.9L210.1,167.9L210.1,167.9z M216.5,167L216.5,167
			C216.5,167,216.5,167,216.5,167z"/>
	</g>
</g>
</svg>
