<?xml version="1.0" encoding="utf-8"?>
<!-- Generator: Adobe Illustrator 19.2.1, SVG Export Plug-In . SVG Version: 6.00 Build 0)  -->
<!DOCTYPE svg PUBLIC "-//W3C//DTD SVG 1.1//EN" "http://www.w3.org/Graphics/SVG/1.1/DTD/svg11.dtd">
<svg version="1.1" id="Layer_1" xmlns="http://www.w3.org/2000/svg" xmlns:xlink="http://www.w3.org/1999/xlink" x="0px" y="0px"
	 width="340px" height="340px" viewBox="0 0 340 340" style="enable-background:new 0 0 340 340;" xml:space="preserve">
<style type="text/css">
                .st0{fill:#071C2C;}
                .st1{fill:#FFFFFF;}
    svg:hover {  cursor:pointer;}
                svg:hover .st0 {  fill:#830065;}
</style>
<g>
	<path class="st0" d="M244,242h-37v-12.7c0-1.7-1.3-3-3-3s-3,1.3-3,3V242h-36v-12.7c0-1.7-1.3-3-3-3s-3,1.3-3,3V242h-36v-12.7
		c0-1.7-1.3-3-3-3s-3,1.3-3,3V242H83v-34h12.7c1.7,0,3-1.3,3-3s-1.3-3-3-3H83v-36h12.7c1.7,0,3-1.3,3-3s-1.3-3-3-3H83v-36h12.7
		c1.7,0,3-1.3,3-3s-1.3-3-3-3H83V81c0-1.7-1.3-3-3-3s-3,1.3-3,3v164c0,1.7,1.3,3,3,3h164c1.7,0,3-1.3,3-3S245.7,242,244,242z"/>
	<path class="st0" d="M120.9,216.5c6.6,0,12-5.4,12-12c0-2.7-0.9-5.2-2.5-7.3l23.3-29.6c1.5,0.7,3.1,1,4.8,1c3.5,0,6.7-1.5,8.9-4
		l20.9,11.8c-1.5,5.5,1.1,11.5,6.5,14c6,2.8,13.1,0.2,15.9-5.8c2.2-4.6,1.1-10-2.3-13.4l22.5-42.2l13.2,6.5l-7.6-25l-24.4,9.4
		l13.3,6.5l-22.2,41.7c-4.3-1.3-9,0-12.1,3.1l-21.1-11.9c0.2-0.9,0.3-1.8,0.3-2.7c0-6.6-5.4-12-12-12s-12,5.4-12,12
		c0,2.7,0.9,5.2,2.5,7.3l-23.3,29.6c-1.5-0.7-3.1-1-4.8-1c-6.6,0-12,5.4-12,12S114.3,216.5,120.9,216.5z"/>
</g>
</svg>
