<?xml version="1.0" encoding="utf-8"?>
<!-- Generator: Adobe Illustrator 19.2.0, SVG Export Plug-In . SVG Version: 6.00 Build 0)  -->
<!DOCTYPE svg PUBLIC "-//W3C//DTD SVG 1.1//EN" "http://www.w3.org/Graphics/SVG/1.1/DTD/svg11.dtd">
<svg version="1.1" id="Layer_1" xmlns="http://www.w3.org/2000/svg" xmlns:xlink="http://www.w3.org/1999/xlink" x="0px" y="0px"
	 viewBox="0 0 340 340" style="enable-background:new 0 0 340 340;" xml:space="preserve">
<style type="text/css">
                .st0{fill:#071C2C;}
                .st1{fill:#FFFFFF;}
    svg:hover {  cursor:pointer;}
                svg:hover .st0 {  fill:#830065;}
</style>
<g>
	<g>
		<path class="st0" d="M193.9,254.8h-47.8c-5.8,0-10.6-4.8-10.6-10.6v-15.9H88.6c-8.3,0-14.3-2.8-16.9-8c-2.6-5.1-1.4-11.6,3.5-18.3
			l23.3-32c-6.3-0.4-10.8-2.9-12.9-7c-2.3-4.5-1.2-10.3,3-16.1l24-33c-4.3-0.7-7.5-2.7-9.1-5.9c-2-4-1.1-8.9,2.6-14l50.3-69
			c3.6-4.9,8.4-7.6,13.6-7.6l0,0c5.2,0,10.1,2.7,13.6,7.6l50.3,69c3.7,5,4.6,10,2.6,14c-1.6,3.1-4.7,5.1-9.1,5.9l24,33
			c4.3,5.9,5.3,11.6,3,16.1c-2.1,4.1-6.7,6.6-12.9,7l23.3,32l0,0c4.9,6.7,6.1,13.2,3.5,18.3c-2.6,5.1-8.6,8-16.9,8h-46.9v15.9
			C204.5,250.1,199.7,254.8,193.9,254.8z M170,23.5c-3.2,0-6.4,1.8-8.8,5.1l-50.3,69c-2.2,3.1-3,5.9-2.1,7.7
			c0.9,1.8,3.7,2.9,7.5,2.9h1.9c1.1,0,2.2,0.6,2.7,1.6c0.5,1,0.4,2.2-0.2,3.1l-27.3,37.5c-2.8,3.9-3.7,7.5-2.5,9.9
			c1.2,2.4,4.7,3.8,9.5,3.8h3.9c1.1,0,2.2,0.6,2.7,1.6c0.5,1,0.4,2.2-0.2,3.1l-26.7,36.7c-3.4,4.7-4.5,9.1-3,12.1
			c1.5,3,5.7,4.7,11.5,4.7h49.9c1.7,0,3,1.3,3,3v18.9c0,2.5,2.1,4.6,4.6,4.6h47.8c2.5,0,4.6-2.1,4.6-4.6v-18.9c0-1.7,1.3-3,3-3h49.9
			c5.8,0,10-1.7,11.5-4.7c1.5-3,0.4-7.4-3-12.1l-26.7-36.7c-0.7-0.9-0.8-2.1-0.2-3.1s1.5-1.6,2.7-1.6h3.9c4.8,0,8.3-1.4,9.5-3.8
			c1.2-2.4,0.3-6-2.5-9.9L219.3,113c-0.7-0.9-0.8-2.1-0.2-3.1s1.5-1.6,2.7-1.6h1.9c3.8,0,6.5-1,7.5-2.9c0.9-1.8,0.2-4.6-2.1-7.7
			l-50.3-69C176.4,25.3,173.2,23.5,170,23.5z"/>
	</g>
	<g>
		<path class="st0" d="M176.4,87.8c-5.8,0-10.5-4.7-10.5-10.5s4.7-10.5,10.5-10.5c5.8,0,10.5,4.7,10.5,10.5S182.2,87.8,176.4,87.8z
			 M176.4,69.7c-4.2,0-7.5,3.4-7.5,7.5s3.4,7.5,7.5,7.5c4.2,0,7.5-3.4,7.5-7.5S180.5,69.7,176.4,69.7z"/>
	</g>
	<g>
		<path class="st0" d="M156.4,133c-7,0-12.7-5.7-12.7-12.7c0-7,5.7-12.7,12.7-12.7s12.7,5.7,12.7,12.7
			C169.1,127.3,163.4,133,156.4,133z M156.4,110.6c-5.3,0-9.7,4.4-9.7,9.7c0,5.3,4.3,9.7,9.7,9.7s9.7-4.4,9.7-9.7
			C166.1,114.9,161.8,110.6,156.4,110.6z"/>
	</g>
	<g>
		<path class="st0" d="M198.6,175.8c-7.9,0-14.2-6.4-14.2-14.2s6.4-14.2,14.2-14.2s14.2,6.4,14.2,14.2S206.4,175.8,198.6,175.8z
			 M198.6,150.3c-6.2,0-11.2,5-11.2,11.2s5,11.2,11.2,11.2s11.2-5,11.2-11.2S204.8,150.3,198.6,150.3z"/>
	</g>
	<g>
		<path class="st0" d="M143.3,196.7c-7.9,0-14.2-6.4-14.2-14.2s6.4-14.2,14.2-14.2s14.2,6.4,14.2,14.2S151.2,196.7,143.3,196.7z
			 M143.3,171.2c-6.2,0-11.2,5-11.2,11.2s5,11.2,11.2,11.2s11.2-5,11.2-11.2S149.5,171.2,143.3,171.2z"/>
	</g>
</g>
</svg>
