<?xml version="1.0" encoding="utf-8"?>
<!-- Generator: Adobe Illustrator 19.2.1, SVG Export Plug-In . SVG Version: 6.00 Build 0)  -->
<!DOCTYPE svg PUBLIC "-//W3C//DTD SVG 1.1//EN" "http://www.w3.org/Graphics/SVG/1.1/DTD/svg11.dtd">
<svg version="1.1" id="Layer_1" xmlns="http://www.w3.org/2000/svg" xmlns:xlink="http://www.w3.org/1999/xlink" x="0px" y="0px"
	 width="340px" height="340px" viewBox="0 0 340 340" style="enable-background:new 0 0 340 340;" xml:space="preserve">
<style type="text/css">
                .st0{fill:#071C2C;}
                .st1{fill:#FFFFFF;}
    svg:hover {  cursor:pointer;}
                svg:hover .st0 {  fill:#830065;}
</style>
<path class="st0" d="M284.5,87c0.8,0,1.5-1.1,1.5-1.9V77c0-0.8-0.7-1-1.5-1h-7.8l-4-6h-13.8c-0.5-2.4-2.3-5-6.3-5h-71.2
	c-2.3,0-5.6,1.3-6.3,5h-10.3c-0.5-2.4-2.3-5-6.3-5H87.4c-2.3,0-5.6,1.3-6.3,5H67.3l-4,6h-7.8c-0.8,0-1.5,0.2-1.5,1v8.1
	c0,0.8,0.7,1.9,1.5,1.9H71v1H55.5c-0.8,0-1.5,0.6-1.5,1.4v8.1c0,0.8,0.7,1.5,1.5,1.5h9.9l6.4,138.9c0.1,1.6,1.4,3.1,3,3.1H76v15.7
	c0,1.4,0.9,3.3,3.5,3.3h2.8c1.4,0,3.7-0.8,3.7-3.3V241h168v15.7c0,1.4,1.1,3.3,3.7,3.3h2.8c1.4,0,3.5-0.8,3.5-3.3V241h1.2
	c1.6,0,2.9-1.5,3-3.1L274.6,99h9.9c0.8,0,1.5-0.7,1.5-1.5v-8.1c0-0.8-0.7-1.4-1.5-1.4H271v-1H284.5z M181.4,68h71.2
	c2,0,2.8,1.1,3.2,2h-77.6C178.9,68.1,180.9,68,181.4,68z M87.4,68h71.2c2,0,2.8,1.1,3.2,2H84.2C84.9,68.1,86.9,68,87.4,68z M68.9,73
	h202.2l2,3H66.9L68.9,73z M262.4,235H77.6L71.4,99h197.2L262.4,235z M283,91v5H57v-5H283z M57,84v-5h226v5H57z"/>
</svg>
