<?xml version="1.0" encoding="utf-8"?>
<!-- Generator: Adobe Illustrator 19.2.1, SVG Export Plug-In . SVG Version: 6.00 Build 0)  -->
<!DOCTYPE svg PUBLIC "-//W3C//DTD SVG 1.1//EN" "http://www.w3.org/Graphics/SVG/1.1/DTD/svg11.dtd">
<svg version="1.1" id="Layer_1" xmlns="http://www.w3.org/2000/svg" xmlns:xlink="http://www.w3.org/1999/xlink" x="0px" y="0px"
	 width="340px" height="340px" viewBox="0 0 340 340" style="enable-background:new 0 0 340 340;" xml:space="preserve">
<style type="text/css">
                .st0{fill:#071C2C;}
                .st1{fill:#FFFFFF;}
    svg:hover {  cursor:pointer;}
                svg:hover .st0 {  fill:#830065;}
</style>
<g>
	<path class="st0" d="M177.1,120.5c-1,0.4-2.1,0.5-3.2,0.5h0h0c-1.1,0-2.2-0.1-3.2-0.5l-3.2,23.5l-1.2,9l5.8,7.3l1.9,2.4l2-2.5
		l5.7-7.2l-1.2-9L177.1,120.5z"/>
	<path class="st0" d="M173.8,118.8c1.6,0,3.1-0.5,4.4-1.6l0.2-0.3l-1.5-5.9h-3.1h-3.1l-1.5,5.9l0.2,0.3
		C170.7,118.3,172.3,118.8,173.8,118.8z"/>
	<path class="st0" d="M208.6,112.3c-4.7-5.7-9.4-8.9-11.2-10c0,0-0.1,0-0.1-0.1c-1.8-1-3.7-1.8-5.8-1.9c-0.3-0.1-0.6-0.1-1-0.2
		c5.9-5.7,8.7-14.2,6.7-22.8c-1.5-6.3-5.3-11.6-10.7-15c-5.5-3.4-11.9-4.5-18.2-3c-6.3,1.5-11.6,5.3-15,10.7
		c-3.4,5.5-4.5,11.9-3,18.2c0.7,2.9,1.9,5.6,3.5,8c-0.3-0.3-0.5-0.6-0.8-0.9c-5-5.7-7.5-13.3-7.5-23.3c0-3.9,0.4-8,1.2-12.5
		c1.2-6.8-3.3-13.2-10.1-14.4c-6.8-1.2-13.2,3.4-14.4,10.1c-1,5.8-1.5,11.5-1.5,16.8c-0.1,22.6,9.6,35.8,15.3,41.6
		c3.6,3.6,7.1,6.2,10.1,7.9v117.6c0,8.8,7.2,16,16,16c4.7,0,9-2.1,11.9-5.3c2.9,3.3,7.3,5.3,12,5.3c8.8,0,16.1-7.2,16.1-16v-55.9
		c2-1,4.3-2.7,5.8-4.9c7.8-12.4,11.7-24.6,11.7-36C219.5,128.4,213.5,118.3,208.6,112.3z M169.7,65.2c9.7-2.3,19.5,3.8,21.7,13.5
		c2.3,9.7-3.8,19.5-13.5,21.7c-0.5,0.1-1.1,0.2-1.6,0.3c-0.2,0-0.3,0-0.5,0.1c-0.4,0-0.8,0.1-1.1,0.1c-0.2,0-0.4,0-0.5,0
		c-0.5,0-0.9,0-1.4,0c-0.3,0-0.6,0-0.9-0.1c-0.2,0-0.3,0-0.5-0.1c-1.2-0.2-2.3-0.4-3.4-0.8c-5.7-1.9-10.4-6.7-11.8-13
		C153.9,77.2,160,67.5,169.7,65.2z M202.5,175.3c-1.2,1.9-3.2,3-5.3,3c-0.5,0-1.2-0.1-1.2-0.2v61.2c0,5.5-4.5,10-10,10
		c-5.5,0-10-4.5-10-10V174h-4v65.3c0,5.5-4.5,10-10,10c-5.5,0-10-4.5-10-10v-71.6v-15.2v-34.3c-3-1.3-7.2-3.8-11.8-8.5
		c-7-7-13.7-19.2-13.6-37.4c0-4.8,0.5-10.1,1.5-15.8c0.6-3.5,4-5.8,7.5-5.2c3.5,0.6,5.8,4,5.2,7.5c-0.9,5-1.3,9.6-1.3,13.6
		c0,14.2,4.5,22.3,9,27.4c3.5,3.9,7.2,5.8,9,6.6c2.4,0,32,0.1,33.3,0.1c1.2,0,2.3,0.3,3.4,1c0.4,0.3,5,3,9.7,8.7
		c4.7,5.6,9.5,14.6,9.4,26.3C213.4,151.9,210.3,162.9,202.5,175.3z"/>
	<path class="st0" d="M196,151c0,0.5,0,0.9,0,1.4v8.7c3-7.4,4.9-13.6,4.9-18.7c0-6.9-2.9-12.1-4.9-16V151z"/>
</g>
</svg>
