<?xml version="1.0" encoding="utf-8"?>
<!-- Generator: Adobe Illustrator 19.2.1, SVG Export Plug-In . SVG Version: 6.00 Build 0)  -->
<!DOCTYPE svg PUBLIC "-//W3C//DTD SVG 1.1//EN" "http://www.w3.org/Graphics/SVG/1.1/DTD/svg11.dtd">
<svg version="1.1" id="Layer_1" xmlns="http://www.w3.org/2000/svg" xmlns:xlink="http://www.w3.org/1999/xlink" x="0px" y="0px"
	 width="340px" height="340px" viewBox="0 0 340 340" style="enable-background:new 0 0 340 340;" xml:space="preserve">
<style type="text/css">
                .st0{fill:#071C2C;}
                .st1{fill:#FFFFFF;}
    svg:hover {  cursor:pointer;}
                svg:hover .st0 {  fill:#830065;}
</style>
<path class="st0" d="M254.8,171l-32.3-42.5c-1.1-1.5-2.9-2.5-4.8-2.5h-6.8l7.9-8.6c1.1-1.2,1.7-2.7,1.6-4.3
	c-0.1-1.6-0.7-3.1-1.9-4.2L194,86.3c-2.4-2.2-6.2-2.1-8.5,0.3L149,126h-27c-1.9,0-3.7,1-4.8,2.5c0,0,0,0,0,0l-32,42.4
	c-0.8,1-1.2,2.3-1.2,3.6v85.9c0,3.3,2.7,6.5,6,6.5h160c3.3,0,6-3.1,6-6.5v-85.9C256,173.3,255.6,172,254.8,171z M189.9,90.7
	l24.5,22.7l-33,35.6l-14.5,0l-16.7-15.4L189.9,90.7z M122,132h22.4c-0.1,0.6-0.2,1.2-0.2,1.8c0.1,1.6,0.7,3.1,1.9,4.2l5.5,5.1h-14.3
	c-0.5,0-1,0.1-1.3,0.6l-5.5,9.4c-0.3,0.5-0.3,0.9,0,1.4s0.8,0.6,1.3,0.6h76c0.5,0,1-0.2,1.3-0.7c0.3-0.5,0.3-0.9,0-1.4l-5.5-9.4
	c-0.3-0.5-0.8-0.6-1.3-0.6h-7.2l10.2-11h12.3l29.6,39H92.7L122,132z M250,261H90v-84h160V261z"/>
</svg>
