<?xml version="1.0" encoding="utf-8"?>
<!-- Generator: Adobe Illustrator 20.0.0, SVG Export Plug-In . SVG Version: 6.00 Build 0)  -->
<!DOCTYPE svg PUBLIC "-//W3C//DTD SVG 1.1//EN" "http://www.w3.org/Graphics/SVG/1.1/DTD/svg11.dtd">
<svg version="1.1" id="Layer_1" xmlns="http://www.w3.org/2000/svg" xmlns:xlink="http://www.w3.org/1999/xlink" x="0px" y="0px"
	 width="340px" height="340px" viewBox="0 0 340 340" style="enable-background:new 0 0 340 340;" xml:space="preserve">
<style type="text/css">
           .st0{fill:#071C2C;}
                .st1{fill:#FFFFFF;}
    svg:hover {  cursor:pointer;}
                svg:hover .st0 {  fill:#830065;}
</style>
<g>
	<path class="st0" d="M193.8,229.6C193.7,229.6,193.7,229.7,193.8,229.6c0.2,0,0.4,0,0.6-0.1C194.2,229.5,194,229.5,193.8,229.6z"/>
	<polygon class="st0" points="60.8,98.2 60.8,98.2 60.9,98.2 60.9,98.2 	"/>
	<path class="st0" d="M191.9,219.5c-1.7,1-3.9,2.2-5.2,3.8c1.5,0.5,4-1.5,5.2-2.4c1.8-1.4,3.6-2.3,5.7-3.3c0.7-0.3,5.5-2.3,4.2-3.2
		C200.1,213.2,193.5,218.6,191.9,219.5z"/>
	<path class="st0" d="M199.8,213.3c1,0.5,3.4-0.4,2.3-1.6C200.7,210.2,200,213.4,199.8,213.3z"/>
</g>
<g>
	<path class="st0" d="M199.8,213.3c1,0.5,3.4-0.4,2.3-1.6C200.7,210.2,200,213.4,199.8,213.3z"/>
	<path class="st0" d="M191.9,219.5c-1.7,1-3.9,2.2-5.2,3.8c1.5,0.5,4-1.5,5.2-2.4c1.8-1.4,3.6-2.3,5.7-3.3c0.7-0.3,5.5-2.3,4.2-3.2
		C200.1,213.2,193.5,218.6,191.9,219.5z"/>
	<path class="st0" d="M209.2,106c0.6-0.2,0.5-4.2-1.5-2.9C206.6,103.8,208.4,106.2,209.2,106z"/>
	<path class="st0" d="M201,116.9c1.1,0.3,7.7,2.2,6.2-0.6c-0.8-1.5-2.6-2.2-3.6-3.5c-1.2-1.5-2.8-3-4.8-3.3c-2-0.3-3.7,1.4-4,3.3
		C194.3,115.7,199,116.4,201,116.9z"/>
	<path class="st0" d="M207.2,112.2c1.2,0.7,2.6,0.9,3.7,1.7c0.2,0.2,1.1,1.1,1.4,1c0.3-0.1,0.3-0.4,0.2-0.6l0.1,0.1
		c-0.5-1.5-1.4-2.4-2.8-3.3c-1-0.7-2-0.6-3-1.3c-1.4-1-5.3-6-6.9-3.8c1.2,1.4,3.2,1.5,4.5,2.6C205.6,109.6,205.8,111.3,207.2,112.2z
		"/>
	<path class="st0" d="M203.3,132.6c1.3-0.4,0.3-1.5-0.6-1.7C200.7,130.5,201.6,133.1,203.3,132.6z"/>
	<path class="st0" d="M207,130.3c1.7-0.6,0.4-2-0.8-2.2C203.7,127.6,204.8,131,207,130.3z"/>
	<path class="st0" d="M198.1,129.9c0.6,0.5,4.1-0.2,4.6-0.8c0.9-1-0.9-1.2-1.7-1.2C200.4,128,196.9,128.8,198.1,129.9z"/>
	<path class="st0" d="M191.4,151.2c1.4-0.3,0.1-1.8-0.8-0.9C189.9,150.9,190.8,151.4,191.4,151.2z"/>
	<path class="st0" d="M193.4,151.5c0.4-0.2,2.5-1.7,1.4-2.1c-0.5-0.2-2.6,1.3-2.8,1.8C191.7,152.1,192.9,151.8,193.4,151.5z"/>
	<path class="st0" d="M202.4,146.9c-0.7-0.3-3.2,1.6-3.1,2.5c0.1,0.9,1.1,1.1,1.6,0.7C201.5,149.7,203.3,147.4,202.4,146.9z"/>
	<path class="st0" d="M190,152.9c1.8-0.4,0.2-2.3-1.1-1.2C188,152.5,189.2,153.1,190,152.9z"/>
	<path class="st0" d="M200.4,143.9c-2.2,1.5-4.7,2-7,3.2c-2.5,1.3,0.9,1.2,2,1c2.8-0.5,5.2-1.7,7.3-3.6c1-0.9,1.8-1.9,2.9-2.7
		c0.5-0.4,1.4-0.6,1.7-1.1C205.8,139.8,201.7,143.1,200.4,143.9z"/>
	<path class="st0" d="M218,161.2c0,0.2,0.1,0.4,0.3,0.6c0.6,0.5,1.4-0.5,1.1-1.1C219,160.2,218.1,160.6,218,161.2z"/>
	<path class="st0" d="M221.6,155.4c-0.3,0.5-0.5,1-0.8,1.5c-0.2,0.3-0.7,0.6-0.9,1.1c-0.3,1.2,0.8,0.9,1.2,1.4c0.8,0.8-2,3.5-0.3,4
		c1.5,0.4,1.9-2.2,1.9-3.1c0-1.6,0.2-3.1,0.5-4.7C223.7,153.7,222.2,154.4,221.6,155.4z"/>
	<path class="st0" d="M227.5,157.4c0,0.2,0,0.4,0.3,0.6c0.6,0.5,1.4-0.5,1.1-1.1C228.6,156.4,227.6,156.8,227.5,157.4z"/>
	<path class="st0" d="M132.9,72.2l-4.9-2c-0.2,0.6-0.5,1.2-0.6,1.8l5,1.5C132.5,73.1,132.7,72.7,132.9,72.2z"/>
	<path class="st0" d="M93.1,61.7c0.5-1.7,1.1-3.4,1.8-5.1l-12-4.9l0,0c-0.8,2.1-1.5,4.2-2.1,6.3l0,0h0L93.1,61.7z"/>
	<path class="st0" d="M122.5,68l-7.8-3.2c-0.4,1-0.8,2.1-1.1,3.1l8.1,2.4C121.9,69.5,122.2,68.7,122.5,68z"/>
	<path class="st0" d="M109.1,62.5l-8.7-3.6c-0.6,1.5-1.1,3-1.6,4.5l9,2.7C108.2,64.9,108.6,63.7,109.1,62.5z"/>
	<path class="st0" d="M109.1,114.7l7-6.5c-0.8-0.9-1.5-1.9-2.2-2.9l-7.4,5.9C107.4,112.4,108.2,113.6,109.1,114.7z"/>
	<path class="st0" d="M120.5,104.2l6.3-5.8c-0.5-0.7-1-1.3-1.5-2l-6.7,5.3C119.3,102.5,119.9,103.3,120.5,104.2z"/>
	<path class="st0" d="M131.3,94.2l3.7-3.4c-0.3-0.4-0.6-1-0.9-1.4l-4,3.1C130.5,93.1,130.9,93.7,131.3,94.2z"/>
	<path class="st0" d="M101.8,115l-20.7,16.4l0,0.3c1.3,1.7,2.7,3.3,4.2,5.3h0l0-0.2l19.4-18C103.7,117.6,102.7,116.3,101.8,115z"/>
	<path class="st0" d="M93,96.9l-20.2,6.8l0,0c0.7,2.1,1.5,4.2,2.3,6.2l0,0h0l19.5-8.4C94,100,93.5,98.5,93,96.9z"/>
	<path class="st0" d="M132.1,85.3c-0.2-0.5-0.3-1-0.4-1.5l-4.6,1.6c0.2,0.6,0.4,1.3,0.6,1.9L132.1,85.3z"/>
	<path class="st0" d="M122.1,89.7c-0.3-0.8-0.5-1.6-0.7-2.4l-8,2.7c0.3,1,0.6,2,1,3L122.1,89.7z"/>
	<path class="st0" d="M108.8,95.4c-0.4-1.1-0.8-2.3-1.1-3.5l-8.9,3c0.4,1.4,0.9,2.8,1.4,4.2L108.8,95.4z"/>
	<path class="st0" d="M116.9,98.8l7.1-4.7c-0.4-0.7-0.8-1.5-1.1-2.3l-7.5,4C115.9,96.9,116.4,97.9,116.9,98.8z"/>
	<path class="st0" d="M128.2,89c0.3,0.6,0.5,1.2,0.9,1.8l4.2-2.7c-0.2-0.5-0.5-0.9-0.7-1.4L128.2,89z"/>
	<path class="st0" d="M83.3,113.1L83.3,113.1c1,2,2.1,3.9,3.3,5.7l0,0l0,0l12.4-8.2c-0.9-1.5-1.7-3.1-2.5-4.7L83.3,113.1z"/>
	<path class="st0" d="M104,107.3l7.9-5.2c-0.6-1.1-1.2-2.3-1.8-3.4l-8.3,4.4C102.5,104.6,103.2,106,104,107.3z"/>
	<path class="st0" d="M120.3,80.2c0-0.3,0-0.5,0-0.8c0-0.6,0-1.2,0.1-1.9l-8.4-0.3c0,0.7-0.1,1.4-0.1,2.2c0,0.4,0,0.9,0,1.3
		L120.3,80.2z"/>
	<path class="st0" d="M75,75.9L75,75.9c0,2.2,0,4.4,0,6.6V83h0.2l15.3-1c0-0.9-0.1-1.8-0.1-2.7c0-1,0-1.9,0.1-2.9L75,75.9z"/>
	<path class="st0" d="M105.9,81.1c0-0.6,0-1.1,0-1.7c0-0.8,0-1.6,0.1-2.4l-9.3-0.3c0,0.9-0.1,1.8-0.1,2.7c0,0.8,0,1.5,0.1,2.3
		L105.9,81.1z"/>
	<path class="st0" d="M131.2,79.5c0-0.5,0-1.1,0.1-1.6l-4.9-0.2c0,0.5-0.1,1.1-0.1,1.7c0,0.1,0,0.3,0,0.4L131.2,79.5z"/>
	<path class="st0" d="M98,133.4L98,133.4c2,1.5,3.4,2.9,5.1,4.3l0.1,0l0,0l8.8-11.6c-1.4-1.2-2.7-2.4-3.9-3.7L98,133.4z"/>
	<path class="st0" d="M130.3,102c-0.7-0.6-1.3-1.2-1.9-1.9l-5.8,6.4c0.8,0.8,1.6,1.6,2.5,2.4L130.3,102z"/>
	<path class="st0" d="M133.9,97.2l3.2-4.2c-0.4-0.3-0.8-0.7-1.2-1.1l-3.5,3.8C132.9,96.2,133.4,96.7,133.9,97.2z"/>
	<path class="st0" d="M112.1,118c1.1,1.2,2.3,2.3,3.5,3.3l5.8-7.7c-1-0.9-2-1.8-2.9-2.7L112.1,118z"/>
	<path class="st0" d="M106.8,69.9l-9.2-1.8c-0.3,1.4-0.5,2.8-0.7,4.2l9.3,1.1C106.4,72.2,106.6,71,106.8,69.9z"/>
	<path class="st0" d="M121,72.7l-8.3-1.7c-0.2,1-0.4,2-0.5,3l8.4,1C120.7,74.3,120.8,73.5,121,72.7z"/>
	<path class="st0" d="M66.9,68.7L91,71.6c0.2-1.6,0.4-3.1,0.8-4.7l-23.8-4.8l0,0C67.5,64.3,67.2,66.5,66.9,68.7L66.9,68.7L66.9,68.7
		z"/>
	<path class="st0" d="M131.9,74.9l-5-1c-0.1,0.6-0.3,1.2-0.3,1.8l5,0.6C131.6,75.8,131.8,75.4,131.9,74.9z"/>
	<path class="st0" d="M106.2,84.6l-9.2,1.4c0.2,1.4,0.4,2.7,0.6,4l9.1-2.1C106.5,86.8,106.3,85.7,106.2,84.6z"/>
	<path class="st0" d="M91,86.8l-31,4.7v0c0,0.1-0.2,0.2-0.2,0.3c0.3,2.2,0.6,4.3,1.1,6.4l30.8-6.9C91.4,89.8,91.2,88.3,91,86.8z"/>
	<path class="st0" d="M112.1,83.7c0.1,1,0.3,2,0.4,3l8.2-1.9c-0.1-0.8-0.3-1.6-0.3-2.4L112.1,83.7z"/>
	<path class="st0" d="M126.4,81.5c0.1,0.7,0.1,1.3,0.2,1.9l4.9-1.1c-0.1-0.5,0-1.1-0.1-1.6L126.4,81.5z"/>
	<path class="st0" d="M266.3,208.7L215.9,99.9c-1.7-3.7-4.7-6.4-8.5-7.8c-3.6-1.3-7.5-1.2-11.1,0.3l0-0.2
		c-7.8-6.2-18.2-8.4-28.8-6.6L161.3,72c-0.8-1.7-2.2-2.9-4-3.6c-1.9-0.7-4-0.6-5.8,0.3l-9.7,4.6c-3.7,1.7-5.3,6-3.7,9.5l6.4,13.8
		c-7.9,7-12.7,16.4-13.1,26.3c-7.4,3.7-10.5,12.6-7.1,20l50.4,108.9c1.7,3.6,4.7,6.4,8.5,7.8c1.7,0.6,3.4,0.9,5.2,0.9
		c2.2,0,4.4-0.5,6.5-1.5l64-30.2C266.5,225.3,269.8,216.3,266.3,208.7z M144,80.5c-0.2-0.5,0.1-1.2,0.8-1.5l9.3-4.4
		c0.7-0.3,1.4-0.2,1.7,0.4l5.6,12.1c-2,0.6-4,1.4-5.9,2.3c-2,1-4,2.1-5.8,3.3L144,80.5z M158,95.2c11-5.2,22.8-4.9,31.4,0.4
		l-51.3,24.2C139.6,109.7,147,100.4,158,95.2z M256,223.2l-53.8,25.4c-0.3-0.1-0.5-0.3-0.7-0.5c-0.8-0.6-1.3-1.7-2.2-0.3
		c-0.6,1-0.3,1.6,0.5,2l-7.4,3.5c-0.8,0.4-1.7,0.6-2.5,0.8c-1.6-1.2-2.9-2.7-4.4-4c0.2,1.9,1.8,2.6,3.3,3.6c0.2,0.1,0.4,0.3,0.6,0.5
		c-2.4,0.2-4.8-0.5-6.6-2c0.3-0.2,0.4-0.6,0.1-1.1c-0.4-0.5-1.5-1.2-2.5-2c0,0,0-0.1,0-0.1l-1-2.2c0.1-0.2,0.4-0.5,0.8-0.7
		c1.4-0.8,3.4,1.6,4.5,0.3c1-1.1-2.7-2.7,0.7-2.4c2.4,0.2,7,4.1,9.2,2.7c1.3-0.8,0.1-2-0.9-2.5c-1.9-0.9-4.4-0.7-6.5-1.4
		c-0.8-0.3-2.3-0.8-2-1.9c0.3-1.2,2.3-0.7,2.8-1.6c0.4-0.7-0.1-0.7-0.3-1.2c-0.1-0.2-0.5-0.1-0.5-0.4c0-0.3,0.5-0.4,0.5-0.6
		c0.2-1,0.3-0.3-0.2-1.3c-0.3-0.6-0.5-0.5-0.6-1.3c-0.4-3,3.3-3.8,6.4-4.5c-0.1,0.4-0.2,0.8-0.6,1c-0.5,0.2-1.9-0.1-2.1,0.6
		c-0.4,1.4,2.5,1.2,3.1,1c0.9-0.3,2.3-1.1,2-2.3c-0.1-0.2-0.2-0.5-0.3-0.7c0.6-0.2,1.1-0.4,1.5-0.6c1.6-1.1,1.1-3-1-2.4
		c-1.1,0.4-2.2,1.4-3.3,1.9c-1.6,0.7-5.3,1.8-6.6,0c0.5-1.1,1.7-1.2,2.4-2.1c-0.6-2-2.9,0.8-3.3-1c-0.2-1,0.9-0.6-0.1-1.4
		c-0.7-0.5-1.4,0.1-1.1-1.1c0.5-2.2,5.8-2.3,5.6-5c-0.2-2.7-3.7,1.4-4.2,1.9c-0.6,0.5-2.5,1.3-3.1,0.5c-0.7-0.9,1-2.5,1.5-3.2
		c1-1.6,2.1-3.6,2.1-5.5c0-3.9-4.2-8.3-8.2-7.9c-2.2,0.3-3.5,1.6-3.9,3.7c-0.4,1.7,0,4.5-1.5,5.7c-1,0.8-2.3,0.4-2.6-0.8
		c-0.2-0.7,0.5-2.6-1-2.4c-0.9,0.1-0.8,1.4-1.3,1.9c-0.9-0.5-0.7-3.2-2.3-1.2c-0.4,0.5-1.3-3.7-1.3-4c-0.1-1.2-0.5-3.4-2.2-2.7
		c-2.5,0.9,1.6,5.2,1.5,6.9c0,0.3-0.1,0.5-0.2,0.8l-32.6-70.5c-2.1-4.5-0.1-10,4.5-12.1l63.6-30c4.6-2.2,10-0.2,12.1,4.3l4.8,10.3
		c-0.5,0-0.8,0.4-0.4,1c0.3,0.5,0.8,0.8,1.4,1.1l0.8,1.7c-0.1,0-0.2,0.1-0.4,0.1c-1,0.6,0.1,1.2-0.5,1.9c-0.5,0.6-2.4-0.4-2.7-0.8
		c-0.8-0.8-1.8-3.2-3.1-1.3c-1.3,1.8,1.4,1.9,2.5,2.2c1.1,0.3,2.4,1.7,1.4,2.8c-1,1.1-2.7,0.2-3.7-0.2c-2.6-1.2-5.3-3.3-8.2-2.1
		c-1.9,0.8-2.3,3-0.4,4c2.1,1.1,4.5,0.1,6.7,0c1.2,0,3.2,1.4,3.9,2.4c0.6,0.8-0.1,0.9-0.2,1.7c-0.1,0.8,0.6,0.8,0.8,1.5
		c0.1,0.6-0.4,0.8-0.6,1.4c-0.2,0.7,0.2,1.5-0.1,2.2c-0.3,1-1.1,1-2,1.2c-1.6,0.3-3.4,0.8-4.5,2c-0.9,0.9-0.9,2.2,0.5,2.5
		c2.1,0.5,3.5-3,5.5-1.3c-0.2,0.6-0.1,1.2-0.2,1.8c-0.2,0.6-1.2,1.2,0,1.6c0.9,0.3,2-1,3.1-0.1c1.4,1.2,0.7,3.2-0.4,4.3
		c-1,1.1-2.4,2.2-1.1,3.7c0.9,1.1,2.5,1.3,2.6-0.4c0-0.5-0.3-1.3,0-1.8c0.3-0.4,0.7-0.2,1-0.4c0.4-0.2,0.6-0.6,1-0.8
		c0.9-0.4,1.7-0.1,1.3,0.9c-0.2,0.5-0.6,1-0.7,1.5c-0.2,0.7-0.2,1.4-0.5,2.1c-1,1.8-3.8,1.4-4.7,3.2c-0.9,2,2,5,4.1,4.4
		c2.2-0.7,1.2-4.1,1.2-5.8c0-1.4,0.6-2.1,1.2-3.3c0.3-0.7,0.9-2.3,2-1.4c1.1,0.9-1,2.7-1,3.8c0,1.9,2.5,2.2,2.1-0.1
		c-0.1-0.6-0.8-1.6-0.4-2.2c0.8-1,3.5-0.1,4.1,0.7c0.6,0.8,0.1,2.4,0.9,3c1.3,0.9,1.3-0.7,1.4-1.4c0.2-1.1,0.6-1.2,1.7-1
		c0.4,0.1,0.5,0.3,0.9,0.2c0.3-0.1,0.3-0.8,0.6-0.9c0,0,0.1,0,0.1,0l28.8,62.2C262.6,215.6,260.6,221,256,223.2z"/>
	<path class="st0" d="M212.9,108.8c0.1,0,0.2,0,0.3,0l-1.6-3.4C210.1,106,211.8,108.6,212.9,108.8z"/>
</g>
</svg>
