<?xml version="1.0" encoding="utf-8"?>
<!-- Generator: Adobe Illustrator 19.2.1, SVG Export Plug-In . SVG Version: 6.00 Build 0)  -->
<!DOCTYPE svg PUBLIC "-//W3C//DTD SVG 1.1//EN" "http://www.w3.org/Graphics/SVG/1.1/DTD/svg11.dtd">
<svg version="1.1" id="Layer_1" xmlns="http://www.w3.org/2000/svg" xmlns:xlink="http://www.w3.org/1999/xlink" x="0px" y="0px"
	 width="340px" height="340px" viewBox="0 0 340 340" style="enable-background:new 0 0 340 340;" xml:space="preserve">
<style type="text/css">
                .st0{fill:#071C2C;}
                .st1{fill:#FFFFFF;}
    svg:hover {  cursor:pointer;}
                svg:hover .st0 {  fill:#830065;}
</style>
<g>
	<path class="st0" d="M207.5,164c0-1.7-1.3-3-3-3H86.4c-1.7,0-3,1.3-3,3s1.3,3,3,3h118.1C206.2,167,207.5,165.7,207.5,164z"/>
	<path class="st0" d="M86.4,150h118.1c1.7,0,3-1.3,3-3s-1.3-3-3-3H86.4c-1.7,0-3,1.3-3,3S84.7,150,86.4,150z"/>
	<path class="st0" d="M86.4,132h118.1c1.7,0,3-1.3,3-3s-1.3-3-3-3H86.4c-1.7,0-3,1.3-3,3S84.7,132,86.4,132z"/>
	<path class="st0" d="M261.8,143H240v6h21.8c11.3,0,20.2,8.8,20.2,20.1v33.4c0,11.3-8.9,20.5-20.2,20.5h-14.5
		c-0.9,0-1.8,0.5-2.4,1.2c-0.6,0.8-0.7,1.7-0.5,2.7l6.1,20.6l-28.1-23.8c-0.5-0.5-1.2-0.7-1.9-0.7h-34.1c-5.3,0-10.2-2-14-5h-7.9
		c5,7,13.1,11,21.9,11h33l27.3,23.1c1.1,0.9,2.5,1.4,3.9,1.4c1.1,0,2.3-0.3,3.3-1c2.2-1.5,3.2-4.2,2.5-6.7l-4.9-16.8h10.5
		c14.7,0,26.2-11.9,26.2-26.5v-33.4C288,154.5,276.4,143,261.8,143z"/>
	<path class="st0" d="M236,172.6v-52.7c0-22.7-18.1-40.9-40.8-40.9H96.5C73.8,79,55,97.2,55,119.9v52.7c0,22.7,18.8,41.4,41.5,41.4
		h11.7l-8.1,27.8c-0.8,2.6,0.4,5.4,2.7,6.8c0.9,0.6,2,0.8,3,0.8c1.6,0,3.1-0.5,4.3-1.7l33.5-33.7h51.6
		C217.9,214,236,195.2,236,172.6z M142.4,208c-0.8,0-1.6,0.2-2.1,0.7l-34.4,34.7l9.2-31.8c0.3-0.9,0.1-1.8-0.5-2.5
		c-0.6-0.8-1.5-1.1-2.4-1.1H96.5C77.1,208,61,191.9,61,172.6v-52.7C61,100.5,77.1,85,96.5,85h98.7c19.4,0,34.8,15.5,34.8,34.9v52.7
		c0,19.4-15.4,35.4-34.8,35.4H142.4z"/>
</g>
</svg>
