<?xml version="1.0" encoding="utf-8"?>
<!-- Generator: Adobe Illustrator 19.2.1, SVG Export Plug-In . SVG Version: 6.00 Build 0)  -->
<!DOCTYPE svg PUBLIC "-//W3C//DTD SVG 1.1//EN" "http://www.w3.org/Graphics/SVG/1.1/DTD/svg11.dtd">
<svg version="1.1" id="Layer_1" xmlns="http://www.w3.org/2000/svg" xmlns:xlink="http://www.w3.org/1999/xlink" x="0px" y="0px"
	 width="340px" height="340px" viewBox="0 0 340 340" style="enable-background:new 0 0 340 340;" xml:space="preserve">
<style type="text/css">
                .st0{fill:#071C2C;}
                .st1{fill:#FFFFFF;}
    svg:hover {  cursor:pointer;}
                svg:hover .st0 {  fill:#830065;}
</style>
<path class="st0" d="M281,177.6l-27.6,0l1.1-1.9c0,0,0,0,0-0.1c4.6-8.3,7.8-16.7,9.5-25.1c5.1-26-6.8-42-7.4-42.7
	c-9.5-12.1-21.1-18.2-34.5-18.2c-21.7,0-41.9,15.9-52.1,25.4c-10.1-9.5-30.4-25.4-52.1-25.4c-13.4,0-25,6.1-34.6,18.3
	c-0.5,0.7-12.3,16.6-7.2,42.6c1.3,6.6,3.6,13.3,6.9,20l1.3,2.3H59c-1.7,0-3,1.3-3,3s1.3,3,3,3h28.6c14.5,24,41.2,47.2,79.5,69.9
	c0.6,0.4,1.2,0.7,1.7,1c0.4,0.2,0.8,0.3,1.2,0.3c0.3,0,0.7,0,1-0.2c0.6-0.2,1.2-0.5,1.9-0.9c36-21.3,61.7-43.3,76.7-65.5l31.4,0
	c1.7,0,3-1.3,3-3C284,179,282.7,177.6,281,177.6z M90,171.2l-1.6-3.1c-3-6.2-5.2-12.5-6.4-18.6c-1.9-9.8-1.5-19,1.3-27.6
	c2.1-6.5,4.7-10,4.8-10.1c8.4-10.6,18.4-16,29.9-16c19.6,0,38.5,14.9,48,23.8c2.3,2.2,5.9,2.2,8.2,0c9.5-8.9,28.4-23.8,48-23.8
	c11.5,0,21.5,5.3,29.8,15.8c0.1,0.1,2.8,3.7,4.9,10.2c2.8,8.6,3.2,17.9,1.3,27.7c-1.5,7.7-4.5,15.5-8.8,23.3l-1.9,3.2
	c-0.3,0.6-0.7,1.1-1.1,1.7l-71,0L163,148.9l-7.7,34.6l-9.8-59.2l-9.5,48.7H91C90.7,173,90.3,171.8,90,171.2z M170,243.7
	c-35.7-21.2-61-42.7-75.3-64.7H141l4-20.7l9.4,56.9l10.4-46.9l6.6,15.3l70.9-0.1C227.5,203.8,203.3,223.9,170,243.7z"/>
</svg>
