<?xml version="1.0" encoding="utf-8"?>
<!-- Generator: Adobe Illustrator 19.2.1, SVG Export Plug-In . SVG Version: 6.00 Build 0)  -->
<!DOCTYPE svg PUBLIC "-//W3C//DTD SVG 1.1//EN" "http://www.w3.org/Graphics/SVG/1.1/DTD/svg11.dtd">
<svg version="1.1" id="Layer_1" xmlns="http://www.w3.org/2000/svg" xmlns:xlink="http://www.w3.org/1999/xlink" x="0px" y="0px"
	 width="340px" height="340px" viewBox="0 0 340 340" style="enable-background:new 0 0 340 340;" xml:space="preserve">
<style type="text/css">
                .st0{fill:#071C2C;}
                .st1{fill:#FFFFFF;}
    svg:hover {  cursor:pointer;}
                svg:hover .st0 {  fill:#830065;}
</style>
<g>
	<path class="st0" d="M170,95.9c2.1,0,4-1.7,4-3.7V59.8c0-2.1-1.9-3.7-4-3.7c-2.1,0-4,1.7-4,3.7v32.3C166,94.2,167.9,95.9,170,95.9z
		"/>
	<path class="st0" d="M147.8,95.5c0.5,2,2.6,3.2,4.6,2.6c2-0.5,3.2-2.6,2.6-4.6l-8.4-31.2c-0.5-2-2.6-3.2-4.6-2.6
		c-2,0.5-3.2,2.6-2.6,4.6L147.8,95.5z"/>
	<path class="st0" d="M130.8,103.6c1,1.8,3.3,2.4,5.1,1.4c1.8-1,2.4-3.3,1.4-5.1l-16.1-28c-1-1.8-3.3-2.4-5.1-1.4
		c-1.8,1-2.4,3.3-1.4,5.1L130.8,103.6z"/>
	<path class="st0" d="M116.5,115.8c1.5,1.5,3.8,1.5,5.3,0c1.5-1.5,1.5-3.8,0-5.3L98.9,87.7c-1.5-1.5-3.8-1.5-5.3,0
		c-1.5,1.5-1.5,3.8,0,5.3L116.5,115.8z"/>
	<path class="st0" d="M77.8,115.2l28,16.1c1.8,1,4.1,0.4,5.1-1.4c1-1.8,0.4-4.1-1.4-5.1l-28-16.1c-1.8-1-4.1-0.4-5.1,1.4
		C75.4,111.9,76,114.2,77.8,115.2z"/>
	<path class="st0" d="M68.3,140.7l31.2,8.4c2,0.5,4-0.6,4.6-2.6c0.5-2-0.6-4-2.6-4.6l-31.2-8.4c-2-0.5-4,0.6-4.6,2.6
		C65.1,138.2,66.3,140.2,68.3,140.7z"/>
	<path class="st0" d="M98,168c2.1,0,3.7-1.9,3.7-4c0-2.1-1.7-4-3.7-4H65.7c-2.1,0-3.7,1.9-3.7,4c0,2.1,1.7,4,3.7,4H98z"/>
	<path class="st0" d="M104.1,181.8c-0.5-2-2.6-3.2-4.6-2.6l-31.2,8.4c-2,0.5-3.2,2.6-2.6,4.6c0.5,2,2.6,3.2,4.6,2.6l31.2-8.4
		C103.4,185.8,104.6,183.8,104.1,181.8z"/>
	<path class="st0" d="M110.9,198.2c-1-1.8-3.3-2.4-5.1-1.4l-28,16.1c-1.8,1-2.4,3.3-1.4,5.1c1,1.8,3.3,2.4,5.1,1.4l28-16.1
		C111.3,202.3,111.9,200,110.9,198.2z"/>
	<path class="st0" d="M116.5,212.4l-22.8,22.8c-1.5,1.5-1.5,3.8,0,5.3c1.5,1.5,3.8,1.5,5.3,0l22.8-22.8c1.5-1.5,1.5-3.8,0-5.3
		C120.3,210.9,117.9,210.9,116.5,212.4z"/>
	<path class="st0" d="M223.5,212.4c-1.5-1.5-3.8-1.5-5.3,0c-1.5,1.5-1.5,3.8,0,5.3l22.8,22.8c1.5,1.5,3.8,1.5,5.3,0
		c1.5-1.5,1.5-3.8,0-5.3L223.5,212.4z"/>
	<path class="st0" d="M262.2,213l-28-16.1c-1.8-1-4.1-0.4-5.1,1.4c-1,1.8-0.4,4.1,1.4,5.1l28,16.1c1.8,1,4.1,0.4,5.1-1.4
		C264.6,216.3,264,214,262.2,213z"/>
	<path class="st0" d="M271.7,187.5l-31.2-8.4c-2-0.5-4,0.6-4.6,2.6c-0.5,2,0.7,4,2.6,4.6l31.2,8.4c2,0.5,4-0.7,4.6-2.6
		C274.9,190.1,273.7,188,271.7,187.5z"/>
	<path class="st0" d="M274.3,160H242c-2.1,0-3.7,1.9-3.7,4c0,2.1,1.7,4,3.7,4h32.3c2.1,0,3.7-1.9,3.7-4
		C278,161.9,276.3,160,274.3,160z"/>
	<path class="st0" d="M235.9,146.4c0.5,2,2.6,3.2,4.6,2.6l31.2-8.4c2-0.5,3.2-2.6,2.6-4.6c-0.5-2-2.6-3.2-4.6-2.6l-31.2,8.4
		C236.6,142.4,235.4,144.4,235.9,146.4z"/>
	<path class="st0" d="M229.1,130c1,1.8,3.3,2.4,5.1,1.4l28-16.1c1.8-1,2.4-3.3,1.4-5.1c-1-1.8-3.3-2.4-5.1-1.4l-28,16.1
		C228.7,125.9,228.1,128.2,229.1,130z"/>
	<path class="st0" d="M218.3,115.8c1.5,1.5,3.8,1.5,5.3,0L246.4,93c1.5-1.5,1.5-3.8,0-5.3c-1.5-1.5-3.8-1.5-5.3,0l-22.8,22.8
		C216.8,112,216.8,114.4,218.3,115.8z"/>
	<path class="st0" d="M204.1,105c1.8,1,4.1,0.4,5.1-1.4l16.1-28c1-1.8,0.4-4.1-1.4-5.1c-1.8-1-4.1-0.4-5.1,1.4l-16.1,28
		C201.7,101.7,202.3,104,204.1,105z"/>
	<path class="st0" d="M187.7,98.2c2,0.5,4-0.7,4.6-2.6l8.4-31.2c0.5-2-0.6-4-2.6-4.6c-2-0.5-4,0.6-4.6,2.6L185,93.6
		C184.5,95.6,185.7,97.6,187.7,98.2z"/>
	<path class="st0" d="M170,105.7c-32.5,0-58.9,26.4-58.9,58.9c0,18.8,9.1,36.7,24.4,47.7c2.8,2,4.8,5.5,5.5,9.1l0.4,2.6h57l0.4-2.6
		c0.7-3.6,2.6-7,5.5-9c15.3-11.1,24.4-28.9,24.4-47.8C228.9,132.1,202.5,105.7,170,105.7z M200.9,207.6c-3.4,2.5-6,6.4-7.3,10.4
		h-47.3c-1.3-4-3.9-8-7.3-10.4c-13.7-9.9-22-26-22-43c0-29.2,23.7-52.9,52.9-52.9s52.9,23.8,52.9,52.9
		C222.9,181.6,214.7,197.7,200.9,207.6z"/>
	<path class="st0" d="M188.5,243h-36.7c-1.7,0-3,1.3-3,3s1.3,3,3,3h36.7c1.7,0,3-1.3,3-3S190.1,243,188.5,243z"/>
	<path class="st0" d="M194.6,231h-49c-1.7,0-3,1.3-3,3s1.3,3,3,3h49c1.7,0,3-1.3,3-3S196.3,231,194.6,231z"/>
	<path class="st0" d="M182.6,255h-24.9c-1.7,0-3,1.3-3,3s1.3,3,3,3h1.8c0.3,2,5,5.3,10.6,5.3s10.3-3.3,10.6-5.3h1.8c1.7,0,3-1.3,3-3
		S184.2,255,182.6,255z"/>
</g>
</svg>
