<?xml version="1.0" encoding="utf-8"?>
<!-- Generator: Adobe Illustrator 19.2.0, SVG Export Plug-In . SVG Version: 6.00 Build 0)  -->
<!DOCTYPE svg PUBLIC "-//W3C//DTD SVG 1.1//EN" "http://www.w3.org/Graphics/SVG/1.1/DTD/svg11.dtd">
<svg version="1.1" id="Layer_1" xmlns="http://www.w3.org/2000/svg" xmlns:xlink="http://www.w3.org/1999/xlink" x="0px" y="0px"
	 viewBox="0 0 340 340" style="enable-background:new 0 0 340 340;" xml:space="preserve">
<style type="text/css">
                .st0{fill:#071C2C;}
                .st1{fill:#FFFFFF;}
    svg:hover {  cursor:pointer;}
                svg:hover .st0 {  fill:#830065;}
</style>
<g>
	<g>
		<path class="st0" d="M245.2,253.4H102.6c-9.4,0-12.8-7.7-12.8-12.8V49.4c0-9.4,7.7-12.8,12.8-12.8H195c0.8,0,1.6,0.3,2.1,0.9
			l60,61.6c0.5,0.6,0.9,1.3,0.9,2.1v139.4C258,250,250.3,253.4,245.2,253.4z M102.6,42.6c-1.1,0-6.8,0.4-6.8,6.8v191.2
			c0,1.1,0.4,6.8,6.8,6.8h142.6c1.1,0,6.8-0.4,6.8-6.8V102.4l-58.3-59.8H102.6z"/>
	</g>
	<g>
		<path class="st0" d="M253.7,103.8h-49c-9.2,0-12.6-7.5-12.6-12.6V40.4c0-1.2,0.7-2.3,1.9-2.8c1.1-0.5,2.4-0.2,3.3,0.7l58.6,60.4
			c0.8,0.9,1.1,2.1,0.6,3.3S254.9,103.8,253.7,103.8z M198.1,47.8v43.4c0.1,6.3,5.5,6.6,6.6,6.6h41.9L198.1,47.8z"/>
	</g>
	<g>
		<path class="st0" d="M125.6,134.1c-8.6,0-15.6-7-15.6-15.6s7-15.6,15.6-15.6c8.6,0,15.6,7,15.6,15.6S134.2,134.1,125.6,134.1z
			 M125.6,106.9c-6.4,0-11.6,5.2-11.6,11.6c0,6.4,5.2,11.6,11.6,11.6c6.4,0,11.6-5.2,11.6-11.6C137.3,112.1,132,106.9,125.6,106.9z"
			/>
	</g>
	<g>
		<path class="st0" d="M135.4,169h-19.6c-6.8,0-10.1-3.7-11.6-6.7c-1.6-3.2-1.6-6.4-1.6-6.5v-4.2c0-8.9,3.8-15.1,11-17.9
			c2.6-1,5.1,1.6,7.9,4.6c1.2,1.3,3.3,3.5,4.1,3.7c0.9-0.3,2.9-2.4,4.2-3.7c2.9-3,5.4-5.6,8-4.6c7.1,2.8,10.9,8.9,10.9,17.8v4.2
			C148.6,168.8,135.5,169,135.4,169z M114.7,137.4c-5.5,2.2-8.1,6.8-8.1,14v4.2c0,0.9,0.3,9.2,9.2,9.2h19.6c0.9,0,9.2-0.3,9.2-9.2
			v-4.2c0-7.2-2.6-11.8-8.1-14c-0.9,0.4-2.7,2.3-3.9,3.5c-2.5,2.7-4.7,5-7.1,5c-2.3,0-4.5-2.3-7-5
			C117.4,139.8,115.5,137.8,114.7,137.4z"/>
	</g>
	<g>
		<path class="st0" d="M122.6,95.6c-2.7,0-5.2-0.4-7.4-1.3c-2.2-0.9-4.1-2.1-5.7-3.8c-1.6-1.7-2.8-3.8-3.6-6.3
			c-0.8-2.5-1.2-5.4-1.2-8.6c0-3.3,0.5-6.3,1.3-8.9c0.9-2.6,2.2-4.9,3.8-6.6c1.6-1.8,3.6-3.2,5.9-4.1c2.3-0.9,4.8-1.4,7.5-1.4
			c1.1,0,2.2,0.1,3.2,0.3c1,0.2,2,0.4,2.9,0.7c0.9,0.3,1.7,0.7,2.4,1.1c0.8,0.4,1.3,0.8,1.6,1.1c0.3,0.3,0.6,0.6,0.7,0.9
			c0.1,0.3,0.3,0.6,0.3,1c0.1,0.3,0.1,0.7,0.2,1.1c0,0.4,0,0.9,0,1.5c0,0.6,0,1.1-0.1,1.6c0,0.5-0.1,0.9-0.3,1.3
			c-0.2,0.4-0.4,0.7-0.6,1c-0.7,0.6-1.7,0.6-2.8-0.3c-0.4-0.3-1-0.7-1.6-1.1c-0.6-0.4-1.4-0.7-2.4-1.1c-0.9-0.3-2-0.5-3.2-0.5
			c-1.3,0-2.5,0.3-3.6,0.8c-1,0.5-1.9,1.3-2.7,2.3c-0.8,1-1.3,2.3-1.7,3.8c-0.4,1.5-0.6,3.3-0.6,5.2c0,2.1,0.2,4,0.7,5.5
			c0.4,1.5,1,2.7,1.8,3.7c0.7,0.9,1.6,1.6,2.7,2.1c1.1,0.5,2.3,0.7,3.7,0.7c1.3,0,2.3-0.1,3.2-0.4c0.9-0.3,1.7-0.6,2.4-1
			c0.7-0.4,1.2-0.7,1.7-1c1.2-0.8,2-0.8,2.7-0.4c0.3,0.2,0.5,0.5,0.7,1c0.1,0.3,0.2,0.7,0.2,1.2c0,0.5,0.1,1,0.1,1.8
			c0,0.5,0,1,0,1.3c0,0.4-0.1,0.7-0.2,1c-0.1,0.3-0.2,0.6-0.3,0.9c-0.1,0.3-0.3,0.5-0.6,0.8c-0.3,0.3-0.8,0.6-1.5,1
			c-0.7,0.4-1.5,0.7-2.4,1.1c-0.9,0.3-2,0.6-3.2,0.8C125.3,95.5,124,95.6,122.6,95.6z M123.3,56.5c-2.5,0-4.7,0.4-6.8,1.2
			c-2,0.8-3.8,2-5.2,3.6c-1.4,1.6-2.6,3.6-3.4,6c-0.8,2.4-1.2,5.2-1.2,8.3c0,3,0.4,5.7,1.1,8c0.7,2.2,1.8,4.1,3.2,5.6
			c1.4,1.5,3,2.6,5,3.3c2,0.8,4.2,1.1,6.7,1.1c1.3,0,2.4-0.1,3.5-0.3c1.1-0.2,2.1-0.5,2.9-0.8c0.8-0.3,1.5-0.6,2.1-0.9
			c0.7-0.4,1-0.6,1-0.7c0.2-0.2,0.3-0.3,0.3-0.4c0.1-0.1,0.1-0.2,0.1-0.4c0-0.2,0.1-0.4,0.1-0.7c0-0.3,0-0.7,0-1.2
			c0-0.7,0-1.2-0.1-1.6v0c0-0.3-0.1-0.5-0.1-0.6c-0.1,0-0.2,0.1-0.4,0.2c-0.5,0.3-1.1,0.7-1.8,1.1c-0.8,0.4-1.7,0.8-2.7,1.1
			c-1.1,0.4-2.4,0.5-3.9,0.5c-1.6,0-3.1-0.3-4.5-0.9c-1.3-0.6-2.5-1.5-3.5-2.6c-0.9-1.2-1.7-2.6-2.1-4.4c-0.5-1.7-0.7-3.7-0.7-6.1
			c0-2.1,0.2-4,0.7-5.7c0.5-1.7,1.1-3.2,2-4.5c0.9-1.3,2.1-2.3,3.4-2.9c1.3-0.7,2.8-1,4.5-1c1.5,0,2.8,0.2,3.9,0.6
			c1,0.4,2,0.8,2.7,1.2c0.7,0.4,1.4,0.8,1.8,1.2c0.2,0.1,0.3,0.2,0.4,0.2c0,0,0,0,0,0c0-0.1,0.1-0.3,0.1-0.7c0-0.4,0.1-0.8,0.1-1.4
			c0-0.5,0-0.9,0-1.3c0-0.3-0.1-0.6-0.1-0.8c0-0.2-0.1-0.3-0.1-0.4c0,0-0.1-0.2-0.4-0.4c-0.1-0.1-0.4-0.4-1.2-0.8
			c-0.6-0.3-1.3-0.6-2.1-0.9c-0.8-0.3-1.6-0.5-2.6-0.7C125.2,56.6,124.3,56.5,123.3,56.5z M132.8,86C132.8,86,132.8,86,132.8,86
			C132.8,86,132.8,86,132.8,86C132.8,86,132.8,86,132.8,86z"/>
	</g>
	<g>
		<path class="st0" d="M154.6,95.2c-0.8,0-1.5,0-2,0c-0.6,0-1.1,0-1.5-0.1c-0.5,0-0.8-0.1-1.2-0.2c-0.3-0.1-0.6-0.3-0.9-0.4
			c-0.3-0.2-0.5-0.5-0.7-0.8c-0.1-0.2-0.2-0.5-0.3-0.8l-11.3-33.6c-0.3-0.8-0.4-1.4-0.5-1.9c-0.1-1,0.4-1.6,0.6-1.8
			c0.4-0.3,1-0.5,1.8-0.6c0.6-0.1,1.4-0.1,2.5-0.1c0.9,0,1.7,0,2.2,0.1c0.6,0,1.1,0.1,1.4,0.3c0.6,0.2,1,0.6,1.1,0.9
			c0.1,0.2,0.3,0.5,0.4,0.9l8.3,26.3l8.1-26.1c0.1-0.4,0.2-0.7,0.4-1c0.2-0.4,0.6-0.7,1.1-0.9c0.4-0.2,0.9-0.3,1.5-0.3
			c0.5,0,1.3-0.1,2.2-0.1c0.9,0,1.7,0,2.2,0.1c0.8,0.1,1.3,0.3,1.7,0.8c0.3,0.3,0.5,0.9,0.4,1.8c-0.1,0.5-0.2,1.1-0.5,1.8L160.5,93
			c-0.1,0.4-0.3,0.8-0.5,1.1c-0.3,0.4-0.7,0.7-1.3,0.8c-0.4,0.1-1,0.2-1.7,0.2C156.4,95.2,155.6,95.2,154.6,95.2z M138.3,57.1
			C138.3,57.1,138.3,57.2,138.3,57.1c0,0.4,0.2,0.9,0.4,1.5l11.3,33.6c0.1,0.2,0.1,0.4,0.2,0.5c0,0,0,0,0.1,0.1
			c0.1,0,0.2,0.1,0.3,0.2c0.1,0,0.3,0.1,0.7,0.1c0.4,0,0.8,0.1,1.3,0.1c0.6,0,1.2,0,2,0c1,0,1.7,0,2.3,0c0.6,0,1-0.1,1.2-0.2
			c0.2-0.1,0.3-0.1,0.3-0.1c0.1-0.1,0.1-0.2,0.2-0.5l11.3-33.7c0.2-0.6,0.4-1.1,0.4-1.5c0-0.1,0-0.1,0-0.1c-0.1,0-0.2-0.1-0.3-0.1
			c-0.5-0.1-1.1-0.1-2-0.1c-0.9,0-1.6,0-2.1,0.1c-0.5,0-0.8,0.1-0.9,0.2c-0.1,0-0.1,0.1-0.1,0.1c0,0.1-0.1,0.2-0.2,0.5l-9.3,29.9
			H154l-0.2-0.7l-9.2-29.2c-0.1-0.2-0.2-0.4-0.2-0.6c-0.1,0-0.4-0.1-0.9-0.1c-0.5,0-1.2-0.1-2-0.1c-1,0-1.8,0-2.4,0.1
			C138.6,57,138.4,57.1,138.3,57.1z"/>
	</g>
</g>
<g>
	<path class="st0" d="M133.7,88.3c0,0.5,0,0.9,0,1.2c0,0.3-0.1,0.6-0.1,0.9c-0.1,0.2-0.1,0.5-0.2,0.6s-0.3,0.4-0.5,0.6
		c-0.2,0.2-0.6,0.5-1.2,0.9s-1.4,0.7-2.3,1s-1.9,0.6-3,0.8c-1.1,0.2-2.4,0.3-3.7,0.3c-2.6,0-4.9-0.4-7-1.2s-3.9-2-5.3-3.6
		c-1.5-1.6-2.6-3.6-3.4-6c-0.8-2.4-1.2-5.2-1.2-8.3c0-3.2,0.4-6.1,1.3-8.6c0.9-2.5,2.1-4.6,3.6-6.3s3.4-3,5.6-3.9s4.5-1.3,7.1-1.3
		c1.1,0,2.1,0.1,3,0.3s1.9,0.4,2.7,0.7c0.8,0.3,1.6,0.6,2.2,1c0.7,0.4,1.1,0.7,1.4,1s0.4,0.5,0.5,0.7s0.2,0.4,0.2,0.7
		c0.1,0.3,0.1,0.6,0.1,1c0,0.4,0,0.8,0,1.4c0,0.6,0,1.1-0.1,1.5s-0.1,0.7-0.2,1c-0.1,0.3-0.2,0.4-0.4,0.6s-0.3,0.2-0.5,0.2
		c-0.3,0-0.7-0.2-1.1-0.5c-0.4-0.3-1-0.7-1.7-1.1c-0.7-0.4-1.6-0.8-2.5-1.1c-1-0.3-2.2-0.5-3.5-0.5c-1.5,0-2.8,0.3-4,0.9
		s-2.2,1.5-3,2.6s-1.5,2.5-1.9,4.1c-0.4,1.6-0.6,3.4-0.6,5.5c0,2.2,0.2,4.2,0.7,5.8c0.5,1.6,1.1,3,2,4s1.9,1.8,3.1,2.4
		c1.2,0.5,2.6,0.8,4.1,0.8c1.4,0,2.5-0.2,3.5-0.5s1.9-0.7,2.6-1.1c0.7-0.4,1.3-0.7,1.8-1.1c0.5-0.3,0.8-0.5,1.1-0.5
		c0.2,0,0.4,0,0.5,0.1c0.1,0.1,0.2,0.2,0.3,0.5s0.1,0.6,0.2,1C133.7,87,133.7,87.6,133.7,88.3z"/>
	<path class="st0" d="M159.5,92.7c-0.1,0.3-0.2,0.6-0.4,0.8s-0.4,0.4-0.8,0.5s-0.8,0.2-1.4,0.2s-1.4,0-2.4,0c-0.8,0-1.5,0-2,0
		c-0.6,0-1,0-1.4-0.1c-0.4,0-0.7-0.1-1-0.2c-0.2-0.1-0.4-0.2-0.6-0.3s-0.3-0.3-0.4-0.4c-0.1-0.2-0.2-0.4-0.2-0.6L137.7,59
		c-0.2-0.7-0.4-1.3-0.4-1.7s0-0.7,0.3-0.9s0.7-0.3,1.2-0.4c0.6,0,1.4-0.1,2.5-0.1c0.9,0,1.6,0,2.1,0.1c0.5,0,0.9,0.1,1.2,0.2
		c0.3,0.1,0.5,0.2,0.6,0.4c0.1,0.2,0.2,0.4,0.3,0.7l9.2,29.2h0l9.1-29.1c0.1-0.3,0.2-0.6,0.3-0.8s0.3-0.4,0.6-0.5s0.7-0.2,1.2-0.2
		c0.5,0,1.2-0.1,2.2-0.1c0.9,0,1.6,0,2.1,0.1s0.8,0.2,1,0.4c0.2,0.2,0.2,0.5,0.2,1s-0.2,1-0.5,1.6L159.5,92.7z"/>
</g>
<g>
	<path class="st0" d="M240.4,207.4H103.8c-1.1,0-2-0.9-2-2s0.9-2,2-2h136.5c1.1,0,2,0.9,2,2S241.5,207.4,240.4,207.4z"/>
</g>
<g>
	<path class="st0" d="M240.4,228.9H103.8c-1.1,0-2-0.9-2-2s0.9-2,2-2h136.5c1.1,0,2,0.9,2,2S241.5,228.9,240.4,228.9z"/>
</g>
<g>
	<path class="st0" d="M240.4,186H103.8c-1.1,0-2-0.9-2-2s0.9-2,2-2h136.5c1.1,0,2,0.9,2,2S241.5,186,240.4,186z"/>
</g>
<g>
	<path class="st0" d="M240.4,143.1h-78.9c-1.1,0-2-0.9-2-2s0.9-2,2-2h78.9c1.1,0,2,0.9,2,2S241.5,143.1,240.4,143.1z"/>
</g>
<g>
	<path class="st0" d="M240.4,121.7h-78.9c-1.1,0-2-0.9-2-2s0.9-2,2-2h78.9c1.1,0,2,0.9,2,2S241.5,121.7,240.4,121.7z"/>
</g>
<g>
	<path class="st0" d="M240.4,164.6h-78.9c-1.1,0-2-0.9-2-2s0.9-2,2-2h78.9c1.1,0,2,0.9,2,2S241.5,164.6,240.4,164.6z"/>
</g>
</svg>
