<?xml version="1.0" encoding="utf-8"?>
<!-- Generator: Adobe Illustrator 19.2.0, SVG Export Plug-In . SVG Version: 6.00 Build 0)  -->
<!DOCTYPE svg PUBLIC "-//W3C//DTD SVG 1.1//EN" "http://www.w3.org/Graphics/SVG/1.1/DTD/svg11.dtd">
<svg version="1.1" id="Layer_1" xmlns="http://www.w3.org/2000/svg" xmlns:xlink="http://www.w3.org/1999/xlink" x="0px" y="0px"
	 viewBox="-250 425.5 340 340" style="enable-background:new -250 425.5 340 340;" xml:space="preserve">
<style type="text/css">
                .st0{fill:#071C2C;}
                .st1{fill:#FFFFFF;}
    svg:hover {  cursor:pointer;}
                svg:hover .st0 {  fill:#830065;}
</style>
<path class="st0" d="M41.8,520.8h-5.7l0-2.1c0-1.6-1.2-2.9-2.7-3c0,0,0,0,0,0c-1.5-0.1-3-0.2-4.4-0.3c0-2.5,0.1-4.5,0.1-5.7
	c0-1.6-1.2-2.8-2.7-3c-1.3-0.1-4.9-0.2-8.4-0.3l-0.1,0c-2.6-0.1-5.6-0.2-6.8-0.2l0-3.5c0-1.3-0.9-2.5-2.1-2.9
	c-13.8-4.3-32.3-4.5-49.4-0.7c-18.1,4-32.2,12-40.1,22.5c-25.2-25.6-66.8-25.1-88.8-16.2c-1,0.4-1.7,1.3-1.9,2.4
	c-3.5,0-7.3,0.1-11.5,0.5v0c-1.6,0.1-2.7,1.4-2.7,3l0,4.2c-1.6,0.1-3.2,0.2-4.8,0.3c-1.6,0.1-2.8,1.5-2.7,3l0,2.1h-4.1
	c-1.7,0-3,1.3-3,3v151.9c0,1.7,1.3,3,3,3H41.8c1.7,0,3-1.3,3-3V523.8C44.8,522.1,43.5,520.8,41.8,520.8z M27.7,570.8l0-0.3
	c0.5-20.7,1-40.5,1.2-52.1c1.4,0.1,2.8,0.2,4.2,0.3l-0.7,149.8c-18.8-7-38.8-9.8-57.7-8.2c-12.9,1.1-29.4,5.8-44,10
	c-1.7,0.5-3.3,0.9-4.9,1.4c1.1-0.5,2.2-1.1,3.4-1.7c11.5-5.7,24.6-12.2,35.5-14.7c17.4-3.9,38.8-3,57.2,2.5c0.9,0.3,1.9,0.1,2.6-0.5
	c0.8-0.6,1.2-1.5,1.2-2.4C25.9,642.4,26.8,604.3,27.7,570.8z M-82.2,670.7l-0.1,0.1l0,0L-82.2,670.7
	C-82.2,670.7-82.2,670.7-82.2,670.7z M10.3,645.3c0.7-0.6,1-1.4,1-2.3L11,509.1c1.4,0.1,4.1,0.2,6.7,0.2l0.1,0
	c3.4,0.1,6.9,0.2,8.2,0.3v0c0,6.8-0.6,33-1.3,60.7l0,0.3c-0.8,33.6-1.8,71.6-1.8,84.2c-18.9-5.6-40.8-6.5-58.7-2.5
	c-11.3,2.5-24.5,9.1-36.3,15c-0.5,0.3-1.1,0.5-1.6,0.8c9.5-9.5,21.2-16.4,32.8-19.4c16.2-4.2,32.7-5.1,48.8-2.8
	C8.8,646.1,9.6,645.9,10.3,645.3z M-39.8,502c7.9-1.8,16-2.6,23.8-2.6c8.7,0,17,1.1,24.1,3.3L8.3,643c-16.6-2.4-33.4-1.4-50,2.8
	c-13,3.3-26.3,11.6-36.6,22.7c0-0.1,0-0.2,0-0.2V525.2c0-0.5-0.1-0.9-0.3-1.4C-71.2,513.7-57.6,506-39.8,502z M-168.3,508.1
	c21.4-8.6,61.8-9.1,86,16.1c-0.1,0.3-0.1,0.5-0.1,0.8v143.6c-11-11.9-25.2-21.2-37.4-24.3c-7.8-2-16.2-3-25.4-3
	c-7.3,0-15.1,0.6-23.8,1.8L-168.3,508.1z M-182.5,511.2L-182.5,511.2C-182.5,511.2-182.5,511.2-182.5,511.2c4-0.4,7.8-0.5,11.2-0.4
	l-0.6,132.3c0,0.9,0.4,1.7,1,2.3c0.7,0.6,1.5,0.8,2.4,0.7c19.2-2.7,34.4-2.4,48,1.1c10.2,2.6,21.8,9.7,31.7,19.1
	c-11.3-6.2-26.5-11.6-37.2-14.1c-5.4-1.3-11-1.8-16.7-1.8c-14.3,0-28.9,3.4-39.9,6.7L-182.5,511.2z M-190.1,518.6
	C-190.1,518.6-190.1,518.6-190.1,518.6c1.6-0.1,3.1-0.2,4.6-0.3l0,138.8c0,0.9,0.5,1.8,1.2,2.4c0.8,0.6,1.8,0.7,2.7,0.5
	c15-4.6,36.6-9.2,55-4.9c10.5,2.4,25.3,7.7,36.3,13.7c-12.2-4.4-28.6-8.2-43.3-8.4c-2.1,0-4.1-0.1-6.1-0.1c-14.1,0-26.6,1.2-48,8.1
	L-190.1,518.6L-190.1,518.6z M-194.1,526.8h1.2l2.1,141.7c0,0.9,0.5,1.8,1.3,2.4c0.8,0.5,1.8,0.7,2.7,0.4
	c24.1-7.8,36.7-8.2,53.2-7.9c15.5,0.3,33,4.5,45.1,9.3h-105.5V526.8z M38.8,672.7H-66.7c14-4,29.6-8.3,41.7-9.4
	c18.5-1.6,37.9,1.1,56.3,8c0.9,0.3,2,0.2,2.8-0.3c0.8-0.6,1.3-1.5,1.3-2.5l0.7-141.7h2.8V672.7z"/>
</svg>
