<?xml version="1.0" encoding="utf-8"?>
<!-- Generator: Adobe Illustrator 19.2.1, SVG Export Plug-In . SVG Version: 6.00 Build 0)  -->
<!DOCTYPE svg PUBLIC "-//W3C//DTD SVG 1.1//EN" "http://www.w3.org/Graphics/SVG/1.1/DTD/svg11.dtd">
<svg version="1.1" id="Layer_1" xmlns="http://www.w3.org/2000/svg" xmlns:xlink="http://www.w3.org/1999/xlink" x="0px" y="0px"
	 width="340px" height="340px" viewBox="0 0 340 340" style="enable-background:new 0 0 340 340;" xml:space="preserve">
<style type="text/css">
                .st0{fill:#071C2C;}
                .st1{fill:#FFFFFF;}
    svg:hover {  cursor:pointer;}
                svg:hover .st0 {  fill:#830065;}
</style>
<g>
	<path class="st0" d="M117.7,108h104.5c0.8,0,1.5-0.7,1.5-1.5s-0.7-1.5-1.5-1.5H117.7c-0.8,0-1.5,0.7-1.5,1.5S116.9,108,117.7,108z"
		/>
	<path class="st0" d="M117.7,123h104.5c0.8,0,1.5-0.7,1.5-1.5s-0.7-1.5-1.5-1.5H117.7c-0.8,0-1.5,0.7-1.5,1.5S116.9,123,117.7,123z"
		/>
	<path class="st0" d="M117.7,139h104.5c0.8,0,1.5-0.7,1.5-1.5s-0.7-1.5-1.5-1.5H117.7c-0.8,0-1.5,0.7-1.5,1.5S116.9,139,117.7,139z"
		/>
	<path class="st0" d="M117.7,154h104.5c0.8,0,1.5-0.7,1.5-1.5s-0.7-1.5-1.5-1.5H117.7c-0.8,0-1.5,0.7-1.5,1.5S116.9,154,117.7,154z"
		/>
	<path class="st0" d="M153.5,197h-35.7c-0.8,0-1.5,0.7-1.5,1.5s0.7,1.5,1.5,1.5h35.7c0.8,0,1.5-0.7,1.5-1.5S154.3,197,153.5,197z"/>
	<path class="st0" d="M223.8,167.5c0-0.8-0.7-1.5-1.5-1.5H117.7c-0.8,0-1.5,0.7-1.5,1.5s0.7,1.5,1.5,1.5h104.5
		C223.1,169,223.8,168.3,223.8,167.5z"/>
	<path class="st0" d="M153.5,212h-35.7c-0.8,0-1.5,0.7-1.5,1.5s0.7,1.5,1.5,1.5h35.7c0.8,0,1.5-0.7,1.5-1.5S154.3,212,153.5,212z"/>
	<path class="st0" d="M216.8,225.8c-0.1-0.2-0.1-0.4-0.2-0.5l5.3-3.6c1.2-0.8,1.6-2.3,1.1-3.6l-2.7-6.6l2.4-6.8
		c0.5-1.3,0-2.8-1.2-3.6l-6.1-3.8l-2-6.9c-0.4-1.4-1.7-2.2-3.1-2.1l-7.2,0.5l-5.7-4.4c-1.1-0.9-2.7-0.8-3.8,0.1l-5.5,4.6l-7.2-0.2
		c-1.4-0.1-2.7,0.9-3,2.3l-1.7,7l-5.9,4.1c-1.2,0.8-1.6,2.3-1.1,3.6l2.7,6.6l-2.4,6.8c-0.5,1.3,0,2.8,1.2,3.6l6.1,3.8l1,3.4
		l-11.4,29.8c-0.4,1.1-0.1,2.4,0.8,3.3c0.9,0.8,2.2,1,3.3,0.5l11-5l4.9,11.5c0.5,1.1,1.6,2,2.7,2c0,0,0,0,0.1,0c1.2-1,2.3-1,2.7-2.2
		l5.4-14.3l4.4,14.2c0.4,1.2,1.4,2,2.6,2.1c0.1,0,0.2,0,0.3,0c1.1,0,2.2-0.6,2.7-1.6l5.5-10.8l10.7,5.7c1.1,0.6,2.4,0.4,3.3-0.3
		c0.9-0.8,1.3-2,1-3.2L216.8,225.8z M176,218.9l2-5.6c0.2-0.7,0.2-1.5,0-2.1l-2.2-5.5l4.9-3.3c0.6-0.4,1-1,1.2-1.8l1.4-5.7l5.9,0.2
		c0.7,0,1.5-0.2,2-0.7l4.5-3.8l4.7,3.6c0.6,0.4,1.3,0.7,2,0.6l5.9-0.4l1.7,5.7c0.2,0.7,0.7,1.3,1.3,1.7l5,3.1l-2,5.6
		c-0.2,0.7-0.2,1.5,0,2.1l2.2,5.5l-4.9,3.3c-0.6,0.4-1,1-1.2,1.8l-1.4,5.7l-5.9-0.2c-0.7,0-1.5,0.2-2,0.7l-4.5,3.8l-4.7-3.6
		c-0.5-0.4-1.2-0.6-1.8-0.6c-0.1,0-0.1,0-0.2,0l-5.9,0.4l-1.7-5.7c-0.2-0.7-0.7-1.3-1.3-1.7L176,218.9z M189,260.6l-3.2-7.3
		c-0.3-0.7-0.9-1.3-1.7-1.6c-0.3-0.1-0.7-0.2-1.1-0.2c-0.4,0-0.9,0.1-1.3,0.3l-7.1,3.3l7.5-19.5l7-0.5l2.6,2l2.8,9.2L189,260.6z
		 M213,252.7c-0.7-0.4-1.5-0.5-2.3-0.2c-0.8,0.2-1.4,0.8-1.8,1.5l-3.5,6.9l-6.7-21.7l5.4-4.5l7.2,0.2c0.7,0,1.4-0.2,1.9-0.6
		l6.9,22.2L213,252.7z"/>
	<path class="st0" d="M237.2,67H102.8C96.8,67,92,71.6,92,77.4v164.9c0,6,4.7,10.7,10.8,10.7h62.9l2.3-6h-65.2c-2.7,0-4.8-2-4.8-4.7
		V77.4c0-2.5,2.1-4.4,4.8-4.4h134.4c2.6,0,4.8,1.9,4.8,4.4v164.9c0,2.7-2.1,4.7-4.8,4.7h-10.5l1.9,6h8.6c6,0,10.8-4.7,10.8-10.7
		V77.4C248,71.6,243.2,67,237.2,67z"/>
</g>
</svg>
