<?xml version="1.0" encoding="utf-8"?>
<!-- Generator: Adobe Illustrator 19.2.1, SVG Export Plug-In . SVG Version: 6.00 Build 0)  -->
<!DOCTYPE svg PUBLIC "-//W3C//DTD SVG 1.1//EN" "http://www.w3.org/Graphics/SVG/1.1/DTD/svg11.dtd">
<svg version="1.1" id="Layer_1" xmlns="http://www.w3.org/2000/svg" xmlns:xlink="http://www.w3.org/1999/xlink" x="0px" y="0px"
	 width="340px" height="340px" viewBox="0 0 340 340" style="enable-background:new 0 0 340 340;" xml:space="preserve">
<style type="text/css">
                .st0{fill:#071C2C;}
                .st1{fill:#FFFFFF;}
    svg:hover {  cursor:pointer;}
                svg:hover .st0 {  fill:#830065;}
</style>
<g>
	<path class="st0" d="M278.5,218.7L261,153.1V79h-20.1l-5.2-19.5L163.1,79H79v22.3l-16.2,4.3L79,166v81h21.8l4.9,18.2l68-18.2H261
		v-23.5l16.1-4.3L278.5,218.7z M233.6,63.2l4.2,15.8h-63.1L233.6,63.2z M66.5,107.8l12.5-3.3v50L66.5,107.8z M107.8,261.5l-3.9-14.5
		h58.2L107.8,261.5z M255,241H85V85h170V241z M261,220.4v-55.7l13.9,51.9L261,220.4z"/>
	<rect x="170" y="149" class="st0" width="67" height="6"/>
	<rect x="170" y="167" class="st0" width="67" height="6"/>
	<rect x="170" y="184" class="st0" width="67" height="6"/>
	<rect x="103" y="202" class="st0" width="134" height="6"/>
	<rect x="103" y="219" class="st0" width="134" height="6"/>
	<path class="st0" d="M154,149h-51v41h51V149z M148,184h-39v-29h39V184z"/>
	<path class="st0" d="M105,137.4c0.2,0.1,0.5,0.2,0.9,0.2s0.9,0.1,1.5,0.1c0.6,0,1.1,0,1.5-0.1c0.4-0.1,0.8-0.1,1-0.2
		s0.5-0.2,0.6-0.3s0.2-0.3,0.3-0.5l3.5-17.4c0.3-1.4,0.5-2.7,0.8-4c0.2-1.3,0.4-3.1,0.6-4.1h0.1c0.3,1,0.6,2.3,0.9,3.5
		c0.3,1.2,0.7,2.4,1.1,3.5l5,15.2c0.2,0.8,0.5,1.5,0.7,2.1c0.2,0.5,0.5,1,0.8,1.3s0.6,0.8,1,0.9c0.4,0.1,0.9,0.4,1.6,0.4h3
		c0.4,0,0.7-0.3,1-0.4c0.3-0.1,0.6-0.4,0.9-0.6c0.3-0.2,0.5-0.5,0.7-0.8c0.2-0.3,0.3-0.7,0.4-1.1l6.2-30.8c0-0.2,0-0.3-0.1-0.5
		c-0.1-0.1-0.2-0.2-0.4-0.3c-0.2-0.1-0.5-0.1-0.9-0.2c-0.4,0-0.9-0.1-1.5-0.1c-0.6,0-1.1,0-1.5,0.1c-0.4,0-0.7,0.1-1,0.2
		c-0.3,0.1-0.4,0.2-0.6,0.3c-0.1,0.1-0.2,0.3-0.2,0.5l-3.2,16.1c-0.2,1.3-0.5,2.5-0.7,3.8c-0.2,1.3-0.5,2.8-0.6,3.8h-0.1
		c-0.3-1-0.6-1.8-0.9-2.8c-0.3-1-0.6-1.9-0.9-2.9l-5.1-15.3c-0.2-0.7-0.4-1.2-0.6-1.7c-0.2-0.5-0.5-0.8-0.8-1.1
		c-0.3-0.3-0.6-0.7-1.1-0.8c-0.4-0.1-0.9-0.4-1.5-0.4h-3.6c-0.7,0-1.3,0.4-1.9,0.8c-0.6,0.4-0.9,1.1-1.1,2l-6.1,30.7
		c-0.1,0.2,0,0.4,0,0.5C104.7,137.1,104.8,137.3,105,137.4z"/>
	<path class="st0" d="M140.2,137c0.1,0.2,0.3,0.1,0.6,0.2c0.2,0.1,0.5-0.1,0.8-0.1h17.1c0.2,0,0.4,0.2,0.6,0
		c0.2-0.2,0.3-0.3,0.5-0.6c0.1-0.3,0.2-0.5,0.3-0.9c0.1-0.3,0.2-0.6,0.2-1c0.1-0.3,0.1-0.6,0.1-0.9c0-0.3,0-0.4,0-0.6
		c0-0.4-0.1-0.6-0.2-0.8c-0.1-0.2-0.3-0.3-0.5-0.3h-12.3l2-10h10.3c0.2,0,0.4,0.1,0.6,0c0.2-0.2,0.3-0.3,0.5-0.6s0.2-0.5,0.3-0.9
		c0.1-0.3,0.2-0.6,0.2-1s0.1-0.6,0.1-0.9c0-0.3,0-0.4,0-0.6c0-0.3-0.1-0.6-0.2-0.8s-0.3-0.3-0.5-0.3h-10.3l1.7-8h12.2
		c0.2,0,0.4-0.2,0.6-0.4s0.3-0.5,0.5-0.8c0.1-0.3,0.2-0.6,0.3-1c0.1-0.4,0.2-0.7,0.2-1s0.1-0.6,0.1-0.9s0-0.6,0-0.7
		c0-0.7-0.2-1.2-0.7-1.2h-17c-0.6,0-1.1,0.4-1.6,0.7c-0.5,0.3-0.8,1-0.9,1.8l-6,29.8c-0.1,0.4-0.1,0.7,0,1S140,136.8,140.2,137z"/>
	<path class="st0" d="M170.8,135.7c0,0.5,0.1,0.8,0.2,1.1c0.1,0.3,0.3,0.5,0.7,0.6s0.8,0.2,1.5,0.2s1.5,0.1,2.5,0.1
		c0.9,0,1.7,0,2.2-0.1s1-0.1,1.4-0.2s0.6-0.3,0.8-0.6c0.2-0.3,0.4-0.6,0.6-1.1l9.5-21.7h0.1l1.2,21.9c0,0.4,0.1,0.7,0.2,0.9
		s0.3,0.4,0.7,0.5c0.3,0.1,0.8,0.2,1.4,0.2s1.4,0.1,2.3,0.1c0.9,0,1.6,0,2.2-0.1s1.1-0.1,1.5-0.2c0.4-0.1,0.7-0.3,0.9-0.6
		c0.2-0.3,0.4-0.6,0.6-1L215,106c0.3-0.6,0.4-1.1,0.6-1.5s0.1-0.7-0.1-0.9s-0.5-0.3-0.9-0.4c-0.4-0.1-1-0.1-1.8-0.1
		c-0.8,0-1.4,0-1.9,0.1s-0.9,0.1-1.2,0.2s-0.5,0.2-0.7,0.4c-0.1,0.2-0.3,0.5-0.4,0.7L197.5,131h-0.1l-1.3-26.1
		c0-0.4-0.1-0.7-0.1-0.9c-0.1-0.2-0.2-0.4-0.5-0.5c-0.2-0.1-0.6-0.2-1.1-0.2s-1.1-0.1-1.9-0.1c-0.8,0-1.5,0-1.9,0s-0.9,0.1-1.2,0.2
		c-0.3,0.1-0.5,0.3-0.7,0.5c-0.2,0.2-0.3,0.6-0.5,0.9L176.7,131h-0.1l-0.7-26.1c0-0.3,0-0.6-0.1-0.8c-0.1-0.2-0.2-0.4-0.4-0.5
		c-0.2-0.1-0.6-0.2-1.1-0.3s-1.1-0.1-1.8-0.1c-0.9,0-1.6,0-2,0.1c-0.5,0-0.8,0.1-1.1,0.3c-0.2,0.2-0.4,0.4-0.4,0.8
		c0,0.3-0.1,0.8,0,1.3L170.8,135.7z"/>
	<path class="st0" d="M225.8,131c-0.5,0.5-1.2,0.8-2,1.1s-1.7,0.4-2.7,0.4c-1.2,0-2.2-0.1-3-0.4s-1.6-0.6-2.2-0.9s-1.1-0.6-1.5-0.9
		s-0.8-0.4-1.1-0.4c-0.2,0-0.3,0.1-0.5,0.3c-0.1,0.2-0.3,0.4-0.4,0.7c-0.1,0.3-0.2,0.6-0.3,0.9c-0.1,0.3-0.2,0.7-0.2,1
		c-0.1,0.3-0.1,0.6-0.1,0.9s-0.1,0.5-0.1,0.6c0,0.5,0.1,0.9,0.4,1.2c0.2,0.3,0.6,0.5,1.1,0.8c0.5,0.3,1.1,0.6,1.9,0.8
		s1.6,0.5,2.6,0.7c1,0.2,2,0.3,3.2,0.3c2.1,0,4-0.3,5.8-0.9s3.2-1.4,4.4-2.5c1.2-1,2.2-2.3,2.8-3.7c0.7-1.4,1-2.9,1-4.6
		c0-1.1-0.2-2.1-0.5-2.9c-0.3-0.9-0.7-1.6-1.3-2.3c-0.5-0.7-1.1-1.2-1.8-1.7c-0.7-0.5-1.4-1-2.1-1.4c-0.7-0.4-1.4-0.8-2.1-1.2
		c-0.7-0.4-1.3-0.8-1.8-1.2c-0.5-0.4-0.9-0.9-1.3-1.3s-0.5-1-0.5-1.7c0-0.5,0.1-1.1,0.3-1.6c0.2-0.5,0.5-1,0.9-1.4s1-0.8,1.6-1
		s1.5-0.4,2.4-0.4c0.9,0,1.7,0.1,2.5,0.3c0.7,0.2,1.3,0.5,1.9,0.7c0.5,0.3,1,0.5,1.4,0.7s0.7,0.3,0.9,0.3c0.2,0,0.3-0.1,0.4-0.3
		s0.3-0.4,0.4-0.7c0.1-0.3,0.2-0.6,0.3-0.9c0.1-0.3,0.1-0.6,0.2-1s0.1-0.6,0.1-0.9s0-0.5,0-0.6c0-0.3,0-0.5-0.1-0.7
		c-0.1-0.2-0.2-0.4-0.4-0.5s-0.5-0.4-0.9-0.6s-1-0.5-1.7-0.7c-0.7-0.2-1.4-0.4-2.2-0.5c-0.8-0.1-1.6-0.2-2.5-0.2
		c-1.9,0-3.6,0.3-5.2,0.8c-1.6,0.5-2.9,1.3-4,2.2c-1.1,1-2,2.1-2.6,3.4s-0.9,2.8-0.9,4.4c0,1.1,0.2,2.1,0.5,3s0.7,1.6,1.3,2.3
		c0.5,0.7,1.1,1.2,1.8,1.7s1.3,0.9,2,1.4s1.4,0.8,2,1.2s1.2,0.8,1.8,1.2s0.9,0.9,1.3,1.4s0.5,1.1,0.5,1.7c0,0.7-0.1,1.4-0.4,2
		C226.8,130,226.4,130.6,225.8,131z"/>
</g>
</svg>
