<?xml version="1.0" encoding="utf-8"?>
<!-- Generator: Adobe Illustrator 19.2.1, SVG Export Plug-In . SVG Version: 6.00 Build 0)  -->
<!DOCTYPE svg PUBLIC "-//W3C//DTD SVG 1.1//EN" "http://www.w3.org/Graphics/SVG/1.1/DTD/svg11.dtd">
<svg version="1.1" id="Layer_1" xmlns="http://www.w3.org/2000/svg" xmlns:xlink="http://www.w3.org/1999/xlink" x="0px" y="0px"
	 width="340px" height="340px" viewBox="0 0 340 340" style="enable-background:new 0 0 340 340;" xml:space="preserve">
<style type="text/css">
                .st0{fill:#071C2C;}
                .st1{fill:#FFFFFF;}
    svg:hover {  cursor:pointer;}
                svg:hover .st0 {  fill:#830065;}
</style>
<path class="st0" d="M276.2,231.6c-8.9-2.7-22-6.3-38.2-9.4v-24c6-1.2,16.7-4.7,22.7-15.4c0.1-0.2,0.2-0.5,0.3-0.7
	c10.3-25.9-22.3-71-28.2-75.5c-3-2.4-5.6-2.7-6.9-2.7c-0.2,0-0.4,0-0.5,0c-1.4,0.1-3.8,0.9-5.6,2.5c-2.1,1.8-6.3,7.1-11,14.4
	c-7.9-29.7-24.4-59-28.6-63.3c-3.3-3.5-6.3-4-7.8-4c-0.2,0-0.5,0-0.7,0c-1.7,0.2-4.3,1.3-6.2,3.7c-2.7,3.1-12.2,19.6-20.1,40
	c-1.5-0.1-3-0.1-4.5,0.1c-2.2,0.3-4.4,0.9-6.3,1.8c-3.5-5.2-11.1-13.3-24.9-8.6c-10.5,3.6-13.9,11.6-15,16.1
	c-6,0.6-17.5,3.5-22.2,16.7c-3.6,9.6-1.5,16.7,1,21.1c-4.2,3.3-9.4,10-6.9,21.5c1.3,6.2,4.4,10.6,9,13.2c2.2,1.2,4.7,1.9,7.5,2.1
	c0,6.6,3.5,12.2,9.5,15.7c6.3,3.7,12.4,4.2,17.4,3.6v20.1c-19.9,3.3-35.9,7.7-46.2,10.9c-1.6,0.5-2.5,2.2-2,3.8s2.2,2.5,3.8,2
	c19-5.9,57.8-15.7,104.4-15.7c6.1,0.1,11.8,0.3,17,0.6c-3.3,2.9-10.4,6.6-24.3,8.3c-32.3,3.8-49.5,14.6-57.5,35.9
	c-0.4,1,0.1,2.2,1.2,2.6c0.2,0.1,0.5,0.1,0.7,0.1c0.8,0,1.6-0.5,1.9-1.3c7.4-19.7,23.6-29.7,54.2-33.3c17.9-2.1,26-7.7,29-11.9
	c4.2,0.3,8.1,0.6,11.6,0.9c1,6.5-2.8,14.1-7.5,16.9c-4.6,2.7-19.5,13.1-20.1,30.4c0,1.1,0.8,2.3,1.9,2.3c0,0,0,0,0.1,0
	c1.1,0,2-1.1,2-2.2c0.1-3.9,1.9-17.4,18.2-27c5.9-3.5,10.4-12,9.6-20c5.4,0.6,9.9,1.1,13.6,1.7c23.2,3.4,41.6,8.3,53,11.8
	c0.3,0.1,0.6,0.1,0.9,0.1c1.3,0,2.5-0.8,2.9-2.1C278.7,233.8,277.8,232.1,276.2,231.6z M114.7,194.7c-0.7-0.6-1.7-0.8-2.6-0.5
	c-4,1-10.2,1.4-16.6-2.3c-6.2-3.6-6.8-9.1-6.2-13c0.1-0.9-0.1-1.8-0.8-2.5c-0.6-0.7-1.5-1-2.4-1c-2.9,0.2-5.5-0.2-7.6-1.4
	c-3.1-1.7-5.1-4.8-6.1-9.2c-2.2-10.1,3.3-14.9,6.7-16.9c0.8-0.4,1.3-1.2,1.4-2c0.2-0.9-0.1-1.7-0.6-2.4c-2.2-2.8-5.3-8.8-1.9-18
	c4.2-11.8,15.7-12.9,19.1-12.9c1.5,0,2.8-1.1,2.9-2.6c0.4-3,2.2-10.5,11.5-13.7c10.4-3.6,15.7,2.3,19.4,8.4c0.4,0.7,1.1,1.2,1.9,1.4
	s1.7,0,2.3-0.5c1.7-1.2,4-2,6.4-2.3c0.5-0.1,1-0.1,1.5-0.1c-7.4,20.7-12.5,44.3-7,61.5c0,0.1,0.2,0.1,0.2,0.2
	c3.7,9.1,9.9,14.4,15.7,17.6c-0.1,2.8-1.1,6-4.5,8.6c-5.3,4-12.2,3.6-15.9,3c-0.9-0.1-1.8,0.1-2.4,0.7c-0.7,0.6-1.1,1.4-1.1,2.3
	l0,21.1c-4.2,0.5-8.2,1-12.1,1.6v-22.7C116,196.1,115.5,195.3,114.7,194.7z M161,215.8c-9.4,0.2-18.4,0.9-27,1.8v-17.1
	c5,0.3,11.4-0.3,17-4.5c3.7-2.8,6-6.6,6.7-10.9c1.2,0.4,2.3,0.7,3.3,1V215.8z M167,215.7v-32c0-1.4-1.3-2.7-2.7-3
	c-4.9-0.9-17-4.5-22.5-17.8c-10.4-33,23.6-96.2,28.4-101.7c0,0,0-0.1,0-0.1c0.9-1.1,2.1-1.5,2.3-1.5c0.1,0,1.5,0.1,3.4,2.1
	c5.6,5.8,38.8,68.3,29.6,100.3c-5.3,14-16.6,17.8-22.8,18.8c-1.5,0.2-2.7,1.5-2.7,3v32.2c-3.2-0.1-6.5-0.2-10-0.3
	C169,215.6,168,215.6,167,215.7z M216,198.4v20.3c-7.6-1-17.5-2-30-2.6v-30c2.1-0.5,4.7-1.3,7.5-2.6
	C199,194.4,209.1,197.6,216,198.4z M222,219.5v-23.8c0-1.6-1.3-2.9-2.9-3c-5.5-0.3-15.6-2.4-20.4-12.2c4.8-3.4,9.4-8.6,12.4-16.5
	c0-0.1,0.1-0.1,0.1-0.2c2.9-9.9,2.2-22-0.3-34.5c5.4-9.4,10.9-16.5,12.9-18.2c0,0,0.1,0,0.1-0.1c0.8-0.8,1.9-1,2.1-1
	c0.1,0,1.4,0,3.2,1.5c2.2,1.6,11.1,13,18.4,27.5c5,10,12.8,28.6,7.9,41c-5.4,9.7-15.4,12.1-20.8,12.7c-1.5,0.2-2.6,1.5-2.6,3v25.5
	c-3.2-0.5-6.4-1.1-9.8-1.6C222.2,219.5,222.1,219.5,222,219.5z"/>
</svg>
