<?xml version="1.0" encoding="utf-8"?>
<!-- Generator: Adobe Illustrator 19.2.1, SVG Export Plug-In . SVG Version: 6.00 Build 0)  -->
<!DOCTYPE svg PUBLIC "-//W3C//DTD SVG 1.1//EN" "http://www.w3.org/Graphics/SVG/1.1/DTD/svg11.dtd">
<svg version="1.1" id="Layer_1" xmlns="http://www.w3.org/2000/svg" xmlns:xlink="http://www.w3.org/1999/xlink" x="0px" y="0px"
	 width="340px" height="340px" viewBox="0 0 340 340" style="enable-background:new 0 0 340 340;" xml:space="preserve">
<style type="text/css">
                .st0{fill:#071C2C;}
                .st1{fill:#FFFFFF;}
    svg:hover {  cursor:pointer;}
                svg:hover .st0 {  fill:#830065;}
</style>
<path class="st0" d="M170,81c-47.7,0-86.5,38.8-86.5,86.5c0,47.7,38.8,86.5,86.5,86.5s86.5-38.8,86.5-86.5
	C256.5,119.8,217.7,81,170,81z M250.4,171.8l-20.7-21.6l4.3-31.5c10.4,13.6,16.5,30.5,16.5,48.8
	C250.5,168.9,250.5,170.4,250.4,171.8z M235.7,214l-28.2,5c-1.3-2.1-5.3-8.2-17-26.2c0-0.1,0.1-0.2,0.1-0.2l11-33.7c0,0,0,0,0-0.1
	c2.1-0.5,8.3-1.8,26.6-5.9l22,23C248.6,189.9,243.5,203,235.7,214z M132.3,219.2l-28.1-5.3c-7.9-11.2-13.1-24.5-14.4-39l21.4-22.2
	c2.6,0.6,19.6,4.4,27.2,6.1c0,0,0,0,0,0l11,33.7c0,0.1,0.1,0.1,0.1,0.2C137.3,211.5,133.6,217.3,132.3,219.2z M152.3,192l-11-33.9
	l28.7-20.9l28.7,21l-11,33.9H152.3z M231.4,115.5l-4.7,34.6c-7.6,1.7-22.3,5-25.9,5.8c-0.1-0.1-0.3-0.3-0.4-0.4l-28.5-20.8
	c0,0,0.1,0,0.1-0.1V108l29.9-14.5C213.4,98.5,223.4,106,231.4,115.5z M198,92l-28,13.5L142,92c8.7-3.2,18.2-5,28-5
	C179.8,87,189.3,88.8,198,92z M138.4,93.5l30.6,14.6v26.2c0,0.1-0.5,0.2-0.6,0.3l-28.8,20.8c-0.2,0.1-0.4,0.3-0.5,0.4
	c-17.9-4-24.3-5.4-26.6-5.9l-4.5-33.8C116.2,106.4,126.6,98.6,138.4,93.5z M105.4,119.5l4.1,30.7l-20,20.8c0-1.1-0.1-2.3-0.1-3.4
	C89.5,149.5,95.4,132.9,105.4,119.5z M106.9,217.5l25.5,4.8l11.3,21.4C129.1,238.5,116.4,229.4,106.9,217.5z M147.8,244.9L135,220.7
	c2.2-3.4,11.3-17.2,17-25.9c0.1,0,0.2,0.2,0.4,0.2h35.4c0.1,0,0.2-0.2,0.4-0.2c5.7,8.7,14.9,22.8,17,26.1l-13,24.1
	c-7,2-14.4,3.1-22.1,3.1C162.3,248.1,154.9,246.9,147.8,244.9z M196.2,243.6l11.6-21.7l25.2-4.5
	C223.6,229.4,210.9,238.6,196.2,243.6z"/>
</svg>
