<?xml version="1.0" encoding="utf-8"?>
<!-- Generator: Adobe Illustrator 19.2.1, SVG Export Plug-In . SVG Version: 6.00 Build 0)  -->
<!DOCTYPE svg PUBLIC "-//W3C//DTD SVG 1.1//EN" "http://www.w3.org/Graphics/SVG/1.1/DTD/svg11.dtd">
<svg version="1.1" id="Layer_1" xmlns="http://www.w3.org/2000/svg" xmlns:xlink="http://www.w3.org/1999/xlink" x="0px" y="0px"
	 width="340px" height="340px" viewBox="0 0 340 340" style="enable-background:new 0 0 340 340;" xml:space="preserve">
<style type="text/css">
                .st0{fill:#071C2C;}
                .st1{fill:#FFFFFF;}
    svg:hover {  cursor:pointer;}
                svg:hover .st0 {  fill:#830065;}
</style>
<g>
	<path class="st0" d="M161.3,140.7c0.2,0.2,0.6,0.3,0.9,0.3c0.2,0,0.7-0.1,1.1-0.3l3.7-1.9V155h-4.7c-0.2,0-0.5-0.1-0.6,0
		c-0.2,0.1-0.3,0.2-0.4,0.4c-0.1,0.2-0.2,0.4-0.2,0.7c0,0.3-0.1,0.6-0.1,1c0,0.4,0,0.7,0.1,1c0,0.3,0.1,0.6,0.2,0.8
		c0.1,0.2,0.3,0.5,0.4,0.6c0.2,0.1,0.4,0.3,0.6,0.3h14.6c0.2,0,0.4-0.2,0.6-0.3c0.2-0.1,0.3-0.3,0.4-0.6c0.1-0.2,0.2-0.5,0.2-0.8
		c0-0.3,0.1-0.6,0.1-1.1c0-0.4,0-0.8-0.1-1.1c0-0.3-0.1-0.6-0.2-0.8c-0.1-0.2-0.3-0.2-0.4-0.4c-0.2-0.1-0.4,0-0.6,0H173v-21.8
		c0-0.2,0-0.4-0.1-0.6c-0.1-0.2-0.3-0.3-0.6-0.4c-0.2-0.1-0.5-0.1-0.8-0.1c-0.3,0-0.8,0-1.3,0c-0.4,0-0.8,0-1,0c-0.3,0-0.5,0-0.7,0
		c-0.2,0-0.4,0.1-0.5,0.1c-0.2,0.1-0.3,0.1-0.4,0.2l-5.7,3.7c-0.2,0.1-0.3,0.3-0.5,0.4c-0.1,0.1-0.3,0.3-0.3,0.6
		c-0.1,0.2-0.1,0.4-0.1,0.7c0,0.2,0,0.5,0,0.8c0,0.5,0,1,0.1,1.3C161,140.2,161.1,140.5,161.3,140.7z"/>
	<path class="st0" d="M183.5,156.4c0.7,1.2,1.8,2.2,3,2.9c1.3,0.7,2.9,1,4.7,1c1.9,0,3.5-0.3,4.8-1c1.3-0.7,2.4-1.7,3.2-2.9
		c0.8-1.3,1.4-2.8,1.7-4.5c0.3-1.7,0.5-3.7,0.5-5.8c0-2.1-0.1-4.1-0.4-5.8c-0.3-1.7-0.8-3.2-1.5-4.5c-0.7-1.2-1.8-2.2-3-2.9
		c-1.3-0.7-2.9-1-4.8-1c-1.8,0-3.4,0.3-4.8,1c-1.3,0.7-2.4,1.7-3.2,2.9c-0.8,1.2-1.4,2.8-1.8,4.5c-0.4,1.7-0.5,3.7-0.5,5.8
		c0,2.2,0.1,4.1,0.4,5.8C182.3,153.7,182.8,155.2,183.5,156.4z M188.2,141.8c0.1-1.1,0.3-2,0.6-2.8c0.3-0.7,0.6-1.2,1.1-1.5
		c0.4-0.3,1-0.5,1.7-0.5c0.4,0,0.8,0.1,1.1,0.2c0.3,0.1,0.6,0.3,0.8,0.5c0.3,0.2,0.5,0.6,0.7,1c0.2,0.5,0.4,1,0.5,1.7
		c0.1,0.7,0.2,1.5,0.3,2.4c0.1,0.9,0.1,2.1,0.1,3.3c0,1,0,2-0.1,2.8c0,0.8-0.1,1.6-0.3,2.3c-0.1,0.7-0.3,1.2-0.5,1.7
		c-0.2,0.5-0.4,0.8-0.7,1.1c-0.3,0.3-0.6,0.5-0.9,0.6c-0.3,0.1-0.8,0.2-1.2,0.2c-0.6,0-1.1-0.1-1.6-0.4c-0.4-0.2-0.8-0.7-1-1.3
		c-0.3-0.7-0.5-1.6-0.7-2.8c-0.1-1.2-0.2-2.8-0.2-4.6C188,144.3,188.1,143,188.2,141.8z"/>
	<path class="st0" d="M207.3,155c-0.2,0-0.5-0.1-0.6,0c-0.2,0.1-0.3,0.2-0.4,0.5c-0.1,0.2-0.2,0.4-0.2,0.7c0,0.3-0.1,0.6-0.1,1
		c0,0.4,0,0.7,0.1,1c0,0.3,0.1,0.6,0.2,0.8c0.1,0.2,0.3,0.5,0.4,0.6c0.2,0.1,0.4,0.3,0.6,0.3H222c0.2,0,0.4-0.2,0.6-0.3
		c0.2-0.1,0.3-0.3,0.4-0.6c0.1-0.2,0.2-0.5,0.2-0.8c0-0.3,0.1-0.7,0.1-1.1c0-0.4,0-0.8-0.1-1.1c0-0.3-0.1-0.6-0.2-0.8
		c-0.1-0.2-0.3-0.2-0.4-0.4c-0.2-0.1-0.4,0-0.6,0h-4v-21.8c0-0.2,0-0.4-0.1-0.6c-0.1-0.2-0.3-0.3-0.6-0.4c-0.2-0.1-0.5-0.1-0.8-0.1
		c-0.3,0-0.8,0-1.3,0c-0.4,0-0.8,0-1,0c-0.3,0-0.5,0-0.7,0c-0.2,0-0.4,0.1-0.5,0.1c-0.2,0.1-0.3,0.1-0.4,0.2l-5.7,3.7
		c-0.2,0.1-0.3,0.3-0.5,0.4c-0.1,0.1-0.3,0.3-0.3,0.6c-0.1,0.2-0.1,0.4-0.1,0.7c0,0.2,0,0.5,0,0.8c0,0.5,0,1,0.1,1.3
		c0.1,0.4,0.2,0.7,0.4,0.9c0.2,0.2,0.6,0.3,0.9,0.3c0.2,0,0.6-0.1,1-0.3l3.6-1.9V155H207.3z"/>
	<path class="st0" d="M138.4,156.4c0.7,1.2,1.8,2.2,3,2.9c1.3,0.7,2.9,1,4.7,1c1.9,0,3.5-0.3,4.8-1c1.3-0.7,2.4-1.7,3.2-2.9
		c0.8-1.2,1.4-2.8,1.7-4.5c0.3-1.7,0.5-3.7,0.5-5.8c0-2.1-0.1-4.1-0.4-5.8c-0.3-1.7-0.8-3.2-1.5-4.5c-0.7-1.2-1.8-2.2-3-2.9
		c-1.3-0.7-2.9-1-4.8-1c-1.9,0-3.4,0.3-4.8,1c-1.3,0.7-2.4,1.7-3.2,2.9c-0.8,1.2-1.4,2.8-1.8,4.5c-0.4,1.7-0.5,3.7-0.5,5.8
		c0,2.2,0.1,4.1,0.4,5.8C137.2,153.7,137.7,155.2,138.4,156.4z M143.1,141.8c0.1-1.1,0.3-2,0.6-2.8c0.3-0.7,0.6-1.2,1.1-1.5
		c0.4-0.3,1-0.5,1.7-0.5c0.4,0,0.8,0.1,1.1,0.2c0.3,0.1,0.6,0.3,0.8,0.5c0.3,0.2,0.5,0.6,0.7,1c0.2,0.5,0.4,1,0.5,1.7
		c0.1,0.7,0.2,1.5,0.3,2.4c0.1,0.9,0.1,2.1,0.1,3.3c0,1,0,2-0.1,2.8c0,0.8-0.1,1.6-0.3,2.3c-0.1,0.6-0.3,1.2-0.5,1.7
		c-0.2,0.5-0.4,0.8-0.7,1.1c-0.3,0.3-0.6,0.5-0.9,0.6c-0.3,0.1-0.8,0.2-1.2,0.2c-0.6,0-1.1-0.1-1.6-0.4c-0.4-0.2-0.8-0.7-1-1.3
		c-0.3-0.7-0.5-1.6-0.7-2.8c-0.1-1.2-0.2-2.8-0.2-4.6C142.9,144.3,143,143,143.1,141.8z"/>
	<path class="st0" d="M117.2,155c-0.2,0-0.5-0.1-0.6,0c-0.2,0.1-0.3,0.2-0.4,0.5c-0.1,0.2-0.2,0.4-0.2,0.7c0,0.3-0.1,0.6-0.1,1
		c0,0.4,0,0.7,0.1,1c0,0.3,0.1,0.6,0.2,0.8c0.1,0.2,0.3,0.5,0.4,0.6c0.2,0.1,0.4,0.3,0.6,0.3h14.6c0.2,0,0.4-0.2,0.6-0.3
		c0.2-0.1,0.3-0.3,0.4-0.6c0.1-0.2,0.2-0.5,0.2-0.8c0-0.3,0.1-0.6,0.1-1.1c0-0.4,0-0.8-0.1-1.1c0-0.3-0.1-0.6-0.2-0.8
		c-0.1-0.2-0.3-0.2-0.4-0.4c-0.2-0.1-0.4,0-0.6,0H128v-21.8c0-0.2-0.1-0.4-0.2-0.6c-0.1-0.2-0.3-0.3-0.6-0.4
		c-0.2-0.1-0.5-0.1-0.8-0.1c-0.3,0-0.8,0-1.3,0c-0.4,0-0.8,0-1,0c-0.3,0-0.5,0-0.7,0c-0.2,0-0.4,0.1-0.5,0.1
		c-0.2,0.1-0.3,0.1-0.4,0.2l-5.7,3.7c-0.2,0.1-0.3,0.3-0.5,0.4c-0.1,0.1-0.3,0.3-0.3,0.6c-0.1,0.2-0.1,0.4-0.1,0.7
		c0,0.2,0,0.5,0,0.8c0,0.5,0,1,0.1,1.3c0.1,0.4,0.2,0.7,0.4,0.9c0.2,0.2,0.6,0.3,0.9,0.3c0.2,0,0.7-0.1,1.1-0.3l3.7-1.9V155H117.2z"
		/>
	<path class="st0" d="M115.9,120.4c0.7,1.2,1.8,2.2,3,2.9c1.3,0.7,2.9,1,4.7,1c1.9,0,3.5-0.3,4.8-1c1.3-0.7,2.4-1.7,3.2-2.9
		c0.8-1.3,1.4-2.8,1.7-4.5c0.3-1.7,0.5-3.7,0.5-5.8c0-2.1-0.1-4.1-0.4-5.8v0c-0.3-1.7-0.8-3.2-1.5-4.5c-0.7-1.2-1.8-2.2-3-2.9
		c-1.3-0.7-2.9-1-4.8-1c-1.8,0-3.4,0.3-4.8,1c-1.3,0.7-2.4,1.7-3.2,2.9c-0.8,1.2-1.4,2.8-1.8,4.5c-0.4,1.7-0.5,3.7-0.5,5.8
		c0,2.2,0.1,4.1,0.4,5.8C114.6,117.7,115.2,119.2,115.9,120.4z M120.5,105.8c0.1-1.1,0.3-2,0.6-2.8c0.3-0.7,0.6-1.2,1.1-1.5
		c0.4-0.3,1-0.5,1.7-0.5c0.4,0,0.8,0.1,1.1,0.2c0.3,0.1,0.6,0.3,0.8,0.5c0.3,0.2,0.5,0.6,0.7,1c0.2,0.5,0.4,1,0.5,1.7
		c0.1,0.7,0.2,1.5,0.3,2.4c0.1,1,0.1,2.1,0.1,3.3c0,1,0,2-0.1,2.8c0,0.8-0.1,1.6-0.3,2.3c-0.1,0.7-0.3,1.2-0.5,1.7
		c-0.2,0.5-0.4,0.8-0.7,1.1c-0.3,0.3-0.6,0.5-0.9,0.6c-0.3,0.1-0.8,0.2-1.2,0.2c-0.6,0-1.1-0.1-1.6-0.4c-0.4-0.2-0.8-0.7-1-1.3
		c-0.3-0.7-0.5-1.6-0.7-2.8c-0.1-1.2-0.2-2.8-0.2-4.6C120.4,108.3,120.4,107,120.5,105.8z"/>
	<path class="st0" d="M206.1,120.4c0.7,1.2,1.8,2.2,3,2.9c1.3,0.7,2.9,1,4.7,1c1.9,0,3.5-0.3,4.8-1c1.3-0.7,2.4-1.7,3.2-2.9
		c0.8-1.2,1.4-2.8,1.7-4.5c0.3-1.7,0.5-3.7,0.5-5.8c0-2.2-0.1-4.1-0.4-5.8c-0.3-1.7-0.8-3.2-1.5-4.5c-0.7-1.2-1.8-2.2-3-2.9
		c-1.3-0.7-2.9-1-4.8-1c-1.8,0-3.4,0.3-4.8,1c-1.3,0.7-2.4,1.7-3.2,2.9c-0.8,1.3-1.4,2.8-1.8,4.5c-0.4,1.7-0.5,3.7-0.5,5.8
		c0,2.2,0.1,4.1,0.4,5.8C204.8,117.7,205.3,119.2,206.1,120.4z M210.7,105.8c0.1-1.1,0.3-2,0.6-2.8c0.3-0.7,0.6-1.2,1.1-1.5
		c0.4-0.3,1-0.5,1.7-0.5c0.4,0,0.8,0.1,1.1,0.2c0.3,0.1,0.6,0.3,0.8,0.5c0.3,0.2,0.5,0.6,0.7,1c0.2,0.5,0.4,1,0.5,1.7
		c0.1,0.7,0.2,1.5,0.3,2.4c0.1,0.9,0.1,2,0.1,3.3c0,1,0,2-0.1,2.8c0,0.8-0.1,1.6-0.3,2.3c-0.1,0.6-0.3,1.2-0.5,1.7
		c-0.2,0.5-0.4,0.8-0.7,1.1c-0.3,0.3-0.6,0.5-0.9,0.6c-0.3,0.1-0.8,0.2-1.2,0.2c-0.6,0-1.1-0.1-1.6-0.4c-0.4-0.2-0.8-0.7-1-1.3
		c-0.3-0.7-0.5-1.6-0.7-2.8c-0.1-1.2-0.2-2.8-0.2-4.6C210.6,108.3,210.6,107,210.7,105.8z"/>
	<path class="st0" d="M184.8,119c-0.2,0-0.5-0.1-0.6,0c-0.2,0.1-0.3,0.2-0.4,0.4c-0.1,0.2-0.2,0.4-0.2,0.7c0,0.3-0.1,0.6-0.1,1
		c0,0.4,0,0.7,0.1,1c0,0.3,0.1,0.6,0.2,0.8c0.1,0.2,0.3,0.5,0.4,0.6c0.2,0.1,0.4,0.3,0.6,0.3h14.6c0.2,0,0.4-0.2,0.6-0.3
		c0.2-0.1,0.3-0.4,0.4-0.6c0.1-0.2,0.2-0.5,0.2-0.8c0-0.3,0.1-0.6,0.1-1.1c0-0.4,0-0.8-0.1-1.1c0-0.3-0.1-0.6-0.2-0.8
		c-0.1-0.2-0.3-0.2-0.4-0.4c-0.2-0.1-0.4,0-0.6,0H196V97.2c0-0.2-0.2-0.4-0.4-0.6c-0.1-0.2-0.4-0.3-0.7-0.4
		c-0.2-0.1-0.5-0.1-0.9-0.1c-0.3,0-0.8,0-1.3,0c-0.4,0-0.8,0-1.1,0c-0.3,0-0.5,0-0.7,0c-0.2,0-0.4,0.1-0.5,0.1
		c-0.2,0.1-0.3,0.1-0.4,0.2l-5.7,3.7c-0.2,0.1-0.3,0.3-0.5,0.4c-0.2,0.1-0.3,0.3-0.3,0.6c-0.1,0.2-0.1,0.4-0.1,0.7
		c0,0.2,0,0.5,0,0.8c0,0.5,0,1,0.1,1.3c0.1,0.4,0.2,0.7,0.4,0.9c0.2,0.2,0.6,0.3,0.9,0.3c0.2,0,0.4-0.1,0.8-0.3l3.4-1.9V119H184.8z"
		/>
	<path class="st0" d="M139.7,119c-0.2,0-0.5-0.1-0.6,0c-0.2,0.1-0.3,0.2-0.4,0.4c-0.1,0.2-0.2,0.4-0.2,0.7c0,0.3-0.1,0.6-0.1,1
		c0,0.4,0,0.7,0.1,1c0,0.3,0.1,0.6,0.2,0.8c0.1,0.2,0.3,0.5,0.4,0.6c0.2,0.1,0.4,0.3,0.6,0.3h14.6c0.2,0,0.4-0.2,0.6-0.3
		c0.2-0.1,0.3-0.3,0.4-0.6c0.1-0.2,0.2-0.5,0.2-0.8c0-0.3,0.3-0.7,0.3-1.1c0-0.4,0.1-0.8,0.1-1.1v0c0-0.3-0.3-0.6-0.4-0.8
		c-0.1-0.2-0.3-0.2-0.5-0.4c-0.2-0.1-0.5,0-0.7,0H151V97.2c0-0.2-0.3-0.4-0.4-0.6c-0.1-0.2-0.4-0.3-0.7-0.4
		c-0.2-0.1-0.5-0.1-0.9-0.1c-0.3,0-0.8,0-1.3,0c-0.4,0-0.8,0-1.1,0c-0.3,0-0.5,0-0.7,0c-0.2,0-0.4,0.1-0.5,0.1
		c-0.2,0.1-0.3,0.1-0.4,0.2l-5.7,3.7c-0.2,0.1-0.4,0.3-0.5,0.4c-0.1,0.1-0.3,0.3-0.3,0.5c-0.1,0.2-0.1,0.4-0.1,0.7
		c0,0.2,0,0.5,0,0.8c0,0.5,0,1,0.1,1.3c0.1,0.4,0.2,0.7,0.4,0.9c0.2,0.2,0.5,0.3,0.9,0.3c0.2,0,0.5-0.1,0.9-0.3l3.4-1.9V119H139.7z"
		/>
	<path class="st0" d="M162.3,119c-0.2,0-0.5-0.1-0.6,0c-0.2,0.1-0.3,0.2-0.4,0.4c-0.1,0.2-0.2,0.4-0.2,0.7c0,0.3-0.1,0.6-0.1,1
		c0,0.4,0,0.7,0.1,1c0,0.3,0.1,0.6,0.2,0.8c0.1,0.2,0.3,0.5,0.4,0.6c0.2,0.1,0.4,0.3,0.6,0.3h14.6c0.2,0,0.4-0.2,0.6-0.3
		c0.2-0.1,0.3-0.3,0.4-0.6c0.1-0.2,0.2-0.5,0.2-0.8c0-0.3,0-0.7,0-1.1c0-0.4-0.1-0.8-0.1-1.1v0c0-0.3,0-0.6-0.1-0.8
		c-0.1-0.2-0.2-0.2-0.4-0.4c-0.2-0.1-0.4,0-0.6,0H173V97.2c0-0.2,0-0.4-0.1-0.6c-0.1-0.2-0.3-0.3-0.6-0.4c-0.2-0.1-0.5-0.1-0.8-0.1
		c-0.3,0-0.8,0-1.3,0c-0.4,0-0.8,0-1,0c-0.3,0-0.5,0-0.7,0c-0.2,0-0.4,0.1-0.5,0.1c-0.2,0.1-0.3,0.1-0.4,0.2l-5.7,3.7
		c-0.2,0.1-0.4,0.3-0.5,0.4c-0.1,0.1-0.3,0.3-0.3,0.5c-0.1,0.2-0.1,0.4-0.1,0.7c0,0.2,0,0.5,0,0.8c0,0.5,0,1,0.1,1.3
		c0.1,0.4,0.2,0.7,0.4,0.9c0.2,0.2,0.6,0.3,0.9,0.3c0.2,0,0.7-0.1,1.1-0.3l3.7-1.9V119H162.3z"/>
	<path class="st0" d="M183.5,84.4c0.7,1.2,1.8,2.2,3,2.9c1.3,0.7,2.9,1,4.7,1c1.9,0,3.5-0.3,4.8-1c1.3-0.7,2.4-1.7,3.2-2.9
		c0.8-1.3,1.4-2.8,1.7-4.5c0.3-1.7,0.5-3.7,0.5-5.8c0-2.1-0.1-4.1-0.4-5.8c-0.3-1.7-0.8-3.2-1.5-4.5c-0.7-1.2-1.8-2.2-3-2.9
		c-1.3-0.7-2.9-1-4.8-1c-1.8,0-3.4,0.3-4.8,1c-1.3,0.7-2.4,1.7-3.2,2.9c-0.8,1.2-1.4,2.8-1.8,4.5c-0.4,1.7-0.5,3.7-0.5,5.8
		c0,2.2,0.1,4.1,0.4,5.8C182.3,81.7,182.8,83.2,183.5,84.4z M188.2,69.8c0.1-1.1,0.3-2,0.6-2.8c0.3-0.7,0.6-1.2,1.1-1.5
		c0.4-0.3,1-0.5,1.7-0.5c0.4,0,0.8,0.1,1.1,0.2c0.3,0.1,0.6,0.3,0.8,0.5c0.3,0.2,0.5,0.6,0.7,1c0.2,0.5,0.4,1,0.5,1.7
		c0.1,0.7,0.2,1.5,0.3,2.4c0.1,0.9,0.1,2.1,0.1,3.3c0,1,0,2-0.1,2.8c0,0.8-0.1,1.6-0.3,2.3c-0.1,0.7-0.3,1.2-0.5,1.7
		c-0.2,0.5-0.4,0.8-0.7,1.1c-0.3,0.3-0.6,0.5-0.9,0.6c-0.3,0.1-0.8,0.2-1.2,0.2c-0.6,0-1.1-0.1-1.6-0.4c-0.4-0.2-0.8-0.7-1-1.3
		c-0.3-0.7-0.5-1.6-0.7-2.8c-0.1-1.2-0.2-2.8-0.2-4.6C188,72.3,188.1,71,188.2,69.8z"/>
	<path class="st0" d="M116.2,68.7c0.2,0.2,0.6,0.3,0.9,0.3c0.2,0,0.7-0.1,1.1-0.3l3.7-1.9V83h-4.8c-0.2,0-0.5-0.1-0.6,0
		c-0.2,0.1-0.3,0.2-0.4,0.5c-0.1,0.2-0.2,0.4-0.2,0.7c0,0.3-0.1,0.6-0.1,1c0,0.4,0,0.7,0.1,1c0,0.3,0.1,0.6,0.2,0.8
		c0.1,0.2,0.3,0.5,0.4,0.6c0.2,0.1,0.4,0.3,0.6,0.3h14.6c0.2,0,0.4-0.2,0.6-0.3c0.2-0.1,0.3-0.3,0.4-0.6c0.1-0.2,0.2-0.5,0.2-0.8
		c0-0.3,0.1-0.6,0.1-1.1c0-0.4,0-0.8-0.1-1.1c0-0.3-0.1-0.6-0.2-0.8c-0.1-0.2-0.3-0.2-0.4-0.4c-0.2-0.1-0.4,0-0.6,0H128V61.2
		c0-0.2-0.1-0.4-0.2-0.6c-0.1-0.2-0.3-0.3-0.6-0.4c-0.2-0.1-0.5-0.1-0.8-0.1c-0.3,0-0.8,0-1.3,0c-0.4,0-0.8,0-1,0
		c-0.3,0-0.5,0-0.7,0c-0.2,0-0.4,0.1-0.5,0.1c-0.2,0.1-0.3,0.1-0.4,0.2l-5.7,3.7c-0.2,0.1-0.3,0.3-0.5,0.4c-0.1,0.1-0.3,0.3-0.3,0.6
		c-0.1,0.2-0.1,0.4-0.1,0.7c0,0.2,0,0.5,0,0.8c0,0.5,0,1,0.1,1.3C115.9,68.2,116,68.5,116.2,68.7z"/>
	<path class="st0" d="M138.4,84.4c0.7,1.2,1.8,2.2,3,2.9c1.3,0.7,2.9,1,4.7,1c1.9,0,3.5-0.3,4.8-1c1.3-0.7,2.4-1.7,3.2-2.9
		c0.8-1.2,1.4-2.8,1.7-4.5c0.3-1.7,0.5-3.7,0.5-5.8c0-2.1-0.1-4.1-0.4-5.8c-0.3-1.7-0.8-3.2-1.5-4.5c-0.7-1.2-1.8-2.2-3-2.9
		c-1.3-0.7-2.9-1-4.8-1c-1.9,0-3.4,0.3-4.8,1c-1.3,0.7-2.4,1.7-3.2,2.9c-0.8,1.2-1.4,2.8-1.8,4.5c-0.4,1.7-0.5,3.7-0.5,5.8
		c0,2.2,0.1,4.1,0.4,5.8C137.2,81.7,137.7,83.2,138.4,84.4z M143.1,69.8c0.1-1.1,0.3-2,0.6-2.8c0.3-0.7,0.6-1.2,1.1-1.5
		c0.4-0.3,1-0.5,1.7-0.5c0.4,0,0.8,0.1,1.1,0.2c0.3,0.1,0.6,0.3,0.8,0.5c0.3,0.2,0.5,0.6,0.7,1c0.2,0.5,0.4,1,0.5,1.7
		c0.1,0.7,0.2,1.5,0.3,2.4c0.1,0.9,0.1,2.1,0.1,3.3c0,1,0,2-0.1,2.8c0,0.8-0.1,1.6-0.3,2.3c-0.1,0.6-0.3,1.2-0.5,1.7
		c-0.2,0.5-0.4,0.8-0.7,1.1c-0.3,0.3-0.6,0.5-0.9,0.6c-0.3,0.1-0.8,0.2-1.2,0.2c-0.6,0-1.1-0.1-1.6-0.4c-0.4-0.2-0.8-0.7-1-1.3
		c-0.3-0.7-0.5-1.6-0.7-2.8c-0.1-1.2-0.2-2.8-0.2-4.6C142.9,72.3,143,71,143.1,69.8z"/>
	<path class="st0" d="M161.3,68.7c0.2,0.2,0.6,0.3,0.9,0.3c0.2,0,0.7-0.1,1.1-0.3l3.7-1.9V83h-4.7c-0.2,0-0.5-0.1-0.6,0
		c-0.2,0.1-0.3,0.2-0.4,0.4c-0.1,0.2-0.2,0.4-0.2,0.7c0,0.3-0.1,0.6-0.1,1c0,0.4,0,0.7,0.1,1c0,0.3,0.1,0.6,0.2,0.8
		c0.1,0.2,0.3,0.5,0.4,0.6c0.2,0.1,0.4,0.3,0.6,0.3h14.6c0.2,0,0.4-0.2,0.6-0.3c0.2-0.1,0.3-0.3,0.4-0.6c0.1-0.2,0.2-0.5,0.2-0.8
		c0-0.3,0.1-0.6,0.1-1.1c0-0.4,0-0.8-0.1-1.1c0-0.3-0.1-0.6-0.2-0.8c-0.1-0.2-0.3-0.2-0.4-0.4c-0.2-0.1-0.4,0-0.6,0H173V61.2
		c0-0.2,0-0.4-0.1-0.6c-0.1-0.2-0.3-0.3-0.6-0.4c-0.2-0.1-0.5-0.1-0.8-0.1c-0.3,0-0.8,0-1.3,0c-0.4,0-0.8,0-1,0c-0.3,0-0.5,0-0.7,0
		c-0.2,0-0.4,0.1-0.5,0.1c-0.2,0.1-0.3,0.1-0.4,0.2l-5.7,3.7c-0.2,0.1-0.3,0.3-0.5,0.4c-0.1,0.1-0.3,0.3-0.3,0.6
		c-0.1,0.2-0.1,0.4-0.1,0.7c0,0.2,0,0.5,0,0.8c0,0.5,0,1,0.1,1.3C161,68.2,161.1,68.5,161.3,68.7z"/>
	<path class="st0" d="M206.4,68.7c0.2,0.2,0.6,0.3,0.9,0.3c0.2,0,0.6-0.1,1-0.3l3.6-1.9V83h-4.7c-0.2,0-0.5-0.1-0.6,0
		c-0.2,0.1-0.3,0.2-0.4,0.5c-0.1,0.2-0.2,0.4-0.2,0.7c0,0.3-0.1,0.6-0.1,1c0,0.4,0,0.7,0.1,1c0,0.3,0.1,0.6,0.2,0.8
		c0.1,0.2,0.3,0.5,0.4,0.6c0.2,0.1,0.4,0.3,0.6,0.3H222c0.2,0,0.4-0.2,0.6-0.3c0.2-0.1,0.3-0.3,0.4-0.6c0.1-0.2,0.2-0.5,0.2-0.8
		c0-0.3,0.1-0.7,0.1-1.1c0-0.4,0-0.8-0.1-1.1c0-0.3-0.1-0.6-0.2-0.8c-0.1-0.2-0.3-0.2-0.4-0.4c-0.2-0.1-0.4,0-0.6,0h-4V61.2
		c0-0.2,0-0.4-0.1-0.6c-0.1-0.2-0.3-0.3-0.6-0.4c-0.2-0.1-0.5-0.1-0.8-0.1c-0.3,0-0.8,0-1.3,0c-0.4,0-0.8,0-1,0c-0.3,0-0.5,0-0.7,0
		c-0.2,0-0.4,0.1-0.5,0.1c-0.2,0.1-0.3,0.1-0.4,0.2l-5.7,3.7c-0.2,0.1-0.3,0.3-0.5,0.4c-0.1,0.1-0.3,0.3-0.3,0.6
		c-0.1,0.2-0.1,0.4-0.1,0.7c0,0.2,0,0.5,0,0.8c0,0.5,0,1,0.1,1.3C206.1,68.2,206.2,68.5,206.4,68.7z"/>
	<path class="st0" d="M275.2,159.8c-6.2-3.3-14.9-1.6-24.6,4.8L211,192c0.5-2,0.4-3.9-0.4-5.9c-2.8-7.1-14.2-11.9-33.3-6.4
		c-11.2,3.2-11.2,3.2-19.9-0.5c-27.7-12-39.1-3.7-49.1,3.6c-4.2,3.1-8.4,6-13.4,7.4v0c0-3.3-2.5-6.1-5.8-6.1H65.4
		c-3.3,0-6.4,2.8-6.4,6.1v71.4c0,3.3,3.1,6.5,6.4,6.5h23.8c3.3,0,5.8-3.2,5.8-6.5v-16.3c3,0.8,5.8,2.1,8.5,3.1
		c4.9,1.8,9.6,3.7,13.5,3.7h63c0.7,0,1.5-0.4,2.2-0.6c6.2-2.4,38.5-24.4,54.8-35.6c0.2-0.1,0.4-0.4,0.6-0.5
		c0.4-0.3,36.7-32.8,39.6-35.6c3.5-3.5,4.6-5.7,4.6-9.4C281.6,166.8,280,162.3,275.2,159.8z M89,262H65v-72h24V262z M272.9,175.3
		c-2.2,2.2-29.1,26.5-39.3,35.6C211,226.5,184.6,244,180,246h-63c-2.9,0-7.1-1.7-11.5-3.4c-3.2-1.2-6.5-2.7-10.5-3.6v-42.7
		c7-1.4,12.3-5.3,16.9-8.7c9.5-7,18.5-13.5,43.1-2.9c10.3,4.5,11.8,4.3,24,0.8c14.5-4.2,24.2-1.6,26,2.9c1.1,2.8-1.6,6.5-6.7,9.1
		c0,0-0.1,0-0.1,0.1l-9.7,5.6c-0.4,0.2-0.8,0.4-1.2,0.6l0,0.1l-15.8,9.1h-26.7c-1.7,0-3,1.3-3,3s1.3,3,3,3h26.7c1,0,2.1-0.4,3-0.9
		l17-9.8c0.8-0.4,1.7-0.9,2.5-1.4c5.1-2.7,10.8-5.8,18.3-8.7c0.2-0.1,0.4-0.2,0.6-0.3l41.1-28.5c7.6-5,14.3-6.7,18.4-4.5
		c2.4,1.3,3.2,3.5,3.2,5.1C275.7,171.9,275.7,172.5,272.9,175.3z"/>
</g>
</svg>
