<?xml version="1.0" encoding="utf-8"?>
<!-- Generator: Adobe Illustrator 19.2.0, SVG Export Plug-In . SVG Version: 6.00 Build 0)  -->
<!DOCTYPE svg PUBLIC "-//W3C//DTD SVG 1.1//EN" "http://www.w3.org/Graphics/SVG/1.1/DTD/svg11.dtd">
<svg version="1.1" id="Layer_1" xmlns="http://www.w3.org/2000/svg" xmlns:xlink="http://www.w3.org/1999/xlink" x="0px" y="0px"
	 viewBox="0 0 340 340" style="enable-background:new 0 0 340 340;" xml:space="preserve">
<style type="text/css">
                .st0{fill:#071C2C;}
                .st1{fill:#FFFFFF;}
    svg:hover {  cursor:pointer;}
                svg:hover .st0 {  fill:#830065;}
</style>
<g>
	<path class="st0" d="M253.4,105.7c-9.1-18.3-31.6-31.4-35.3-32.2c-2.5-0.7-9.3,3.9-18.6,5.2c-23.8,3.9-65.1,0.7-65.1,0.7
		c-5.8-0.6-10,0.1-10.3,4.8c0,0.4,0,0.8,0,1.3l0.1,0.6c2.6,9.8,18.4,11.6,18.4,11.6l19.1,1.8c0.7,0.1,3.4,0.6,4.2,3.8
		c0.1,0.2,0.1,0.5,0.1,0.8c-0.2,3.2-5.3,8.6-9.5,12.4l-5.5,4.7l0,0l0,0l-33.1,28.7l-0.2-5.8l0-0.1c-0.1-1.8-1.3-17.4-12.8-21.4
		l-1.1-0.3l-0.5-0.1c-0.7-0.1-1.3-0.2-1.9-0.2c0,0,0,0,0,0c-3.7,0-6,1.7-7.3,3c-3.1,3.2-3.3,7.9-3.2,11.6c0,1.6,0.4,34.5-3.8,52.9
		l0,0.2c-0.7,3.5-2.1,6.6-3.2,9c-1.5,3.2-2.6,5.7-2,8.7c1.2,5.7,12.3,26,28,35.1c6,3.5,11.1,5.8,16.4,5.8c3.8,0,7.2-1.2,10.2-2.4
		c15.2-6.3,42.7-29.8,45.5-32.2l0,0l7-5.9l19.7-18.7c3.1-2.8,5.2-5.4,6.4-7.7c2.6-2.7,32.3-33.5,40.3-49.9c1.7-3.5,2.8-6.3,3-9.3
		C258.6,117.8,257.1,113.2,253.4,105.7z M204.6,184.6l-19.5,18.5l-7,5.9c-0.3,0.2-29.2,25.2-43.9,31.3c-3,1.3-5.4,2-8,2
		c-3.5,0-7.3-1.5-13.4-5c-14.8-8.6-24.6-28-25.1-31.1c-0.5-2.1,3.8-7.6,5.3-15.3c4.4-19.7,3.9-54.4,3.9-54.4
		c-0.2-4.9,0.6-8.4,4.5-8.4c0.3,0,0.7,0,1.1,0.1l0.5,0.2c8,2.7,8.7,16,8.7,16l0.6,16.1c0,0.6,0.3,2.8,3,3.7c0.2,0.1,0.4,0.1,0.7,0.1
		c2.7,0,7.4-4,10.9-7.3l4.2-4.3l0,0l0,0l35.4-36.1c1.4-1.7,3.5-2.5,5.5-2.5c1.6,0,3.3,0.5,4.6,1.7c3,2.5,3.5,7,1,10.1l-34.7,39
		c0.1,0.3,0.3,0.6,0.7,0.8c0.6,0.4,1.5,0.6,2.6,0.6l43.5-43.1c1.8-1.8,4-2.7,6.2-2.7c1.7,0,3.3,0.6,4.5,1.8
		c2.7,2.6,2.5,7.4-0.6,10.7l-42.4,45.8c0.1,0.2,0.2,0.3,0.3,0.5c0.5,0.6,1,1.1,1.5,1.5l39.6-35.7c1.2-0.9,2.7-1.4,4.1-1.4
		c1.9,0,3.8,0.8,5.1,2.4c2.3,2.7,1.9,6.8-0.8,9.2l-38.1,39c0.1,0.3,0.2,0.5,0.4,0.8c0.2,0.4,0.5,0.7,0.8,1l26.6-21
		c3.2-2.4,6.8-4.5,9.7-4.5c1.4,0,2.7,0.5,3.7,1.6C213.1,175.5,208.1,181.3,204.6,184.6z"/>
</g>
</svg>
