<?xml version="1.0" encoding="utf-8"?>
<!-- Generator: Adobe Illustrator 19.2.1, SVG Export Plug-In . SVG Version: 6.00 Build 0)  -->
<!DOCTYPE svg PUBLIC "-//W3C//DTD SVG 1.1//EN" "http://www.w3.org/Graphics/SVG/1.1/DTD/svg11.dtd">
<svg version="1.1" id="Layer_1" xmlns="http://www.w3.org/2000/svg" xmlns:xlink="http://www.w3.org/1999/xlink" x="0px" y="0px"
	 width="340px" height="340px" viewBox="0 0 340 340" style="enable-background:new 0 0 340 340;" xml:space="preserve">
<style type="text/css">
                .st0{fill:#071C2C;}
                .st1{fill:#FFFFFF;}
    svg:hover {  cursor:pointer;}
                svg:hover .st0 {  fill:#830065;}
</style>
<g>
	<g>
		<path class="st0" d="M172.4,96.4c-10.9,0-19.7-8.8-19.7-19.7S161.6,57,172.4,57c10.9,0,19.7,8.8,19.7,19.7S183.3,96.4,172.4,96.4z
			 M172.4,60c-9.2,0-16.7,7.5-16.7,16.7c0,9.2,7.5,16.7,16.7,16.7c9.2,0,16.7-7.5,16.7-16.7C189.1,67.5,181.6,60,172.4,60z"/>
	</g>
</g>
<g>
	<circle class="st0" cx="172.4" cy="89.9" r="2.7"/>
	<circle class="st0" cx="185.3" cy="76.7" r="2.7"/>
	<circle class="st0" cx="159.6" cy="76.7" r="2.7"/>
</g>
<path class="st0" d="M182.8,82.9l-8.8-6.7V65.6c1-0.6,1.2-1.3,1.2-2.3c0-1.5-1.2-2.7-2.7-2.7c-1.5,0-2.7,1.2-2.7,2.7
	c0,0.9,0.3,1.5,1.3,2.3v11c0,0,0,0,0,0c-0.1,0.5,0.1,1.1,0.5,1.5l9.5,7.1c0.3,0.2,0.6,0.3,0.9,0.3c0.5,0,0.9-0.2,1.2-0.6
	C183.6,84.3,183.5,83.4,182.8,82.9z"/>
<g>
	<path class="st0" d="M135.1,232.2h-7.4c-0.8,0-1.5-0.7-1.5-1.5v-16.4c0-0.8,0.7-1.5,1.5-1.5h7.4c0.8,0,1.5,0.7,1.5,1.5v16.4
		C136.6,231.5,135.9,232.2,135.1,232.2z M129.2,229.2h4.4v-13.4h-4.4V229.2z M109.3,226.6H88.3c-0.8,0-1.5-0.7-1.5-1.5v-24.6
		c0-0.8,0.7-1.5,1.5-1.5h21c0.4,0,0.8,0.2,1.1,0.4c0.3,0.3,0.4,0.7,0.4,1.1l0,24.6C110.8,226,110.1,226.6,109.3,226.6z M89.8,223.6
		h17.9l0-21.6h-18V223.6z M182.9,187h-21c-0.8,0-1.5-0.7-1.5-1.5V161c0-0.8,0.7-1.5,1.5-1.5h21c0.8,0,1.5,0.7,1.5,1.5v24.6
		C184.4,186.3,183.7,187,182.9,187z M163.5,184h18v-21.6h-18V184z M150.9,187h-20.9c-0.8,0-1.5-0.7-1.5-1.5V161
		c0-0.8,0.7-1.5,1.5-1.5h20.9c0.8,0,1.5,0.7,1.5,1.5v24.6C152.4,186.3,151.7,187,150.9,187z M131.4,184h17.9v-21.6h-17.9V184z
		 M256.6,187h-20.9c-0.8,0-1.5-0.7-1.5-1.5l0-24.5c0-0.4,0.2-0.8,0.4-1.1s0.7-0.4,1.1-0.4h20.9c0.8,0,1.5,0.7,1.5,1.5v24.5
		C258.1,186.3,257.4,187,256.6,187z M237.1,184h17.9v-21.5h-17.9L237.1,184z M215,187H194c-0.8,0-1.5-0.7-1.5-1.5l0-24.5
		c0-0.4,0.2-0.8,0.4-1.1s0.7-0.4,1.1-0.4h21c0.8,0,1.5,0.7,1.5,1.5v24.5C216.5,186.3,215.8,187,215,187z M195.5,184h17.9v-21.5h-18
		L195.5,184z M109.3,187H88.3c-0.8,0-1.5-0.7-1.5-1.5V161c0-0.8,0.7-1.5,1.5-1.5h21c0.4,0,0.8,0.2,1.1,0.4c0.3,0.3,0.4,0.7,0.4,1.1
		l0,24.5C110.8,186.3,110.1,187,109.3,187z M89.8,184h17.9l0-21.5h-18V184z M215,147.4H194c-0.8,0-1.5-0.7-1.5-1.5l0-24.6
		c0-0.4,0.2-0.8,0.4-1.1s0.7-0.4,1.1-0.4h21c0.8,0,1.5,0.7,1.5,1.5v24.6C216.5,146.7,215.8,147.4,215,147.4z M195.5,144.4h17.9
		v-21.6h-18L195.5,144.4z M182.9,147.4h-21c-0.8,0-1.5-0.7-1.5-1.5v-24.6c0-0.8,0.7-1.5,1.5-1.5h21c0.8,0,1.5,0.7,1.5,1.5v24.6
		C184.4,146.7,183.7,147.4,182.9,147.4z M163.5,144.4h18v-21.6h-18V144.4z M150.9,147.4h-20.9c-0.8,0-1.5-0.7-1.5-1.5v-24.6
		c0-0.8,0.7-1.5,1.5-1.5h20.9c0.8,0,1.5,0.7,1.5,1.5v24.6C152.4,146.7,151.7,147.4,150.9,147.4z M131.4,144.4h17.9v-21.6h-17.9
		V144.4z"/>
</g>
<g>
	<g>
		<path class="st0" d="M205,230.1c0-13.2,10.7-24,24-24c13.2,0,24,10.7,24,24c0,13.2-10.7,24-24,24C215.7,254.1,205,243.3,205,230.1
			 M286.5,276.4l-27.2-27.2c3.5-5.5,5.5-12.1,5.5-19.1c0-19.8-16.1-35.9-35.9-35.9c-19.8,0-35.9,16.1-35.9,35.9
			c0,19.9,16.1,35.9,35.9,35.9c7,0,13.6-2.1,19.1-5.5l27.2,27.2c3.1,3.1,8.2,3.1,11.3,0C289.6,284.5,289.6,279.5,286.5,276.4"/>
	</g>
</g>
<g>
	<path class="st0" d="M186.6,230c0-8.3,2.4-16.1,6.6-22.6c-4.5-6.2-11.8-10.4-20-10.4h-1.6c-13.5,0-24.6,11.4-24.6,24.9v21.7
		c0,0.8,0.8,1.4,1.6,1.4h40.8C187.6,240.3,186.6,235.3,186.6,230z"/>
</g>
<g>
	<path class="st0" d="M199.1,260H58v-16h7v-13h9V121h-3v-8.5l47,0V109h-4v-8.7l29.9,0l0.2-56.5c0-2.7,1.9-5,4.9-5.6v-5
		c0-0.8,0.7-1.5,1.5-1.5c0.8,0,1.5,0.7,1.5,1.5v5c2,0.6,4,2.9,4,5.6V48h32v-4.2c0-2.7,2-5,5-5.6v-5c0-0.8,0.7-1.5,1.5-1.5
		s1.5,0.7,1.5,1.5v5c3,0.6,5,2.9,5,5.6v56.5l29,0v8.7h-3v3.4l47,0v8.5h-3v106.7c0,0.8,0.1,1.5,0.1,2.3c0,0.3,0,0.7,0,1h8v13h8v16
		h-8.3l6,6h2.3c3.3,0,6-2.6,6-5.9v-16.3c0-3.3-2.7-5.8-6-5.8h-2v-6.7c0-3.3-2.3-6.3-5.6-6.3H277v-98.3c2-0.9,3-3,3-5.5v-8.7
		c0-3.3-2.8-6-6.1-6l-37.9,0v-6.2c0-1.6-0.4-3.3-1.6-4.4c-1.1-1.1-2.5-1.9-4-1.9c0,0,0,0,0,0L207,94.3V43.7c0-3.7-2.1-7.1-5-9.3
		v-1.3c0-4.1-3.4-7.5-7.5-7.5c-4.1,0-7.5,3.3-7.5,7.5v1.3c-2,1.8-4,4.5-4.5,7.5h-20.3c-0.5-3-2.2-5.6-4.2-7.5v-1.4
		c0-4.1-3.4-7.5-7.5-7.5c-4.1,0-7.5,3.3-7.5,7.5v1.3c-3,2.2-5,5.5-5,9.3v50.5l-23.8,0c-3.3,0-6.2,2.7-6.2,6v6.1l-37.4,0
		c-3.3,0-5.6,2.7-5.6,6v8.7c0,2.5,1,4.6,3,5.5V225h-2.5c-3.3,0-6.5,2.9-6.5,6.3v6.7h-1.1c-3.3,0-5.9,2.5-5.9,5.8v16.3
		c0,3.3,2.6,5.9,5.9,5.9h148.9C204,264.3,201.4,262.3,199.1,260z"/>
</g>
</svg>
