<?xml version="1.0" encoding="utf-8"?>
<!-- Generator: Adobe Illustrator 19.2.0, SVG Export Plug-In . SVG Version: 6.00 Build 0)  -->
<!DOCTYPE svg PUBLIC "-//W3C//DTD SVG 1.1//EN" "http://www.w3.org/Graphics/SVG/1.1/DTD/svg11.dtd">
<svg version="1.1" id="Layer_1" xmlns="http://www.w3.org/2000/svg" xmlns:xlink="http://www.w3.org/1999/xlink" x="0px" y="0px"
	 viewBox="0 0 340 340" style="enable-background:new 0 0 340 340;" xml:space="preserve">
<style type="text/css">
                .st0{fill:#071C2C;}
                .st1{fill:#FFFFFF;}
    svg:hover {  cursor:pointer;}
                svg:hover .st0 {  fill:#830065;}
</style>
<path class="st0" d="M331.9,142.7c-0.7-5.4-5.6-9.3-11.2-8.9c-3.8-6.4-10.6-10.8-18.6-10.8H302c-1.4-4-5.2-6.9-9.6-6.9
	c-4.4,0-8.1,2.9-9.6,6.9h-15c-12.2,0-21.9,10.4-21.9,22.8v70.1c0,0.2,0,0.4,0.2,0.5c0.2,0.1,0.4,0.2,0.5,0c0.1-0.1,8.5-12.4,22-12.4
	c0,0,0,0,0,0c2.9,0,7.2,0.3,10.1,1.5c17.2,6.6,16.7,25.7,16.1,31.5c0,0.1,0,0,0.1,0.1s0.2-0.1,0.4-0.1h6.8c13.5,0,21.8-7,21.8-18.3
	v-64.9c2.3-0.6,4.4-1.8,5.8-3.7C331.5,148,332.2,145.3,331.9,142.7z M292.4,119.1c2.7,0,5.1,1.6,6.3,3.9h-12.6
	C287.3,120.7,289.7,119.1,292.4,119.1z M318,218.7c0,11.1-12.2,12.3-15.8,12.3h-0.7c-0.2-16-7.2-26.8-20.3-31.9
	c-3.5-1.4-7.4-2.2-11.1-2.2c-6,0-12.1,1.8-18.1,5.5v-56.6c0-8.7,7.3-15.8,15.9-15.8H278v38.8c0,0.6,0.4,1.1,0.9,1.3l39.1,19.7V218.7
	z M318,186.5l-37-18.6V130h21.2c8.6,0,15.8,7.1,15.8,15.8V186.5z M327.5,148.3c-0.9,1.1-2.1,2-3.5,2.5v-4.9c0-3.2-0.6-6.2-1.8-9
	c3.4,0.3,6.3,2.9,6.7,6.3C329.2,144.9,328.6,146.8,327.5,148.3z"/>
<g>
	<g>
		<path class="st1" d="M142.3,252.2c-11.9,0-21.5-9.8-21.5-21.9s9.7-21.9,21.5-21.9c11.9,0,21.5,9.8,21.5,21.9
			S154.2,252.2,142.3,252.2z M142.3,211.4c-10.2,0-18.5,8.5-18.5,18.9s8.3,18.9,18.5,18.9c10.2,0,18.5-8.5,18.5-18.9
			S152.6,211.4,142.3,211.4z M142.3,239.9c-5.2,0-9.5-4.3-9.5-9.6s4.3-9.6,9.5-9.6s9.5,4.3,9.5,9.6S147.6,239.9,142.3,239.9z
			 M142.3,223.7c-3.6,0-6.5,3-6.5,6.6c0,3.6,2.9,6.6,6.5,6.6s6.5-3,6.5-6.6C148.8,226.7,145.9,223.7,142.3,223.7z"/>
	</g>
	<g>
		<path class="st1" d="M90.9,252.2c-11.9,0-21.5-9.8-21.5-21.9s9.7-21.9,21.5-21.9s21.5,9.8,21.5,21.9S102.8,252.2,90.9,252.2z
			 M90.9,211.4c-10.2,0-18.5,8.5-18.5,18.9s8.3,18.9,18.5,18.9s18.5-8.5,18.5-18.9S101.2,211.4,90.9,211.4z M90.9,239.9
			c-5.2,0-9.5-4.3-9.5-9.6s4.3-9.6,9.5-9.6s9.5,4.3,9.5,9.6S96.2,239.9,90.9,239.9z M90.9,223.7c-3.6,0-6.5,3-6.5,6.6
			c0,3.6,2.9,6.6,6.5,6.6s6.5-3,6.5-6.6C97.4,226.7,94.5,223.7,90.9,223.7z"/>
	</g>
	<g>
		<path class="st0" d="M268.8,254.6c-13.2,0-23.9-10.9-23.9-24.3s10.7-24.3,23.9-24.3s23.9,10.9,23.9,24.3S282,254.6,268.8,254.6z
			 M268.8,212c-9.9,0-17.9,8.2-17.9,18.3s8,18.3,17.9,18.3s17.9-8.2,17.9-18.3S278.6,212,268.8,212z"/>
	</g>
	<g>
		<path class="st0" d="M142.3,240.3c-5.4,0-9.8-4.5-9.8-10c0-5.5,4.4-10,9.8-10s9.8,4.5,9.8,10C152.2,235.8,147.8,240.3,142.3,240.3
			z M142.3,223.3c-3.8,0-6.8,3.1-6.8,7c0,3.8,3.1,7,6.8,7s6.8-3.1,6.8-7C149.2,226.5,146.1,223.3,142.3,223.3z"/>
	</g>
	<g>
		<path class="st0" d="M90.9,240.3c-5.4,0-9.8-4.5-9.8-10c0-5.5,4.4-10,9.8-10s9.8,4.5,9.8,10C100.8,235.8,96.4,240.3,90.9,240.3z
			 M90.9,223.3c-3.8,0-6.8,3.1-6.8,7c0,3.8,3.1,7,6.8,7s6.8-3.1,6.8-7C97.8,226.5,94.7,223.3,90.9,223.3z"/>
	</g>
	<g>
		<path class="st0" d="M268.8,240.3c-5.4,0-9.8-4.5-9.8-10c0-5.5,4.4-10,9.8-10s9.8,4.5,9.8,10C278.6,235.8,274.2,240.3,268.8,240.3
			z M268.8,223.3c-3.8,0-6.8,3.1-6.8,7c0,3.8,3.1,7,6.8,7s6.8-3.1,6.8-7C275.6,226.5,272.5,223.3,268.8,223.3z"/>
	</g>
</g>
<g>
	<ellipse class="st0" cx="23.1" cy="236.8" rx="3.6" ry="3.7"/>
	<ellipse class="st0" cx="36.5" cy="236.8" rx="3.6" ry="3.7"/>
	<ellipse class="st0" cx="50" cy="236.8" rx="3.6" ry="3.7"/>
	<ellipse class="st0" cx="12.1" cy="248.5" rx="3.6" ry="3.7"/>
	<ellipse class="st0" cx="25.6" cy="248.5" rx="3.6" ry="3.7"/>
	<ellipse class="st0" cx="39" cy="248.5" rx="3.6" ry="3.7"/>
	<g>
		<polygon class="st0" points="111.1,158 154.6,202 176.3,202 132.8,158 		"/>
		<polygon class="st0" points="70.8,158 114.4,202 136,202 92.5,158 		"/>
		<polygon class="st0" points="151.4,158 194.9,202 216.6,202 173.1,158 		"/>
		<path class="st0" d="M235.8,224H231v-13h5.8c1.7,0,3.2-0.9,3.2-2.5v-79.9c0-0.8-0.4-1.3-1-1.9c-0.6-0.6-1.4-0.7-2.2-0.7
			c0,0,0,0,0,0l-1.5,0c-0.1-1.6-1.4-3-3-3h-164c-1.7,0-3,1.4-3,3c0,0.1,0,0.2,0,0.4l-3.5,0c-0.2,0-16.2,0.4-16.2,18.2
			c0,12.7,9.5,18.1,15.8,19.6l8.5,23.5L36.3,220H23.9c-2.2,0-4,1.8-4,4s1.8,4,4,4h37.9c2.2,0,4-1.8,4-4s-1.8-4-4-4H51.6l22.2-21.3
			l4,11.2c-6.5,4.3-10.8,11.9-10.8,20.3c0,13.4,10.7,24.3,23.9,24.3c11.6,0,21.3-8.4,23.5-19.6h4.4c2.2,11.1,11.9,19.6,23.5,19.6
			c13.2,0,23.9-10.9,23.9-24.3c0-5.3-1.7-10.1-4.5-14.1l4.1-5.2H184v13h-4.4c-3.7,0-6.6,2.8-6.6,6.5s3,6.5,6.6,6.5h56.2
			c3.7,0,6.6-2.8,6.6-6.5S239.4,224,235.8,224z M90.9,248.6c-9.9,0-17.9-8.2-17.9-18.3S81,212,90.9,212s17.9,8.2,17.9,18.3
			S100.8,248.6,90.9,248.6z M142.3,248.6c-9.9,0-17.9-8.2-17.9-18.3s8-18.3,17.9-18.3s17.9,8.2,17.9,18.3S152.2,248.6,142.3,248.6z
			 M164.5,205c-0.9,0-1.8,0.6-2.3,1.4l-4.3,5.4c-4.2-3.6-9.6-5.8-15.5-5.8c-12.8,0-23.2,10.2-23.9,23h-3.6
			c-0.7-12.8-11.1-23-23.9-23c-2.7,0-5.3,0.5-7.7,1.3l-16.8-46.8c-0.4-1.1-1.3-1.8-2.4-2c-0.5-0.1-12.4-1.7-12.4-14
			c0-11.7,9.4-12.3,10.4-12.3l172-0.6v47.3L213.4,158h-21.7l42.3,42.9v4.1H164.5z M218,224h-20v-13h20V224z"/>
	</g>
</g>
</svg>
