<?xml version="1.0" encoding="utf-8"?>
<!-- Generator: Adobe Illustrator 19.2.1, SVG Export Plug-In . SVG Version: 6.00 Build 0)  -->
<!DOCTYPE svg PUBLIC "-//W3C//DTD SVG 1.1//EN" "http://www.w3.org/Graphics/SVG/1.1/DTD/svg11.dtd">
<svg version="1.1" id="Layer_1" xmlns="http://www.w3.org/2000/svg" xmlns:xlink="http://www.w3.org/1999/xlink" x="0px" y="0px"
	 width="340px" height="340px" viewBox="0 0 340 340" style="enable-background:new 0 0 340 340;" xml:space="preserve">
<style type="text/css">
                .st0{fill:#071C2C;}
                .st1{fill:#FFFFFF;}
    svg:hover {  cursor:pointer;}
                svg:hover .st0 {  fill:#830065;}
</style>
<g>
	<path class="st0" d="M288.6,173.2c-4.9,0-8.9,4-8.9,8.9c0,4.9,4,8.9,8.9,8.9c4.9,0,8.9-4,8.9-8.9
		C297.5,177.3,293.5,173.2,288.6,173.2z M288.6,188.1c-3.3,0-5.9-2.7-5.9-5.9c0-3.3,2.7-5.9,5.9-5.9c3.3,0,5.9,2.7,5.9,5.9
		C294.5,185.5,291.8,188.1,288.6,188.1z"/>
	<path class="st0" d="M257,211.1V94.3c0-1.1,0.5-2.3,1.5-2.3H296v-6h-37.5c-4.4,0-7.5,4-7.5,8.3v0.7l-30.7-14.2
		c-1-0.5-2.4-0.8-3.5-0.8h-33.4c-1.3,0-14.5,0-26.5,9H92v-9c0-4.4-3.5-8-7.9-8H46v6h38.1c1.1,0,1.9,0.9,1.9,2v116.8
		c0,1.1-0.9,2.2-1.9,2.2H46v6h38.1c4.4,0,7.9-3.9,7.9-8.2V188h2.8l31.7,42.3c1.3,1.9,5.6,5.7,10.1,6.4c0.9,0.1,1.8,0.2,2.8,0.2
		c4.4,0,9-1.7,12.9-4.8c1.4-1.1,2.6-2.4,3.8-3.8c1.8,1.2,3.8,2,5.9,2.3c5.3,0.8,10.9-0.8,15.6-4.6c1.4-1.1,2.6-2.4,3.7-3.8
		c1.8,1.2,3.8,2,6,2.4c5.3,0.9,11-0.8,15.7-4.6c1.4-1.1,2.6-2.3,3.7-3.7c1.8,1.3,3.8,2.1,6.1,2.5c0.9,0.2,1.9,0.2,2.8,0.2
		c4.4,0,9-1.7,12.9-4.8l0,0c4.7-3.8,7.8-9.2,8.4-14.7c1.7,0.3,3,0.3,3.4,0.3c0,0,0,0,0,0H251v11.1c0,4.4,3.2,7.9,7.5,7.9H296v-6
		h-37.5C257.5,213,257,212.2,257,211.1z M224.6,209.7c-2.8,2.2-6.1,3.5-9.1,3.5c-0.6,0-1.2-0.1-1.8-0.2c-2.1-0.4-3.9-1.4-5.3-3
		l-2.8-3.3l-2.1,3.7c-1.2,2-2.6,3.7-4.3,5.1c-3.4,2.7-7.3,3.9-10.9,3.3c-2.1-0.3-3.9-1.4-5.3-3l-2.8-3.2l-2.1,3.7
		c-1.1,2-2.6,3.7-4.3,5.1c-3.4,2.7-7.4,3.9-10.9,3.3c-2.1-0.3-3.9-1.3-5.2-2.9l-2.8-3.2l-2.1,3.6c-1.1,2-2.6,3.7-4.3,5.1
		c-3.3,2.7-7.4,3.9-10.9,3.3c-2.4-0.4-5.4-2.8-6.1-3.9L97.8,182H92V95h59.3c-8.3,10-28,33.5-29.9,36.1c-3.9,5-3.5,9.8,1,14.2
		c4.9,4.8,12.7,7.3,18.3,7.6c7.5,0.5,13.8-4.7,22.1-13.7l1.9-2.1l0,0c3.7-4.2,8.6-9.4,9.6-10.4c1.2-0.9,8.4-3.2,13-2.1
		c2.5,0.6,4.6,2.4,6.5,5.7c5.2,10.4,30.7,61.6,32.5,64.2l0.1,0c1.2,1.6,2.8,2.8,4.5,3.6C230.8,202.3,228.4,206.7,224.6,209.7z
		 M251,194h-10.8c-1.8,0-6.9-0.5-8.9-3.1c-1.7-2.8-20-39.4-32.1-63.5l-0.1-0.1c-2.7-4.8-6.2-7.7-10.4-8.6
		c-6.2-1.4-15.4,1.1-18.2,3.4c-2,1.7-10.5,11.2-12.1,13.1l-0.2,0.2c-6.9,7.5-12,11.8-17.1,11.5c-4.5-0.3-10.9-2.4-14.5-6
		c-2.6-2.5-2.2-4-0.4-6.3c2.2-2.9,30.6-37,33.2-40.2c10.8-8.5,23.6-8.1,23.8-8.1l33.6,0c0.3,0,0.7,0.1,1,0.2l33.2,15.2V194z"/>
	<path class="st0" d="M54.1,179.2c4.9,0,8.9-4,8.9-8.9c0-4.9-4-8.9-8.9-8.9c-4.9,0-8.9,4-8.9,8.9C45.1,175.2,49.2,179.2,54.1,179.2z
		 M54.1,164.3c3.3,0,5.9,2.7,5.9,5.9c0,3.3-2.7,5.9-5.9,5.9c-3.3,0-5.9-2.7-5.9-5.9C48.1,166.9,50.8,164.3,54.1,164.3z"/>
</g>
</svg>
