<?xml version="1.0" encoding="utf-8"?>
<!-- Generator: Adobe Illustrator 19.2.1, SVG Export Plug-In . SVG Version: 6.00 Build 0)  -->
<!DOCTYPE svg PUBLIC "-//W3C//DTD SVG 1.1//EN" "http://www.w3.org/Graphics/SVG/1.1/DTD/svg11.dtd">
<svg version="1.1" id="Layer_1" xmlns="http://www.w3.org/2000/svg" xmlns:xlink="http://www.w3.org/1999/xlink" x="0px" y="0px"
	 width="340px" height="340px" viewBox="0 0 340 340" style="enable-background:new 0 0 340 340;" xml:space="preserve">
<style type="text/css">
                .st0{fill:#071C2C;}
                .st1{fill:#FFFFFF;}
    svg:hover {  cursor:pointer;}
                svg:hover .st0 {  fill:#830065;}
</style>
<g>
	<path class="st0" d="M178.9,176.7c0.2-0.4,0.2-0.8,0.1-1.1l-15.6-51.7c-0.1-0.4-0.4-0.7-0.7-0.9c-0.4-0.2-0.8-0.2-1.1-0.1l-59.8,18
		c-0.8,0.2-1.2,1.1-1,1.9l15.6,51.7c0.2,0.6,0.8,1.1,1.4,1.1c0.1,0,0.3,0,0.4-0.1l59.8-18C178.4,177.3,178.7,177,178.9,176.7z"/>
	<path class="st0" d="M179.7,146.2c0.4,1.3,1.6,2.1,2.9,2.1c0.3,0,0.6,0,0.9-0.1l55.2-16.6c1.6-0.5,2.5-2.2,2-3.7
		c-0.5-1.6-2.2-2.5-3.7-2l-55.2,16.6C180.1,142.9,179.2,144.6,179.7,146.2z"/>
	<path class="st0" d="M175.5,124.8c0.3,0,0.6,0,0.9-0.1l55.2-16.6c1.6-0.5,2.5-2.2,2-3.7c-0.5-1.6-2.1-2.5-3.7-2l-55.2,16.6
		c-1.6,0.5-2.5,2.2-2,3.7C173,124,174.2,124.8,175.5,124.8z"/>
	<path class="st0" d="M243.9,149.3l-55.2,16.6c-1.6,0.5-2.5,2.2-2,3.7c0.4,1.3,1.6,2.1,2.9,2.1c0.3,0,0.6,0,0.9-0.1l55.2-16.6
		c1.6-0.5,2.5-2.2,2-3.7C247.2,149.7,245.5,148.8,243.9,149.3z"/>
	<path class="st0" d="M179.6,194.3l-55.2,16.6c-1.6,0.5-2.5,2.2-2,3.7c0.4,1.3,1.6,2.1,2.9,2.1c0.3,0,0.6,0,0.9-0.1l55.2-16.6
		c1.6-0.5,2.5-2.2,2-3.7C182.9,194.7,181.2,193.8,179.6,194.3z"/>
</g>
<path class="st0" d="M282.3,191.2L248,77.3c-0.2-0.8-0.8-1.4-1.5-1.8c-0.7-0.4-1.5-0.5-2.3-0.2l-19.6,5.9l-10.6-17.8
	c-0.4-0.7-1.1-1.2-1.8-1.4c-0.8-0.2-1.6-0.1-2.3,0.3l-77.5,46.5l-54,16.3c-0.6,0.2-1,0.5-1.4,0.9c-0.7,0.8-1,1.8-0.6,2.9l3.5,11.6
	l-20.8,12.5c-1.4,0.9-1.9,2.7-1,4.1l51.6,86.9c0.4,0.7,1.1,1.2,1.8,1.4c0.2,0.1,0.5,0.1,0.7,0.1c0.5,0,1.1-0.1,1.5-0.4l0.4-0.2
	c0.1,0,0.2,0,0.3-0.1l83.9-25.2l9.5,30c0.3,1,1.1,1.8,2.1,2c1,0.2,2.1-0.1,2.8-0.8l14.7-14.7l23.9,26.9c0.5,0.6,1.3,1,2.2,1
	c0,0,0.1,0,0.1,0c0.8,0,1.6-0.3,2.1-0.9l15.1-15.1c0.6-0.6,0.9-1.4,0.9-2.2s-0.4-1.6-1-2.2l-26.8-23.9l13.6-13.6
	c0.7-0.7,1-1.8,0.8-2.8c-0.1-0.5-0.4-1-0.8-1.4l22.8-6.8c0.6-0.2,1-0.5,1.4-0.9C282.3,193.3,282.6,192.2,282.3,191.2z M237.4,217.7
	c-0.6,0.6-0.9,1.4-0.9,2.2s0.4,1.6,1,2.2l26.8,23.9l-10.6,10.6l-23.9-26.7c-0.5-0.6-1.3-0.9-2.2-0.9c0,0-0.1,0-0.1,0
	c-0.8,0-1.6,0.2-2.1,0.7L212,243.1L194.7,188l55.1,17.3L237.4,217.7z M247.9,198.4L218,189l34.7-10.4c1.6-0.5,2.5-2.2,2-3.7
	c-0.5-1.6-2.2-2.5-3.7-2l-43.1,13l-16.9-5.3c-1.1-0.3-2.2-0.1-3,0.7c-0.8,0.8-1.1,2-0.7,3l9.4,29.6l-80.9,24.4L83.1,130.1l160-48.2
	l32.5,108.1L247.9,198.4z"/>
</svg>
