<?xml version="1.0" encoding="utf-8"?>
<!-- Generator: Adobe Illustrator 21.1.0, SVG Export Plug-In . SVG Version: 6.00 Build 0)  -->
<svg version="1.1" id="Layer_1" xmlns="http://www.w3.org/2000/svg" xmlns:xlink="http://www.w3.org/1999/xlink" x="0px" y="0px"
	 viewBox="0 0 793.7 184.3" style="enable-background:new 0 0 793.7 184.3;" xml:space="preserve">
<style type="text/css">
	.st0{fill:#C9C7D4;}
	.st1{fill:#1A2F50;}
	.st2{fill:#832071;}
</style>
<g>
	<path class="st0" d="M785.1,164.3c-135-27.9-260.7-15.5-389.8-6.5c-128.1,9.9-259.7,16.5-382.6-2.9c1.4-0.3,2.7-0.5,4.1-0.8
		c123.8,18.2,255,9.9,381.4-2.2c127.3-11.3,249.8-26.4,379.6-3.4C780.3,153.9,782.7,159.1,785.1,164.3z"/>
	<path class="st0" d="M784.9,139.4c-257.1-41.6-515.9,47.8-776.3,1c3-2.3,6-4.7,8.9-7c256.9,40.4,511.9-52.1,764.9-15.2
		C783.3,125.2,784.1,132.3,784.9,139.4z"/>
	<path class="st1" d="M29.4,48.6c1.2,0.2,1.5,0.2,2.3,0.2c6.6,0,10.1-0.9,13.2-3.5c2.6-2.3,3.8-4.9,3.8-8c0-7.2-5.7-12-13.9-12
		c-1,0-2.3,0.1-3.8,0.2l-1.6,0.1V48.6z M29.3,82.3c4.6,0.9,6.9,1.2,9.7,1.2c10,0,17.6-6.5,17.6-15.3c0-6.1-3.9-11.2-9.4-12.7
		c-2.9-0.6-7.1-1-12.4-1c-1.5,0-2.8,0.1-5.5,0.2V82.3 M17.8,87.1c0.2-0.5,0.5-1.2,0.8-2c0.1-0.7,0.2-1.1,0.2-1.4l0.1-57.3
		c0-3-0.8-4.3-4.3-7.6h16.9c9.1,0,14.1,0.7,19.2,2.7c6.2,2.6,9.9,7.8,9.9,14.2c0,3.1-1,5.9-2.7,8.1c-1.4,1.8-2.8,2.7-6.3,4.3
		c4.7,1,6.6,1.7,9.1,3.7c4.6,3.3,7,8.8,7,15.1c0,5.5-2.2,11.2-6,15.4C55.5,89,48.4,90.9,30,90.9H14C16.2,89.3,17.1,88.4,17.8,87.1"
		/>
	<path class="st1" d="M74.3,88.6c0.7-0.9,1.4-3.3,1.4-4.8v-2.2l-0.1-50.5c-0.1-4.1,1.6-6.4,3.1-7.8c0,0,3.4-3.5,8.6-3.4
		c0.4,0-1.9,1.4-1.9,8.5v53.3c0,1.2,0.2,3.5,0.6,4.9c0.4,1.7,1,2.7,3.2,4.4H71.9C73,90,73.9,89.3,74.3,88.6z"/>
	<path class="st1" d="M420.7,88.6c0.7-0.9,1.4-3.3,1.4-4.8v-2.2L422,31.1c-0.1-4.1,1.6-6.4,3.1-7.8c0,0,3.4-3.5,8.6-3.4
		c0.4,0-1.9,1.4-1.9,8.5v53.3c0,1.2,0.2,3.5,0.6,4.9c0.4,1.7,1,2.7,3.2,4.4h-17.3C419.4,90,420.3,89.3,420.7,88.6z"/>
	<path class="st1" d="M193.9,88.6c0.7-0.9,1.4-3.3,1.4-4.8v-2.2l-0.1-50.5c-0.1-4.1,1.6-6.4,3.1-7.8c0,0,3.4-3.5,8.6-3.4
		c0.4,0-1.9,1.4-1.9,8.5v53.3c0,1.2,0.2,3.5,0.6,4.9c0.4,1.7,1,2.7,3.2,4.4h-17.3C192.6,90,193.5,89.3,193.9,88.6z"/>
	<path class="st1" d="M107.8,39.8c3.2-0.9,4.3-1.1,7.5-1.1c3.4,0,6.8,0.4,9.5,1.2c2.2,0.5,4.2,1.6,6.1,3.2c3.2,2.7,3.8,4.2,3.8,10.4
		v23.2c0,4.1,0.7,5.8,3.3,6.8c1.6,0.8,2.6,0.9,6,0.9h1l-6,7.4c-1.1,0.2-1.6,0.3-2.4,0.3c-6.3,0-12.3-5-12.3-10.2l0.1-3.9V64.5
		c-1.4,0.6-2.4,0.9-2.9,1.1c-0.2,0-2,0.4-5.2,1.1c-4,0.7-7.9,2-9.9,3.2c-2.1,1.3-3.4,3.7-3.4,6.6c0,5.1,4.3,8.5,11,8.5
		c2.8,0,4.9-0.4,9.6-1.8l-5.7,7.7c-3.7,1.1-6.5,1.6-8.5,1.6c-9,0-17.3-8.1-17.3-16.8c0-7.6,5.6-12.3,17.5-14.4l5.6-1
		c6.4-1.2,9.1-3,9.1-6.6c0-4-3.4-6.6-8.7-6.6c-1.5,0-3.2,0.2-5.2,0.7c-3.3,0.6-5.5,1.4-10.7,3.3L107.8,39.8z"/>
	<path class="st1" d="M182.7,51.8c-0.7-0.7-1.2-1.2-1.5-1.4c-2.6-2-7-3.3-10.9-3.3c-9.7,0-16.5,7.7-16.5,18.7
		c0,11.4,8.5,19.4,20.6,19.4c6.7,0,14.3-2.8,17.5-6.5l-7.7,12.2c-5,1.6-7.2,1.9-11.3,1.9c-17.3,0-30.2-11.2-30.2-26.3
		c0-16,12.8-27.6,30.4-27.6c3.5,0,5.2,0.2,9.6,1.3V51.8z"/>
	<path class="st1" d="M218,48.2c2-2.1,3.1-4.3,3.1-5.9c0-1-0.3-1.7-1.4-2.5h16.7l-19.6,21.5l18.1,21c4.6,5.1,5.4,5.9,10,8.6H234
		h-1.7c-2.3,0-4.8-1-5.7-2.3l-3.1-3.9L205.6,62L218,48.2z"/>
	<path class="st1" d="M244.2,40.3c3.1,0,4.7-0.3,9.1-1.9v7c1.5-1.4,2.7-2.3,3.6-2.9c3.4-2.4,8.4-3.9,13.1-3.9
		c14.2,0,25.6,11.4,25.6,25.7c0,15.2-11.8,27.8-26.3,27.8c-1.8,0-3.5-0.2-6.8-1l-6.5-8.5c4.9,2,7,2.6,10.5,2.6c5.2,0,10.3-2,13-4.8
		c3.1-3.3,5.4-9.5,5.4-14.7c0-11.2-7.7-20.2-17.4-20.2c-8.9,0-14.1,5.9-14.1,16.1v45.2c0,2.7,0.1,3.3,0.6,4.9
		c0.5,1.8,1.1,2.7,3.4,4.4h-17.5c2.1-1.7,2.7-2.5,3.2-4.4c0.4-1.2,0.5-2.1,0.5-3.3c0-0.4-0.1-1-0.1-1.6V51.5
		c-0.1-3.8-0.4-6.4-0.8-7.6c-0.3-0.9-1.3-2.1-2.9-3.7C241.3,40.2,242.7,40.3,244.2,40.3z"/>
	<path class="st1" d="M308.9,65.3c0.4,11.7,8.4,20,19.3,20c9.8,0,16.9-8.5,16.9-20.2c0-11.3-7.9-19.8-18.3-19.8
		c-10.4,0-17.9,8-17.9,19.3V65.3z M327.9,37.4c16.7,0,27.9,11.1,27.9,27.9c0,8.3-3.4,15.7-9.9,21.2c-4.9,4.2-11.3,6.2-19.5,6.2
		c-16.9,0-28-11-28-27.9C298.4,48.6,310.5,37.4,327.9,37.4"/>
	<path class="st1" d="M369.4,65.3c0.4,11.7,8.4,20,19.3,20c9.8,0,16.9-8.5,16.9-20.2c0-11.3-7.9-19.8-18.3-19.8
		c-10.4,0-17.9,8-17.9,19.3V65.3z M388.4,37.4c16.7,0,27.9,11.1,27.9,27.9c0,8.3-3.4,15.7-9.9,21.2c-4.9,4.2-11.3,6.2-19.5,6.2
		c-16.9,0-28-11-28-27.9C358.9,48.6,371,37.4,388.4,37.4"/>
	<path class="st2" d="M523.3,63.8c0.4,11.9,8.5,20.3,19.6,20.3c9.9,0,17.1-8.6,17.1-20.5c0-11.5-8-20.1-18.6-20.1
		c-10.6,0-18.2,8.1-18.2,19.6V63.8z M542.6,35.5c16.9,0,28.3,11.3,28.3,28.3c0,8.4-3.5,15.9-10,21.5c-5,4.3-11.5,6.3-19.8,6.3
		c-17.1,0-28.4-11.2-28.4-28.3C512.7,46.9,525,35.5,542.6,35.5"/>
	<path class="st2" d="M577.6,38c4.8,0,6.1-0.2,11.4-2v35.1c0,3.9,0.5,5.9,1.7,7.7c1.8,2.7,5.9,4.3,10.9,4.3c4.1,0,7.2-1,9.7-3
		c2.2-2,3-4.2,3-9.7V47.8c0-5.3-0.4-6.6-3.6-9.7c1,0.1,2,0.1,3,0.1c4.2,0,5.5-0.2,10.6-1.9v44.1c0,3,0,3.2,0.5,5
		c0.4,1.9,1,2.7,2.9,4.5h-13.8v-4.6c-2,1.9-2.7,2.4-5.5,3.8c-3.8,1.9-6.3,2.5-10.2,2.5c-12.9,0-19.5-7.1-19.5-21V48.3
		c0-5.9-0.5-7-3.9-10.2H577.6z"/>
	<path class="st2" d="M635,38.5c5.2,0,6.5-0.2,12-1.8v6.6c1.3-1.2,2.4-2.2,3.4-3c3.3-2.4,7.5-3.8,12.7-3.8
		c12.3,0,19.4,6.9,19.4,18.9v25v2.3c0,0.7,0.3,1.6,0.5,2.5c0.5,1.9,1.2,2.8,3.2,4.6h-17.9c2.1-1.7,2.6-2.5,3.1-4.5
		c0.5-1.5,0.6-2,0.6-5v-22c0-5.4-0.5-7.7-2-9.7c-1.7-2.4-5.1-3.9-9.5-3.9c-4.4,0-8.4,1.3-10.7,3.2c-2.2,2.2-2.8,4.2-2.8,10.2
		l0.1,22.1c0,0.3,0.1,1.1,0.3,2.3c0.1,0.8,0.2,1.7,0.4,2.5c0.3,1.7,1,2.8,2.9,4.6h-17.4c2-1.7,2.5-2.5,2.9-4.5
		c0.4-1.4,0.5-2.7,0.5-4.9V48.8c0-6.2-0.2-7.1-3.5-10.3C633.9,38.4,634.5,38.5,635,38.5z"/>
	<path class="st2" d="M730.7,50.1c-0.7-0.7-1.2-1.2-1.5-1.4c-2.6-2-7.1-3.4-11.1-3.4c-9.8,0-16.7,7.8-16.7,19
		c0,11.6,8.6,19.7,20.9,19.7c6.8,0,14.5-2.8,17.8-6.6l-7.8,12.4c-5.1,1.6-7.3,1.9-11.5,1.9c-17.6,0-30.6-11.4-30.6-26.7
		c0-16.2,13-28,30.8-28c3.6,0,5.3,0.2,9.7,1.3V50.1z"/>
	<path class="st2" d="M748.6,18.2c3.6,0,6.5,3.1,6.5,7.1c0,3.6-3.1,6.6-7,6.6c-3.6,0-6.5-2.9-6.6-6.6
		C741.5,21.4,744.6,18.2,748.6,18.2z M742.8,85.3c0.3-1,0.4-1.9,0.4-2.6c0.1-0.2,0.1-0.9,0.1-2v-0.3l-0.1-31.3
		c0-7.1-0.2-7.8-3.6-11.5c1.6,0.2,3.5,0.3,5.1,0.3c2.4,0,4.5-0.5,8.9-1.9v44.3v2.3c0,0.6,0.1,1.5,0.4,2.5c0.6,2,1.2,2.8,3.3,4.6
		h-18.1C741.6,88.1,742.2,87.2,742.8,85.3"/>
	<path class="st2" d="M503.4,33.3c-1-0.7-1.6-1.1-2.2-1.4c-3.9-2.5-9.3-3.8-15.2-3.8c-16.9,0-28.6,11.3-28.6,27.7
		c0,7.5,2.5,14.1,7.2,19c5.4,5.7,14.7,9.5,22.6,9.5c8.6,0,17.4-3.1,26.2-9.3l-7.9,15.3c-8.7,1.3-12.4,1.6-17.7,1.6
		c-6.8,0-12.4-0.8-17.8-2.7c-13.5-4.5-22.5-17.6-22.5-32.3c0-11.1,4.9-21.3,13.4-28.2c7.7-6.1,17.1-8.9,30-8.9
		c3.8,0,6.5,0.3,12.6,1.6V33.3z"/>
	<path class="st2" d="M765.8,87.1c0.7-0.9,1.4-3.4,1.4-4.9V80l-0.1-51.7c-0.1-4.2,1.7-6.6,3.2-8c0,0,3.4-3.5,8.8-3.5
		c0.4,0-2,1.5-2,8.7V80c0,1.2,0.2,3.6,0.6,5c0.4,1.7,1,2.8,3.3,4.5h-17.7C764.4,88.6,765.4,87.9,765.8,87.1z"/>
</g>
</svg>
