<svg xmlns="http://www.w3.org/2000/svg" width="100" height="100" viewBox="0 0 100 100">
  <g id="Group_2643" data-name="Group 2643" transform="translate(-880 -636)">
    <g id="Group_2571" data-name="Group 2571" transform="translate(166 331)">
      <g id="Path_3372" data-name="Path 3372" transform="translate(714 305)" fill="#fff">
        <path d="M 50 98 C 43.51915740966797 98 37.23324203491211 96.73117065429688 31.31685638427734 94.22874450683594 C 25.60128593444824 91.81125640869141 20.4677562713623 88.35001373291016 16.05887222290039 83.94113159179688 C 11.64999961853027 79.53224182128906 8.188742637634277 74.39872741699219 5.771256923675537 68.68315887451172 C 3.268828630447388 62.76675796508789 2 56.48084259033203 2 50 C 2 43.51915740966797 3.268828630447388 37.23324203491211 5.771256923675537 31.31685638427734 C 8.188742637634277 25.60128593444824 11.64999961853027 20.4677562713623 16.05887222290039 16.05887222290039 C 20.4677562713623 11.64999961853027 25.60128593444824 8.188742637634277 31.31685638427734 5.771256923675537 C 37.23324203491211 3.268828630447388 43.51915740966797 2 50 2 C 56.48084259033203 2 62.76675796508789 3.268828630447388 68.68315887451172 5.771256923675537 C 74.39872741699219 8.188742637634277 79.53224182128906 11.64999961853027 83.94113159179688 16.05887222290039 C 88.35001373291016 20.4677562713623 91.81125640869141 25.60128593444824 94.22874450683594 31.31685638427734 C 96.73117065429688 37.23324203491211 98 43.51915740966797 98 50 C 98 56.48084259033203 96.73117065429688 62.76675796508789 94.22874450683594 68.68315887451172 C 91.81125640869141 74.39872741699219 88.35001373291016 79.53224182128906 83.94113159179688 83.94113159179688 C 79.53224182128906 88.35001373291016 74.39872741699219 91.81125640869141 68.68315887451172 94.22874450683594 C 62.76675796508789 96.73117065429688 56.48084259033203 98 50 98 Z" stroke="none"/>
        <path d="M 50 4 C 43.78828430175781 4 37.76448440551758 5.215682983398438 32.095947265625 7.613265991210938 C 26.61878204345703 9.929916381835938 21.69893646240234 13.24723052978516 17.47308349609375 17.47308349609375 C 13.24723052978516 21.69893646240234 9.929916381835938 26.61878204345703 7.613265991210938 32.095947265625 C 5.215682983398438 37.76448440551758 4 43.78828430175781 4 50 C 4 56.21171569824219 5.215682983398438 62.23551559448242 7.613265991210938 67.904052734375 C 9.929916381835938 73.38121795654297 13.24723052978516 78.30107116699219 17.47308349609375 82.52691650390625 C 21.69893646240234 86.75276947021484 26.61878204345703 90.07008361816406 32.095947265625 92.38673400878906 C 37.76448440551758 94.78431701660156 43.78828430175781 96 50 96 C 56.21171569824219 96 62.23551559448242 94.78431701660156 67.904052734375 92.38673400878906 C 73.38121795654297 90.07008361816406 78.30107116699219 86.75276947021484 82.52691650390625 82.52691650390625 C 86.75276947021484 78.30107116699219 90.07008361816406 73.38121795654297 92.38673400878906 67.904052734375 C 94.78431701660156 62.23551559448242 96 56.21171569824219 96 50 C 96 43.78828430175781 94.78431701660156 37.76448440551758 92.38673400878906 32.095947265625 C 90.07008361816406 26.61878204345703 86.75276947021484 21.69893646240234 82.52691650390625 17.47308349609375 C 78.30107116699219 13.24723052978516 73.38121795654297 9.929916381835938 67.904052734375 7.613265991210938 C 62.23551559448242 5.215682983398438 56.21171569824219 4 50 4 M 50 0 C 77.61423492431641 0 100 22.38576507568359 100 50 C 100 77.61423492431641 77.61423492431641 100 50 100 C 22.38576507568359 100 0 77.61423492431641 0 50 C 0 22.38576507568359 22.38576507568359 0 50 0 Z" stroke="none" fill="#8dba3a"/>
      </g>
    </g>
    <g id="Group_2602" data-name="Group 2602" transform="translate(448.285 411.916)">
      <path id="Path_3515" data-name="Path 3515" d="M450.324,279.707h55.662a1.449,1.449,0,0,1,1.439,1.176l1.7,13.575a21.152,21.152,0,0,0-4.708-.472,19.749,19.749,0,0,0-7.591,1.347,16.266,16.266,0,0,1-11.3,0,22.057,22.057,0,0,0-15.18,0,14.241,14.241,0,0,1-5.648,1.013,14.555,14.555,0,0,1-3.883-.442c-6.24-1.928-11.3-6.179-12.073-14.66A1.481,1.481,0,0,1,450.324,279.707Z" fill="none" stroke="#0b1c2b" stroke-linejoin="round" stroke-width="2"/>
      <path id="Path_3516" data-name="Path 3516" d="M495.591,279.974v-7.942l7.6,7.118a1.948,1.948,0,0,0,2.483-.18,2.162,2.162,0,0,0,.458-2.993s-8.081-9.115-9.428-10.55c-1.122-1.2-2.323-2.58-5.041-2.58-2.269,0-5.058,1.658-5.042,4.716s-.032,12.411-.032,12.411" fill="none" stroke="#0b1c2b" stroke-linejoin="round" stroke-width="2"/>
      <path id="Path_3517" data-name="Path 3517" d="M501.27,255.391a5.307,5.307,0,1,1-5.307-5.307A5.308,5.308,0,0,1,501.27,255.391Z" fill="none" stroke="#0b1c2b" stroke-linejoin="round" stroke-width="2"/>
      <path id="Path_3518" data-name="Path 3518" d="M461.757,256.21a5.308,5.308,0,1,1-5.984-4.532A5.309,5.309,0,0,1,461.757,256.21Z" transform="translate(3.223)" fill="none" stroke="#0b1c2b" stroke-linejoin="round" stroke-width="2"/>
      <path id="Path_3519" data-name="Path 3519" d="M507.88,283.5h1.48c2.949,0,5.337,2.48,5.337,5.878l-.049,6a11.561,11.561,0,0,1-5.481-.861" fill="none" stroke="#0b1c2b" stroke-linejoin="round" stroke-width="2"/>
      <path id="Path_3520" data-name="Path 3520" d="M454.183,279.691s-4.059-2.013-3.136-4.588c.539-1.5,1.075-2.956,1.425-3.8.858-2.072,1.522-5.952,5.209-6.46A4.768,4.768,0,0,1,463.039,270c-.321,6.2,1.992,9.844,1.992,9.844" fill="none" stroke="#0b1c2b" stroke-linejoin="round" stroke-width="2"/>
    </g>
  </g>
</svg>
