<svg xmlns="http://www.w3.org/2000/svg" width="30.792" height="30.792" viewBox="0 0 30.792 30.792">
  <g id="Group_2646" data-name="Group 2646" transform="translate(-137.958 -137.958)">
    <path id="Path_3555" data-name="Path 3555" d="M211.938,166.618c-.99.381-2.263.269-2.647.723-1.1,1.3-10.218,11.911-10.988,12.451-2.173,1.524-3.268.2-3.268.2s-1.32-1.095.2-3.268c1.214-1.731,25.969-25.921,26.046-26s.275-.247.4-.118C223.745,152.669,213.118,166.164,211.938,166.618Z" transform="translate(-53.225 -11.868)" fill="#0b1c2b"/>
    <g id="Group_2646-2" data-name="Group 2646" transform="translate(137.958 137.958)">
      <path id="Path_3556" data-name="Path 3556" d="M152.461,146.489c-.646-1.375-9.122-8.3-9.122-8.3a.783.783,0,1,0-1.108,1.108l6.39,6a.784.784,0,0,1-1.108,1.108l-6.2-6.2a.783.783,0,0,0-1.108,1.108l6.2,6.2a.784.784,0,0,1-1.108,1.108l-6-6.39a.783.783,0,0,0-1.108,1.108s6.926,8.476,8.3,9.122c2.153,1.012,2.916-.74,5.068.937l1.849-1.831C151.715,149.407,153.475,148.645,152.461,146.489Z" transform="translate(-137.958 -137.958)" fill="#0b1c2b"/>
      <path id="Path_3557" data-name="Path 3557" d="M440.506,447.209c-.072.013-.132.028-.173.04-.243.285-.681.8-1.247,1.458,3.383,3.885,8.122,9.355,9.3,10.183,2.173,1.524,3.268.2,3.268.2s1.32-1.095-.2-3.268c-.79-1.127-5.815-5.5-9.65-8.837-.142.031-.279.056-.41.078C441.032,447.127,440.718,447.167,440.506,447.209Z" transform="translate(-421.393 -428.832)" fill="#0b1c2b"/>
    </g>
  </g>
</svg>
