<svg xmlns="http://www.w3.org/2000/svg" xmlns:xlink="http://www.w3.org/1999/xlink" width="100" height="100" viewBox="0 0 100 100">
  <defs>
    <clipPath id="clip-path">
      <rect id="Rectangle_147700" data-name="Rectangle 147700" width="53.82" height="45.81" transform="translate(0 0)" fill="none" stroke="#0b1c2b" stroke-width="2"/>
    </clipPath>
  </defs>
  <g id="Group_2639" data-name="Group 2639" transform="translate(-216 -212)">
    <g id="Group_2638" data-name="Group 2638">
      <g id="Group_2568" data-name="Group 2568" transform="translate(-30 -93)">
        <g id="Path_3371" data-name="Path 3371" transform="translate(246 305)" fill="#fff">
          <path d="M 50 98 C 43.51915740966797 98 37.23324203491211 96.73117065429688 31.31685638427734 94.22874450683594 C 25.60128593444824 91.81125640869141 20.4677562713623 88.35001373291016 16.05887222290039 83.94113159179688 C 11.64999961853027 79.53224182128906 8.188742637634277 74.39872741699219 5.771256923675537 68.68315887451172 C 3.268828630447388 62.76675796508789 2 56.48084259033203 2 50 C 2 43.51915740966797 3.268828630447388 37.23324203491211 5.771256923675537 31.31685638427734 C 8.188742637634277 25.60128593444824 11.64999961853027 20.4677562713623 16.05887222290039 16.05887222290039 C 20.4677562713623 11.64999961853027 25.60128593444824 8.188742637634277 31.31685638427734 5.771256923675537 C 37.23324203491211 3.268828630447388 43.51915740966797 2 50 2 C 56.48084259033203 2 62.76675796508789 3.268828630447388 68.68315887451172 5.771256923675537 C 74.39872741699219 8.188742637634277 79.53224182128906 11.64999961853027 83.94113159179688 16.05887222290039 C 88.35001373291016 20.4677562713623 91.81125640869141 25.60128593444824 94.22874450683594 31.31685638427734 C 96.73117065429688 37.23324203491211 98 43.51915740966797 98 50 C 98 56.48084259033203 96.73117065429688 62.76675796508789 94.22874450683594 68.68315887451172 C 91.81125640869141 74.39872741699219 88.35001373291016 79.53224182128906 83.94113159179688 83.94113159179688 C 79.53224182128906 88.35001373291016 74.39872741699219 91.81125640869141 68.68315887451172 94.22874450683594 C 62.76675796508789 96.73117065429688 56.48084259033203 98 50 98 Z" stroke="none"/>
          <path d="M 50 4 C 43.78828430175781 4 37.76448440551758 5.215682983398438 32.095947265625 7.613265991210938 C 26.61878204345703 9.929916381835938 21.69893646240234 13.24723052978516 17.47308349609375 17.47308349609375 C 13.24723052978516 21.69893646240234 9.929916381835938 26.61878204345703 7.613265991210938 32.095947265625 C 5.215682983398438 37.76448440551758 4 43.78828430175781 4 50 C 4 56.21171569824219 5.215682983398438 62.23551559448242 7.613265991210938 67.904052734375 C 9.929916381835938 73.38121795654297 13.24723052978516 78.30107116699219 17.47308349609375 82.52691650390625 C 21.69893646240234 86.75276947021484 26.61878204345703 90.07008361816406 32.095947265625 92.38673400878906 C 37.76448440551758 94.78431701660156 43.78828430175781 96 50 96 C 56.21171569824219 96 62.23551559448242 94.78431701660156 67.904052734375 92.38673400878906 C 73.38121795654297 90.07008361816406 78.30107116699219 86.75276947021484 82.52691650390625 82.52691650390625 C 86.75276947021484 78.30107116699219 90.07008361816406 73.38121795654297 92.38673400878906 67.904052734375 C 94.78431701660156 62.23551559448242 96 56.21171569824219 96 50 C 96 43.78828430175781 94.78431701660156 37.76448440551758 92.38673400878906 32.095947265625 C 90.07008361816406 26.61878204345703 86.75276947021484 21.69893646240234 82.52691650390625 17.47308349609375 C 78.30107116699219 13.24723052978516 73.38121795654297 9.929916381835938 67.904052734375 7.613265991210938 C 62.23551559448242 5.215682983398438 56.21171569824219 4 50 4 M 50 0 C 77.61423492431641 0 100 22.38576507568359 100 50 C 100 77.61423492431641 77.61423492431641 100 50 100 C 22.38576507568359 100 0 77.61423492431641 0 50 C 0 22.38576507568359 22.38576507568359 0 50 0 Z" stroke="none" fill="#8dba3a"/>
        </g>
        <g id="Group_2240" data-name="Group 2240" transform="translate(269 332)" clip-path="url(#clip-path)">
          <path id="Path_2930" data-name="Path 2930" d="M27.91,17.9a2.493,2.493,0,0,1-1.768-.732L15.91,6.936,5.678,17.168a2.5,2.5,0,0,1-3.536-3.536l12-12a2.5,2.5,0,0,1,3.536,0l12,12A2.5,2.5,0,0,1,27.91,17.9Z" fill="none" stroke="#0b1c2b" stroke-linecap="round" stroke-linejoin="round" stroke-width="2"/>
          <path id="Path_2931" data-name="Path 2931" d="M15.91,6.936,5.678,17.168a2.473,2.473,0,0,1-.768.518V29.9h22V17.686a2.473,2.473,0,0,1-.768-.518Z" fill="none" stroke="#0b1c2b" stroke-linecap="round" stroke-linejoin="round" stroke-width="2"/>
          <path id="Path_2932" data-name="Path 2932" d="M19.909,29.9h-8V23.89A3.99,3.99,0,0,1,15.9,19.9h.02a3.99,3.99,0,0,1,3.99,3.99Z" fill="none" stroke="#0b1c2b" stroke-linecap="round" stroke-linejoin="round" stroke-width="2"/>
          <path id="Path_2933" data-name="Path 2933" d="M52.91,44.91H.91a.01.01,0,0,1,0-.02h52a.01.01,0,0,1,0,.02Z" fill="none" stroke="#0b1c2b" stroke-linecap="round" stroke-linejoin="round" stroke-width="2"/>
          <rect id="Rectangle_147696" data-name="Rectangle 147696" width="22" height="15" transform="translate(4.91 29.9)" fill="none" stroke="#0b1c2b" stroke-linecap="round" stroke-linejoin="round" stroke-width="2"/>
          <rect id="Rectangle_147697" data-name="Rectangle 147697" width="8" height="5" transform="translate(11.909 34.9)" fill="none" stroke="#0b1c2b" stroke-linecap="round" stroke-linejoin="round" stroke-width="2"/>
          <rect id="Rectangle_147698" data-name="Rectangle 147698" width="8" height="5" transform="translate(11.909 39.9)" fill="none" stroke="#0b1c2b" stroke-linecap="round" stroke-linejoin="round" stroke-width="2"/>
          <rect id="Rectangle_147699" data-name="Rectangle 147699" width="8" height="5" transform="translate(11.909 29.9)" fill="none" stroke="#0b1c2b" stroke-linecap="round" stroke-linejoin="round" stroke-width="2"/>
          <path id="Path_2934" data-name="Path 2934" d="M26.91,24.9h3.051a10.528,10.528,0,0,1,9.093,5.25l4.042,7a5.515,5.515,0,0,0,4.763,2.75H52.91v5H47.859a10.53,10.53,0,0,1-9.093-5.25l-4.042-7a5.515,5.515,0,0,0-4.763-2.75H26.91Z" fill="none" stroke="#0b1c2b" stroke-linecap="round" stroke-linejoin="round" stroke-width="2"/>
        </g>
      </g>
    </g>
  </g>
</svg>
