<svg xmlns="http://www.w3.org/2000/svg" width="100" height="100" viewBox="0 0 100 100">
  <g id="Group_2642" data-name="Group 2642" transform="translate(-717 -636)">
    <g id="Path_3372" data-name="Path 3372" transform="translate(717 636)" fill="#fff">
      <path d="M 50 98 C 43.51915740966797 98 37.23324203491211 96.73117065429688 31.31685638427734 94.22874450683594 C 25.60128593444824 91.81125640869141 20.4677562713623 88.35001373291016 16.05887222290039 83.94113159179688 C 11.64999961853027 79.53224182128906 8.188742637634277 74.39872741699219 5.771256923675537 68.68315887451172 C 3.268828630447388 62.76675796508789 2 56.48084259033203 2 50 C 2 43.51915740966797 3.268828630447388 37.23324203491211 5.771256923675537 31.31685638427734 C 8.188742637634277 25.60128593444824 11.64999961853027 20.4677562713623 16.05887222290039 16.05887222290039 C 20.4677562713623 11.64999961853027 25.60128593444824 8.188742637634277 31.31685638427734 5.771256923675537 C 37.23324203491211 3.268828630447388 43.51915740966797 2 50 2 C 56.48084259033203 2 62.76675796508789 3.268828630447388 68.68315887451172 5.771256923675537 C 74.39872741699219 8.188742637634277 79.53224182128906 11.64999961853027 83.94113159179688 16.05887222290039 C 88.35001373291016 20.4677562713623 91.81125640869141 25.60128593444824 94.22874450683594 31.31685638427734 C 96.73117065429688 37.23324203491211 98 43.51915740966797 98 50 C 98 56.48084259033203 96.73117065429688 62.76675796508789 94.22874450683594 68.68315887451172 C 91.81125640869141 74.39872741699219 88.35001373291016 79.53224182128906 83.94113159179688 83.94113159179688 C 79.53224182128906 88.35001373291016 74.39872741699219 91.81125640869141 68.68315887451172 94.22874450683594 C 62.76675796508789 96.73117065429688 56.48084259033203 98 50 98 Z" stroke="none"/>
      <path d="M 50 4 C 43.78828430175781 4 37.76448440551758 5.215682983398438 32.095947265625 7.613265991210938 C 26.61878204345703 9.929916381835938 21.69893646240234 13.24723052978516 17.47308349609375 17.47308349609375 C 13.24723052978516 21.69893646240234 9.929916381835938 26.61878204345703 7.613265991210938 32.095947265625 C 5.215682983398438 37.76448440551758 4 43.78828430175781 4 50 C 4 56.21171569824219 5.215682983398438 62.23551559448242 7.613265991210938 67.904052734375 C 9.929916381835938 73.38121795654297 13.24723052978516 78.30107116699219 17.47308349609375 82.52691650390625 C 21.69893646240234 86.75276947021484 26.61878204345703 90.07008361816406 32.095947265625 92.38673400878906 C 37.76448440551758 94.78431701660156 43.78828430175781 96 50 96 C 56.21171569824219 96 62.23551559448242 94.78431701660156 67.904052734375 92.38673400878906 C 73.38121795654297 90.07008361816406 78.30107116699219 86.75276947021484 82.52691650390625 82.52691650390625 C 86.75276947021484 78.30107116699219 90.07008361816406 73.38121795654297 92.38673400878906 67.904052734375 C 94.78431701660156 62.23551559448242 96 56.21171569824219 96 50 C 96 43.78828430175781 94.78431701660156 37.76448440551758 92.38673400878906 32.095947265625 C 90.07008361816406 26.61878204345703 86.75276947021484 21.69893646240234 82.52691650390625 17.47308349609375 C 78.30107116699219 13.24723052978516 73.38121795654297 9.929916381835938 67.904052734375 7.613265991210938 C 62.23551559448242 5.215682983398438 56.21171569824219 4 50 4 M 50 0 C 77.61423492431641 0 100 22.38576507568359 100 50 C 100 77.61423492431641 77.61423492431641 100 50 100 C 22.38576507568359 100 0 77.61423492431641 0 50 C 0 22.38576507568359 22.38576507568359 0 50 0 Z" stroke="none" fill="#8dba3a"/>
    </g>
    <g id="_13-Fish" data-name="13-Fish" transform="translate(551 436.227)">
      <g id="Group_2600" data-name="Group 2600" transform="translate(188 237.802)">
        <path id="Path_3509" data-name="Path 3509" d="M197.566,306.568c3.018,3.018,2.186,8.743,2.186,8.743s-5.725.832-8.743-2.186-2.186-8.743-2.186-8.743S194.548,303.55,197.566,306.568Z" transform="translate(-188.613 -304.277)" fill="none" stroke="#0b1c2b" stroke-linecap="round" stroke-linejoin="round" stroke-width="2"/>
        <path id="Path_3510" data-name="Path 3510" d="M190.291,381.932c3.018-3.018,8.743-2.186,8.743-2.186s.832,5.725-2.186,8.743-8.743,2.186-8.743,2.186S187.273,384.949,190.291,381.932Z" transform="translate(-188 -368.607)" fill="none" stroke="#0b1c2b" stroke-linecap="round" stroke-linejoin="round" stroke-width="2"/>
      </g>
      <circle id="Ellipse_114" data-name="Ellipse 114" cx="1.405" cy="1.405" r="1.405" transform="translate(231.569 247.482)" fill="none" stroke="#0b1c2b" stroke-linecap="round" stroke-linejoin="round" stroke-width="2"/>
      <g id="Group_2601" data-name="Group 2601" transform="translate(199.244 232.022)">
        <path id="Path_3511" data-name="Path 3511" d="M440.888,286.841s-7.478-12.513-17.491-15.978a28.047,28.047,0,0,0,0,31.956C433.41,299.354,440.888,286.841,440.888,286.841Z" transform="translate(-395.912 -269.975)" fill="none" stroke="#0b1c2b" stroke-linecap="round" stroke-linejoin="round" stroke-width="2"/>
        <path id="Path_3512" data-name="Path 3512" d="M292.284,265.688a15.247,15.247,0,0,0-5-.888c-12.42,0-22.488,16.866-22.488,16.866s10.068,16.866,22.488,16.866a15.247,15.247,0,0,0,5-.888,28.047,28.047,0,0,1,0-31.956Z" transform="translate(-264.8 -264.8)" fill="none" stroke="#0b1c2b" stroke-linecap="round" stroke-linejoin="round" stroke-width="2"/>
      </g>
      <path id="Path_3513" data-name="Path 3513" d="M342.045,480.647s6.22,1.57,9.088-1.3a6.475,6.475,0,0,0,1.64-3.9,18.251,18.251,0,0,1-9.861-3.383C340.649,475.1,342.045,480.647,342.045,480.647Z" transform="translate(-131.129 -209.7)" fill="none" stroke="#0b1c2b" stroke-linecap="round" stroke-linejoin="round" stroke-width="2"/>
      <path id="Path_3514" data-name="Path 3514" d="M351.133,228.127c-2.868-2.868-9.088-1.3-9.088-1.3s-1.4,5.548.868,8.58a18.251,18.251,0,0,1,9.861-3.383A6.475,6.475,0,0,0,351.133,228.127Z" transform="translate(-131.129)" fill="none" stroke="#0b1c2b" stroke-linecap="round" stroke-linejoin="round" stroke-width="2"/>
    </g>
  </g>
</svg>
