<svg xmlns="http://www.w3.org/2000/svg" xmlns:xlink="http://www.w3.org/1999/xlink" width="100" height="100" viewBox="0 0 100 100">
  <defs>
    <clipPath id="clip-path">
      <rect id="Rectangle_147709" data-name="Rectangle 147709" width="33.82" height="49.81" transform="translate(0 0)" fill="none" stroke="#0b1c2b" stroke-width="2"/>
    </clipPath>
  </defs>
  <g id="Group_2571" data-name="Group 2571" transform="translate(-714 -305)">
    <g id="Path_3372" data-name="Path 3372" transform="translate(714 305)" fill="#fff">
      <path d="M 50 98 C 43.51915740966797 98 37.23324203491211 96.73117065429688 31.31685638427734 94.22874450683594 C 25.60128593444824 91.81125640869141 20.4677562713623 88.35001373291016 16.05887222290039 83.94113159179688 C 11.64999961853027 79.53224182128906 8.188742637634277 74.39872741699219 5.771256923675537 68.68315887451172 C 3.268828630447388 62.76675796508789 2 56.48084259033203 2 50 C 2 43.51915740966797 3.268828630447388 37.23324203491211 5.771256923675537 31.31685638427734 C 8.188742637634277 25.60128593444824 11.64999961853027 20.4677562713623 16.05887222290039 16.05887222290039 C 20.4677562713623 11.64999961853027 25.60128593444824 8.188742637634277 31.31685638427734 5.771256923675537 C 37.23324203491211 3.268828630447388 43.51915740966797 2 50 2 C 56.48084259033203 2 62.76675796508789 3.268828630447388 68.68315887451172 5.771256923675537 C 74.39872741699219 8.188742637634277 79.53224182128906 11.64999961853027 83.94113159179688 16.05887222290039 C 88.35001373291016 20.4677562713623 91.81125640869141 25.60128593444824 94.22874450683594 31.31685638427734 C 96.73117065429688 37.23324203491211 98 43.51915740966797 98 50 C 98 56.48084259033203 96.73117065429688 62.76675796508789 94.22874450683594 68.68315887451172 C 91.81125640869141 74.39872741699219 88.35001373291016 79.53224182128906 83.94113159179688 83.94113159179688 C 79.53224182128906 88.35001373291016 74.39872741699219 91.81125640869141 68.68315887451172 94.22874450683594 C 62.76675796508789 96.73117065429688 56.48084259033203 98 50 98 Z" stroke="none"/>
      <path d="M 50 4 C 43.78828430175781 4 37.76448440551758 5.215682983398438 32.095947265625 7.613265991210938 C 26.61878204345703 9.929916381835938 21.69893646240234 13.24723052978516 17.47308349609375 17.47308349609375 C 13.24723052978516 21.69893646240234 9.929916381835938 26.61878204345703 7.613265991210938 32.095947265625 C 5.215682983398438 37.76448440551758 4 43.78828430175781 4 50 C 4 56.21171569824219 5.215682983398438 62.23551559448242 7.613265991210938 67.904052734375 C 9.929916381835938 73.38121795654297 13.24723052978516 78.30107116699219 17.47308349609375 82.52691650390625 C 21.69893646240234 86.75276947021484 26.61878204345703 90.07008361816406 32.095947265625 92.38673400878906 C 37.76448440551758 94.78431701660156 43.78828430175781 96 50 96 C 56.21171569824219 96 62.23551559448242 94.78431701660156 67.904052734375 92.38673400878906 C 73.38121795654297 90.07008361816406 78.30107116699219 86.75276947021484 82.52691650390625 82.52691650390625 C 86.75276947021484 78.30107116699219 90.07008361816406 73.38121795654297 92.38673400878906 67.904052734375 C 94.78431701660156 62.23551559448242 96 56.21171569824219 96 50 C 96 43.78828430175781 94.78431701660156 37.76448440551758 92.38673400878906 32.095947265625 C 90.07008361816406 26.61878204345703 86.75276947021484 21.69893646240234 82.52691650390625 17.47308349609375 C 78.30107116699219 13.24723052978516 73.38121795654297 9.929916381835938 67.904052734375 7.613265991210938 C 62.23551559448242 5.215682983398438 56.21171569824219 4 50 4 M 50 0 C 77.61423492431641 0 100 22.38576507568359 100 50 C 100 77.61423492431641 77.61423492431641 100 50 100 C 22.38576507568359 100 0 77.61423492431641 0 50 C 0 22.38576507568359 22.38576507568359 0 50 0 Z" stroke="none" fill="#8dba3a"/>
    </g>
    <g id="Group_2251" data-name="Group 2251" transform="translate(747 330)">
      <g id="Group_2250" data-name="Group 2250" clip-path="url(#clip-path)">
        <path id="Path_2952" data-name="Path 2952" d="M28.91,48.91h-24v-2a4,4,0,0,1,4-4h16a4,4,0,0,1,4,4Z" fill="none" stroke="#0b1c2b" stroke-linecap="round" stroke-linejoin="round" stroke-width="2"/>
        <path id="Path_2953" data-name="Path 2953" d="M24.91,42.91h-16a4,4,0,0,0,4-4v-8h8v8A4,4,0,0,0,24.91,42.91Z" fill="none" stroke="#0b1c2b" stroke-linecap="round" stroke-linejoin="round" stroke-width="2"/>
        <path id="Path_2954" data-name="Path 2954" d="M28.91,22.91h-24v2a6,6,0,0,0,6,6h12a6,6,0,0,0,6-6Z" fill="none" stroke="#0b1c2b" stroke-linecap="round" stroke-linejoin="round" stroke-width="2"/>
        <path id="Path_2955" data-name="Path 2955" d="M32.91,22.92H.91a.01.01,0,0,1,0-.02h32a.01.01,0,0,1,0,.02Z" fill="none" stroke="#0b1c2b" stroke-linecap="round" stroke-linejoin="round" stroke-width="2"/>
        <path id="Path_2956" data-name="Path 2956" d="M16.91,22.92a.009.009,0,0,1-.01-.01v-16A6.014,6.014,0,0,1,22.906.9h.008A6.014,6.014,0,0,1,28.92,6.906a.01.01,0,0,1-.02,0A5.993,5.993,0,0,0,22.914.92h-.008A5.993,5.993,0,0,0,16.92,6.906v16A.009.009,0,0,1,16.91,22.92Z" fill="none" stroke="#0b1c2b" stroke-linecap="round" stroke-linejoin="round" stroke-width="2"/>
        <path id="Path_2957" data-name="Path 2957" d="M16.91,22.92a.009.009,0,0,1-.01-.01v-16A5.993,5.993,0,0,0,10.914.92h-.008A5.993,5.993,0,0,0,4.92,6.906a.01.01,0,0,1-.02,0A6.014,6.014,0,0,1,10.906.9h.008A6.014,6.014,0,0,1,16.92,6.906v16A.009.009,0,0,1,16.91,22.92Z" fill="none" stroke="#0b1c2b" stroke-linecap="round" stroke-linejoin="round" stroke-width="2"/>
      </g>
    </g>
  </g>
</svg>
