<?xml version="1.0" encoding="utf-8"?>
<!-- Generator: Adobe Illustrator 19.1.0, SVG Export Plug-In . SVG Version: 6.00 Build 0)  -->
<!DOCTYPE svg PUBLIC "-//W3C//DTD SVG 1.1//EN" "http://www.w3.org/Graphics/SVG/1.1/DTD/svg11.dtd">
<svg version="1.1" id="Layer_1" xmlns="http://www.w3.org/2000/svg" xmlns:xlink="http://www.w3.org/1999/xlink" x="0px" y="0px"
	 viewBox="0 0 340 340" style="enable-background:new 0 0 340 340;" xml:space="preserve">
<style type="text/css">
	.st0{fill:none;stroke:#870064;stroke-width:6;stroke-linejoin:round;}
	.st1{fill:none;stroke:#870064;stroke-width:6;}
	.st2{fill:none;stroke:#870064;stroke-width:2.999;}
	.st3{fill:none;stroke:#870064;stroke-width:2;}
	.st4{fill:#FFFFFF;}
	.st5{fill:none;stroke:#870064;stroke-width:6;stroke-miterlimit:10;}
	.st6{fill:none;stroke:#870064;stroke-width:3;stroke-miterlimit:10;}
	.st7{fill:#870064;}
	.st8{fill:none;stroke:#870064;stroke-miterlimit:10;}
	.st9{fill:none;stroke:#870064;stroke-width:4;}
</style>
<g>
	<path class="st0" d="M324.2,130.7c-6.8-6.9-13.6-13.8-20.4-20.7V74.3c0-4-3.2-6.1-6.1-6.1H286c-4,0-6.1,3.2-6.1,6.1v11.3
		c-13.7-13.9-27.3-27.8-41-41.6c-1.8-1.8-4.3-2.9-6.9-2.9c-2.6,0-5.1,1-6.9,2.9l-85.2,86.7c-1.8,1.8-2.8,4.3-2.8,6.8
		c0,2.6,1,5,2.9,6.8c2.1,2.1,5,3,7.8,2.7v92.5c0,1.7,1.3,3,3,3h62.8c1.7,0,3-1.3,3-3v-61.4c0-7.9,7-8.3,8.4-8.4h14.1
		c8.1,0,8.4,7.5,8.4,8.4v61.4c0,1.7,1.3,3,3,3h62.8c1.7,0,3-1.3,3-3v-92.3c0.3,0,0.7,0.1,1.1,0.1c2.5,0,4.9-1,6.7-2.8
		c1.8-1.8,2.9-4.2,2.9-6.8C327,134.9,326,132.5,324.2,130.7z"/>
</g>
<line class="st1" x1="156.9" y1="242.3" x2="311.4" y2="242.3"/>
<rect x="167.6" y="169.9" class="st2" width="26.8" height="26.8"/>
<line class="st3" x1="167.8" y1="183.3" x2="194.2" y2="183.3"/>
<line class="st3" x1="181" y1="170.1" x2="181" y2="196.5"/>
<rect x="269.8" y="169.9" class="st2" width="26.8" height="26.8"/>
<line class="st3" x1="270" y1="183.3" x2="296.4" y2="183.3"/>
<line class="st3" x1="283.2" y1="170.1" x2="283.2" y2="196.5"/>
<rect x="12.9" y="169.9" class="st4" width="141" height="80.5"/>
<rect x="12.9" y="169.9" class="st5" width="141" height="80.5"/>
<g>
	<path class="st4" d="M83.5,233.7c13,0,23.5-10.5,23.5-23.5s-10.5-23.5-23.5-23.5s-23.5,10.5-23.5,23.5S70.5,233.7,83.5,233.7"/>
	<path class="st6" d="M83.5,233.7c13,0,23.5-10.5,23.5-23.5s-10.5-23.5-23.5-23.5s-23.5,10.5-23.5,23.5S70.5,233.7,83.5,233.7"/>
	<path class="st7" d="M94.2,221.8c0-0.3-0.1-0.6-0.2-0.8c-0.1-0.2-0.2-0.3-0.3-0.4c-0.1-0.1-0.3-0.1-0.4-0.1H82.6v-8.7h6.6
		c0.1,0,0.3,0,0.4-0.1c0.1-0.1,0.2-0.2,0.3-0.4c0.1-0.2,0.2-0.4,0.2-0.7c0-0.3,0.1-0.7,0.1-1.2c0-0.5,0-0.8-0.1-1.1
		c0-0.3-0.1-0.6-0.2-0.7c-0.1-0.2-0.2-0.3-0.3-0.4c-0.1-0.1-0.3-0.1-0.4-0.1h-6.6v-2.5c0-1,0.1-1.8,0.2-2.6c0.2-0.8,0.4-1.4,0.8-1.9
		c0.4-0.5,0.8-0.9,1.4-1.2c0.6-0.3,1.3-0.4,2.1-0.4c0.8,0,1.5,0.1,2.1,0.3c0.6,0.2,1.1,0.5,1.5,0.7c0.4,0.3,0.8,0.5,1.1,0.7
		c0.3,0.2,0.5,0.3,0.8,0.3c0.1,0,0.3,0,0.4-0.1c0.1-0.1,0.2-0.2,0.3-0.4c0.1-0.2,0.1-0.4,0.2-0.7c0-0.3,0.1-0.7,0.1-1.1
		c0-0.4,0-0.8,0-1.1c0-0.3-0.1-0.5-0.1-0.7c-0.1-0.2-0.1-0.4-0.2-0.5c-0.1-0.1-0.2-0.3-0.4-0.5c-0.2-0.2-0.5-0.4-1-0.7
		c-0.4-0.3-1-0.5-1.5-0.7c-0.6-0.2-1.2-0.3-1.8-0.4c-0.7-0.1-1.4-0.2-2.1-0.2c-1.6,0-3.1,0.2-4.3,0.6c-1.3,0.4-2.3,1.1-3.2,2
		c-0.8,0.9-1.5,2.1-1.9,3.6c-0.4,1.4-0.7,3.2-0.7,5.1v2.2h-2.6c-0.1,0-0.3,0-0.4,0.1c-0.1,0.1-0.2,0.2-0.3,0.4
		c-0.1,0.2-0.2,0.4-0.2,0.7c0,0.3-0.1,0.7-0.1,1.1c0,0.5,0,0.9,0.1,1.2c0,0.3,0.1,0.6,0.2,0.7c0.1,0.2,0.2,0.3,0.3,0.4
		c0.1,0.1,0.2,0.1,0.4,0.1h2.6v8.7h-2.6c-0.1,0-0.3,0-0.4,0.1c-0.1,0.1-0.2,0.2-0.3,0.4c-0.1,0.2-0.2,0.5-0.2,0.8
		c0,0.3-0.1,0.7-0.1,1.2c0,0.5,0,0.8,0.1,1.2c0,0.3,0.1,0.6,0.2,0.8c0.1,0.2,0.2,0.3,0.3,0.4c0.1,0.1,0.2,0.1,0.4,0.1h19.6
		c0.1,0,0.3,0,0.4-0.1c0.1-0.1,0.2-0.2,0.3-0.4c0.1-0.2,0.2-0.5,0.2-0.8c0-0.3,0.1-0.7,0.1-1.2C94.3,222.5,94.2,222.1,94.2,221.8"/>
	<path class="st8" d="M94.2,221.8c0-0.3-0.1-0.6-0.2-0.8c-0.1-0.2-0.2-0.3-0.3-0.4c-0.1-0.1-0.3-0.1-0.4-0.1H82.6v-8.7h6.6
		c0.1,0,0.3,0,0.4-0.1c0.1-0.1,0.2-0.2,0.3-0.4c0.1-0.2,0.2-0.4,0.2-0.7c0-0.3,0.1-0.7,0.1-1.2c0-0.5,0-0.8-0.1-1.1
		c0-0.3-0.1-0.6-0.2-0.7c-0.1-0.2-0.2-0.3-0.3-0.4c-0.1-0.1-0.3-0.1-0.4-0.1h-6.6v-2.5c0-1,0.1-1.8,0.2-2.6c0.2-0.8,0.4-1.4,0.8-1.9
		c0.4-0.5,0.8-0.9,1.4-1.2c0.6-0.3,1.3-0.4,2.1-0.4c0.8,0,1.5,0.1,2.1,0.3c0.6,0.2,1.1,0.5,1.5,0.7c0.4,0.3,0.8,0.5,1.1,0.7
		c0.3,0.2,0.5,0.3,0.8,0.3c0.1,0,0.3,0,0.4-0.1c0.1-0.1,0.2-0.2,0.3-0.4c0.1-0.2,0.1-0.4,0.2-0.7c0-0.3,0.1-0.7,0.1-1.1
		c0-0.4,0-0.8,0-1.1c0-0.3-0.1-0.5-0.1-0.7c-0.1-0.2-0.1-0.4-0.2-0.5c-0.1-0.1-0.2-0.3-0.4-0.5c-0.2-0.2-0.5-0.4-1-0.7
		c-0.4-0.3-1-0.5-1.5-0.7c-0.6-0.2-1.2-0.3-1.8-0.4c-0.7-0.1-1.4-0.2-2.1-0.2c-1.6,0-3.1,0.2-4.3,0.6c-1.3,0.4-2.3,1.1-3.2,2
		c-0.8,0.9-1.5,2.1-1.9,3.6c-0.4,1.4-0.7,3.2-0.7,5.1v2.2h-2.6c-0.1,0-0.3,0-0.4,0.1c-0.1,0.1-0.2,0.2-0.3,0.4
		c-0.1,0.2-0.2,0.4-0.2,0.7c0,0.3-0.1,0.7-0.1,1.1c0,0.5,0,0.9,0.1,1.2c0,0.3,0.1,0.6,0.2,0.7c0.1,0.2,0.2,0.3,0.3,0.4
		c0.1,0.1,0.2,0.1,0.4,0.1h2.6v8.7h-2.6c-0.1,0-0.3,0-0.4,0.1c-0.1,0.1-0.2,0.2-0.3,0.4c-0.1,0.2-0.2,0.5-0.2,0.8
		c0,0.3-0.1,0.7-0.1,1.2c0,0.5,0,0.8,0.1,1.2c0,0.3,0.1,0.6,0.2,0.8c0.1,0.2,0.2,0.3,0.3,0.4c0.1,0.1,0.2,0.1,0.4,0.1h19.6
		c0.1,0,0.3,0,0.4-0.1c0.1-0.1,0.2-0.2,0.3-0.4c0.1-0.2,0.2-0.5,0.2-0.8c0-0.3,0.1-0.7,0.1-1.2C94.3,222.5,94.2,222.1,94.2,221.8"/>
</g>
<rect x="130.9" y="224.9" class="st4" width="38.5" height="12.7"/>
<rect x="130.9" y="224.9" class="st9" width="38.5" height="12.7"/>
<rect x="127.8" y="241" class="st4" width="38.5" height="12.7"/>
<rect x="127.8" y="241" class="st9" width="38.5" height="12.7"/>
<rect x="131.5" y="257.1" class="st4" width="38.5" height="12.7"/>
<rect x="131.5" y="257.1" class="st9" width="38.5" height="12.7"/>
</svg>
