<?xml version="1.0" encoding="utf-8"?>
<!-- Generator: Adobe Illustrator 19.2.0, SVG Export Plug-In . SVG Version: 6.00 Build 0)  -->
<!DOCTYPE svg PUBLIC "-//W3C//DTD SVG 1.1//EN" "http://www.w3.org/Graphics/SVG/1.1/DTD/svg11.dtd">
<svg version="1.1" id="Layer_1" xmlns="http://www.w3.org/2000/svg" xmlns:xlink="http://www.w3.org/1999/xlink" x="0px" y="0px"
	 viewBox="0 0 340 340" style="enable-background:new 0 0 340 340;" xml:space="preserve" >
<style type="text/css">
                .st0{fill:#071C2C;}
                .st1{fill:#FFFFFF;}
    svg:hover {  cursor:pointer;}
                svg:hover .st0 {  fill:#830065;}
</style>
<g>
	<path class="st0" d="M94,268.1c-0.8,0-1.6-0.3-2.1-0.9l-31.8-31.8c-1.2-1.2-1.2-3.1,0-4.2l49.3-49.3l-15.1-15
		c-0.9-0.9-1.1-2.1-0.7-3.3c0.5-1.1,1.6-1.9,2.8-1.9h66.4c1.7,0,3,1.3,3,3v65.9c0,1.2-0.7,2.3-1.8,2.8c-1.1,0.5-2.4,0.2-3.3-0.6
		l-15.1-15l-49.5,49.5C95.6,267.8,94.8,268.1,94,268.1z M66.5,233.3L94,260.9l49.4-49.5c1.2-1.2,3.1-1.2,4.2,0l12.1,12v-55.7h-56.2
		l12.1,12c0.6,0.6,0.9,1.3,0.9,2.1s-0.3,1.6-0.9,2.1L66.5,233.3z"/>
</g>
<g>
	<g>
		<path class="st0" d="M229.4,148.2c-0.1-0.9-0.3-1.6-0.5-2.1c-0.2-0.5-0.5-0.9-0.8-1.1s-0.7-0.3-1.1-0.3h-29V121h17.9
			c0.4,0,0.8-0.1,1.1-0.3c0.3-0.2,0.6-0.6,0.8-1.1c0.2-0.5,0.4-1.2,0.6-2c0.1-0.8,0.2-1.9,0.2-3.2c0-1.2-0.1-2.3-0.2-3.1
			c-0.1-0.8-0.3-1.5-0.5-2c-0.2-0.5-0.5-0.9-0.8-1.1c-0.3-0.2-0.7-0.3-1.1-0.3h-17.9v-6.8c0-2.7,0.2-5,0.7-7.1
			c0.4-2.1,1.2-3.8,2.1-5.2c1-1.4,2.2-2.5,3.8-3.2c1.6-0.7,3.4-1.1,5.7-1.1c2.2,0,4.1,0.3,5.7,0.9c1.6,0.6,3,1.3,4.2,2
			c1.2,0.7,2.2,1.4,2.9,2c0.8,0.6,1.5,0.9,2.1,0.9c0.4,0,0.7-0.1,1-0.3c0.3-0.2,0.6-0.6,0.8-1.1c0.2-0.5,0.4-1.2,0.5-2
			c0.1-0.8,0.2-1.9,0.2-3.1c0-1.2,0-2.1-0.1-2.9c-0.1-0.8-0.2-1.5-0.3-2c-0.1-0.6-0.3-1-0.6-1.4c-0.2-0.4-0.6-0.9-1.2-1.4
			c-0.6-0.6-1.4-1.2-2.7-1.9c-1.2-0.7-2.6-1.3-4.1-1.8c-1.5-0.5-3.2-0.9-5-1.2c-1.8-0.3-3.7-0.4-5.6-0.4c-4.4,0-8.4,0.6-11.8,1.8
			c-3.4,1.2-6.3,3-8.6,5.5c-2.3,2.5-4.1,5.7-5.3,9.7c-1.2,3.9-1.8,8.6-1.8,14v6.1h-7.1c-0.4,0-0.8,0.1-1.1,0.3
			c-0.3,0.2-0.6,0.6-0.9,1.1c-0.2,0.5-0.4,1.2-0.5,2c-0.1,0.8-0.2,1.9-0.2,3.1c0,1.3,0.1,2.3,0.2,3.2c0.1,0.8,0.3,1.5,0.6,2
			c0.2,0.5,0.5,0.9,0.8,1.1c0.3,0.2,0.7,0.3,1.1,0.3h7.1v23.6h-7.1c-0.4,0-0.8,0.1-1.1,0.3c-0.3,0.2-0.6,0.6-0.9,1.1
			c-0.2,0.5-0.4,1.2-0.5,2.1c-0.1,0.9-0.2,1.9-0.2,3.2c0,1.2,0.1,2.3,0.2,3.2c0.1,0.9,0.3,1.6,0.6,2.1c0.2,0.5,0.5,0.9,0.8,1.1
			c0.3,0.2,0.7,0.3,1.1,0.3h53.4c0.4,0,0.8-0.1,1.1-0.3c0.3-0.2,0.6-0.6,0.8-1.1c0.2-0.5,0.4-1.2,0.6-2.1c0.1-0.9,0.2-1.9,0.2-3.2
			C229.6,150.1,229.5,149.1,229.4,148.2"/>
	</g>
</g>
<path class="st0" d="M200.2,30.6c-46.2,0-83.9,37.6-83.9,83.8c0,16,4.5,31.6,12.3,43.6h7.3c-8.5-12-13.6-27.4-13.6-43.6
	c0-42.9,34.9-77.8,77.9-77.8s77.9,34.9,77.9,77.9s-34.9,77.9-77.9,77.9c-11.1,0-21.2-2.3-31.2-6.5v6.5c10,3.9,20.2,6,31.2,6
	c46.2,0,83.9-37.6,83.9-83.9S246.5,30.6,200.2,30.6z"/>
</svg>
