<?xml version="1.0" encoding="utf-8"?>
<!-- Generator: Adobe Illustrator 19.2.0, SVG Export Plug-In . SVG Version: 6.00 Build 0)  -->
<!DOCTYPE svg PUBLIC "-//W3C//DTD SVG 1.1//EN" "http://www.w3.org/Graphics/SVG/1.1/DTD/svg11.dtd">
<svg version="1.1" id="Layer_1" xmlns="http://www.w3.org/2000/svg" xmlns:xlink="http://www.w3.org/1999/xlink" x="0px" y="0px"
	 viewBox="0 0 340 340" style="enable-background:new 0 0 340 340;" xml:space="preserve" >
<style type="text/css">
                .st0{fill:#071C2C;}
                .st1{fill:#FFFFFF;}
    svg:hover {  cursor:pointer;}
                svg:hover .st0 {  fill:#830065;}
</style>
<g>
	<rect x="79.7" y="35.6" class="st0" width="168.2" height="3"/>
</g>
<g>
	<polygon class="st0" points="71.3,37.1 85.2,42.1 85.2,32 	"/>
</g>
<g>
	<polygon class="st0" points="256.3,37.1 242.4,32 242.4,42.1 	"/>
</g>
<g>
	<rect x="54.2" y="189.4" class="st0" width="3" height="51.2"/>
</g>
<g>
	<polygon class="st0" points="55.7,181 50.6,194.9 60.7,194.9 	"/>
</g>
<g>
	<polygon class="st0" points="55.7,249 60.7,235.1 50.6,235.1 	"/>
</g>
<g>
	<rect x="272.2" y="59" class="st0" width="3" height="181.6"/>
</g>
<g>
	<polygon class="st0" points="273.7,50.7 278.8,64.5 268.7,64.5 	"/>
</g>
<g>
	<polygon class="st0" points="273.7,249 268.7,235.1 278.8,235.1 	"/>
</g>
<g>
	<rect x="40.8" y="175" class="st0" width="31.3" height="1"/>
</g>
<g>
	<rect x="266.8" y="46" class="st0" width="32.4" height="1"/>
</g>
<g>
	<rect x="64.8" y="19" class="st0" width="1" height="81.6"/>
</g>
<g>
	<rect x="260.8" y="19" class="st0" width="1" height="81.6"/>
</g>
<g>
	<rect x="40.8" y="253" class="st0" width="31.3" height="1"/>
</g>
<g>
	<rect x="254.1" y="252.3" class="st0" width="32.7" height="1"/>
</g>
<g>
	<rect x="193.7" y="46" class="st0" width="61" height="1"/>
</g>
<g>
	<g>
		<path class="st0" d="M245,254h-62.8c-3.3,0-6-2.7-6-6v-61.4c0-1.6-0.5-5.4-5.4-5.4h-14.1c-2.4,0-5.4,1-5.4,5.4V248
			c0,3.3-2.7,6-6,6H82.5c-3.3,0-6-2.7-6-6v-89.5c-2.6-0.4-5-1.6-6.9-3.4c-2.4-2.4-3.7-5.5-3.8-8.9c0-3.4,1.3-6.5,3.6-8.9l85.2-86.7
			c2.4-2.4,5.6-3.8,9-3.8c3.4,0,6.6,1.4,9,3.8l35.8,36.4v-4c0-4.5,3.4-9.1,9.1-9.1h11.8c4.5,0,9.1,3.4,9.1,9.1v34.4l19.5,19.9
			c2.4,2.4,3.6,5.6,3.6,8.9c0,3.4-1.4,6.5-3.8,8.9c-1.9,1.9-4.3,3.1-6.9,3.5V248C251,251.3,248.4,254,245,254z M170.9,175.2
			c7.8,0,11.4,5.9,11.4,11.4V248H245v-92.3c0-0.9,0.4-1.7,1-2.2c0.6-0.6,1.5-0.8,2.3-0.7c2,0.2,3.9-0.5,5.3-1.9c1.3-1.2,2-2.9,2-4.7
			c0-1.8-0.7-3.4-1.9-4.7v0l-20.4-20.7c-0.6-0.6-0.9-1.3-0.9-2.1V83c0-2.5-2-3.1-3.1-3.1h-11.8c-2.5,0-3.1,2-3.1,3.1v11.3
			c0,1.2-0.7,2.3-1.9,2.8c-1.1,0.5-2.4,0.2-3.3-0.7l-41-41.6c-1.2-1.3-3-2-4.7-2c-1.8,0-3.5,0.7-4.7,2l-85.2,86.7
			c-1.2,1.3-1.9,2.9-1.9,4.7c0,1.8,0.7,3.4,2,4.7c1.4,1.4,3.4,2.1,5.4,1.8c0.8-0.1,1.7,0.2,2.3,0.7c0.6,0.6,1,1.4,1,2.2V248h62.8
			v-61.4c0-7.8,5.7-11.3,11.3-11.4H170.9z"/>
	</g>
</g>
<g>
	<rect x="88.6" y="248" class="st0" width="154.5" height="6"/>
</g>
<g>
	<path class="st0" d="M127.6,206.9H97.8v-29.8h29.8V206.9z M100.8,203.9h23.8v-23.8h-23.8V203.9z"/>
</g>
<g>
	<rect x="99.5" y="191" class="st0" width="26.4" height="2"/>
</g>
<g>
	<rect x="111.7" y="178.8" class="st0" width="2" height="26.4"/>
</g>
<g>
	<path class="st0" d="M229.8,206.9H200v-29.8h29.8V206.9z M203,203.9h23.8v-23.8H203V203.9z"/>
</g>
<g>
	<rect x="201.7" y="191" class="st0" width="26.4" height="2"/>
</g>
<g>
	<rect x="213.9" y="178.8" class="st0" width="2" height="26.4"/>
</g>
</svg>
