<?xml version="1.0" encoding="utf-8"?>
<!-- Generator: Adobe Illustrator 19.2.0, SVG Export Plug-In . SVG Version: 6.00 Build 0)  -->
<!DOCTYPE svg PUBLIC "-//W3C//DTD SVG 1.1//EN" "http://www.w3.org/Graphics/SVG/1.1/DTD/svg11.dtd">
<svg version="1.1" id="Layer_1" xmlns="http://www.w3.org/2000/svg" xmlns:xlink="http://www.w3.org/1999/xlink" x="0px" y="0px"
	 viewBox="0 0 340 340" style="enable-background:new 0 0 340 340;" xml:space="preserve" >
<style type="text/css">
                .st0{fill:#071C2C;}
                .st1{fill:#FFFFFF;}
    svg:hover {  cursor:pointer;}
                svg:hover .st0 {  fill:#830065;}
</style>
<path class="st0" d="M300.3,153.4c-3.9-28.7-11.9-50.1-23.7-63.4c-9.1-10.3-18.1-12.8-21-13.4c-0.7-0.2-2.1-0.5-4-1
	c5.6-3.5,9.9-9.1,11.5-16c1.6-6.7,0.5-13.7-3.2-19.5c-3.8-6.1-9.8-10.3-16.9-11.9c-14.4-3.2-28.7,5.5-32.1,19.5
	c-1.6,6.7-0.5,13.7,3.2,19.6c0.2,0.3,0.4,0.6,0.6,0.9c-5.1-0.8-9.9-1.5-14.6-2c-0.6-1.9-1.6-3.7-3-5.3c-2.5-2.7-5.9-4.3-9.6-4.5
	c-2.7-0.1-5.5-0.2-8.3-0.2c-25.4,0-47.4,5.2-60.4,9.1c3.8-4.6,6.1-10.5,6.1-16.9c0-14.9-12.4-27.1-27.7-27.1s-27.7,12-27.7,27
	C69.5,56,73,63,78.6,68h-3.5c-0.2,0-0.3,0.1-0.5,0.1c-2.4,0-6.2,0.6-10.4,2.6c-5.2,2.5-12.5,8.2-17.6,20.7c-4.7,11.6-7,27-7,47
	c0,5.7,0.2,11.8,0.6,18.2c0.4,7.1,6.4,12.7,13.6,12.7c0.3,0,0.8,0,1,0c2.6-0.1,5.2-1,7.2-2.4v69.4c0,9.7,7.8,17.5,17.7,17.5
	c5.7,0,10.7-2.6,14-6.8c3.3,4.1,8.6,6.8,14.3,6.8c9.9,0,18-7.9,18-17.5V91.2c5-1.9,13.8-4.5,23.6-6.3c2.8,3.4,7,5,11.2,4.3
	c4-0.7,8.6-1.2,14-1.2c0.1,0,0.1,0,0.2,0c9.5,0,21.5,1.3,34.8,3.4l-18.6,88.9c-0.5,2.5,0.6,5.2,2.9,6.5c0,0,0.4,0.2,1,0.5
	c2.2,1.1,7.1,3.6,16.1,5.6v45.9c0,8.5,7,15.3,15.7,15.3c4.6,0,8.6-1.9,11.5-4.9c2.9,3,6.8,4.9,11.3,4.9c8.7,0,15.5-6.9,15.5-15.3
	v-45.7c9-2.1,14.8-4.7,17.1-5.8c0.6-0.3,1-0.5,1-0.5c2.2-1.3,3.5-3.9,2.9-6.4l-3-14.6c2,1,4.4,1.4,6.8,1.1c3.3-0.4,6.2-2.1,8.2-4.7
	C299.9,159.7,300.7,156.5,300.3,153.4z M216.8,49c2.6-10.8,13.8-17.6,25-15.1c11.2,2.5,18.1,13.4,15.5,24.2
	c-2.6,10.8-13.8,17.6-25,15.1C221.1,70.7,214.2,59.9,216.8,49z M75.5,48.2c0-11.6,9.7-21.1,21.7-21.1c12,0,21.7,9.4,21.7,21.1
	c0,11.6-9.7,21.1-21.7,21.1C85.2,69.3,75.5,59.9,75.5,48.2z M236,238.8c0,5.2-4.1,9.3-9.5,9.3c-5.4,0-9.5-4.2-9.5-9.3v-47.1
	c5,1,12,1.7,19,1.8V238.8z M259,238.8c0,5.2-4.1,9.3-9.5,9.3c-5.4,0-9.5-4.2-9.5-9.3v-45.3c7-0.1,14-0.8,19-1.8V238.8z M289,161
	c-0.3,0-0.6,0.1-0.8,0.1c-3.1,0-5.8-2.2-6.2-5.3c-3.9-29.1-11.7-44.5-18.1-52.5c-0.1-0.1-0.2-0.2-0.2-0.3l16.5,78.7
	c0,0-0.2,0.1-0.6,0.3c-3,1.5-17,8-41,8c-23.9,0-38-6.5-41-8c-0.4-0.2-0.6-0.3-0.6-0.3l19.9-94.9c-13.4-2.3-28.8-4.3-42-4.3
	c-5.5,0-10.7,0.3-15.1,1.1c-3.2,0.5-6.3-2.2-7.1-5.2c-14.8,2.3-26.6,6.5-32.6,8.6v149.4c0,6.4-5.4,11.5-12,11.5c-0.1,0-0.1,0-0.2,0
	c-0.1,0,0,0-0.1,0c-6.6,0-11.8-5.2-11.8-11.5V161h-5v75.3c0,6.2-4.8,11.2-11.1,11.5c-0.2,0-0.3,0-0.5,0c-0.6,0-1-0.1-1.5-0.1
	c-5.7-0.8-9.9-5.6-9.9-11.4v-139c-4,6.8-6.7,19.3-6.7,41.2c0,5.1,0,10.8,0.4,17c0.2,4.1-3.1,7.4-7.3,7.7c-0.2,0-0.4-0.2-0.5-0.2
	c0,0,0,0,0,0c0,0,0,0,0,0c-4,0-7.4-2.9-7.7-6.8c-0.4-6.5-0.6-12.3-0.6-17.7c0-21.1,2.7-35,6.6-44.7c3.9-9.6,9.5-15,14.6-17.5
	c0.1,0,0.1,0,0.2-0.1c3.3-1.6,6.1-2,7.8-2c0.1,0,0.2-0.1,0.3-0.1h35.4c1.8-0.5,5.2-1.7,9.7-3c4.7-1.4,10.8-3.1,17.8-4.5
	c11.5-2.5,25.8-4.5,41.3-4.6c2.6,0,5.3,0.1,8,0.2c4.2,0.2,8.2,3,8,7.1c0,0.8-0.2,1.5-0.5,2.2c11.6,1.2,23.1,3.1,32.9,5
	c13.8,2.7,24.2,5.4,26.4,6c2.2,0.4,9.9,2.5,17.8,11.5c8.8,9.9,17.9,27.8,22.3,60.3C294.8,157.5,292.4,160.5,289,161z"/>
<path class="st0" d="M183.5,163c-4.3-7.5-9.6-9.2-10.1-9.3c-0.3-0.1-0.5-0.3-0.8-0.3c-0.7-0.2-1.3-0.4-2-0.4h-0.7
	c4.3-3,7.2-7.9,7.2-13.6c0-9.2-7.5-16.7-16.8-16.7c-9.2,0-16.8,7.4-16.8,16.7c0,5.7,2.9,10.7,7.2,13.7h-0.7c-0.7,0-1.3,0.2-2,0.4
	c-0.3,0.1-0.5,0.2-0.8,0.3c-0.9,0.3-5.9,2.1-10.1,9.3c-4.5,7.8-6.8,19.3-6.8,34.1c0,1.1,0,2.4,0,3.6c0.1,4,3.4,7.3,7.5,7.3h0.2
	c1.8,0,3.9-1,4.9-2.2v37.8c0,5.2,4.3,9.4,9.6,9.4c3.2,0,6-1.6,7.8-3.9c1.7,2.4,4.7,3.9,7.9,3.9c5.3,0,9.7-4.2,9.7-9.4v-37.7
	c1,1.3,2.7,2.1,4.6,2.1c0,0,0,0,0.1,0h0.1c0,0,0,0,0,0c4.1,0,7.4-3.4,7.5-7.3c0-1.2,0-2.4,0-3.5C190.3,182.3,188,170.8,183.5,163z
	 M146.6,139.5c0-7.6,6.1-13.7,13.7-13.7c7.6,0,13.7,6.1,13.7,13.7c0,7.6-6.1,13.7-13.7,13.7C152.8,153.2,146.6,147.1,146.6,139.5z
	 M175,243.7c0,3.5-2.8,6.4-6.5,6.4c-3.7,0-6.5-2.9-6.5-6.4V209h-3v34.7c0,3.5-2.8,6.4-6.5,6.4c-3.7,0-6.5-2.9-6.5-6.4V195h29V243.7z
	 M187.4,200.6c-0.1,2.4-2.1,4.4-4.6,4.4h-0.1c-2.5,0-4.5-2.1-4.5-4.5c0-1.1,0.1-2.2,0.1-3.3c0-12.1-1.4-19.9-3.4-24.7V194h-29v-21.5
	c-2,4.8-3.6,12.6-3.6,24.7c0,1,0,2.1,0,3.2c0.1,2.4-1.9,4.5-4.5,4.5c0,0-0.1,0-0.1,0c-2.5,0-4.5-1.9-4.6-4.3c0-1.2,0-2.3,0-3.4
	c0-16.9,3-27,6.5-33c3.4-6,7.9-7.7,8.3-7.9c0,0,0.5-0.2,0.7-0.2c0.4-0.1,0.8,0,1.3,0h20.7c0.5,0,0.9,0.1,1.3,0.3
	c0.2,0,0.4,0.1,0.6,0.2c0.9,0.3,5,2,8.4,8c3.5,5.9,6.5,15.9,6.5,32.8C187.5,198.3,187.5,199.5,187.4,200.6z"/>
</svg>
