<?xml version="1.0" encoding="utf-8"?>
<!-- Generator: Adobe Illustrator 19.1.0, SVG Export Plug-In . SVG Version: 6.00 Build 0)  -->
<!DOCTYPE svg PUBLIC "-//W3C//DTD SVG 1.1//EN" "http://www.w3.org/Graphics/SVG/1.1/DTD/svg11.dtd">
<svg version="1.1" id="Layer_1" xmlns="http://www.w3.org/2000/svg" xmlns:xlink="http://www.w3.org/1999/xlink" x="0px" y="0px"
	 viewBox="0 0 340 340" style="enable-background:new 0 0 340 340;" xml:space="preserve">
<style type="text/css">
	.st0{clip-path:url(#SVGID_2_);fill:#FFFFFF;}
	.st1{clip-path:url(#SVGID_2_);fill:none;stroke:#071C2C;stroke-width:3;stroke-miterlimit:10;}
	.st2{clip-path:url(#SVGID_2_);fill:none;stroke:#071C2C;stroke-width:5;stroke-linejoin:round;stroke-miterlimit:10;}
	.st3{fill:none;stroke:#071C2C;stroke-width:7;stroke-linecap:round;stroke-miterlimit:10;}
	.st4{fill:none;stroke:#071C2C;stroke-width:6;stroke-linecap:round;stroke-miterlimit:10;}
	.st5{clip-path:url(#SVGID_4_);fill:#071C2C;}
	.st6{fill:#071C2C;}
	.st7{clip-path:url(#SVGID_6_);fill:#071C2C;}
	.st8{clip-path:url(#SVGID_6_);fill:none;stroke:#071C2C;stroke-linejoin:round;stroke-miterlimit:10;}
	.st9{fill:none;stroke:#071C2C;stroke-width:3;stroke-linecap:round;stroke-linejoin:round;stroke-miterlimit:10;}
	.st10{clip-path:url(#SVGID_8_);fill:#FFFFFF;}
	.st11{clip-path:url(#SVGID_8_);fill:none;stroke:#FFFFFF;stroke-width:3;stroke-miterlimit:10;}
	.st12{clip-path:url(#SVGID_8_);fill:none;stroke:#071C2C;stroke-width:6;stroke-miterlimit:10;}
	.st13{clip-path:url(#SVGID_8_);fill:none;stroke:#071C2C;stroke-width:3;stroke-miterlimit:10;}
</style>
<g>
	<defs>
		<rect id="SVGID_1_" width="340" height="340"/>
	</defs>
	<clipPath id="SVGID_2_">
		<use xlink:href="#SVGID_1_"  style="overflow:visible;"/>
	</clipPath>
	<path class="st0" d="M320.4,136.7c4.9-0.6,9.4,2.8,10,7.6c0.6,4.8-2.9,9.1-7.8,9.7L320.4,136.7z"/>
	<path class="st1" d="M320.4,136.7c4.9-0.6,9.4,2.8,10,7.6c0.6,4.8-2.9,9.1-7.8,9.7L320.4,136.7z"/>
	<path class="st0" d="M283.7,128c0-5,3.9-9,8.7-9c4.8,0,8.7,4,8.7,9H283.7z"/>
	<path class="st1" d="M283.7,128c0-5,3.9-9,8.7-9c4.8,0,8.7,4,8.7,9H283.7z"/>
	<path class="st0" d="M152.9,224.2l11.5-14.3h72.3v-79.4l-174.9,0.2c0,0-13.3,0.2-13.3,15.3c0,15.1,15,17,15,17l20.3,56.4l22.4,13.9
		h18.5L152.9,224.2z"/>
	<path class="st2" d="M152.9,224.2l11.5-14.3h72.3v-79.4l-174.9,0.2c0,0-13.3,0.2-13.3,15.3c0,15.1,15,17,15,17l20.3,56.4l22.4,13.9
		h18.5L152.9,224.2z"/>
</g>
<line class="st3" x1="23.9" y1="225.7" x2="61.7" y2="225.7"/>
<line class="st4" x1="68.3" y1="127.5" x2="232.3" y2="127.5"/>
<g>
	<defs>
		<rect id="SVGID_3_" width="340" height="340"/>
	</defs>
	<clipPath id="SVGID_4_">
		<use xlink:href="#SVGID_3_"  style="overflow:visible;"/>
	</clipPath>
	<path class="st5" d="M235.8,238.7h-56.2c-3.7,0-6.6-3-6.6-6.7c0-3.7,3-6.7,6.6-6.7h56.2c3.7,0,6.6,3,6.6,6.7
		C242.4,235.7,239.4,238.7,235.8,238.7"/>
	<path class="st5" d="M191.1,233.6c-3.7,0-6.6-3-6.6-6.7v-16.9h13.3v16.9C197.7,230.6,194.7,233.6,191.1,233.6"/>
	<path class="st5" d="M224.3,233.6c-3.7,0-6.6-3-6.6-6.7v-16.9h13.3v16.9C230.9,230.6,228,233.6,224.3,233.6"/>
</g>
<polygon class="st6" points="44.4,228.8 34,224 71.1,188.1 73.9,190.8 75.3,198.9 "/>
<polygon class="st6" points="111.1,159.3 132.8,159.3 176.3,203.5 154.6,203.5 "/>
<polygon class="st6" points="70.8,159.3 92.5,159.3 136,203.5 114.4,203.5 "/>
<polygon class="st6" points="151.4,159.3 173.1,159.3 216.6,203.5 194.9,203.5 "/>
<polygon class="st6" points="191.7,159.3 213.4,159.3 237.9,184.2 235.9,198.5 235.2,203.5 "/>
<g>
	<defs>
		<rect id="SVGID_5_" width="340" height="340"/>
	</defs>
	<clipPath id="SVGID_6_">
		<use xlink:href="#SVGID_5_"  style="overflow:visible;"/>
	</clipPath>
	<path class="st7" d="M26.7,238.2c0,2-1.6,3.7-3.6,3.7s-3.6-1.6-3.6-3.7c0-2,1.6-3.7,3.6-3.7S26.7,236.2,26.7,238.2"/>
	<path class="st7" d="M40.2,238.2c0,2-1.6,3.7-3.6,3.7s-3.6-1.6-3.6-3.7c0-2,1.6-3.7,3.6-3.7S40.2,236.2,40.2,238.2"/>
	<path class="st7" d="M53.6,238.2c0,2-1.6,3.7-3.6,3.7s-3.6-1.6-3.6-3.7c0-2,1.6-3.7,3.6-3.7S53.6,236.2,53.6,238.2"/>
	<path class="st7" d="M15.8,249.9c0,2-1.6,3.7-3.6,3.7s-3.6-1.6-3.6-3.7s1.6-3.7,3.6-3.7S15.8,247.8,15.8,249.9"/>
	<path class="st7" d="M29.2,249.9c0,2-1.6,3.7-3.6,3.7s-3.6-1.6-3.6-3.7s1.6-3.7,3.6-3.7S29.2,247.8,29.2,249.9"/>
	<path class="st7" d="M42.6,249.9c0,2-1.6,3.7-3.6,3.7s-3.6-1.6-3.6-3.7s1.6-3.7,3.6-3.7S42.6,247.8,42.6,249.9"/>
	<path class="st7" d="M302.2,125.2h-34.3c-11.9,0-21.7,9.9-21.7,22v70.1c0,0,8.6-12.8,22.5-12.8c2.7,0,7.3,0.5,10.3,1.7
		c15.7,6,17.4,22.7,16.4,32.1h6.8c11.9,0,21.7-6.1,21.7-18.2v-72.9C323.9,135.1,314.1,125.2,302.2,125.2 M302.2,130.9
		c8.8,0,16,7.3,16,16.3v72.9c0,11.5-12.3,12.4-16,12.4H301c0-16.5-7.6-26.9-20-31.7c-3.5-1.4-7.1-2.1-10.7-2.1h0
		c-7.3,0-13.6,2.8-18.5,6v-57.5c0-9,7.2-16.3,16-16.3H302.2z"/>
	<path class="st8" d="M302.2,125.2h-34.3c-11.9,0-21.7,9.9-21.7,22v70.1c0,0,8.6-12.8,22.5-12.8c2.7,0,7.3,0.5,10.3,1.7
		c15.7,6,17.4,22.7,16.4,32.1h6.8c11.9,0,21.7-6.1,21.7-18.2v-72.9C323.9,135.1,314.1,125.2,302.2,125.2z M302.2,130.9
		c8.8,0,16,7.3,16,16.3v72.9c0,11.5-12.3,12.4-16,12.4H301c0-16.5-7.6-26.9-20-31.7c-3.5-1.4-7.1-2.1-10.7-2.1h0
		c-7.3,0-13.6,2.8-18.5,6v-57.5c0-9,7.2-16.3,16-16.3H302.2z"/>
</g>
<polyline class="st9" points="279.3,129.4 279.3,170.2 322.4,191.9 "/>
<g>
	<defs>
		<rect id="SVGID_7_" width="340" height="340"/>
	</defs>
	<clipPath id="SVGID_8_">
		<use xlink:href="#SVGID_7_"  style="overflow:visible;"/>
	</clipPath>
	<path class="st10" d="M142.3,247c8.3,0,15.1-6.9,15.1-15.3c0-8.4-6.8-15.3-15.1-15.3c-8.3,0-15.1,6.9-15.1,15.3
		C127.3,240.2,134,247,142.3,247"/>
	<path class="st10" d="M90.9,247c8.3,0,15.1-6.9,15.1-15.3c0-8.4-6.8-15.3-15.1-15.3s-15.1,6.9-15.1,15.3
		C75.9,240.2,82.6,247,90.9,247"/>
	<path class="st10" d="M142.3,252.1c-11.1,0-20-9.1-20-20.4c0-11.2,9-20.4,20-20.4c11.1,0,20,9.1,20,20.4
		C162.4,242.9,153.4,252.1,142.3,252.1 M142.3,223.6c-4.4,0-8,3.6-8,8.1c0,4.5,3.6,8.1,8,8.1c4.4,0,8-3.6,8-8.1
		C150.3,227.2,146.7,223.6,142.3,223.6"/>
	<path class="st11" d="M142.3,252.1c-11.1,0-20-9.1-20-20.4c0-11.2,9-20.4,20-20.4c11.1,0,20,9.1,20,20.4
		C162.4,242.9,153.4,252.1,142.3,252.1 M142.3,223.6c-4.4,0-8,3.6-8,8.1c0,4.5,3.6,8.1,8,8.1c4.4,0,8-3.6,8-8.1
		C150.3,227.2,146.7,223.6,142.3,223.6"/>
	<path class="st10" d="M90.9,252.1c-11.1,0-20-9.1-20-20.4c0-11.2,9-20.4,20-20.4s20,9.1,20,20.4C111,242.9,102,252.1,90.9,252.1
		 M90.9,223.6c-4.4,0-8,3.6-8,8.1c0,4.5,3.6,8.1,8,8.1c4.4,0,8-3.6,8-8.1C98.9,227.2,95.3,223.6,90.9,223.6"/>
	<path class="st11" d="M90.9,252.1c-11.1,0-20-9.1-20-20.4c0-11.2,9-20.4,20-20.4s20,9.1,20,20.4C111,242.9,102,252.1,90.9,252.1
		 M90.9,223.6c-4.4,0-8,3.6-8,8.1c0,4.5,3.6,8.1,8,8.1c4.4,0,8-3.6,8-8.1C98.9,227.2,95.3,223.6,90.9,223.6"/>
	<path class="st12" d="M142.3,253c-11.5,0-20.9-9.5-20.9-21.3c0-11.7,9.4-21.3,20.9-21.3c11.5,0,20.9,9.5,20.9,21.3
		C163.3,243.5,153.9,253,142.3,253z"/>
	<path class="st12" d="M90.9,253c-11.5,0-20.9-9.5-20.9-21.3c0-11.7,9.4-21.3,20.9-21.3s20.9,9.5,20.9,21.3
		C111.9,243.5,102.5,253,90.9,253z"/>
	<path class="st10" d="M268.8,247c8.3,0,15.1-6.9,15.1-15.3c0-8.4-6.8-15.3-15.1-15.3c-8.3,0-15.1,6.9-15.1,15.3
		C253.7,240.2,260.4,247,268.8,247"/>
	<path class="st10" d="M268.8,252.1c-11.1,0-20-9.1-20-20.4c0-11.2,9-20.4,20-20.4c11.1,0,20,9.1,20,20.4
		C288.8,242.9,279.8,252.1,268.8,252.1 M268.8,223.6c-4.4,0-8,3.6-8,8.1c0,4.5,3.6,8.1,8,8.1c4.4,0,8-3.6,8-8.1
		C276.7,227.2,273.2,223.6,268.8,223.6"/>
	<path class="st10" d="M268.8,253c-11.5,0-20.9-9.5-20.9-21.3c0-11.7,9.4-21.3,20.9-21.3c11.5,0,20.9,9.5,20.9,21.3
		C289.7,243.5,280.3,253,268.8,253"/>
	<path class="st12" d="M268.8,253c-11.5,0-20.9-9.5-20.9-21.3c0-11.7,9.4-21.3,20.9-21.3c11.5,0,20.9,9.5,20.9,21.3
		C289.7,243.5,280.3,253,268.8,253z"/>
	<path class="st13" d="M142.3,223.2c-4.6,0-8.3,3.8-8.3,8.5c0,4.7,3.7,8.5,8.3,8.5c4.6,0,8.3-3.8,8.3-8.5
		C150.7,227,146.9,223.2,142.3,223.2z"/>
	<path class="st13" d="M90.9,223.2c-4.6,0-8.3,3.8-8.3,8.5c0,4.7,3.7,8.5,8.3,8.5c4.6,0,8.3-3.8,8.3-8.5
		C99.3,227,95.5,223.2,90.9,223.2z"/>
	<path class="st10" d="M268.8,223.2c-4.6,0-8.3,3.8-8.3,8.5c0,4.7,3.7,8.5,8.3,8.5c4.6,0,8.3-3.8,8.3-8.5
		C277.1,227,273.4,223.2,268.8,223.2"/>
	<path class="st13" d="M268.8,223.2c-4.6,0-8.3,3.8-8.3,8.5c0,4.7,3.7,8.5,8.3,8.5c4.6,0,8.3-3.8,8.3-8.5
		C277.1,227,273.4,223.2,268.8,223.2z"/>
</g>
</svg>
