<svg xmlns="http://www.w3.org/2000/svg" xmlns:xlink="http://www.w3.org/1999/xlink" width="260" height="78.053" viewBox="0 0 260 78.053">
  <defs>
    <clipPath id="clip-path">
      <rect id="Rectangle_761" data-name="Rectangle 761" width="260" height="78.053" fill="none"/>
    </clipPath>
  </defs>
  <g id="Group_86" data-name="Group 86" transform="translate(0 0)">
    <g id="Group_85" data-name="Group 85" transform="translate(0 0)" clip-path="url(#clip-path)">
      <path id="Path_35" data-name="Path 35" d="M259.451,33.312c-45.191-9.337-87.285-5.186-130.523-2.161C86.034,34.467,42,36.659.821,30.186q.686-.13,1.369-.262c41.449,6.109,85.39,3.328,127.681-.726,42.636-3.789,83.623-8.853,127.108-1.125q1.257,2.631,2.472,5.239" transform="translate(0.549 16.081)" fill="#fff"/>
      <path id="Path_36" data-name="Path 36" d="M259.92,28.628C173.839,14.7,87.2,44.638,0,28.966Q1.5,27.8,2.983,26.608C89.007,40.149,174.378,9.177,259.09,21.515q.421,3.563.83,7.112" transform="translate(0 12.41)" fill="#fff"/>
      <path id="Path_37" data-name="Path 37" d="M2.371,23.257c.067-.167.167-.4.267-.669.033-.234.067-.367.067-.467L2.738,2.949c0-1-.267-1.439-1.437-2.542H6.954a16.344,16.344,0,0,1,6.423.9A5.057,5.057,0,0,1,16.69,6.06a4.412,4.412,0,0,1-.9,2.711,4.792,4.792,0,0,1-2.108,1.439,6.138,6.138,0,0,1,3.044,1.237A6.02,6.02,0,0,1,19.065,16.5a7.844,7.844,0,0,1-2.008,5.153c-2.073,2.242-4.448,2.878-10.606,2.878H1.1a3.729,3.729,0,0,0,1.272-1.272m3.847-1.606a15.589,15.589,0,0,0,3.245.4c3.347,0,5.889-2.175,5.889-5.118a4.338,4.338,0,0,0-3.145-4.25,21.456,21.456,0,0,0-4.149-.335c-.5,0-.936.033-1.839.068Zm.033-11.275a3.57,3.57,0,0,0,.769.067c2.208,0,3.38-.3,4.416-1.172A3.413,3.413,0,0,0,12.709,6.6c0-2.409-1.908-4.014-4.652-4.014-.334,0-.769.033-1.27.067l-.536.033Z" transform="translate(0.735 0.273)" fill="#fff"/>
      <path id="Path_38" data-name="Path 38" d="M13.508,23.621a3.373,3.373,0,0,0,.466-1.606v-.736L13.942,4.363a3.236,3.236,0,0,1,1.04-2.607A4.252,4.252,0,0,1,17.863.614a4.747,4.747,0,0,0-.643,2.831V21.279a7.323,7.323,0,0,0,.2,1.639,2.318,2.318,0,0,0,1.07,1.472H12.7a3.578,3.578,0,0,0,.8-.769" transform="translate(8.501 0.411)" fill="#fff"/>
      <path id="Path_39" data-name="Path 39" d="M82.988,23.621a3.373,3.373,0,0,0,.467-1.606v-.736L83.421,4.363a3.242,3.242,0,0,1,1.04-2.607A4.258,4.258,0,0,1,87.344.614,4.734,4.734,0,0,0,86.7,3.445V21.279a7.323,7.323,0,0,0,.2,1.639,2.312,2.312,0,0,0,1.07,1.472H82.183a3.556,3.556,0,0,0,.8-.769" transform="translate(54.99 0.411)" fill="#fff"/>
      <path id="Path_40" data-name="Path 40" d="M37.489,23.621a3.374,3.374,0,0,0,.469-1.606v-.736L37.923,4.363a3.252,3.252,0,0,1,1.04-2.607A4.258,4.258,0,0,1,41.846.614,4.729,4.729,0,0,0,41.2,3.445V21.279a7.228,7.228,0,0,0,.2,1.639,2.315,2.315,0,0,0,1.068,1.472H36.688a3.527,3.527,0,0,0,.8-.769" transform="translate(24.549 0.411)" fill="#fff"/>
      <path id="Path_41" data-name="Path 41" d="M22.006,4.763A7.268,7.268,0,0,1,24.514,4.4a11.668,11.668,0,0,1,3.18.4,4.818,4.818,0,0,1,2.04,1.072c1.072.9,1.272,1.4,1.272,3.478v7.761c0,1.374.234,1.941,1.1,2.275a3.78,3.78,0,0,0,2.008.3h.334L32.444,22.16a4.035,4.035,0,0,1-.8.1c-2.108,0-4.116-1.672-4.116-3.412l.033-1.305V13.027c-.467.2-.8.3-.97.367-.067,0-.669.135-1.739.369a10.979,10.979,0,0,0-3.313,1.07,2.529,2.529,0,0,0-1.137,2.21c0,1.706,1.439,2.843,3.68,2.843a10.146,10.146,0,0,0,3.211-.6L25.386,21.86a10.69,10.69,0,0,1-2.844.536,5.969,5.969,0,0,1-5.788-5.622c0-2.542,1.874-4.114,5.855-4.817l1.873-.335c2.141-.4,3.044-1,3.044-2.207,0-1.339-1.137-2.21-2.909-2.21a7.091,7.091,0,0,0-1.741.235,20.069,20.069,0,0,0-3.58,1.1Z" transform="translate(11.21 2.942)" fill="#fff"/>
      <path id="Path_42" data-name="Path 42" d="M40.3,8.752a5.013,5.013,0,0,0-.5-.469,6.456,6.456,0,0,0-3.647-1.1c-3.245,0-5.52,2.575-5.52,6.256,0,3.814,2.844,6.49,6.892,6.49,2.242,0,4.784-.936,5.855-2.173L40.8,21.835a10.3,10.3,0,0,1-3.779.634c-5.788,0-10.1-3.747-10.1-8.8,0-5.353,4.283-9.235,10.172-9.235a10.821,10.821,0,0,1,3.211.436Z" transform="translate(18.01 2.969)" fill="#fff"/>
      <path id="Path_43" data-name="Path 43" d="M43.672,7.427A3.247,3.247,0,0,0,44.71,5.452a.928.928,0,0,0-.469-.836h5.587L43.271,11.81l6.056,7.025a10.694,10.694,0,0,0,3.345,2.878H48.455a2.529,2.529,0,0,1-1.906-.769l-1.037-1.305-5.989-7.594Z" transform="translate(26.446 3.089)" fill="#fff"/>
      <path id="Path_44" data-name="Path 44" d="M47.851,4.97A7.387,7.387,0,0,0,50.9,4.336v2.34a9.455,9.455,0,0,1,1.2-.97A7.965,7.965,0,0,1,56.482,4.4,8.546,8.546,0,0,1,65.048,13a9.1,9.1,0,0,1-8.8,9.3,8.96,8.96,0,0,1-2.275-.334L51.8,19.123a8.1,8.1,0,0,0,3.513.87,6.315,6.315,0,0,0,4.348-1.606,7.883,7.883,0,0,0,1.808-4.919c0-3.747-2.575-6.757-5.822-6.757-2.976,0-4.717,1.973-4.717,5.386V27.218a4.216,4.216,0,0,0,.2,1.639,2.362,2.362,0,0,0,1.137,1.474H46.412a2.4,2.4,0,0,0,1.07-1.474,3.126,3.126,0,0,0,.169-1.1c0-.134-.033-.335-.033-.536V8.717a10.808,10.808,0,0,0-.269-2.542,4.013,4.013,0,0,0-.97-1.238c.5,0,.97.033,1.472.033" transform="translate(31.033 2.902)" fill="#fff"/>
      <path id="Path_45" data-name="Path 45" d="M68.014,4.135c5.587,0,9.334,3.714,9.334,9.334a9.08,9.08,0,0,1-3.312,7.094,9.619,9.619,0,0,1-6.525,2.073c-5.655,0-9.367-3.68-9.367-9.334,0-5.42,4.048-9.167,9.869-9.167m-6.358,9.334c.134,3.914,2.811,6.691,6.456,6.691,3.28,0,5.655-2.844,5.655-6.758,0-3.781-2.642-6.625-6.122-6.625s-5.989,2.677-5.989,6.458Z" transform="translate(38.906 2.767)" fill="#fff"/>
      <path id="Path_46" data-name="Path 46" d="M80.14,4.135c5.588,0,9.334,3.714,9.334,9.334a9.075,9.075,0,0,1-3.312,7.094,9.612,9.612,0,0,1-6.523,2.073c-5.655,0-9.369-3.68-9.369-9.334,0-5.42,4.048-9.167,9.869-9.167m-6.356,9.334c.134,3.914,2.809,6.691,6.458,6.691,3.276,0,5.653-2.844,5.653-6.758,0-3.781-2.642-6.625-6.122-6.625s-5.989,2.677-5.989,6.458Z" transform="translate(47.02 2.767)" fill="#fff"/>
      <path id="Path_47" data-name="Path 47" d="M111.143,3.748c5.675,0,9.479,3.769,9.479,9.477a9.217,9.217,0,0,1-3.365,7.2,9.745,9.745,0,0,1-6.623,2.106c-5.74,0-9.512-3.737-9.512-9.479,0-5.5,4.111-9.307,10.021-9.307m-6.454,9.477c.137,3.974,2.854,6.795,6.556,6.795,3.33,0,5.742-2.889,5.742-6.862,0-3.839-2.684-6.728-6.216-6.728s-6.082,2.719-6.082,6.558Z" transform="translate(67.662 2.508)" fill="#fff"/>
      <path id="Path_48" data-name="Path 48" d="M114.5,4.528a8.764,8.764,0,0,0,3.8-.679V15.6a4.277,4.277,0,0,0,.578,2.584,4.287,4.287,0,0,0,3.637,1.427,4.991,4.991,0,0,0,3.26-1.02c.748-.678,1.02-1.392,1.02-3.26V7.788c0-1.766-.135-2.208-1.188-3.26.339.033.678.033,1.018.033a8.426,8.426,0,0,0,3.535-.644V18.694a4.277,4.277,0,0,0,.169,1.664,2.371,2.371,0,0,0,.985,1.5H126.7V20.325a5.5,5.5,0,0,1-1.834,1.257,6.593,6.593,0,0,1-3.432.85c-4.315,0-6.523-2.377-6.523-7.032V7.958c0-1.968-.17-2.343-1.29-3.43Z" transform="translate(76.024 2.576)" fill="#fff"/>
      <path id="Path_49" data-name="Path 49" d="M125.864,4.63a10.547,10.547,0,0,0,4.009-.613V6.226c.441-.407.816-.746,1.153-1.018a7.013,7.013,0,0,1,4.248-1.257c4.109,0,6.49,2.31,6.49,6.318v9.14a4.632,4.632,0,0,0,.17.848,2.623,2.623,0,0,0,1.087,1.529h-5.979a2.38,2.38,0,0,0,1.053-1.494,4.054,4.054,0,0,0,.2-1.664V11.255c0-1.8-.169-2.582-.679-3.261A3.757,3.757,0,0,0,134.427,6.7a5.714,5.714,0,0,0-3.569,1.088c-.748.748-.95,1.392-.95,3.43l.032,7.408a6.211,6.211,0,0,0,.105.781,6.736,6.736,0,0,0,.134.848,2.469,2.469,0,0,0,.985,1.529h-5.842a2.253,2.253,0,0,0,.985-1.494,5.612,5.612,0,0,0,.169-1.631V8.06c0-2.071-.068-2.377-1.153-3.463.2,0,.374.033.542.033" transform="translate(83.855 2.644)" fill="#fff"/>
      <path id="Path_50" data-name="Path 50" d="M150.308,8.435a5.155,5.155,0,0,0-.509-.476,6.552,6.552,0,0,0-3.7-1.122c-3.295,0-5.6,2.617-5.6,6.353,0,3.874,2.888,6.593,7,6.593,2.275,0,4.857-.951,5.945-2.208l-2.617,4.143a10.419,10.419,0,0,1-3.839.644c-5.877,0-10.258-3.8-10.258-8.933,0-5.436,4.348-9.377,10.327-9.377a10.959,10.959,0,0,1,3.261.442Z" transform="translate(91.482 2.712)" fill="#fff"/>
      <path id="Path_51" data-name="Path 51" d="M147.745,22.742a3.1,3.1,0,0,0,.135-.881,2.722,2.722,0,0,0,.035-.679v-.1l-.035-10.464c0-2.378-.067-2.616-1.188-3.839a13.811,13.811,0,0,0,1.7.1,9.412,9.412,0,0,0,2.991-.646V21.86a3.022,3.022,0,0,0,.137.848,2.6,2.6,0,0,0,1.12,1.529H146.59a2.579,2.579,0,0,0,1.155-1.5M149.681.287a2.3,2.3,0,0,1-.17,4.587A2.25,2.25,0,0,1,147.3,2.665,2.364,2.364,0,0,1,149.681.287" transform="translate(98.086 0.192)" fill="#fff"/>
      <path id="Path_52" data-name="Path 52" d="M106.769,5.114c-.322-.224-.547-.352-.738-.481a9.618,9.618,0,0,0-5.106-1.285c-5.65,0-9.567,3.789-9.567,9.279a8.992,8.992,0,0,0,2.409,6.356,11.2,11.2,0,0,0,7.576,3.178,15.13,15.13,0,0,0,8.765-3.115l-2.632,5.138a33.768,33.768,0,0,1-5.939.546,17.405,17.405,0,0,1-5.972-.9A11.3,11.3,0,0,1,88.02,13.01a12.023,12.023,0,0,1,4.495-9.437C95.084,1.518,98.228.587,102.563.587a16.852,16.852,0,0,1,4.206.546Z" transform="translate(58.896 0.393)" fill="#fff"/>
      <path id="Path_53" data-name="Path 53" d="M152.216,23.548a3.453,3.453,0,0,0,.477-1.644v-.753L152.66,3.836a3.311,3.311,0,0,1,1.065-2.667A4.357,4.357,0,0,1,156.676,0a4.8,4.8,0,0,0-.661,2.9V21.151a7.675,7.675,0,0,0,.205,1.677,2.385,2.385,0,0,0,1.1,1.507h-5.924a3.686,3.686,0,0,0,.823-.788" transform="translate(101.3 0)" fill="#fff"/>
      <path id="Path_54" data-name="Path 54" d="M9.89,47.922c0,.1,0,.189-.008.264a1.175,1.175,0,0,1-.033.2.688.688,0,0,1-.062.15.744.744,0,0,1-.132.16,2.715,2.715,0,0,1-.394.287,4.832,4.832,0,0,1-.746.374,5.969,5.969,0,0,1-1.025.31,5.85,5.85,0,0,1-1.264.127A5.531,5.531,0,0,1,4.09,49.4a4.31,4.31,0,0,1-1.626-1.163,5.336,5.336,0,0,1-1.033-1.9,9.53,9.53,0,0,1,.028-5.3,5.832,5.832,0,0,1,1.093-2A4.708,4.708,0,0,1,4.24,37.767a5.354,5.354,0,0,1,2.175-.432,5.163,5.163,0,0,1,1.023.1,6.477,6.477,0,0,1,.921.249,4.231,4.231,0,0,1,.751.347,2.478,2.478,0,0,1,.456.325.933.933,0,0,1,.164.192.579.579,0,0,1,.062.155,1.469,1.469,0,0,1,.037.21,2.409,2.409,0,0,1,.015.29,2.172,2.172,0,0,1-.02.32.917.917,0,0,1-.055.222.332.332,0,0,1-.09.13.2.2,0,0,1-.129.042.7.7,0,0,1-.367-.182,5.576,5.576,0,0,0-.609-.4,5.048,5.048,0,0,0-.906-.406,3.97,3.97,0,0,0-1.28-.182,3.318,3.318,0,0,0-1.477.324,3.1,3.1,0,0,0-1.138.955,4.663,4.663,0,0,0-.733,1.534,8.441,8.441,0,0,0-.008,4.114,4.207,4.207,0,0,0,.718,1.486,2.988,2.988,0,0,0,1.147.9,3.72,3.72,0,0,0,1.539.305,4.078,4.078,0,0,0,1.27-.179,4.956,4.956,0,0,0,.926-.4c.254-.147.464-.28.628-.4a.746.746,0,0,1,.387-.18.209.209,0,0,1,.114.03.186.186,0,0,1,.075.107.964.964,0,0,1,.043.22c.008.1.013.214.013.357" transform="translate(0.715 24.982)" fill="#fff"/>
      <path id="Path_55" data-name="Path 55" d="M14.486,48.135a.2.2,0,0,1-.075.169.506.506,0,0,1-.207.085,1.865,1.865,0,0,1-.386.028,2.024,2.024,0,0,1-.389-.028.443.443,0,0,1-.212-.085.209.209,0,0,1-.065-.169v-.845a4.186,4.186,0,0,1-1.235.92,3.283,3.283,0,0,1-1.442.329,3.906,3.906,0,0,1-1.208-.174,2.616,2.616,0,0,1-.92-.5,2.243,2.243,0,0,1-.591-.808,2.657,2.657,0,0,1-.212-1.09,2.516,2.516,0,0,1,.29-1.238,2.447,2.447,0,0,1,.836-.875A4.092,4.092,0,0,1,10,43.332a8.23,8.23,0,0,1,1.776-.175h1.165V42.5a3.274,3.274,0,0,0-.1-.865,1.486,1.486,0,0,0-.334-.626,1.447,1.447,0,0,0-.6-.376,2.812,2.812,0,0,0-.9-.127,3.619,3.619,0,0,0-1.03.137,5.351,5.351,0,0,0-.8.3c-.229.108-.419.21-.573.3a.807.807,0,0,1-.344.137.226.226,0,0,1-.13-.038.3.3,0,0,1-.1-.112.541.541,0,0,1-.062-.192,1.567,1.567,0,0,1-.018-.26,1.665,1.665,0,0,1,.032-.371.538.538,0,0,1,.16-.259,2.062,2.062,0,0,1,.437-.287,4.8,4.8,0,0,1,.713-.3,6.481,6.481,0,0,1,.883-.227,5.384,5.384,0,0,1,.968-.088,5.054,5.054,0,0,1,1.551.207,2.494,2.494,0,0,1,1.033.606,2.355,2.355,0,0,1,.573.99,4.826,4.826,0,0,1,.179,1.38Zm-1.541-3.861H11.622a5.025,5.025,0,0,0-1.11.107,2.322,2.322,0,0,0-.779.32,1.314,1.314,0,0,0-.456.507,1.525,1.525,0,0,0-.145.681,1.369,1.369,0,0,0,.417,1.048,1.656,1.656,0,0,0,1.17.389,2.169,2.169,0,0,0,1.132-.309,4.877,4.877,0,0,0,1.095-.95Z" transform="translate(5.048 26.262)" fill="#fff"/>
      <path id="Path_56" data-name="Path 56" d="M18.408,48.361a2.112,2.112,0,0,1-.037.432.5.5,0,0,1-.113.234.7.7,0,0,1-.225.14,1.773,1.773,0,0,1-.344.108c-.129.028-.264.052-.407.072a3.441,3.441,0,0,1-.434.027A3.276,3.276,0,0,1,15.72,49.2a1.813,1.813,0,0,1-.769-.526,2.154,2.154,0,0,1-.437-.893,5.261,5.261,0,0,1-.137-1.272V41.57H13.193a.257.257,0,0,1-.225-.15,1.072,1.072,0,0,1-.085-.489,1.549,1.549,0,0,1,.025-.3.818.818,0,0,1,.06-.2.239.239,0,0,1,.1-.113.291.291,0,0,1,.137-.033h1.173v-2.01a.239.239,0,0,1,.033-.122.281.281,0,0,1,.122-.1.9.9,0,0,1,.24-.06,2.96,2.96,0,0,1,.376-.018,3.063,3.063,0,0,1,.386.018.8.8,0,0,1,.234.06.321.321,0,0,1,.124.1.227.227,0,0,1,.037.122v2.01H18.1a.258.258,0,0,1,.132.033.269.269,0,0,1,.1.113.645.645,0,0,1,.062.2,2.184,2.184,0,0,1,.018.3,1.05,1.05,0,0,1-.085.489.254.254,0,0,1-.225.15h-2.17v4.715a2.681,2.681,0,0,0,.259,1.32.976.976,0,0,0,.925.444,1.508,1.508,0,0,0,.386-.042c.112-.028.214-.057.3-.088s.162-.062.225-.088a.42.42,0,0,1,.17-.043.189.189,0,0,1,.088.023.154.154,0,0,1,.065.09,1.036,1.036,0,0,1,.043.179,1.866,1.866,0,0,1,.018.282" transform="translate(8.62 25.407)" fill="#fff"/>
      <path id="Path_57" data-name="Path 57" d="M24.977,43.532a.655.655,0,0,1-.185.522.642.642,0,0,1-.419.155H18.8a5.169,5.169,0,0,0,.142,1.267,2.441,2.441,0,0,0,.471.968,2.13,2.13,0,0,0,.86.621,3.433,3.433,0,0,0,1.294.214,5.36,5.36,0,0,0,1.077-.1,6.529,6.529,0,0,0,.816-.222c.23-.082.417-.155.566-.22a.939.939,0,0,1,.335-.1.223.223,0,0,1,.119.033.218.218,0,0,1,.08.1.652.652,0,0,1,.042.182,2.33,2.33,0,0,1,.015.287,1.942,1.942,0,0,1-.01.212c-.007.058-.013.112-.023.16a.442.442,0,0,1-.047.127.5.5,0,0,1-.085.107,1.3,1.3,0,0,1-.305.17,4.357,4.357,0,0,1-.658.23c-.269.073-.581.142-.935.2a6.951,6.951,0,0,1-1.132.087,5.258,5.258,0,0,1-1.828-.289,3.408,3.408,0,0,1-1.32-.865,3.746,3.746,0,0,1-.808-1.437,6.752,6.752,0,0,1-.272-2.01,6.354,6.354,0,0,1,.282-1.96,4.164,4.164,0,0,1,.813-1.475,3.543,3.543,0,0,1,1.282-.93,4.2,4.2,0,0,1,1.682-.324,4.057,4.057,0,0,1,1.7.319,3.193,3.193,0,0,1,1.15.86,3.475,3.475,0,0,1,.663,1.269,5.576,5.576,0,0,1,.212,1.554Zm-1.561-.461a2.816,2.816,0,0,0-.544-1.914,2.061,2.061,0,0,0-1.7-.7,2.256,2.256,0,0,0-1.011.215,2.185,2.185,0,0,0-.728.573,2.667,2.667,0,0,0-.454.831,3.457,3.457,0,0,0-.179.991Z" transform="translate(11.507 26.262)" fill="#fff"/>
      <path id="Path_58" data-name="Path 58" d="M28.384,40.225c0,.139,0,.254-.008.347a.9.9,0,0,1-.038.222.34.34,0,0,1-.07.122.158.158,0,0,1-.119.042.515.515,0,0,1-.182-.042c-.072-.03-.154-.057-.244-.085s-.194-.055-.307-.08a1.784,1.784,0,0,0-.366-.037,1.2,1.2,0,0,0-.461.093,1.779,1.779,0,0,0-.474.31,3.849,3.849,0,0,0-.521.573q-.273.358-.6.873v5.561a.213.213,0,0,1-.037.129.283.283,0,0,1-.122.087.782.782,0,0,1-.235.057,3.019,3.019,0,0,1-.386.02,2.921,2.921,0,0,1-.376-.02.821.821,0,0,1-.239-.057.247.247,0,0,1-.122-.087.224.224,0,0,1-.033-.129V39.671a.246.246,0,0,1,.028-.127.24.24,0,0,1,.112-.093.65.65,0,0,1,.217-.057,3.166,3.166,0,0,1,.347-.015,3.214,3.214,0,0,1,.342.015.56.56,0,0,1,.212.057.292.292,0,0,1,.108.093.231.231,0,0,1,.032.127V40.9a6.61,6.61,0,0,1,.654-.826,3.54,3.54,0,0,1,.578-.5,1.806,1.806,0,0,1,.539-.254,2.128,2.128,0,0,1,.541-.07c.082,0,.174.005.277.013a2.654,2.654,0,0,1,.324.052,2.837,2.837,0,0,1,.305.085.563.563,0,0,1,.192.1.243.243,0,0,1,.075.087.581.581,0,0,1,.033.11,1.105,1.105,0,0,1,.02.192c0,.085,0,.2,0,.342" transform="translate(15.686 26.262)" fill="#fff"/>
      <path id="Path_59" data-name="Path 59" d="M29.483,38.161a1.014,1.014,0,0,1-.207.741,1.106,1.106,0,0,1-.761.2,1.093,1.093,0,0,1-.746-.192,1,1,0,0,1-.2-.728,1.021,1.021,0,0,1,.207-.743,1.118,1.118,0,0,1,.761-.2,1.1,1.1,0,0,1,.746.192,1,1,0,0,1,.2.729M29.3,49.471a.208.208,0,0,1-.037.127.3.3,0,0,1-.124.088.807.807,0,0,1-.234.057,3.018,3.018,0,0,1-.386.02,2.92,2.92,0,0,1-.376-.02.878.878,0,0,1-.239-.057.254.254,0,0,1-.124-.088.231.231,0,0,1-.032-.127V41.017a.243.243,0,0,1,.032-.124.238.238,0,0,1,.124-.092.872.872,0,0,1,.239-.058,3.308,3.308,0,0,1,.376-.018,3.416,3.416,0,0,1,.386.018.8.8,0,0,1,.234.058.279.279,0,0,1,.124.092.219.219,0,0,1,.037.124Z" transform="translate(18.446 24.918)" fill="#fff"/>
      <path id="Path_60" data-name="Path 60" d="M37.755,48.126a.208.208,0,0,1-.037.127.292.292,0,0,1-.124.088.808.808,0,0,1-.234.057,2.92,2.92,0,0,1-.376.02,3.018,3.018,0,0,1-.386-.02.836.836,0,0,1-.235-.057.285.285,0,0,1-.122-.088.208.208,0,0,1-.037-.127V43.176a4.871,4.871,0,0,0-.114-1.165,2.4,2.4,0,0,0-.329-.761,1.42,1.42,0,0,0-.559-.487,1.76,1.76,0,0,0-.793-.17A2,2,0,0,0,33.247,41a6.342,6.342,0,0,0-1.222,1.213v5.909a.2.2,0,0,1-.038.127.285.285,0,0,1-.122.088.822.822,0,0,1-.234.057,3.018,3.018,0,0,1-.386.02,2.92,2.92,0,0,1-.376-.02.909.909,0,0,1-.24-.057.257.257,0,0,1-.122-.088.231.231,0,0,1-.032-.127V39.672a.271.271,0,0,1,.027-.129.253.253,0,0,1,.113-.092.579.579,0,0,1,.217-.057,3.163,3.163,0,0,1,.347-.015,3.234,3.234,0,0,1,.342.015.52.52,0,0,1,.212.057.319.319,0,0,1,.108.092.253.253,0,0,1,.032.129v1.117a5.2,5.2,0,0,1,1.424-1.17,3.079,3.079,0,0,1,1.432-.369,3.151,3.151,0,0,1,1.424.287,2.557,2.557,0,0,1,.935.764,3.07,3.07,0,0,1,.511,1.122,6.677,6.677,0,0,1,.155,1.546Z" transform="translate(20.392 26.263)" fill="#fff"/>
      <path id="Path_61" data-name="Path 61" d="M44.179,40.049a.93.93,0,0,1-.09.474.261.261,0,0,1-.23.147h-1.21a1.894,1.894,0,0,1,.459.746,2.732,2.732,0,0,1,.132.85,3.373,3.373,0,0,1-.234,1.3,2.623,2.623,0,0,1-.673.955,3.047,3.047,0,0,1-1.038.6,4.109,4.109,0,0,1-1.334.207,3.447,3.447,0,0,1-.983-.137,2.084,2.084,0,0,1-.718-.342,1.444,1.444,0,0,0-.277.386,1.094,1.094,0,0,0-.108.5.65.65,0,0,0,.305.547,1.493,1.493,0,0,0,.813.234L41.2,46.6a4.672,4.672,0,0,1,1.157.174,2.9,2.9,0,0,1,.911.442,2.015,2.015,0,0,1,.6.7,2.073,2.073,0,0,1,.217.971,2.542,2.542,0,0,1-.991,2.035,3.77,3.77,0,0,1-1.282.629,6.609,6.609,0,0,1-1.841.23,7.564,7.564,0,0,1-1.744-.174,3.82,3.82,0,0,1-1.178-.474,1.856,1.856,0,0,1-.668-.719,2.028,2.028,0,0,1-.205-.906,2.39,2.39,0,0,1,.075-.6,2.17,2.17,0,0,1,.229-.554,2.761,2.761,0,0,1,.386-.5,4.841,4.841,0,0,1,.531-.474,1.665,1.665,0,0,1-.681-.593,1.441,1.441,0,0,1-.22-.771,2.18,2.18,0,0,1,.235-1.023,3.359,3.359,0,0,1,.583-.808,2.714,2.714,0,0,1-.461-.784,2.921,2.921,0,0,1-.17-1.057,3.267,3.267,0,0,1,.245-1.3,2.736,2.736,0,0,1,.676-.966,2.932,2.932,0,0,1,1.038-.608,3.961,3.961,0,0,1,1.32-.212,5.662,5.662,0,0,1,.718.043,5.066,5.066,0,0,1,.624.117h2.555a.257.257,0,0,1,.24.155,1.077,1.077,0,0,1,.08.474m-1.644,8.925a.948.948,0,0,0-.446-.84,2.264,2.264,0,0,0-1.207-.315l-2.19-.077a3.969,3.969,0,0,0-.492.447,2.294,2.294,0,0,0-.305.4,1.346,1.346,0,0,0-.155.381,1.739,1.739,0,0,0-.043.386,1,1,0,0,0,.621.925,3.879,3.879,0,0,0,1.729.314,4.374,4.374,0,0,0,1.178-.135,2.273,2.273,0,0,0,.766-.362,1.321,1.321,0,0,0,.417-.516,1.529,1.529,0,0,0,.127-.611m-.779-6.7a1.844,1.844,0,0,0-.476-1.349,1.8,1.8,0,0,0-1.347-.484,1.9,1.9,0,0,0-.784.152,1.551,1.551,0,0,0-.554.412,1.771,1.771,0,0,0-.329.608,2.372,2.372,0,0,0-.108.718,1.652,1.652,0,0,0,1.8,1.794,1.985,1.985,0,0,0,.8-.147,1.468,1.468,0,0,0,.559-.4,1.674,1.674,0,0,0,.329-.6,2.31,2.31,0,0,0,.108-.7" transform="translate(24.206 26.27)" fill="#fff"/>
      <path id="Path_62" data-name="Path 62" d="M52.235,46.243a3.515,3.515,0,0,1-.314,1.522,3.29,3.29,0,0,1-.875,1.132,3.808,3.808,0,0,1-1.315.7,5.452,5.452,0,0,1-1.629.234,5.858,5.858,0,0,1-1.132-.1,6.292,6.292,0,0,1-.93-.252,4.6,4.6,0,0,1-.688-.312,1.791,1.791,0,0,1-.384-.272.7.7,0,0,1-.16-.287,1.654,1.654,0,0,1-.052-.464,2.737,2.737,0,0,1,.018-.342.87.87,0,0,1,.057-.222.245.245,0,0,1,.1-.117.252.252,0,0,1,.13-.033.757.757,0,0,1,.371.16,5.891,5.891,0,0,0,1.522.7,4.136,4.136,0,0,0,1.227.164,3.094,3.094,0,0,0,.963-.14,2.244,2.244,0,0,0,.751-.4,1.713,1.713,0,0,0,.484-.634,2.079,2.079,0,0,0,.169-.856,1.6,1.6,0,0,0-.235-.881,2.382,2.382,0,0,0-.619-.644,5.411,5.411,0,0,0-.878-.506l-1.01-.471a10.676,10.676,0,0,1-1-.531,4.2,4.2,0,0,1-.875-.686,3.144,3.144,0,0,1-.624-.925,3.072,3.072,0,0,1-.24-1.272,3.177,3.177,0,0,1,.277-1.359,2.822,2.822,0,0,1,.771-1,3.43,3.43,0,0,1,1.173-.614,4.909,4.909,0,0,1,1.47-.212,4.8,4.8,0,0,1,.813.07,5.7,5.7,0,0,1,.769.189,4.165,4.165,0,0,1,.644.264,1.574,1.574,0,0,1,.371.234.814.814,0,0,1,.119.14.616.616,0,0,1,.047.134,1.3,1.3,0,0,1,.027.192c.007.075.01.172.01.292s-.005.214-.013.3a1.257,1.257,0,0,1-.042.222.281.281,0,0,1-.08.13.175.175,0,0,1-.117.043.768.768,0,0,1-.325-.132c-.147-.087-.327-.187-.541-.3a4.569,4.569,0,0,0-.756-.3,3.251,3.251,0,0,0-.981-.137,2.576,2.576,0,0,0-.883.137,1.765,1.765,0,0,0-.619.362,1.425,1.425,0,0,0-.367.534,1.77,1.77,0,0,0-.122.658,1.573,1.573,0,0,0,.235.873,2.346,2.346,0,0,0,.624.649,5.543,5.543,0,0,0,.888.516c.332.157.669.315,1.015.476s.683.335,1.015.526a4.19,4.19,0,0,1,.886.676,3.058,3.058,0,0,1,.629.921,3.015,3.015,0,0,1,.24,1.254" transform="translate(29.948 24.97)" fill="#fff"/>
      <path id="Path_63" data-name="Path 63" d="M58.176,43.532a.655.655,0,0,1-.185.522.641.641,0,0,1-.419.155H52a5.169,5.169,0,0,0,.142,1.267,2.441,2.441,0,0,0,.471.968,2.13,2.13,0,0,0,.86.621,3.433,3.433,0,0,0,1.294.214,5.36,5.36,0,0,0,1.077-.1,6.529,6.529,0,0,0,.816-.222c.23-.082.417-.155.566-.22a.939.939,0,0,1,.335-.1.222.222,0,0,1,.119.033.218.218,0,0,1,.08.1.652.652,0,0,1,.042.182,2.331,2.331,0,0,1,.015.287,1.944,1.944,0,0,1-.01.212c-.007.058-.013.112-.023.16a.443.443,0,0,1-.047.127.5.5,0,0,1-.085.107,1.3,1.3,0,0,1-.305.17,4.358,4.358,0,0,1-.658.23c-.269.073-.581.142-.935.2a6.951,6.951,0,0,1-1.132.087,5.258,5.258,0,0,1-1.828-.289,3.408,3.408,0,0,1-1.32-.865,3.746,3.746,0,0,1-.808-1.437,6.752,6.752,0,0,1-.272-2.01,6.354,6.354,0,0,1,.282-1.96,4.164,4.164,0,0,1,.813-1.475,3.543,3.543,0,0,1,1.282-.93,4.2,4.2,0,0,1,1.682-.324,4.057,4.057,0,0,1,1.7.319,3.193,3.193,0,0,1,1.15.86,3.475,3.475,0,0,1,.663,1.269,5.575,5.575,0,0,1,.212,1.554Zm-1.561-.461a2.816,2.816,0,0,0-.544-1.914,2.061,2.061,0,0,0-1.7-.7,2.256,2.256,0,0,0-1.011.215,2.185,2.185,0,0,0-.728.573,2.667,2.667,0,0,0-.454.831,3.458,3.458,0,0,0-.179.991Z" transform="translate(33.721 26.262)" fill="#fff"/>
      <path id="Path_64" data-name="Path 64" d="M61.583,40.225c0,.139,0,.254-.008.347a.9.9,0,0,1-.038.222.34.34,0,0,1-.07.122.158.158,0,0,1-.119.042.515.515,0,0,1-.182-.042c-.072-.03-.154-.057-.244-.085s-.194-.055-.307-.08a1.784,1.784,0,0,0-.366-.037,1.2,1.2,0,0,0-.461.093,1.779,1.779,0,0,0-.474.31,3.85,3.85,0,0,0-.521.573q-.273.358-.6.873v5.561a.213.213,0,0,1-.037.129.283.283,0,0,1-.122.087.782.782,0,0,1-.235.057,3.019,3.019,0,0,1-.386.02,2.921,2.921,0,0,1-.376-.02.821.821,0,0,1-.239-.057.247.247,0,0,1-.122-.087.224.224,0,0,1-.033-.129V39.671a.246.246,0,0,1,.028-.127.24.24,0,0,1,.112-.093A.65.65,0,0,1,57,39.394a3.166,3.166,0,0,1,.347-.015,3.214,3.214,0,0,1,.342.015.56.56,0,0,1,.212.057.292.292,0,0,1,.108.093.231.231,0,0,1,.032.127V40.9a6.61,6.61,0,0,1,.654-.826,3.541,3.541,0,0,1,.578-.5,1.806,1.806,0,0,1,.539-.254,2.128,2.128,0,0,1,.541-.07c.082,0,.174.005.277.013a2.654,2.654,0,0,1,.324.052,2.837,2.837,0,0,1,.305.085.563.563,0,0,1,.192.1.243.243,0,0,1,.075.087.58.58,0,0,1,.033.11,1.1,1.1,0,0,1,.02.192c0,.085,0,.2,0,.342" transform="translate(37.9 26.262)" fill="#fff"/>
      <path id="Path_65" data-name="Path 65" d="M68.594,39.6a.709.709,0,0,1,0,.08c0,.027-.008.057-.013.088l-.023.1c-.01.038-.022.078-.033.122l-2.884,8.032a.5.5,0,0,1-.1.169.394.394,0,0,1-.184.1,1.374,1.374,0,0,1-.309.052c-.127.01-.282.015-.471.015a4.556,4.556,0,0,1-.469-.02,1.473,1.473,0,0,1-.305-.057.448.448,0,0,1-.184-.1.482.482,0,0,1-.1-.16l-2.874-8.032c-.025-.075-.045-.142-.062-.2a.752.752,0,0,1-.027-.127.647.647,0,0,1-.005-.07.23.23,0,0,1,.037-.132.252.252,0,0,1,.127-.09.893.893,0,0,1,.235-.042c.1-.007.217-.01.362-.01.18,0,.327.005.436.015a.827.827,0,0,1,.254.052.3.3,0,0,1,.132.093.65.65,0,0,1,.08.142L64.593,46.6l.037.114.028-.114,2.358-6.969a.3.3,0,0,1,.065-.142.348.348,0,0,1,.135-.093.823.823,0,0,1,.245-.052c.1-.01.239-.015.407-.015.145,0,.264,0,.357.01a.641.641,0,0,1,.222.047.261.261,0,0,1,.112.09.231.231,0,0,1,.033.127" transform="translate(40.511 26.315)" fill="#fff"/>
      <path id="Path_66" data-name="Path 66" d="M68.453,38.161a1.014,1.014,0,0,1-.207.741,1.106,1.106,0,0,1-.761.2,1.093,1.093,0,0,1-.746-.192,1,1,0,0,1-.2-.728,1.021,1.021,0,0,1,.207-.743,1.118,1.118,0,0,1,.761-.2,1.1,1.1,0,0,1,.746.192,1,1,0,0,1,.2.729m-.179,11.31a.208.208,0,0,1-.037.127.3.3,0,0,1-.124.088.807.807,0,0,1-.234.057,3.018,3.018,0,0,1-.386.02,2.92,2.92,0,0,1-.376-.02.878.878,0,0,1-.239-.057.254.254,0,0,1-.124-.088.231.231,0,0,1-.032-.127V41.017a.243.243,0,0,1,.032-.124.238.238,0,0,1,.124-.092.872.872,0,0,1,.239-.058,3.308,3.308,0,0,1,.376-.018,3.416,3.416,0,0,1,.386.018.8.8,0,0,1,.234.058.279.279,0,0,1,.124.092.219.219,0,0,1,.037.124Z" transform="translate(44.521 24.918)" fill="#fff"/>
      <path id="Path_67" data-name="Path 67" d="M75.807,46.834c0,.107,0,.2-.01.277a1.215,1.215,0,0,1-.032.2.7.7,0,0,1-.058.142.806.806,0,0,1-.149.179,2.409,2.409,0,0,1-.4.29,3.738,3.738,0,0,1-.634.31,4.738,4.738,0,0,1-.766.222,4.339,4.339,0,0,1-.855.083,4.084,4.084,0,0,1-1.616-.3,3.046,3.046,0,0,1-1.18-.88,3.971,3.971,0,0,1-.723-1.417A6.881,6.881,0,0,1,69.137,44a6.686,6.686,0,0,1,.305-2.146,4.031,4.031,0,0,1,.836-1.47,3.277,3.277,0,0,1,1.25-.85,4.269,4.269,0,0,1,1.554-.277,4.048,4.048,0,0,1,.785.075,4.1,4.1,0,0,1,.7.2,3.119,3.119,0,0,1,.569.282,2.2,2.2,0,0,1,.361.272,1.168,1.168,0,0,1,.155.179.621.621,0,0,1,.07.154.988.988,0,0,1,.038.2c.007.075.01.17.01.282a1.114,1.114,0,0,1-.085.512.24.24,0,0,1-.207.145.525.525,0,0,1-.324-.155,5.34,5.34,0,0,0-.466-.342,3.5,3.5,0,0,0-.681-.342,2.564,2.564,0,0,0-.945-.155,1.954,1.954,0,0,0-1.713.86,4.35,4.35,0,0,0-.6,2.494,5.9,5.9,0,0,0,.155,1.432,2.969,2.969,0,0,0,.456,1.03,1.862,1.862,0,0,0,.738.614,2.346,2.346,0,0,0,1,.2,2.4,2.4,0,0,0,.94-.169,3.957,3.957,0,0,0,.7-.371c.2-.135.364-.259.5-.367a.583.583,0,0,1,.314-.165.176.176,0,0,1,.113.038.286.286,0,0,1,.078.127.915.915,0,0,1,.047.227,2.961,2.961,0,0,1,.015.322" transform="translate(46.261 26.267)" fill="#fff"/>
      <path id="Path_68" data-name="Path 68" d="M82.015,43.532a.655.655,0,0,1-.185.522.643.643,0,0,1-.421.155H75.841a5.251,5.251,0,0,0,.142,1.267,2.466,2.466,0,0,0,.472.968,2.118,2.118,0,0,0,.86.621,3.433,3.433,0,0,0,1.294.214,5.332,5.332,0,0,0,1.075-.1,6.372,6.372,0,0,0,.816-.222c.23-.082.419-.155.568-.22a.933.933,0,0,1,.334-.1.228.228,0,0,1,.12.033.218.218,0,0,1,.08.1.8.8,0,0,1,.042.182,2.328,2.328,0,0,1,.015.287,1.944,1.944,0,0,1-.01.212q-.01.088-.025.16a.4.4,0,0,1-.045.127.557.557,0,0,1-.085.107,1.323,1.323,0,0,1-.307.17,4.329,4.329,0,0,1-.656.23c-.269.073-.581.142-.935.2a6.965,6.965,0,0,1-1.132.087,5.258,5.258,0,0,1-1.828-.289,3.4,3.4,0,0,1-1.32-.865,3.724,3.724,0,0,1-.808-1.437,6.7,6.7,0,0,1-.272-2.01,6.3,6.3,0,0,1,.282-1.96A4.164,4.164,0,0,1,75.33,40.5a3.529,3.529,0,0,1,1.282-.93,4.187,4.187,0,0,1,1.681-.324,4.065,4.065,0,0,1,1.7.319,3.207,3.207,0,0,1,1.15.86A3.475,3.475,0,0,1,81.8,41.7a5.575,5.575,0,0,1,.212,1.554Zm-1.561-.461a2.824,2.824,0,0,0-.544-1.914,2.061,2.061,0,0,0-1.7-.7,2.256,2.256,0,0,0-1.011.215,2.185,2.185,0,0,0-.728.573,2.634,2.634,0,0,0-.454.831,3.517,3.517,0,0,0-.18.991Z" transform="translate(49.672 26.262)" fill="#fff"/>
      <path id="Path_69" data-name="Path 69" d="M86.047,45.825a2.667,2.667,0,0,1-.24,1.155,2.325,2.325,0,0,1-.681.855,3.068,3.068,0,0,1-1.052.527,4.791,4.791,0,0,1-1.342.177,5.1,5.1,0,0,1-.861-.07,4.947,4.947,0,0,1-.731-.177,3.555,3.555,0,0,1-.551-.227,1.713,1.713,0,0,1-.329-.21.55.55,0,0,1-.15-.264,2.272,2.272,0,0,1-.027-.759,1.012,1.012,0,0,1,.045-.2.221.221,0,0,1,.08-.108.217.217,0,0,1,.117-.033.672.672,0,0,1,.307.129c.134.083.3.177.5.277a4.792,4.792,0,0,0,.7.277,3.127,3.127,0,0,0,.928.127,2.852,2.852,0,0,0,.714-.085,1.757,1.757,0,0,0,.554-.249,1.131,1.131,0,0,0,.362-.417,1.331,1.331,0,0,0,.127-.6.978.978,0,0,0-.184-.6,1.764,1.764,0,0,0-.482-.432,4.2,4.2,0,0,0-.678-.334q-.376-.145-.776-.305a7.145,7.145,0,0,1-.778-.362,2.961,2.961,0,0,1-.683-.491,2.3,2.3,0,0,1-.484-.7,2.342,2.342,0,0,1-.182-.968,2.419,2.419,0,0,1,.192-.953,2.216,2.216,0,0,1,.578-.8A2.866,2.866,0,0,1,82,39.457a4.386,4.386,0,0,1,2.025-.152,4.465,4.465,0,0,1,.611.142,2.95,2.95,0,0,1,.466.182,1.842,1.842,0,0,1,.29.175.508.508,0,0,1,.132.13.443.443,0,0,1,.047.127,1.546,1.546,0,0,1,.027.174,1.8,1.8,0,0,1,.015.254,2.215,2.215,0,0,1-.015.277.613.613,0,0,1-.045.194.264.264,0,0,1-.08.107.182.182,0,0,1-.1.033.542.542,0,0,1-.245-.1,2.915,2.915,0,0,0-.412-.22,4.526,4.526,0,0,0-.6-.22,2.737,2.737,0,0,0-.784-.105,2.488,2.488,0,0,0-.7.09,1.344,1.344,0,0,0-.492.254,1.074,1.074,0,0,0-.292.391,1.213,1.213,0,0,0-.1.489,1,1,0,0,0,.189.614,1.828,1.828,0,0,0,.487.437,4.3,4.3,0,0,0,.686.339q.386.148.784.309c.267.107.529.225.789.357a2.914,2.914,0,0,1,.691.479,2.178,2.178,0,0,1,.484.678,2.208,2.208,0,0,1,.182.938" transform="translate(53.572 26.263)" fill="#fff"/>
    </g>
  </g>
</svg>
