<?xml version="1.0" encoding="utf-8"?>
<!-- Generator: Adobe Illustrator 19.1.0, SVG Export Plug-In . SVG Version: 6.00 Build 0)  -->
<!DOCTYPE svg PUBLIC "-//W3C//DTD SVG 1.1//EN" "http://www.w3.org/Graphics/SVG/1.1/DTD/svg11.dtd">
<svg version="1.1" id="Layer_1" xmlns="http://www.w3.org/2000/svg" xmlns:xlink="http://www.w3.org/1999/xlink" x="0px" y="0px"
	 viewBox="0 0 59.6 59.3" style="enable-background:new 0 0 59.6 59.3;" xml:space="preserve">
<style type="text/css">
	.st0{fill:#0C1D2C;}
</style>
<path class="st0" d="M59.3,51.4L43.5,35.5c-0.4-0.4-0.9-0.4-1.3-0.1c2.4-3.6,3.8-7.9,3.8-12.6C45.9,10.3,35.6,0,22.9,0
	S0,10.3,0,22.9c0,12.6,10.3,22.9,22.9,22.9c4.7,0,9.1-1.4,12.7-3.9c-0.1,0.1-0.1,0.3-0.1,0.5c0,0.3,0.1,0.5,0.3,0.7L51.7,59
	c0.2,0.2,0.4,0.3,0.7,0.3h0.4c3.8,0,6.8-3.1,6.8-6.8v-0.4C59.6,51.8,59.5,51.6,59.3,51.4z M22.9,41.9c-10.5,0-19-8.5-19-19
	s8.5-19,19-19c10.4,0,19,8.5,19,19S33.4,41.9,22.9,41.9z"/>
</svg>
